<svg id="Layer_1_copy" data-name="Layer 1 copy" xmlns="http://www.w3.org/2000/svg" viewBox="0 0 2660 1536"><defs><style>.cls-1{fill:#ffcb05;}.cls-2{fill:#3a4a9f;}.cls-3{fill:#92278f;}.cls-4{fill:#ffe313;}.cls-5{fill:#00a651;}.cls-6{fill:#ed1c24;}</style></defs><title>colorfunbg</title><path class="cls-1" d="M712.44,728.65c-6.94,6.21-16,10.09-19.33,20.19-1.57,4.78-.86,7.36,3,9.84,7.6,4.89,8.1,9.41,1.14,16.26-12.18,12-.88,19,7,26.4a17.48,17.48,0,0,0,2.11,1.33c.65.44,1.25,1,2.4,1.83-1.31.59-2.12,1.3-2.86,1.23-3.41-.33-8.07-5.33-9.85-.05-1.68,5,4.9,6,8.28,7.54,13.53,6.33,24.28,13.83,26,30.9,1,9.53,14.6,11.07,18.17,20.24a35.51,35.51,0,0,0,2,3.56c-5.4,2.52-7-2-10-4.2-27.68-20.24-55.72-39.43-91.49-43.13-17.24-1.78-34.07-7.49-51.31-9.24-25.19-2.55-50.25-1.21-74.45,8.18-8.37,3.24-17.28,6-26.93,3.46-8.16-2.15-8.37,7-12.42,10.67-13,11.73-28.93,20.35-39.15,35-6.42,9.2-4.21,20.18-4.79,30.8-1,18.29,7.08,35,6.79,53.1-.15,9,5.05,18.17.53,27.25-2.43,4.86-5.26,9.78-12.29,9.34-6.62-.42-6.74-5.93-7.6-9.9-4-18.26-9.87-36.63-10-55-.06-10.38-5.79-18.69-5-28.61.2-2.54,1.31-7.32-2.81-8.19-5.39-1.13-10.85-.67-15.16,3.92-9.68,10.31-18.08,21.94-27.74,32-13.53,14-25.92,29.2-39.68,43.08-8.83,8.9-22.84,15.86-23.44,31.91-.2,5.24-6.55,6.48-10.18,9.5-14.86,12.37-22.77,29.42-32.37,45.75-7.27,12.37-11.45,23.8-10.9,37.65.1,2.42-2.8,3.41-4.54,2-10.29-8.3-21.37-9-34.62-9.54-18.26-.79-35.92-1-53.32,3.81-24.25,6.76-49.63,6.13-74,13.66-23.12,7.15-47.73,9.44-71.57,14.4-4,.84-7.64,3.71-12.14,2.44V943c5.29.2,10.91,1,13-6.51-1.63,0-2.63.08-3.6,0s-1.83-.38-3.65-.79C19.36,925.59,30.62,915,26.39,896.51l.68.23c-.22-.09-.45-.16-.67-.23C18,892,9.8,887,0,886V773c7.39.88,11.86,9.78,20.44,7.42,1.3,1.93,2.58,3.88,3.86,5.83,1.82-5.63-.46-6.46-4-5.76-2.94-4.16,1.31-11.06-5.35-13.34,4.42-6.14,6.1-13.28,10.78-18.28L0,761V651c7.75-2.71,15.56-5.26,23.24-8.18,8.35-3.17,8-8.1,4.34-15.6-4.78-9.83-7.74-20.52-18.89-25.09l4.87-4.45c-1.54-1.36-2.89-3.42-4.68-3.92C6.08,593,3,593.2,0,593V417c18.28,7.58,38.29,7.92,57.3,12.3,17,3.92,34.22,8.92,51.78,11.21,5.32.7,10.65,3.75,15.74,3.27,16.5-1.57,31.4,5.37,47.14,7.44,13.45,1.76,27.58-.26,40.48.93,14,1.3,23.37-4.06,34.36-8.6,3.08-1.28,4.36,1.17,4.18,3.81-1.31,19.29,10.8,33.12,18.78,48.92s20.79,26.19,32.39,38.48c6.29,6.66,9.34,17.36,17.14,24.63,11.22,10.46,21.46,22,31.71,33.47,15.32,17.13,30.19,34.66,45.48,51.82,3.37,3.78,8.94,4.6,13.29,3.76,4.55-.87,2.55-6.37,3.49-9.88,2.58-9.69,5-19.23,6-29.35,1.82-18.07,3.34-36.37,10.37-53.51,1.48-3.63-1.58-9.7,6-9.88,8.38-.19,12,6,13.07,11.95,3.4,18.37-2.67,36.24-4.65,54.34-2.34,21.55-11.27,44.22,8.12,62.59,10,9.42,23.64,15.7,31.35,26.47,11.82,16.52,29.66,8.82,43.94,14.65A123.38,123.38,0,0,0,570,724.54c18.44.61,35.93-2.52,53.71-5.53,21.44-3.63,43.27-5.87,63.54-14.26,20.85-8.64,39.25-21.43,56.58-35.81,2.57-2.12,5.87-3.37,9.27-5.27-4.12,12.52-19.27,17-21.48,28.06-2.36,11.89-7.86,19.51-16.84,25.78-3.28,2.29-7.35,3.41-11,5.14-2.43,1.15-6.62,1.72-5.37,5.22,1.3,3.67,4.93,2.55,8.1,1.34,1.79-.68,3.94-.39,5.93-.53ZM706,824.07c-.49-.79-1-1.59-.16-.25-1.46-.64-.59-.26.29.12-.55,8.1,7.88,4.59,10.76,8.25C715.37,826.67,711.82,823.84,706,824.07Zm12.38-121.55c-5.1,2.16-10.79,3.49-14.24,10.31,6.49-2.59,13-2.76,14.15-10.45.71-1,1.43-1.92.15-.21C718.8,700.12,718.59,701.32,718.37,702.52Zm-479.64,94.2.07.1L273.41,767l-33.49-28.22c1.4-2.64,7.74,1.35,5.72-3.44-1.72-4.07-3.25-10.59-10-10.17-4.83.3-.34,3.85-2.16,7-9.49-9.24-20.69-4.93-31.74-4.85-7.33.06-12.22,2.29-10.88,9,3.74,18.69,2.3,37-.86,55.45-1.37,8-1.82,16.57,9,17.34,11.84.85,24.33,3.44,37.65-8.58L230,811c9.28,1.7,11.67-5.21,14.07-10.32C246.2,796.16,240.85,797.74,238.73,796.72ZM95.06,747.56c3.51-13.06,3.92-23.38,2.41-33.82-.33-2.27-.61-4.66-2.84-4-11.09,3-20.08,9.59-30.91,20.2C83.79,721.49,91.6,730.71,95.06,747.56ZM63,805.77C71.2,819.23,83.92,821.19,94.88,827c1-12.3,3-24.1-2-37.33C89.65,806.69,81.22,815.35,63,805.77Zm621.27-39.23c-5.56-6.43-12.67-7.93-19.56-4.22-2.12,1.15-2.79,10.5-1.91,10.88C671.12,776.74,678,773,684.26,766.54Zm-620.2.77c-1.1-.85-1.72-1.67-2.44-1.76-.51-.07-1.69,1-1.62,1.28.17.79.8,1.87,1.44,2S62.85,768.08,64.06,767.31Zm32.45,14L95,780.52l-1.5,3,1.42.72Zm-.14-28.34c-.21.19-.56.35-.59.56s.24.48.38.73l.85-.69C96.81,753.33,96.6,753.13,96.37,752.93Zm623.3,81.81ZM34.26,744.38c-.24-.13-.52-.41-.72-.36s-.4.39-.59.6l1,.59C34,744.94,34.15,744.68,34.26,744.38Zm-.11,45.43,0-.84-1.11.16c.1.27.12.66.31.78S33.85,789.87,34.15,789.81Zm23.3-59.29c-.21.25-.55.49-.54.71a.79.79,0,0,0,.58.59.81.81,0,0,0,.6-.56C58.09,731,57.73,730.82,57.45,730.52Z"/><path class="cls-2" d="M119,1536l15-12.25c4.32-3.52,10.35-5.33,10-12.93-.14-3.29,2.55-5.93,7-5.17,7.3,1.25,10.66-9.28,18.61-6.46.14-1.4.92-3.3.29-4.08-1.08-1.37-3-2.78-4.61-2.87-5-.28-9.21,2.34-13.35,4.94-2.11,1.32-4.7,2.49-6.78,0a4.63,4.63,0,0,1,.8-6.78c16.19-11.67,30.38-26.16,50.61-32.07,6.56-1.92,13.87-8.36,14.75-16.75.7-6.61-6.32-5.21-10.33-6.77a7.25,7.25,0,0,1-3.14-2.22c-1.32-1.83,7.61-23.14,9.84-23.85,6.69-2.11,10.85-20.54,6-26.46-13.58-16.69-31.74-26.5-51.82-32.26-7.27-2.09-9.62-7.87-15.45-11.84,5-1.16,14.7,8.18,12.31-5.49-1.54-8.87-10.53-11.36-15.84-9.9-6.36,1.75-17.9,3.23-14.23,16.08,1,3.41,4,8.4.64,10.64-4.16,2.76-7.34-2.07-10.27-4.9-1.74-1.68-3.47-2.54-5.74-1-3.3,2.23-3.77,5.28-2.65,8.8,2.15,6.78-.6,11.5-7,13.06-10.14,2.47-13,8.78-11.42,18.2a35.07,35.07,0,0,1-7.66,29c-8.75,10.66-.9,20.42.3,30.58,1,8.62-1.35,18.71-8.45,20.89-7.88,2.43-16.68-2.85-19.17-13-1.19-4.84-2.39-9.68-3.52-14.53-.76-3.25-1.94-5.64-6.07-4.75-8.42,1.82-25.9-11.59-26.37-20.35-.21-3.83,2.71-4.81,6-5.33,25.86-4.13,31.16-13.79,28.48-39.38-1.06-10,7.34-20.85,10.56-31.58,5.23-17.41,10.82-34.72,20-50.45,6.55-11.26,12.62-24.08,29.07-23.72,5.3.12,3.51-5.79,6.38-7.86,12.6-9.1,24.79-12.32,40.48-4.89,12.83,6.08,28.39,6.11,41.89,11.1,16.23,6,33.33,10.66,47.26,21.83,2.22,1.78,4.47,2.1,6.9.57s2.8-3.55,2.07-6.08c-3.11-10.87-1.49-18.45,8.54-26.9,8.21-6.91,12.8-19.81,15.72-30.91,4.16-15.79,14.81-30.74,8.26-48,23.66,15.73,50.76,16.36,77.35,19,1.9.19,4.39.18,5.75-.86,10-7.66,17.53-2.14,24.89,4.43,2.1,1.88,4.21,4.76,7.19,2.87,1.78-1.12,3.85-4.29,3.44-6-4.54-18.64,2.51-36.33,4.84-54.23,2.29-17.62,7.11-35.18,13.11-52,4-11.28,12.27-19.9,26.9-20.1,4.43-.06,8.17-8.62,13.27-10.69,18.33-7.44,37.4-4.22,56.14-1.48,17.58,2.57,34.93,6.68,52.54,8.92,7,.89,9,6.78,13.59,9.94,14.2,9.88,22.75-1,33.33-6.67,4.56-2.46,8.21-14,13.32-6.76,5.86,8.37,15.09,18.58,5.12,31.54-6.22,8.09,5,10.31,8.37,13.76,7.18,7.27,10.86,14.6,6.67,23.89-3.86,8.55-11.75,4.34-17.94,3.33-3.2-.52-7.31-2.65-8.79-5.3-9-16.07-24.77-12.5-38.86-14.86-6.35-1.07-12.3-5.51-18-9.07-6.51-4-11.72-2.5-16.49,2.51-5.2,5.46-10.42,5.34-15.64.32-3-2.92-6.16-3.69-9.94-1.69-4.07,2.15-1.55,5.17-1.07,7.87.55,3.07,2.45,7-.81,8.72s-4.61-2.84-6.84-4.54c-3.29-2.52-4.81-8.57-10.74-5.62-8.09,4-15.85,8.91-16.88,18.91-.56,5.45,4.41,8.07,8.42,10.77,1.62,1.09,3.07,2.24,4.51-.23,1-1.71,1.52-4.9,4.44-3.17a6.07,6.07,0,0,1,2.51,7.51c-7.74,21.84-7.4,43.49.61,65.26,2.94,8,20.71,13.45,26.84,7.47,3-3,5.84-3,8.6,0s5.81,3.54,9.5,2.28c2.25-.76,5-1.5,6.31,1a10.61,10.61,0,0,1,.58,6.52c-.73,3.61-2.55,7.89.64,10.28s7.88,1.76,11.87-.23c19.77-9.86,37.67-23.38,59-30.14,3.91-1.24,8.63-3,10.79,1.27s-3.18,5.38-5.78,7.16c-3.82,2.61-7.2,5.38-8.49,10-.69,2.48.6,4.13,2.77,4.35,1.13.11,2.46-1.42,3.64-2.29,6.11-4.55,13.16-13.79,18.13-12.78,12.74,2.58,20.94-5.72,31.2-8.47,4.8-1.29,5.46-.78,6.74,3.94,2.72,10.08-.66,21.22,8.36,30.69,3.59,3.77.15,14.81-1.26,22.32-.31,1.63-2.27,4-.78,5.18,1.93,1.57,4.64,1.38,6.47-1.28,3.08-4.5,3.25-9.69,3.85-14.8.26-2.18.64-4.7,3.34-4.91s4.39,1.86,4.84,4.26c3.28,17.35,7.59,35.17,4.74,52.39a41.46,41.46,0,0,0,3.33,25.4c3.12,7,6.78,4.07,9.93,0,1.87-2.4,3.2-5.1,6.94-4.65,3.92.47,3.86,3.94,5.38,6.38a15,15,0,0,0,5.9,5.49c3.84,1.82,5.93,3.42,4.3,8.3-2.53,7.55,12.32,20.32,20.82,18.75,22.15-4.09,40.23-15.43,56.24-30.69,2.06-2,4.38-4.26,7.4-2s-.67,3.49-1.07,5.25c-.23,1,.36,3,1.08,3.24,5.68,2.26,11.6,5.22,17.19,0,6.51-6.07,6.19-14.08,5.18-21.93-.78-6.08-7-4.43-10.67-6.57-2-1.19-5.8-2.34-5.79-3.49,0-3.36,3.34-4.62,6.31-5.34,3.34-.81,6.7-1.29,6.44-6s-3.17-6-7.21-6.74c-5-.9-8.79-5.43-7.2-9.21,6.18-14.69-3.4-19-13.61-24.18-9-4.59-15-12.52-19.28-21.71-3.09-6.66-7.84-9.63-15.76-9.63-12.45,0-19.52-8.76-23.26-19.37-2.09-6,12-14,19.87-11.9,2.4.64,4.73,1.65,7.16,2.12,7.12,1.35,13.64,6,19.06-5.47,4.15-8.73,16.94-5.32,25.78-7.56,2.9-.74,3.61,3.41,3.27,6.13-1,8.06-2.07,16.1-3.34,24.11-2,12.71,8.51,17.47,16.27,19.17,11.58,2.53,14.66,12.16,21.19,18.64,10.46,10.37,20.74,21.27,29,33.35,9.91,14.41,24.55,28.3,21.5,47.42-2.51,15.76,8.49,33.45-6.09,47.3-14.77,14-29.78,27.81-44.83,41.54-11.76,10.73-24.2,20.54-38.41,28-1.4.72-2.86,3.53-2.48,4.85.46,1.65,2.6,3.43,4.38,4,10.37,3.36,16.52,7.8,18.34,20.94,1.45,10.43,11.2,20.09,18.36,29.23,6.68,8.53,15.27,15.55,22.15,23.94,5.22,6.35,13.95,3.19,19.14,8.57H547c-12.41-19.18-24.88-37.61-52.45-34.92-7.07.69-11.37,1.3-13.83,8.42-3.12,9-7.11,17.68-10.72,26.5Zm329.65-396.35c-1.31,5.26-2.44,10.14-3.73,15-2.73,10.22,1.42,19.35,3.79,28.93.91,3.65-.47,8.53,4.45,8.77,4.62.21,5.07-4.52,5.9-8.44,2.36-11.18-4.61-20.8-4.86-31.53C454.09,1147.83,454.1,1143,448.65,1139.65ZM188.56,1288.2c6.24,13.16,18.51,18,26.33,27.23,3,3.55,12.75,10.92,18.23,4.75,5-5.59-4.94-6.74-8.09-10a1.41,1.41,0,0,1-.26-.42C218.45,1293.73,202.88,1293.86,188.56,1288.2Zm683.3,96.2c-11.76,6.32-25.87,6.21-37,14.22-3.37,2.41-8.26,5.1-5.87,9.58,2.65,5,6.45.36,9.73-1a17.61,17.61,0,0,1,5.76-1.18c12.28-.68,21.12-7.71,29.33-15.85a4.82,4.82,0,0,0,1.1-3.6C874.8,1385.88,873.26,1385.36,871.86,1384.4Zm-641-14.57c-3.67.86-9.42-1.52-9.23,4.75.15,4.71,3.41,9.9,8.36,9.67,5.77-.27,7.25-7,7.92-11.34C238.67,1367.86,233.13,1371.18,230.83,1369.83Zm552.61.15c-3.11,1.28-9.3-.55-9.47,4.87-.13,4.5,3.65,10.75,8,10.45,4.52-.31,7-6.56,7.64-11.52C790.08,1370.05,786.62,1370.14,783.44,1370ZM504.65,1223.34c2.27-1.63,7.7,1.9,7.31-3.74-.33-4.81-2.14-11.12-8.08-10.85-5.42.24-6.95,6.79-7.27,11.09C496.23,1225,501.68,1222,504.65,1223.34Zm381.43,119.81c3.24-.17,5.73-2.64,6.7-6.09a2.84,2.84,0,0,0-3.54-3.52c-3.38.78-8.3-.51-8.66,5.21C880.38,1341.91,882.44,1343.07,886.08,1343.15ZM480.85,1107.49c0,3.24,1.19,5.62,4.85,5.45,2.46-.11,5.3-1.29,4.57-4-.8-3-2.73-7.28-5-7.85C482.48,1100.39,480.75,1104.15,480.85,1107.49Zm-339.5,192.39c-3.13-.74-4.16,1.06-4,3.22.28,4.52,4.34,5.57,7.57,6.61,2.21.71,4.11-1.16,4.13-3.81C149,1300.4,144.76,1300.45,141.35,1299.88Zm21.25,17.48c2.52-1.86,3.11-3.81,1.6-5.82-.37-.49-2.71-.32-3.34.33C158.47,1314.31,161.3,1315.41,162.6,1317.36Zm325.3-188.87c-2.11-1.36-3.2-2.38-4.45-2.68-.46-.11-2,1.59-1.85,2.28a3.39,3.39,0,0,0,2.21,2.35C484.75,1130.57,485.86,1129.53,487.9,1128.49Zm381.66,218.15c-1.28,1.84-2.44,2.83-2.26,3.4a14.32,14.32,0,0,0,2.26,3.41c.69-.76,2-1.53,1.94-2.26C871.47,1350,870.58,1348.88,869.56,1346.64Zm-27.24-128.33c-3.35,3.52-3.35,3.52,0,6.09Zm-776.93,183-4.21,2.32C63.91,1404.8,64.89,1404.27,65.39,1401.31ZM607.3,1087.62l.78,1.29,2.55-1.73-.71-1Zm276.63,234.24a5.29,5.29,0,0,0,.73-1.29c0-.17-.46-.65-.6-.61a4.55,4.55,0,0,0-1.1.68ZM500.86,1100.91l.16.22.11-.24Z"/><path class="cls-2" d="M926,0c-24.69,12.67-38.24,35.76-53.25,57.37-3.4,4.89,1.3,12.82-6.06,17.31-3.48,2.13-6.32,5.14-10.63,5.87-3,.51-6.22,1.47-6.6,5.09-.4,4,3,5.14,5.88,6.52,12.63,6.15,22.77,15.78,34,23.93,16,11.64,26.82,28.88,43.73,39.57,10.08,6.38,13.15,27.8,6.36,37.9-.73,1.08-1.26,3.23-.68,4.11,9.75,14.85-.08,25.77-6.5,38.13-13.25,25.51-36.32,43-52.27,66.31-3.73,5.45-12.55,4.62-18.64,8.79-7.22,5-7,10.62-6.38,17.13.78,7.83,2.51,15.57,3.25,23.4.3,3.16-3,6.14-5.49,5C843,351.8,827.4,358.14,824,341.17c-.64-3.18-3.92-1.35-6.38-.73-11,2.76-22.08,9.77-32.73-1.89-3.68-4-4.39-6.21-.85-10.27,4.1-4.72,6.83-12.17,13.67-12.19C814.87,316,822,304,829.52,292c3.9-6.22,10-10.21,16.38-12.52,9.87-3.56,10.55-10.21,8.93-18.65-1.27-6.57.5-11.17,8-12.13,3.65-.47,5.55-2.94,5.88-6.46.35-3.79-2.59-4.5-5.37-5.4-3.08-1-7.45-1.26-7.36-5.46.09-3.81,4.51-3.27,7.11-4.29,4.26-1.68,9.74-2,9.55-8.31-.23-7.53.29-15.31-6.87-20.8-5.54-4.24-10.77-2.15-15,1-6.51,4.79,4.22,5.6,2.35,10.22-14-.73-20.35-14.65-31.88-20.31-12.22-6-23.69-13.18-37.55-14.43-8.36-.75-19.46,12.29-17.4,20.16.84,3.21-.93,4.61-3.24,5.91-2,1.12-5.17,1.79-5.86,3.48-7.89,19.13-13.29,6-19.72-2.43-4.79,10.61-11.54,18-8.3,31.89,4,17.36-.44,36.08-4.31,53.89-.34,1.57-3,2.63-4.62,3.93-1.18-1.62-2.9-3.08-3.45-4.9-1.51-5-2.41-10.27-3.83-15.34-.61-2.15-2.35-2.58-4.4-1.4s-.5,3.33-.84,4.24c-3.43,9.21,6.6,18.54-2.18,28.68-4.91,5.66-3.85,16.65-5.05,25.3-.73,5.32-2.27,5.75-7.48,4.12-9.81-3.07-17.92-10.55-30.33-8-5.26,1.1-12.92-7.62-18.86-12.61-1.71-1.44-2.67-3.44-5-2.36s-2.86,3.54-1,5.41c3.68,3.78,7.67,7.26,11.57,10.82,1.58,1.44,4.16,2.86,2.71,5.15-.9,1.42-4,2.91-5.34,2.39-19-7.48-39-12.37-54.31-27.84-4.5-4.53-14.86-6.88-22.29-3.8-5.87,2.44-1,8,.12,12.18a5.84,5.84,0,0,1-.31,3.78c-1.32,2.72-23.72,5.92-26.18,4.18-6-4.26-12.35-.5-18,.69-8.88,1.88-9.88,11.2-11.42,18.39a109.92,109.92,0,0,0,1.95,53.75c1.07,3.77-1.14,8.47-2,13.49-3.38-4-1.56-11.12-6.24-11-3.6,0-8.1,4.44-8.66,9.2-.69,5.85-.82,11.68,5.05,16.13,7.87,6,14.86,10.11,21.87-1,1-1.58,4.41-3.3,5.69-2.72,2.84,1.29,1.75,4.53,1.38,7.17-.46,3.23-3.09,6.88,1.31,9.37s7.15-.24,10.07-3c4.5-4.19,9-4.56,13.51.19,5.6,5.93,11.87,8.11,19,2.58,10.14-7.92,21.65-10.42,34.24-9.57,7.65.52,12.89-2.88,17.31-9.47,6.53-9.73,17.2-12.86,27.77-9.73,5.72,1.69,5.92,9.83,4.37,15.66-.88,3.31-3.81,6.1-5.94,9.05-5,6.93-16.52,10.19-7.49,23.6,5.67,8.42-3,19.41-8.86,26.19-4.53,5.24-9.41-4.75-12.34-7.76-15.47-15.81-27.64-13-43.25.88-6.82,6.05-20.47,4.31-31,6.31-13.17,2.5-26.29,7.29-39.44,7.32-18,.05-38,5.18-52.21-12.73-1.72-2.18-6.66-1.62-9.95-2.76-19-6.61-21-23.78-25.48-40a500.84,500.84,0,0,1-14.34-75.93c-.22-1.86,1-3.83,1.16-5.79.36-3.49.93-7.35-3-9.26s-5.36,2-7.82,3.7c-7.54,5.17-14,8.09-24.74,4.08-9.83-3.69-22.51-1.18-33.67.42a219.25,219.25,0,0,0-36.08,8.8c-4.57,1.47-8.08,6.24-14.63,11.61,8.1-18.69-1-32.83-5.36-47.27-4.3-14.22-9-28.84-22.15-38.88-6-4.57-6-12.86-4.41-20.33.62-2.88,2.39-6.25-.91-8.18-3.09-1.81-6.26-.39-9.25,1.57-15.86,10.4-33.61,16.4-51.48,22.27-13,4.28-27,5.17-39.35,11.66s-33,0-39.24-12.11c-2.51-4.86-7-1.41-10.3-3-11.67-5.68-17.73-15.62-24-26.54C75.33,230.75,71.68,211,63.71,192.88c-6-13.56-9-27-6.76-41.34,1.34-8.58-3.67-11.33-10-13.85-7.83-3.14-15.67-6.28-23.38-9.72-1.08-.48-2.32-3.52-2-3.86,8.06-8,10.34-24,27.35-19.71,3.89,1,4.3-2.51,5-5.36,1.24-5.33,2.49-10.66,4.09-15.89,2.76-9,11-13,18.22-11.16,7,1.81,10.88,12.18,8.91,18.14-5.6,16.9-3,31.33,5.73,46.26,2.85,4.86,2.34,12.46,1.5,18.54-1.29,9.35,3.58,13.69,11.06,15.6,7.63,1.95,9.09,6.47,7.45,13-1,3.85-.61,7,2.89,9.16,3.83,2.4,5.72-.91,8-3,2.08-1.91,4.14-4.68,7.24-3.14,3.46,1.73,1.91,5.34.91,7.59-5.91,13.36,4.13,16.51,12.84,18.47,10,2.25,16.86-2.16,16.93-13.72,0-1.77.61-3.35-1.94-3.6-1.84-.18-5,3.05-5.15-1.57-.1-3.55,2.65-4.88,5.83-5.79,21.42-6.16,40.47-16.35,55.38-33.34,5.71-6.51,1.36-24.4-6.72-27.27-3.74-1.32-5-3.55-4.23-7.22.17-.82.83-1.91.52-2.39-6.68-10.27-6.64-17.11,7.48-20.84,3-.8-1.88-8-4.73-11.79-4.76-6.29-12.23-6.75-18.53-9.84-9.27-4.55-17.35-11.57-25.81-17.71-5.35-3.89-10.59-8-15.64-12.23-1.79-1.51-2.74-4-1.09-6.32,1.77-2.51,4.22-1.61,6.32-.6,4.81,2.33,9.48,4.85,15.14,4.37,2.54-.22,3.71-1.39,3.57-3.77s-2.87-1.75-3.7-2.52c-6.85-6.31-19.42-2.83-23.22-15C140.54,13,130.11,10.79,124.24,4.55A63.52,63.52,0,0,0,119,0H470c1,2.63,1.49,5.57,3,7.85,7.3,11,4.46,31.16,29.14,25.75C521.41,29.38,538.24,19.86,545,0ZM452.08,396.81c2.51-13,5.54-25.87,7.3-38.95.7-5.21,2.29-14.21-4.77-14.77-7.49-.58-3.19,8.76-5.57,13.11C441.65,369.74,445.31,383,452.08,396.81ZM195.59,246.39c2.23-.78,4.22-1.47,6.22-2.19,10.9-3.92,19.55-10.67,26.83-19.74,2.12-2.64,8.2-3.6,6.11-7.88s-7-2.37-11.06-.77c-12.94,5.06-19.12,18.23-30.54,25.08-1,.61-1.35,2.4-2,3.64Zm635-120.68c.75-.41-1.61.47-1.53.91.39,2.11.91,4.61,2.32,6,11.06,11.26,27.38,10.31,40.44,17,.73.37,3.28-.95,3.24-1.25-.23-1.7-.53-3.78-1.64-4.91C862.21,132.27,848.22,127,830.56,125.71ZM231,167.06c3-.6,7.87.67,7.06-4-.75-4.28-1.28-11-6.81-11.29-5-.28-9.38,4.61-9.54,9.74C221.49,167.09,227.17,166.36,231,167.06ZM507.64,311.55c-2.86,2.5-10.11-2.95-10.49,3.47-.27,4.41,2.35,11.83,8.49,11.86,5.64,0,6.12-6.58,6.92-11.24C513,312.81,511.1,311.44,507.64,311.55ZM783.23,165c3.8-.08,7.07-.72,6.53-4.82-.59-4.53-2.85-10.1-7.18-10.17s-8.36,5.32-8.49,9.74C773.93,165.52,780.19,163.69,783.23,165ZM888.71,201c2.73-.1,5.28-.72,4.81-3.81-.55-3.53-2.74-6.11-6.74-6-2.91.06-5.94.41-5.89,4.41C881,201.13,885.64,200.05,888.71,201ZM143.46,236.68c3.7-.26,5.59-2.67,6-6.38a3.94,3.94,0,0,0-4.52-4.61c-3.55.71-6.83,3.36-7.26,7.15C137.36,235.86,140.54,236.42,143.46,236.68ZM490.77,427.31c-.15-3.21-1.75-5.23-4.58-5.09-3.48.18-5.19,2.62-5,6.14.15,3.33,1.45,6.18,5.09,6.18C491.36,434.53,489.63,429.8,490.77,427.31ZM163,218c-1,2.16-2,3.39-2,4.53,0,.79,1.64,2,2.56,2.05s2.71-1.61,2.59-1.9C165.65,221.34,164.57,220.19,163,218ZM480.27,406.45C482,408,483,409.64,484,409.63s2-1.61,3-2.52c-1-.88-1.81-2.19-2.93-2.49C483.24,404.4,482.07,405.52,480.27,406.45ZM872.91,184.33l-3-3.41c-.84.8-2.24,1.54-2.35,2.44A3.35,3.35,0,0,0,869.4,186C870.11,186.26,871.3,185.16,872.91,184.33ZM841.5,309.72c-.55,2.55-.92,4-1.11,5.56,0,.1,1.65.76,2,.48C844,314.43,844.21,312.81,841.5,309.72ZM63.7,132.17,63,133.66l4.16,1.84.6-1.35ZM612.65,447.62a10,10,0,0,0-2.39-1c-.3,0-.6.42-.9.65.2.23.36.61.59.67A13.41,13.41,0,0,0,612.65,447.62ZM503.1,432.85c0,.15,0,.36.15.43s.31,0,.47,0l-.21-.71Z"/><path class="cls-3" d="M1017,1536c2.47-4.81,7.75-6,11.56-9.09,6.22-5,13.77-7.71,14.81-18.7.58-6,8.37-12.44,12.41-19.3,7-11.86,13.26-24,13-37.28-.16-10.27,9-12.91,11.29-20.45,6.47-21,13.2-42,19.85-63,6.34-20,12.85-40,18.93-60.08,1.56-5.18,1.4-11.12-3.26-14.8s-7.82,2.34-11.73,3.28c-28.86,6.92-54.4,23.2-83.5,29.28-3.95.83-5.58-2.25-6.46-5a14.33,14.33,0,0,1,3.55-14.57c10.94-11.52,26.47-14.21,40.34-20,20.14-8.4,43.66-11.81,55.81-32.6,8.93-15.28,4.54-34.52,10.67-50.61,8.71-22.85-9.86-38.65-12.81-58.55-4.82-32.55-29.5-54.71-48.29-80-24.24-32.59-55.91-54.18-92.75-69.13-4.76-1.93-9.28-3.79-13.91-7.06,9.51-.43,18.41.18,26.19,5,7,4.37,12.58-1.4,18.73-2.13,13.72-1.63,23.59,5.17,33.86,12a11.17,11.17,0,0,0,4.71,1.76c.44,0,1.82-2.29,1.54-3.13-.48-1.48-1.65-3.33-3-3.83-3.15-1.18-2.95-2.61-1.06-4.94,7.42,5.31,16.19,6.27,24.7,6,6.83-.22,6-6.59,6.37-11.8.4-6.4,5.27-8.06,10.12-5.75,16.83,8,18.3-3.76,20.45-15.12.55-2.87,1.4-5.69,2.19-8.86.77.48,1.58.68,1.78,1.14,1.34,3.12,1.11,8.86,5.71,7.31,1.82-.61,2.59-8.07,1.82-12-2.73-13.93,1.38-24.53,12.26-33.66,8.33-7,4.31-19.43,10.12-27.93.87-1.28,1.36-2.83,3-6.37,3,14-.93,25.26-2.28,36.6-4.42,37.14,6.72,70.85,20.9,104.37,7.06,16.7,13,33.58,22.64,49.32,10.46,17.09,29.3,26.9,38.17,43.47,8.32,15.55,21.44,16.9,34.15,21.68,12.18,4.58,24.41,10.06,37.1,12.06,20.31,3.21,33.67-12,47.86-22.86s26.85-23.61,42.49-32.31c7.84-4.36,17-3.74,21.53,5.1,3.12,6-4.69,8.77-7.93,12.49-16.8,19.26-40.86,30.12-57.7,49.47-3.31,3.81-12.74,3.51-9.56,11.42,4.13,10.26,15.15,11.54,24,12.49,20.09,2.18,39.81,6.83,59.42,10.69,16.62,3.26,33.73,11.8,50,11.19,22.88-.85,42.37,12.65,65.56,10,8.79-1,19.37-3.43,30,.15,6.14,2.07,15.69-5.13,23.37-8.85,4.52-2.19,7.37-1.56,6.92,3.32-2.48,27.27,14.72,46.5,29.54,64.93,14.24,17.71,27.41,36.44,42.82,53.23,8.33,9.09,18.15,16.83,26.4,26,15.31,17,29.84,34.71,45,51.88,3.62,4.11,9.49,6.28,14.46,4.71,5.6-1.76,1.69-8.75,3.25-11.75,8.76-16.91,4.72-35.59,8.85-53,2.12-8.89,4-17.87,6.56-26.64,1.14-3.89-1.2-11,6-10.6s13.62,4.07,14.5,11.9c2.42,21.54-4.57,42.1-7.07,63.13-2.2,18.48-7.24,39.17,11.08,54.17,10.2,8.36,22,15.43,30.14,25.47,15.28,18.85,37.93,10.41,56.4,17.66,37.08,14.55,74.54,1.23,111.73-4.5,35.61-5.49,65.27-22.43,92-45.65,2.52-2.19,6.13-3.14,9.89-5-2.37,8.64-9.16,13.17-14.44,18.59-4.13,4.25-8.36,7.27-8.78,14.33-.77,12.66-11.23,17.82-20.84,23.4-3.86,2.25-11.12,3.17-10.13,8.33,1.11,5.72,6.48.19,12.57.47-16,11.84-28.34,23.63-6.67,39h-21c-1.44-1.61-2.65-3.55-4.37-4.75-4.83-3.36-10.67-4.43-15.39-1.24-3.29,2.23,1.59,4,2.76,6H1606l-35-28.6c2.59-.86,5.37.53,5.74-2.39.62-4.9-4.39-6.62-6.28-10.2-1.17-2.22-4.1-2.51-6.73-.72l1.27,5.43c-1.55-.22-2.82,0-3.35-.52-10.09-10-22-2.29-33-3.19-4.36-.36-8.47,3.4-7.63,9.09,1.53,10.38,3.33,20.73,5,31.1H1395c-1.67-2.34-3.33-2.33-5,0h-46c8.29-3.08,4-15,13.28-17.33a71.26,71.26,0,0,0-9.51,2.62A46,46,0,0,0,1325,1536Zm1033.59-66.31c-6.18,1.23-10.39,5.07-15.32,11.32,8.14-2,12.37-5.83,15.32-11.35l-.39-.82Zm-770.12-72.94c-3.45-2.34-4-7.89-6.45-4.51-2.91,4-8.75,8.79-4.35,14.87,3.43,4.74,3.8-2.49,7.72-2.67-2.41,9.85,1.46,17.79,7.18,25,5.16,6.55,8.71,19,20.16,9a131.65,131.65,0,0,1,37.5-22.82c7.08-2.92,21.6-1.86,18.62-14.42-2.44-10.26-4.93-23-17.41-28.11-1.83-.75-3.87-1.42-3.38-3.9,1.31-2.2,6.91.34,5.07-3.68-2.57-5.59-8.75-4.37-13.78-4.37-5.46,0-1.78,4.29-2.55,6.77l-42.56-15.75C1284.36,1366.72,1282.47,1381.3,1280.47,1396.75Zm145.35,118.73c1.72-9.2,4.81-15.72,3.42-21.07s1.29-16.08-3.22-15.38c-11.19,1.73-21.37,8.27-30.46,19C1412.58,1490.9,1421.56,1496.68,1425.82,1515.48Zm-335.48-501.81c2.31.13,5.9,3.06,6.29-.77.72-7-4.48-10.89-10.21-13.64-1.87-.9-5-2.73-5.84.67a16,16,0,0,0,5,16.72C1088.35,1019,1089.13,1015.26,1090.34,1013.67Zm-66.46-5.21c-5.68-8.38-10.86-9.17-19.35-8.78Zm99.73-79.35c-4.56,9.67-7.62,14.62-3.49,23.09C1121.23,944.86,1122,939.53,1123.61,929.11Zm241.57,583.75c-.52-.49-.94-1.07-1.12-1a5.86,5.86,0,0,0-1.42,1c.33.41.73,1.18,1,1.14C1364.14,1513.89,1364.56,1513.34,1365.18,1512.86Zm24.13-12.17c.34-.48.8-.85.77-1.18s-.57-.57-.89-.85l-1.06,1.23Zm38.32,20.31-.74.66,1.57,1.78.75-.66Z"/><path class="cls-3" d="M2033,0c.28,6.44-7.7,6.17-9.08,10.92-3.51,12.17,7.06,16.86,13.25,23.82a23.59,23.59,0,0,0,3.28,2.44c-4.93,1.36-10-5.19-13.37,1.4,7.23,9.15,19.83,10.43,27.91,19.29,5.23,5.73,3.19,11.62,5.11,17.21,2.83,8.22,11.77,10.7,16.52,17.19,1.94,2.64,4.56,4.84,4.26,8.56l.09-.11c-11.37-3.23-19.17-12.19-28.33-18.68a166.86,166.86,0,0,0-72.3-29.44c-28.7-4.46-56.88-12.7-86.37-10.45-14.71,1.13-28.35,6.7-42.5,10.15-7.54,1.83-15.25,6-23.57,2.08-3.62-1.69-6.46.22-8.35,3.43-7.83,13.29-20.74,21.54-32.47,30.38-10.71,8.08-17.09,17.19-16,30,1,11.81-.38,23.55,2,35.52,3.34,16.69,7.47,33.46,7.13,50.8-.15,7.51-5,13.42-9.88,15.3-13,5.06-9.54-7.72-12.33-13.7-8.08-17.39-7.62-36.56-10.43-54.91-1.2-7.82-2.86-15.41-4.55-23.08-.68-3.12.85-7.63-3-8.68-4.74-1.28-10.21-1.41-13.89,3-9.37,11.23-19.74,21.47-28.56,33.33-10.47,14.08-24.56,25.42-36,38.88-9.94,11.71-23.36,19.79-28.54,36.88-2.72,8.94-17.68,14.92-24.21,25.05-6.23,9.67-15.23,17.6-16.79,30.27-.76,6.11-11.2,7.53-9.72,16.49,3.1,18.72-3.17,26.14-20.6,14.09-10.2-7.06-20.53-.81-30.91-2.57-18.12-3.08-36.66.89-53.84,9.1-7.45,3.57-15-3.16-23.24-.42-14.77,4.92-31,4.87-45,12.76-1.7,1-4.47-.24-6.62.18-23.66,4.71-47.36,9.28-70.9,14.54-4.76,1.06-9,5.49-8.93,10.84.06,5.05,7.43,5.35,8.83,8,5.5,10.55,16.73,13.48,24.58,20.71,12.13,11.16,25.08,21.42,37.52,32.25,3.08,2.69,7.48,5.52,4.18,10.7-3.61,5.68-8.62,8.47-15.48,5.95-21.5-7.9-37.06-24.13-53.38-39-21.67-19.74-41.07-21.74-67.71-9.71-9.81,4.42-20.27,11.29-32.6,9.37-1.6-.25-4.87,1.66-5.2,3.08-3.78,16.32-17.86,24.54-28.49,34.9-10.9,10.62-19.76,22.49-25.65,35.81-11.19,25.3-21.18,51.22-30,77.44-9.67,28.74-7,58.27-1.66,87.61.49,2.72-.39,5.7-2.46,9-.64-29.09-36.64-45.62-23.16-78.53-8.34.67-7,6-9.79,10.06-5-13.45-2.24-35.54-26.23-24-9.41-4.47-1.31-18.85-12.64-20.92-8.43-1.54-16.37,2.84-24.39,6.37-.31-1-.94-2-.68-2.45,1.62-2.91,8.32-5.36,3.65-8.65-3.86-2.71-8.27,3-12.12,5.48-10.48,6.74-20.81,11.48-33.53,4.93-7.74-4-14.83,2.73-22.4,3.62-4.16.49-8.25,1.55-15.42,3,9.85-9.77,20.41-11.75,29.51-15.54,30.5-12.69,54.49-33,73.8-59.21,10.48-14.24,23.72-26.11,33.25-41.24,13.36-21.19,20.18-44.49,25.34-68.57,1-4.94,3.06-9.51,7.2-12.74a7.25,7.25,0,0,0,2-9.12c-9.2-16.8-6.49-36.16-12.05-53.6-3.59-11.3-11.79-18.33-22.68-24.3-23.23-12.73-50.06-16.83-72.22-31.55-6.35-4.22-12.21-9.72-7.51-18.3s11.81-2.33,17.2-1c21,5.36,40.94,13.51,60.3,23.4,5.7,2.92,12.86,3.89,19.24,5.82,7.74,2.34,8.62-6.25,8.26-12.35-.87-14.77-8.49-27.5-12.89-41.21-6.17-19.21-13.2-38.09-18.28-57.73-3.25-12.55-4.29-26.83-15.62-36.5-6.18-5.27-3.75-13.82-5.13-20.65-2.7-13.44-9.4-25.26-15.94-36.15-7.83-13-14.38-29.07-31.49-34.36-.6-.18-.9-1.32-1.34-2h307c8.9,7.88,19.76,11.94,34.78,16.7-8.38-5.35-13-9.58-11.78-16.7h175c-1.35,9.71-3.2,19.38-3.9,29.13-.53,7.4,3.53,11.37,11.43,11.91,11.29.76,22.5,2.18,33.54-7.39-1.45,4.47-2.07,6.38-2.76,8.49,8.56,1.21,10.76-6.13,13.4-10.42,2.47-4-5.18.2-5.74-3.16L1602,0h389c2.43,7.67,8.44,6.44,14.15,5.53,3-.48,6.57-.87,5.85-5.53Zm12.89,63.07,4.71,7.41c-.23-5.8-1-7.93-4.86-7.28.24-8.4-7.25-6.57-11.43-9.12A17.67,17.67,0,0,0,2045.89,63.07ZM1358.11,129c-9.39-4.76-19.2-8.85-28-14.48-8.17-5.21-15.14-12.28-23-18.07-3.17-2.35-7.18-4.53-10.95-4.8-3.21-.24-5.42,3.24-7.33,6.5-5.49,9.35-14.82,16.9-11,31-3.81-2.78-6.07-5.92-8-2.62-4.34,7.35,3.43,10.71,5.46,16.82l5.44-6.19c1.82,13.77,3.61,25.8,4.91,37.89.62,5.74,1.14,8.56,8.31,5.47,11-4.74,22.67-7.93,34.66-12-.77,2.63-1.33,4.55-2.47,8.5,6.39-5.46,15.89,1.33,19.25-8.94l-8.94-1.16c16.64-9,24.2-21,21.6-38ZM1415,40.38c-6.08,1.5-12.58,2.55-19.47-3.06,7,14.31,20.11,15.6,30.56,21.71-.46-12.33,4-24.14-2.37-38.15C1422.61,29.3,1420.15,35.48,1415,40.38ZM1082.52,537.27c8.55-.2,12.55-4.89,13.49-12.51.48-4-2.74-2.13-4.3-2.15-1.66-2.05.22-7.61-3.61-5.8C1079.43,520.91,1081.06,529.11,1082.52,537.27Zm35.62,45.84c-.68,7.5-1.77,13.17,3.74,20.24C1120.64,595.68,1122.41,589.91,1118.14,583.11Zm-94.49-56-18.27,6.87C1011.2,533.22,1018.15,536.39,1023.65,527.07ZM1427.77,11.68c-2.15.09-3.36,1.1-3.21,3.27,0,.45,1.31,1.32,1.65,1.17C1428.06,15.31,1429,14,1427.77,11.68ZM1387,37.17l0-.27-.25.08Zm-23.18-16.26.16.22.12-.24Z"/><path class="cls-4" d="M2660,1169c-10.52-5.47-20.91-11.2-31.59-16.34-16.54-8-29.07,6-43.73,8.46-9.15,1.53-16.68,8.24-26.33,8-7.28-.19-5.58,7.09-8.66,10.4-12.57,13.49-26.33,26.09-37.35,40.75-12.5,16.62-21.37,35.37-27.9,55.61-6.24,19.39-15.94,37.81-19.23,58.09a172.81,172.81,0,0,0-1,51.09c1.44,10.61,2.09,21.34,3.46,35.91-2.75-4.86-4-6.21-4.29-7.73-3.58-18-14.61-32.08-23.5-47.43-3-5.14-.8-13.5-.28-20.34.23-3,1.73-6.85-2.08-7.26-4-.44-4.79,3.58-4.82,7.2,0,1.29-.83,2.57-1.92,5.69-1.86-9.51-1.21-17.37-5.8-24.31-3.22-4.87-6.49-8.82-12-5.48-9.33,5.63-12.35.22-12.85-7.2-1.13-16.78-11.88-10.17-20.37-9-3.29.46-6.46,1.77-10.43,2.9.74-4.07,5.72-6.23,2.68-9.3-3.31-3.34-6.49.66-8.66,2.27-12.54,9.3-24.78,12.89-40.92,7.28-7.49-2.61-18,3.48-27.15,5.6-1.22.29-2.47.41-5.11.83,7.57-9.82,18.43-10.86,27.4-14.79,25.16-11,46.83-26.28,64.29-47.61,11.22-13.71,23.78-26.39,34.29-40.6,15.94-21.56,28-45.17,31.83-72.28.74-5.18,1.26-12,4.63-14.89,10.92-9.21,4.28-18.56,2.36-28.22-2.16-10.84-4.71-21.76-5.22-32.74-.53-11.42-13.84-27.55-24-32.79-25.46-13.11-55-17.16-78-35.18-3.72-2.92-7.27-8.46-3.42-14.41,5.8-9,12.53-2.48,18.5-.65,14.86,4.55,30.11,8.54,44,15.23,10.08,4.84,20.56,7.57,30.86,11.25,2.84,1,5.33,4.35,8.61,1.83,3.95-3,4.33-8,3.95-12.2-1.48-16.41-10.1-30.63-14.95-46s-9.72-30.79-14.82-46.11-5.6-32.37-18.53-44.56c-2.12-2-2.38-6.45-2.62-9.84-1.5-21-14.48-36.45-23.63-54.12-6.58-12.7-16-18.69-25.49-26.65-3.73-3.14.49-6.1,3.13-7.74,8.62-5.33,16.72-8.77,20.59-21.22,2.89-9.32,12.28-18.42,17.08-28.48,4-8.43,10.13-17.13,8-27-2.82-12.79,10.27-16.42,13.38-26.48,6.47-20.91,12.28-42.2,19.08-63s20.93-40.61,17.68-64.48c-.38-2.81-1-5.38-4-6.35s-5.13.21-7.89,1.42c-10.6,4.65-21.64,8.28-32.33,12.73-16.13,6.71-32.37,13-49.41,17-3.54.84-7.08,4.36-10.16-.24-3.88-5.79-2.42-11.88,1.69-16.43,10.69-11.84,25.86-15.43,40.19-20.54,19.65-7,40.09-12.91,55-28.7,6.21-6.59,6.51-16.07,7.54-24.73,1.64-13.88,2.07-28,9-40.71.82-1.52,1-4.7.07-5.65-15.25-15-11.19-36.93-19.73-54.43-9.5-19.46-18.88-38.58-34.71-54-8.39-8.19-15.32-17.91-22.55-27.21-16.64-21.39-37.85-36.62-62.57-47.27q-16.38-7.05-32.74-14.18v0c3.85-3.05,8.3-1.85,12.24-.93,10.89,2.57,21.25,7.26,33,3.15,13.43-4.68,23,4.35,33.08,10.92,1.63,1.07,3.88,1.24,5.89,1.57.24,0,1-1.57,1.08-2.44.13-2.69-1.63-3.74-4-4.23-2.07-.42-2.88-1.7-1.79-3.65,1.2-2.13,2.29-.53,3.62.1a50.16,50.16,0,0,0,22.36,4.68c4.84-.08,6.94-3.39,6.8-8.09-.29-10.26,4.42-12,13-8,9.62,4.57,17-4.13,18-21.2.09-1.52,0-3.05,0-5.52,1.55,1.13,2.38,1.41,2.48,1.86.86,3.77.93,9.24,6.26,7.62,1.65-.49,2.52-7.92,1.63-11.68-3.43-14.5,2.26-24.89,12.82-34.05a15.56,15.56,0,0,0,5-9.84c.46-8.59,4.17-15.82,8.35-25.45,2.27,16.39-2.42,30.21-2.74,44.25-.56,24.54.41,48.56,11,71.59,6.46,14.1,9.45,29.77,15.83,43.91,8.31,18.43,16.74,37.07,32.51,51,5.39,4.74,10,10.4,14.94,15.64l-.08-.12c6.44,5.4,12.31,11.13,14.77,19.64.59,2.06,2.92,5,4.68,5.14,20,1.89,36.87,13.42,56,17.81,14.34,3.3,25.57-4.2,36.61-12,3-2.09,6.77-2.95,10.19-4.38v30c-10.67,5.33-10.18,10.67,0,16V593l-4.46,1.68L2660,597v3c-12.37-4.61-24.81-9-37.08-13.93-4.67-1.85-6.23-.71-6.81,4.08-1.51,12.23-3.37,24.42-5.15,37-1.91-2-4.59-6.08-5.92-3.49-2.2,4.27-7.75,8.1-5,14,2,4.35,4.79.86,8.26-.9-2,10.43,2.93,17.79,7.61,25.46,6.2,10.19,11.71,17.3,23.18,4.75,5.5-6,13.86-9.4,20.93-14V764c-1.9.06-3.79.17-3.9,2.74-.11,2.75,1.65,3.31,3.9,3.26V882c-.93.09-2.57.52-2.7.24-4.15-8.91-14.19-11.19-20.36-18.12-5-5.55-11.3-7-17.44,2.42-6.33,9.69-12.48,18.67-11.21,31.25-3.49-1.43-4.41-6.29-7.13-3.36-5.06,5.48,1.43,9.68,2.9,14.28,1.6,5,4.75-.19,7.39-.14,1.63,12.06,3.17,24,4.9,35.91.38,2.6-.45,7,4.65,5.48,4.56-1.34,8.92-3.3,13.44-4.79,8.49-2.8,17-5.45,25.56-8.17v1l-3.6,3.44L2660,944v177a10.74,10.74,0,0,0-8.3,8.62c-.77,5.07,4.71,6.31,8.3,8.38Zm-209.2,197.31c-.32.79-.63,1.58,0,.07-.18,1.62-.09.77,0-.08-.41-4.5,1.36-9.44-4.44-17C2448.34,1357.64,2443.65,1363.2,2450.8,1366.31Zm-30-1121.07c2.2.86,5.39,2.85,5.73-.42.71-6.73-4.18-10.59-9.45-13.57-1.87-1.06-5.21-2.28-5.8.85-1,5.48-1.32,11.45,3.34,15.69C2417.34,250.29,2419.66,248.55,2420.79,245.24Zm-9.07,1052.25c.89,2-2.1,7.81,4,7.59,6.41-.23,8.68-6.26,10-11.25,1.29-4.81-6.21-7.95-7-7.86C2413.19,1286.57,2411.28,1291,2411.72,1297.49Zm-79.19,5.68c9.2-.24,16.62,1.53,21.88-8.27Zm24-1062.38c-7.8-7.65-12.35-11.22-20.68-8.55Zm93.58-58.32c.47-5.21.93-10.42,1.48-16.64C2447.71,171.41,2447,176.57,2450.14,182.47Z"/><path class="cls-5" d="M2190,1536c1.21-11.43-2.34-22.76-2-33.81.56-18.17,17.72-10.15,27.31-13.17,10.15-3.19,21.69-1.71,32.27-3.92,11.22-2.34,13.61-14,19.49-21.91,6.21-8.36,12.06-17.06,19-24.79,7.27-8.12,10.87,2.32,16.45,3.85-1.12,4-8.57-.53-6.39,4.13,2.08,4.43,5.74-2,8.71-1.71,8.25.87,13.83,7.61,18.74,12.61,7.49,7.63,18.07,7.48,25.66,13.87,3.22,2.71,9.14,2,10.78,7.2,2,6.26-2,10.82-4.55,16-5,10.12-9.15,20.69-13.56,31.11-1.45,3.44-2.61,7-3.9,10.52H2228c.25-3.78,1.16-7.74-3.17-10.87-.3,3.95-.57,7.41-.83,10.87Zm107.11-57.84-5.66-3.28c2.87,6.14,3.22,6.31,5.5,3.16Zm1.49,2.7c4.76,6.74,9.21,11.57,16.15,13.27C2309.5,1490.3,2307,1483,2298.6,1480.86Zm52.64-6.89c-3.4-.13-6-.2-6,3.32,0,1.06,1.1,3.06,1.58,3C2350.41,1480,2349.33,1476.41,2351.24,1474Zm-31.78,19.59c.89,2.16,1.14,3.82,2.1,4.73.59.55,2.27,0,4.87-.22ZM2195,1509c1.13-1.57,2-2.36,2.22-3.29.09-.44-1.15-1.53-1.88-1.63-.58-.07-1.85.91-1.85,1.42C2193.48,1506.44,2194.2,1507.34,2195,1509Zm29.83,5.6-1.25.14.3,6.54,1.7-.16Zm63.83-61.63c-.6,1.08-1.27,1.74-1.19,2.3s.91,1,1.41,1.49c.46-.57,1.24-1.11,1.28-1.71S2289.39,1454,2288.65,1453Zm-87.36,51.71c.36-.46.84-.82.83-1.15s-.57-.59-.89-.88l-1.11,1.2Zm142.28-17.5c-.36.5-.84.87-.82,1.22s.55.64.85,1l1.08-1.29Zm-137,15.56c-.43,1-.22.48,0,0Z"/><path class="cls-5" d="M2338,0c6.53,15.29,13.3,30.48,19.46,45.91,2.56,6.39,6.75,12.7-4.49,17.46-19.84,8.43-39.45,17.59-56,32.36-11.19,10-15.22-4-19.65-9-9.83-11-17.54-24-26.1-36.13-3.06-4.35-7.87-1.71-11.61-2.31-13.89-2.25-28-3.19-42.05-4.24-4.72-.36-9.49-.65-11.13-5.61-1.42-4.31,1-7.1,5.82-7.58.51-.06.77-2.58,1.55-5.4L2187.66,29c-1.45-9.91,4.6-19.66-.66-29h36c.84.53,1.69,1.06,2.52,1.6-.8,2.43-1.59,4.84-2.38,7.26,1.9-2.13,5.77-4.11,2.28-7.18L2225,0ZM2223.13,13.94c-.77-.55-1.55-1.1-.25-.18l.38,0c-2.2,1.35-4,3-3.31,5.88a2.82,2.82,0,0,0,2.39.48C2224.17,18.38,2225.63,16.34,2223.13,13.94Zm92.33,30.3c-7.3.46-15.37-.35-20,9.33ZM2286.24,59c5.15,1.62,6.58-2,9.78-3.22C2290.88,52.21,2289.77,57,2286.24,59Zm61-2.64c-1,1.74-2,2.8-1.83,3.49a4.36,4.36,0,0,0,2.38,2.46c.47.18,2.3-1.45,2.18-1.79C2349.54,59.27,2348.54,58.22,2347.24,56.36Zm-21.12-16.5c-4.22-1.12-6.07-.8-6.46,3.4Zm-36.2,39c-1-.55-1.57-1.12-2.2-1.16-.34,0-1.14,1.1-1,1.27a3.14,3.14,0,0,0,1.61,1.32C2288.58,80.42,2289.13,79.62,2289.92,78.9Zm4.92,11.25,5.55-2.31C2297,86.62,2295.63,86.63,2294.84,90.15Zm-74.27-63.34A4.17,4.17,0,0,0,2220,28c0,.15.51.55.71.51a4,4,0,0,0,1.09-.65Zm62.54,36.37c-.12.24-.38.56-.31.7s.46.29.7.43c.13-.24.41-.55.34-.69S2283.39,63.32,2283.11,63.18Z"/><path d="M2660,1515c-9.44,1.9-18.74,6.62-28.55,2-4.41-2.08-6.58-4.63-.78-8.25,4.67-2.92,4.07-6.52-.32-9.33-2.57-1.65-5.6-2.56-8.25-4.1-22.36-13-44.28-26-51.71-54-3.37-12.66-13.92-22.49-17.55-35.5-1.75-6.28-4.21-12.35-6.06-18.6-.39-1.34.33-4.34.77-4.38a18.6,18.6,0,0,1,14.28,4.27c3.34,2.9,5.81,7.16,5.22,11.89-1.38,11.1,3.88,21,5.38,31.51.11.78.67,2.14,1,2.14,10.91.14,12,11.77,19.3,16.5,6.76,4.39,11.07,12.61,17.89,16.83,8.46,5.23,19,12.09,27.53,10.84s14.65,1.91,21.82,3.15Z"/><path d="M2660,57c-12.57,5.5-26.38,3.48-39.92,8.69-14.85,5.72-21.76,17.7-32.61,25.85-14.27,10.71-22,27.3-20.41,47.19.86,10.79-9.39,13.53-18,15.62-2.34.56-2.56-2-2.09-4,4.65-19.23,16.22-35.82,22.1-54.13,6.64-20.65,21.72-32.73,35.6-46.34,5.88-5.76,15.07-8.32,23-11.65,2.84-1.19,5.16-2,5.89-5.15s-1.38-4.43-3.43-6a27.48,27.48,0,0,1-3.51-3.92,25.55,25.55,0,0,1,4-3.08c9.73-4.73,19.53-2.61,29.31-.09Z"/><path d="M2660,1248c-13.28-2.92-17.26-17.1-28-23.12-12.46-6.94-22.23-18.75-37.57-21-.42-.06-13-4.66-6-12.68a47,47,0,0,1,12.14-9.71c13.92-7.87,28.06-.19,42.1-.27,7,0,10.17,8.57,17.39,5.74Zm-19.84-30.46c2.25-3,4.9-4.69,3.68-8.07-.19-.51-2.26-1-2.93-.56C2637.27,1211.09,2639.63,1213.9,2640.16,1217.54Z"/><path d="M2660,348c-14.84,6.22-29.84,11.48-46.34,11.09-11.2-.26-16.83-10.8-26.5-14.12-1.12-.38,4.07-10.74,9.46-12.59,20-6.84,36.45-18.06,48.88-35.12A16.73,16.73,0,0,1,2660,290Zm-18-28c-.23,2.45-4.23,4.3-1.14,6.87a3,3,0,0,0,3-.21C2646.59,323.79,2642.49,322.33,2642,320Z"/><path d="M0,1448c20.9,6.22,41.68,13,58.75,27.12,6.32,5.23,5.61,11.06-3.06,15.3-12.25,6-23.72,13.56-36,19.58-6.08,3-13.12,4.06-19.73,6v-36c8.72,14.76,16.76-3.47,26.36-1,5.22,1.31-1.1-7.35-.87-11.67.16-3.07-3.4-4.63-6.85-4s-7.12.47-8.67-3.08c-2.15-4.92-5.36-5.85-10-4.21Z"/><path d="M0,20c21.94,5.15,40.37,17.72,59.54,28.58,6.43,3.65,3.3,10.12-.67,13C41.25,74.48,21,81.81,0,87V81c3.23-.22,8.19,1.29,9.07-2.13,1.71-6.68,5.33-5.59,10.39-5.33,9.45.5,5.6-9.24,9-13.68,1.74-2.28-2.31-3.74-4.46-4.76-2.74-1.3-5.14,3.2-8.26.39C10.45,50.75,5,47.73,0,56Z"/><path d="M0,365c14.61-12,28.69-24.78,45.16-34.38,5.69-3.32,12.16-3.69,17.56-1,4.31,2.15,9.14,6.35,2.92,12.46a453.51,453.51,0,0,1-58.26,48C4.34,392.25,2.43,396,0,399Z"/><path d="M0,1141c17.09,14.22,37.31,24.57,51.75,42.09,2,2.36,5.49,3.43,7.37,5.82,3.07,3.9,11.32,5.56,7,13.11-5,8.68-13.52,8-20.36,4.51-17.15-8.8-31-22.29-45.76-34.53Z"/><path d="M2443,0c9.76,22.25,19.53,44.56,29.8,66.49,6.35,13.58-4.92,21.25-5.74,32.8L2428,0Z"/><path d="M2426,1536c5.32-6.11,6.28-14.34,9.59-21.39,6.38-13.55,11.08-28.32,17.16-41.84,5.21-11.58,4.27-26.11,16.33-34.82,4.31,11.47,9.38,22.43,1.8,36.32-9.7,17.82-16.67,37.12-25.17,55.61-1.17,2.53-4.42,4.1-6.71,6.12Z"/><path d="M0,288c8.53-.88,17.05-1.87,25.6-2.52,1.23-.1,3.74,2,3.72,2.08-5,9,3.67,17.37.86,26.41C25.25,329.87,15.52,341,0,347V309c2.16.94,4.36,2.76,6.47,2.65,4.79-.23,6.37-4.37,5-7.91C8.6,296.57,3.86,303.59,0,303Z"/><path d="M0,1189c16.27,7.62,28.62,19.43,29.82,37.72.43,6.44-3,13.77-1.07,21.06.15.55-2.09,2.56-2.95,2.4-8.55-1.56-17.7,1.71-25.8-3.18v-13c3.49.73,7.23,4,10.43.37,1.82-2.07,1.61-5.33-.34-7.8C7,1222.63,3.47,1224.34,0,1226Z"/><path d="M2660,1455l-5.47,3.35c-1.33-7-5.68-11.19-10.75-14.57L2660,1447Z"/><path d="M2660,89l-12.08,2.1c4.57,1,2.08-13.7,12.08-11.1Z"/><path d="M500,1536c-.9-4.48,1.93-6.12,5.49-6.08s6.44,1.56,5.51,6.08Z"/><path d="M511,0c.28,4.17-2.24,5.26-5.75,5.21S499.69,3.81,500,0Z"/><path d="M0,1137v0Z"/><path d="M1995,0h0Z"/><path class="cls-6" d="M1863.38,353.68c-4.1-3.82-8-6.36-10.41-9.9-8.89-13.07-15.28-1.09-20.06,3.11-5.32,4.67-7.25,12.7-.34,19.33,8.54,8.18,7.44-2.82,10.88-5.6,3.5,6,4.56,12.15,2.25,18.41-7.06,19.16-3.6,37.94,1.89,56.54,3.23,11,19.1,15.72,28.28,8.9,2.92-2.17,5.23-.9,7.72.72,1.64,1.06,3.71,2.88,5.18,2.55,13.75-3.15,12.39,3.89,9.62,13.09-2.09,6.94,3.41,6,7.14,5,7.1-1.8,15.09,1.05,20.59-8.32,5.35-9.11,18.24-8.88,27.21-14.24,7.11-4.25,14.46-9.9,23.8-9.29,2.14.14,5-.21,5.19,2.56.11,1.47-1.65,3.29-2.91,4.63-3.63,3.84-7.63,7.34-11.08,11.33a3.44,3.44,0,0,0,1.43,5.77c2.34.94,3.28-2.44,4.1-2.65,9-2.27,11.49-16.09,23.94-12.78,9,2.4,15.87-5.47,24.07-7.77,6.29-1.76,7.78-.79,9.24,5.35,2.31,9.69-.4,20.21,8.34,29.23,3.91,4-5.16,14.86,2.31,22.75h-6c-.37,2.46,0,4.36,2.68,4.92,2.43.5,4.32-.38,5.2-2.78.79-2.18,1.37-4.44,2.07-6.66,1.35-4.23-1.91-11.82,4.51-12.06,6.8-.27,7.27,7.94,7.8,12.77,1.59,14.49,4.47,29.62,1.79,43.53-1.9,9.91-.16,17.12,3.43,25.08,2.81,6.23,6.3,5.56,9.72.34,1.71-2.61,3.72-4.85,7.15-4.69,3.6.17,3.66,3.28,4.48,5.76.31.93.72,2.38,1.38,2.57,13.16,3.69,9.78,18.39,17.44,26,8.45,8.41,17.34,4.67,25.33,1.78,17.26-6.25,32.25-16.71,45.82-29.09,1.72-1.57,3.56-3.73,6-1.62,2.16,1.89-.63,3.43-.91,5.13-1,6,4.88,5.39,7.71,6.14a11.72,11.72,0,0,0,15-9.54c1.2-7,5.59-17.37-7.47-20.17-3.25-.69-8.24-.92-8.5-4.77-.28-4.31,5.05-3.73,8-5.32,1.71-.93,4.1-2.65,4.17-4.11.11-2.13-1.23-6-2.59-6.28-10.83-2.54-12.77-9.37-10.23-18.91,2.15-8.06-3.65-11.33-9.33-13.39-11.47-4.18-19.76-12.34-23.63-22.89-5-13.68-17.58-9.56-26.35-14-8.08-4.13-15.39-12.88-13.54-18.53,2.63-8,12.06-13.92,23.09-9,4.48,2,9.47,2.9,14.23,4.3,3.21.94,4.64-.93,5.54-3.54,2.89-8.37,22.75-16.47,30.54-12.2,1.14.62,2,3,1.9,4.43-.88,8.84-2.51,17.61-3.09,26.46-.89,13.78,10.34,16.49,19.87,19.4,9.75,3,12.08,12.53,18.38,18.48a193.89,193.89,0,0,1,28.55,34c11,16.68,27.82,31.77,18.49,56-1.49,3.88,3.8,10.74,3,17.1-1.51,11.86-6,20.66-16.57,28s-17.65,19.05-27.6,27.24c-14.63,12.06-28.38,25.59-46.36,33.13-1.33.55-2.32,3.11-2.53,4.85-.3,2.43,1.49,3.85,3.85,4.48,11,3,16.15,8.84,19.62,21.19,3.56,12.65,12.32,25.35,23.38,34.61s17.07,25.37,35.61,26.65c-18.11-.21-23.08,15.93-33.75,24.43-11.34,9-20.78,21.9-24.5,34.36-4.08,13.69-10.34,19.51-22,25.4-7.22,3.64,1.37,7.8,5.12,9.92,17.93,10.19,33.6,23.08,48.7,37.11,8.39,7.81,14.34,18,24.82,23.87s15.78,27.84,10.66,38.52c-.79,1.65-1.37,4-.8,5.6,5.73,15.9-2.11,28-9.71,41-13.21,22.66-33.78,39.17-48.26,60.6-4.71,7-13,6-19.22,9.78-9,5.41-8.75,12-8.24,19.64.48,7.2,2.09,14.32,3.09,21.49.35,2.56-1.34,5-3.49,4.52-10.79-2.44-25.63,3.68-29.62-13.83-1-4.25-4.35-1.76-7-1.09-11.06,2.8-22.15,9.43-32.77-2-3.17-3.4-2.95-4.91-1.14-8.64,5.38-11.11,13.73-16.45,26.07-16.23,7.62.13,10.67-6.65,13-11.77,4.79-10.81,12.35-18,23-22.22,9.49-3.74,10.71-10.63,8.83-19.35-1.15-5.36.22-9.67,6.08-11.35,3.53-1,7.41-1.38,7.41-6.5,0-4.78-3.74-5.29-7-6.54-2.3-.9-5.65-1.65-5.1-4.5.32-1.73,3.24-3.44,5.35-4.26,4.71-1.84,10.86-1,11.72-8.56,1-8.54-.42-16-8.13-20.76-6-3.68-11.41-.09-16.42,2.42-1.45,3.3,5.66,4.2,1.78,7.21-3.58,2.78-6-1.06-8.52-3-17.12-13.33-34.15-26.57-56.68-29.87-7.65-1.12-21.18,11.45-19,18.94,1.06,3.57.45,6.3-3,7.23-5.42,1.5-7.91,4.69-9.76,10-1.78,5.15-6.72,3.73-9.07.28-5.95-8.75-11.17-6.75-13.81,1.45a43.62,43.62,0,0,0-2,18.79c2.07,18.27,1.39,37-3.19,55.12-.57,2.23-2.55,5.73-5.53,4.64-1.91-.7-3.38-3.85-4.11-6.19-1-3.28-.77-7-1.8-10.23-1-3-2.37-7.47-6.72-5.16-4.18,2.23,1.46,5.58,1,6.47-4.7,8.57,8.41,18.51-3.4,27.57-4.36,3.34-2.92,14.65-3.52,22.38-.5,6.44-1.94,8.24-9,5.78-9.78-3.43-18.44-9.44-30.61-7.94-6.14.76-13.58-9-22.45-15.47-.32.63-2.52,3.14-2,4.25a47,47,0,0,0,7,9.44c2.65,3,10.88,3.54,7.24,9s-10.92,1.82-15.51-.57c-9.94-5.17-19.67-10.57-30.28-14.44-5.27-1.92-8.85-6.65-12.9-10.75-5.31-5.38-15.27-5.75-22.79-3.77-5.13,1.36-1.15,7.31-.09,11.26a6.88,6.88,0,0,1-.1,4.24c-1.27,2.91-23,6.32-25.23,4.13-4.68-4.61-23.93-.11-26.13,6.77-2.81,8.76-5.65,17.42-4.68,27.26,1.36,13.77-1,27.81,3.06,41.49.47,1.57-1.27,4.81-2.88,5.74-2.3,1.33-2.29-1.94-3.41-3.13-.74-.8-2.62-1.74-3.1-1.4-3.48,2.57-8.39,3.88-8.85,9.36-.89,10.62,5.7,16.23,14.13,19.84,7.42,3.17,10.61-4.24,15.27-7.67,1.36-1,2.34-2.53,3.78-4.13,3.29,5,2.54,9.47,1.17,14-.61,2-.82,4.09,1.41,5.26s4.87,3.09,6.83.6c7.9-10,15.16-5.68,22.33.68,4.19,3.72,8.51,3.06,12.26.07,10.56-8.44,22.76-12.58,35.78-10.67,13.65,2,15.43-11.37,23.88-15.81,7.56-4,17-8,23-2.12,6.4,6.34,4.78,16-3,22.95a128,128,0,0,0-10.48,10.61c-1.17,1.32-2.5,4.5-2,5,11.82,11.42,3.14,23-1.83,32.23-5.48,10.2-10.71-1.85-13.87-4.46-19.94-16.51-22.77-15.69-43.62-.27-7.64,5.65-20.56,4-31,6.09-11.9,2.4-23.73,7.54-35.55,7.41-19.33-.22-40.14,6.59-57-12.13-5.05-5.6-17.82-5-23.83-13.42-2.46-3.46-6.45-6.73-7-10.48-4.72-32.59-19.13-63.35-18.23-97,.12-4.28,3.59-9.82-1.76-12.89-5.82-3.33-7,4-10.63,5.74-6.87,3.25-12.64,5.46-21.69,2.14-12.4-4.55-27.06-2.36-39.8,1.8-14.32,4.68-31.63,2-43,16.56,6-17.73-3.64-32.42-8.44-47.48-4.26-13.34-8.66-27.42-21.51-36.68-5.36-3.85-5.33-11.75-4.32-18.51.5-3.34,3-7.13-.58-9.69-3.82-2.72-7.19.27-10.42,2.32-14.26,9.08-30.2,14.55-45.85,20.37s-32.76,6.37-47.81,14.59c-8.09,4.41-30.49-4.83-34.51-13-.68-1.39-2.1-3.31-3.3-3.4-18.69-1.45-23.64-16-32-29.57C1402,991,1398.84,964,1387.05,940.16c-1.32-2.68,1.22-7.2,1.74-10.89,2.11-14.93-4.32-23.82-19-27a102.32,102.32,0,0,1-12.22-3.84c-3-1.07-5.48-4-3.6-6.46,6.9-8.92,9.8-23.68,26.61-19.37,4,1,3.66-2.78,4.59-5.47,3.54-10.27,2.3-23.32,17.24-26.87,12.51-3,11.42,8.14,14.13,13.61s1.81,12.84-3.12,18.6c-4.15,4.86-2.25,10.41.74,14.91,7.77,11.7,11.34,24.25,9.87,38.28-.77,7.28,3.31,11.54,10,12.67,8.2,1.4,9.82,6.29,8.58,13.35-.59,3.36-1.17,6.6,2.39,8.92s5.36-.93,7.79-2.35,4.52-5.54,7.56-3.39c3.28,2.33.52,6.23-.12,9.24-.94,4.36-2.45,8.61,2.26,11.57,7.28,4.58,14.55,9.64,23.61,3.78,4.63-3,5.07-7.55,4.94-12.3,0-1.14-.9-3-1.75-3.24-1.83-.53-5.14,2.54-5.37-1.6-.21-3.94,3.14-5.12,6.57-6.28,21.23-7.19,41.51-16,55.14-35.13,4.74-6.66-.09-22.28-7.72-25.25-2.51-1-3.77-2.6-3.78-5.24a8.33,8.33,0,0,0,.06-2.48c-3.77-10.14-8.42-20.56,8.87-22.3-.27-1.82-.14-3.81-.85-5.43-6.73-15.29-24.2-15.13-35.28-24.31-9.29-7.7-19.42-14.37-29-21.71-2.13-1.63-3.64-4.34-1.46-7,2-2.44,4.77-1.49,6.87-.27a31.67,31.67,0,0,0,14.12,4.5c3.54.24,3.95-2,3.82-4.44-.14-2.58-3.22-1.83-4-2.55-6.7-6.08-19.66-2.22-22.47-14.18-1.86-7.9-9.48-10.27-15-13.59-17.48-10.39-2.78-15.21,3.51-19.91,5.64-4.21,9.6-8.09,13.18-14.65,3.15-5.78,13.54-7.76,21-10.91,1.47-.63,4.21,1.21,4.17-2.11,0-2.66-.87-4.73-4.47-4.58-5.35.23-10,2.12-14.45,4.81-2.1,1.25-4.78,2.48-6.62-.47a5.1,5.1,0,0,1,1.42-7.19c17.19-10.23,30.08-26.9,51-32,6.87-1.67,12.64-9.85,14.8-17.5,1.12-4-4.91-4.17-8-4.81-7.89-1.65-9-4.88-3.49-10.66,2.29-2.42,3.46-5.1,2.27-8.63-3.14-9.28,9.17-7.83,10.55-15.78,2.74-15.71-5.19-27.67-19.11-36.19-14.62-9-32.66-10.73-45.15-23.21a22.08,22.08,0,0,1-2.28-3.51c4.71-.5,9.19,5.38,12.22.37,2-3.36.16-8.12-3-10.87-4.69-4.09-9.88-5.89-16.45-3.21-9,3.68-15.63,7.73-10.23,19.08,1,2,4,5.74.58,7.46-3.11,1.59-6.21-1.4-8.72-3.61-2.11-1.86-3.35-5.65-7.19-3.4s-4.23,5.57-3,9.55c3.12,10.31-5,11.53-11.51,14.06-5.54,2.16-7.82,5.75-6.94,12a47.86,47.86,0,0,1-9.06,35.84c-6.09,8.37-1.86,15,1.75,23.11,4.53,10.22-.27,24-9.13,25.84-15.91,3.32-19.49-11.8-21.83-24.2-1.19-6.28-2.1-9.48-9.66-7.06-6.37,2-25.63-18.2-21.86-22.67s11.24-6.8,17.51-8.55c16-4.5,20.95-16.36,16-32.1-3.42-11,6.18-20.77,9.08-31.4,5.21-19.14,12.17-37.94,22.19-55.05,5-8.59,9.45-20,22.1-20.93,10.69-.74,13-13.16,23-15,9.79-1.81,18.49-4,28.86.54,13,5.7,28,6.59,41.22,12,16,6.54,33.73,9.3,47.56,20.9,2.18,1.83,5.44,3.16,8.33,1.16,3.14-2.16,1.73-5.24,1-8.19-2.19-9.39-.71-16.24,7.63-23.7,7.9-7.05,12.67-18.38,16.83-28.63,4.67-11.49,7.31-23.83,10.45-35.9,1.51-5.78-1.33-11.27-3.55-17.91,17.82,17.31,40.09,17.26,60.91,20.16,9.11,1.27,18.93,3.58,28.87-2,6.7-3.75,14.3,1.43,19.83,7.09,2,2,4,4.49,7.24,2.83s3.15-4.6,2.94-7.79c-1.61-24.27,3.78-47.62,9.84-70.82,3.43-13.13,6-26.81,11.71-38.9,4-8.46,11.85-15.88,23.75-15.26,2.46.13,5-4.18,7.73-6.05,20.38-13.85,42.45-8.36,64.2-5.19,16.35,2.38,32.54,6.25,49,7.68,7.24.63,9.68,6.29,13.57,9.39,14.2,11.3,23.63,2.47,33.79-5.41,3.1-2.41,5.85-5.29,8.72-8,2.64-2.48,6.06-1.61,6.66.85,2.65,10.9,12.71,20.81,2.76,33.6-3.75,4.83,4.85,7.79,7.87,11.45,5.5,6.66,12.48,11.49,8.28,22.75-3.75,10-10.54,7.43-16,5.75-7.18-2.2-14.42-5.36-18-13.67-2.74-6.34-9.73-5.84-15.48-5.48a47.92,47.92,0,0,1-33.93-10.48c-7.35-5.78-13.65-.88-18.66,3.54-5.28,4.67-9.31,3.7-13.31-.41-3.57-3.65-7.4-4.13-11.22-1.67s-.68,5.74.46,8.35C1865.49,345.28,1864,348.91,1863.38,353.68Zm-41.69,449.26c24,.18,55-19.89,54.85-35.42s-31.2-35.35-55.11-35.43c-5.72,0-19.78,24.84-20,35.33C1801.26,777,1816,802.9,1821.69,802.94Zm339.5,91c.8-.58-1.3.15-1.7,1.42-.94,3,.71,5.3,3.19,7.2,11.9,9.12,27.08,9.66,40.25,15.46,1,.45,2.66-.5,4-.79-.41-1.18-.52-2.59-1.25-3.5C2195,900.33,2180,895.33,2161.19,893.93Zm-380.8-477.51c1,2.8-1.45,8,3.51,8.72,4.33.63,5.21-3.86,5.8-7.36,2.47-14.63-5.07-27.78-6.43-41.86-.19-1.91-2.79-4.75-4.32-1.2a53.79,53.79,0,0,0-4.59,23.84C1774.62,405.65,1782.71,408.87,1780.39,416.42Zm-256.55,598.51a20,20,0,0,1,3.12-.89c16.28-1.62,25.29-14.17,36-24.06,1.52-1.4,3.53-4.62,3-5.48-2-3-5.42-2.47-8.54-1.44-15,5-22.93,19.2-35.29,27.67-.66.44-.88,2.14-.63,3.06C1521.68,1014.37,1523.11,1014.6,1523.84,1014.93Zm683.8-397.68c-7-1.78-11.81,1.62-16.86,3.65-9.08,3.65-19.7,3.15-27.41,10.62-2.65,2.57-5.88,5.14-3.64,8.67s5.61,1.53,8.71-.21c2.18-1.22,4.95-1.43,7.48-2C2189,635.27,2199.77,629.16,2207.64,617.25Zm-417.27,499.33a6.66,6.66,0,0,0-4.36-5.69c-2.32-1-4,.72-4.39,2.87-2.63,14.28-7.9,28.38-3.8,43.21.61,2.19,2.53,4,3.84,6,.91-1.07,2.52-2.08,2.61-3.21C1785.25,1146.64,1792,1134.49,1790.37,1116.58Zm-229.92-563c2.57-.49,4.46-1,3.4-5.38-1.31-5.48-7.59-3.92-9.33-8-5.48-12.92-18.36-14.25-29.24-18.67-.86-.35-2.87.1-3.09.67-.39,1-.27,2.86.44,3.53,4.25,4,8.79,7.71,13.12,11.65C1543,543.94,1549.28,552,1560.45,553.55Zm.8,381.49c3-.6,7.75,1.09,7.34-4.21-.37-4.72-1.78-10.88-7.33-10.84-4.3,0-8.38,4.74-8.71,9.58C1552.16,935.45,1557.53,934.45,1561.25,935Zm559.59-328.65c-.28-3.9-2.31-5.86-5.3-5-3.53,1.06-9.91-.74-9.57,5.19.24,4.1,1.91,10.81,7.11,10.64C2118.65,617.08,2119.26,610.44,2120.84,606.39Zm-282.69,473.05c-2.56,2-9.45-1.43-9.33,5.12.08,4.41,2.31,10.85,7.76,10.52,5.91-.36,5.87-7.24,6.9-11.87C1844.1,1080.44,1841.59,1079.32,1838.15,1079.44Zm276.4-146.52c4.31.2,6.87-1.11,6.26-5-.71-4.6-2.11-10.34-7.32-10.34s-7.15,6-7.24,10.39C2106.13,933.7,2111.92,931.84,2114.55,932.92ZM1837.33,455.4c3.15.24,5.92-.73,5-3.53-1.43-4.34-.15-11.75-6.65-11.75-5,0-7.58,5.64-7.64,10.7C1828,458.7,1835,453,1837.33,455.4ZM1568.1,606.67c.71-4.12-1.59-5-4-4.56-4.12.7-10.61-3.07-11.75,3.36-.84,4.8,4,9.87,8.42,10.28C1565.58,616.2,1566.69,610.11,1568.1,606.67ZM1810.82,338.5c.21,3.78,2.38,5.89,5.91,6.19,3.12.27,4.15-2.26,3.72-4.67-.53-3,1.16-7.77-4.54-7.69C1812,332.38,1811.3,335.43,1810.82,338.5ZM2212,570.19c.28,3.28,1.85,5.43,5,4.95,3.62-.54,6.51-2.5,6.67-6.69.09-2.18-1-4.75-3.23-3.77C2217.49,566,2212.2,564.63,2212,570.19ZM1481,1000.3c.08-5-2.09-6.17-4.83-5.84-3.52.42-6.31,2.87-6.6,6.21-.21,2.45,2.21,4.26,5.23,4.14C1478.74,1004.64,1481,1002.84,1481,1000.3Zm742.77-31.09c.75-8.46-2.82-9.5-6.35-9.84a4.38,4.38,0,0,0-5,4.48c0,5.77,5.38,4.5,8.56,5.65C2223.63,970.46,2223.9,967.66,2223.73,969.21ZM1480.49,536c-.44-2.67-3.35-4.31-7-4.64-2.64-.25-5.41,2.52-4.59,3.95,1.57,2.75,3.12,6.64,7.24,6.8C1479.06,542.21,1480.86,540.64,1480.49,536ZM1821.3,1195.4c-.41-2.46-.64-5.41-3.66-5s-6,2.06-5.88,6.07c.06,3.65,1.55,6.33,5.45,6.11C1822,1202.29,1820,1197.78,1821.3,1195.4Zm-1.65-20.84c-2.34-1-3.72-2.16-5-2-1,.1-1.91,1.69-2.86,2.61,1.1,1,2.2,2.69,3.28,2.67S1817.48,1176.2,1819.65,1174.56Zm380.77-217.81c1.37-2,2.72-3,2.68-4s-1.39-2.13-2.16-3.2c-1.06,1.06-2.54,2-3,3.23C2197.69,953.47,2199.14,954.79,2200.42,956.75ZM1497.64,544.66c-1.56-.83-2.68-1.92-3.43-1.71-1.15.32-2,1.53-3.06,2.37l3.23,3.12C1495.27,547.42,1496.15,546.39,1497.64,544.66Zm-3.92,451.47c2.06-3.56,3.21-4.68,3-5.4-.33-1.14-1.59-2-2.45-3-1,1-2.53,1.88-2.71,3S1492.5,993.31,1493.72,996.13ZM2204.34,582c-2-1.3-3-2.51-4.06-2.51-.85,0-2.5,1.61-2.38,2.23a4,4,0,0,0,2.37,2.82C2201.16,584.67,2202.35,583.28,2204.34,582ZM1818,360.2c-1.91-1.46-3.11-3-4-2.86-1,.21-2.13,1.79-2.44,3-.15.54,1.5,2.2,2.36,2.21C1815,362.54,1816.05,361.38,1818,360.2ZM1393.79,635.86c2.42.3,3.42-.57,3.06-3.05C1394.44,632.54,1393.3,633.26,1393.79,635.86Zm550.2,582.5c-1.86-3.68-2.92-4.73-5.65-2.65ZM1942.28,319c-.7-.67-1.18-1.43-1.51-1.38a6.83,6.83,0,0,0-2,1.05c.39.55.78,1.57,1.17,1.57C1940.6,320.26,1941.25,319.61,1942.28,319Zm231.23,761.26-1.82,0,.24,3.37,1.4,0ZM1397.65,903.46c.21-.44.43-.88.65-1.33-1-.45-1.91-.92-2.89-1.33,0,0-.28.52-.67,1.26Zm774.91-453.7c-1.43,2.72-1.92,3.31-1.8,3.49a8.44,8.44,0,0,0,1.48,1.37Zm43.81,532.09a5.22,5.22,0,0,0-1.25-.93c-.19-.07-.77.33-.75.43.07.4.25,1,.52,1.09S2215.68,982.16,2216.37,981.85ZM1834,1201.17l0-.27-.25.08Z"/><path class="cls-5" d="M994.47,689.63c7.83,7.67,18.75,9.32,28.06,14.1,8,4.08,10.34,7.72,5.82,16.58-7.66,15-14,30.66-20.26,46.28-2.28,5.64,3.12,10.17,5,15,5,13.38,11.59,26.18,17.39,39.28,2.24,5.05-.35,8.46-4.84,10.2A303.53,303.53,0,0,0,968.31,861c-8.67,5.72-23.92-2.85-30.14-16.53-10.24-22.56-26.59-31.77-52.14-30.66-8.33.36-16.79-1.4-25.14-2.57a6.21,6.21,0,0,1-5.39-5.85c-.11-2.66.37-5.61,4.44-6,2.53-.24,2.62-2.47,1.69-5l-4.79,2.4c-.77-15.19,4.87-29.67,2-44.28-1.36-6.93,1.43-13.81-1.91-21-1.9-4.12,3.75-7.8,8.89-8.45,10.48-1.33,21.21-4.63,31.41-3.44,26.21,3.06,33.6-17.58,45.43-33.11,4.58-6,8.84-12.49,14.43-17.41s10.33,1.67,14.56,4.15c8,4.7,15.22,10.86,22.76,16.41Zm-35.1-4.25c0,.75,0,1.5,0,2.25l-.25.17.27-.21V685.4l-.39-.1Zm8.17,25.29-6.2-4.36c1.75-.28-.47,9.32,6.2,4.34-.11-.24-.21-.49-.32-.74C967.33,710.17,967.43,710.42,967.54,710.67ZM867.88,737c-1.9-2-4-2.61-7.35-.76,1.21,1.37,2.32,3.54,3.26,3.47,1.39-.11,2.65-1.81,4-2.83.65-.18,1.31-.36.34-.09C868.85,736.1,868.37,736.56,867.88,737ZM894,755.36c-.83,8.68-1.51,15.67-2.18,22.66a30.33,30.33,0,0,0,5.74-13.66C897.83,761.91,895.53,759.1,894,755.36ZM986.21,813c-7.9-1.05-15,0-21.59,8.33Zm-16.2-101c-1.42,5.58,3.12,7.46,5.61,9.95,4.47,4.48,6.66,4.68,11.16,2.12C978.75,723.26,976.27,716.05,970,711.94Zm52.43-6.61c-3.45-.11-6.22-1.24-7,2.24-.31,1.42.89,4.55,1.27,4.52C1020.61,711.87,1019.44,707.67,1022.44,705.33ZM889.91,780.4v9.83C893.33,786.4,896.6,783.71,889.91,780.4ZM989,724.29c.84,2,1.25,4.53,2.7,6,.91.89,3.4.17,5.18.17C993.92,728.31,991,727.54,989,724.29Zm-97.74,19.88c.27,2.88.54,5.76,1.13,12C896.11,749.71,894.51,746.82,891.26,744.17Zm65.23,85.71,9-5.73C960,820.51,958.94,824.3,956.49,829.88ZM1000,807.15c-6.33-.5-9.53-.78-11.64,5.42Zm20.91,21.52c-1.52-1-2.43-2.1-3.23-2s-1.49,1.3-2.23,2c.64.58,1.29,1.66,1.91,1.64C1018.34,830.27,1019.27,829.49,1020.94,828.67ZM966.8,673.77l-.88,5.83c.91,0,2.15.33,2.68-.14C970.51,677.78,969.23,676.33,966.8,673.77Zm.3,180.45c-.94,1-1.79,1.6-2.06,2.38-.16.47.55,1.25.87,1.89a10.57,10.57,0,0,0,2.28-2C968.39,856.26,967.64,855.32,967.1,854.22Zm-9.74-8.87c-.51,1-1,1.56-.94,2s.67.93,1,1.39c.36-.45,1-.87,1-1.34S958,846.4,957.36,845.35Zm57.22-126.13c-.38.48-.87.82-.87,1.16s.49.67.77,1l1.15-1.22ZM952.44,830.55a5.68,5.68,0,0,0-1.1,1c-.08.13.24.73.39.73A4.62,4.62,0,0,0,953,832C952.83,831.58,952.68,831.18,952.44,830.55Zm63.34-14.1c-.56-.33-.94-.73-1.29-.7s-.58.52-.86.81c.32.24.65.68,1,.68S1015.27,816.82,1015.78,816.45Zm-12.84-83.55a1.64,1.64,0,0,0,.36-.16c-.07-.22-.17-.44-.26-.66a1.62,1.62,0,0,0-.36.16A3.12,3.12,0,0,0,1002.94,732.9Zm-112.8,62.87c0,.13-.16.27-.13.37s.21.17.32.25l.23-.59Z"/><path d="M1317.19,676.07c13.15,3.28,29,9.19,45.13,14.42,10.52,3.41,17.35,11.57,27.28,15.13,3.69,1.32,4.85,6.12,4.31,10.41-.47,3.68-3.3,4.65-6.27,6.18-11.86,6.09-23.82,12.11-35,19.31-7,4.52-45,10.78-52.39,6.84-2.07-1.1-5.56-3.71-2.83-5.57,16.55-11.23-1.87-13.48-5.2-15.5-16-9.68-31.76-18.59-42.2-35.36-11.32-18.18-19-38-28.43-57-2.42-4.9-3.07-10.71-4.28-16.16-.28-1.25.23-3.78.85-3.94,4.94-1.29,9,1,12.73,3.95,9.67,7.49,4.33,19,7.69,28,2.63,7,0,19.25,9.11,20.28,11.09,1.25,11.93,11.4,18.19,16.32,6.07,4.78,10.84,12.54,18.52,16.31a153.06,153.06,0,0,0,20.71,8.47c6.83,2.17,14.41-4,21.62,2.4,2.3,2.05,6,2.3,8.71,6,4.26,5.86,7-2.27,10.78-3.17,1.11-.27,2.35-2.6,2.85-2.39,15.9,6.71,8.3-4.9,8.17-10.49a10.83,10.83,0,0,0-1.14-3.44c-11.65,3.84-16.41-16.58-29.82-8.85C1325.66,688.54,1319.16,678.72,1317.19,676.07Z"/><path d="M846.71,1129.05c-19.8,19.59-38.83,40.07-65.45,50.61-7.11,2.81-12.62-.77-11.94-7.74,1.24-12.6,2.18-25.76,1.49-37.76-.9-15.8,6.93-27.59,10.14-41.29,1.29-5.46,5.27-9.36,9.88-12.11,4.38-2.6,5.06,1.16,5.39,4.26.83,7.74,6,7,10.45,4.55,9.54-5.38,18-13.41,28-17,16.33-5.9,32.9-11.46,51.44-6.3,11.42,3.18,24.12,1.48,36.16,2.8,7.79.85,15.48,3,23.1,5,2.59.68,3.31,2.57,1.06,5.27-8.53,10.22-20,8.91-31.47,3.23-9-4.43-21.15-19-32.26-1.19-7.35-6-13.23,2.33-20.24,2.34-7.21,0-16.86,1.86-21,6.71-5.71,6.64-15.35,7.52-19.12,14.91s-5.2,17.66-14,18.62c-16.82,1.82-6.46,18.25-14.72,24.21-1,.73-.19,6.2,2.35,5,5.19-2.41,12,7.76,15.15-1.85,1.56-4.79,3.39-6.92,8.25-6.08,3.4.58,7.52-1.06,7.48-3.47-.21-12.73,13.39-6.84,17.38-13.51.13-.23,1-.18,1.4,0A4.21,4.21,0,0,1,846.71,1129.05Z"/><path d="M682.08,922.07c12,12.28,23.39,24.39,31.68,39.59,6,11,15.91,19.35,20.84,31.81,7.53,19,9.82,37.74,5.74,57.57-.82,4,1.92,6.78,5.58,7.43,3.25.58,8.7-4,9.65.37,1.34,6.18-3,11.94-6.45,17.47-14.64,23.14-39.18,33.7-60.52,48.31-6.19,4.24-11.91,1.64-13.09-4.75-2.73-14.79-2.77-29.77,1.25-44.56,3.36-12.36,6.28-24.84,10.22-37.12-2.19,7.06,9,14-1.05,22.48-2,1.67-4.59,17.6.58,25.91,1.32,2.12,5.13,15.85,11.24,2.39,2.87-6.32,13.92-6.89,13-10.22-2.32-8.54-3.09-16.71,1.55-23.49,11.19-16.38,12.73-34.18,5.62-51.25-2.78-6.67,2.36-16.91-7.93-20.44a1.47,1.47,0,0,1-.71-1.23c8.2-21.5-13.09-23.91-22.51-33.21C678.09,940.56,673.48,933.44,682.08,922.07Z"/><path d="M686.47,497.3q-3.75-17.21-7.5-34.4c-3.1-14.33-5.46-28.74-4.11-43.49A12.86,12.86,0,0,1,681,409.18c3.48-2.25,5.63-.09,8.41,1.63,12.33,7.62,25.7,13.85,37.08,22.67,13.28,10.31,27.3,21,30.15,39.58.24,1.58-.25,4.09-1.32,4.81s-3.45.05-4.92-.68c-5.54-2.77-7.83-.7-8,4.94-.43,14,.48,28.12-1.61,41.82-2.25,14.69-8,28.4-18.61,39.85-12.29,13.25-17.26,32.32-33.4,42.7-2.09,1.34-3.77,3.34-5.63,5-1.35-2.89-3.55-5.69-3.88-8.7-1.23-10.91,7.28-15.27,14.11-21.49,8.13-7.4,24.81-9.91,17.92-28.19-1.1-2.92,5.3-8.91,6.38-15.72,1.84-11.58,4.56-22.32,4.52-34.7,0-13.54-10.95-20.93-11.39-32.91-.12-3.48-2.56-6.71.55-10.21,1.8-2,.45-4.54-1.67-5.38-5.28-2.07-9.66-4.4-11-10.79-.51-2.47-5.16-3.6-6.06-1.33-2.11,5.29-14.44,6.11-7.17,15.23,3,3.79,4.37,6.68.54,10.71-1.92,2-1.38,5.68.63,6.81C698.87,481.75,685.49,489.8,686.47,497.3Z"/><path d="M1310,861.81c7.28-6.3,14.14-7.45,13.15-16.73,13.59,12.69,20.08-6.44,31.86-4.64,3.73.57,4.54-9.43,4.75-14.18.18-4.3-5.45-3-9-1.77-.3.1-.81.14-1,0-11.34-11.55-19.85,4.48-29.25,3.08-13.59-2-23.9,5.14-35.68,8.22-5.62,1.47-9.27,5.3-11.72,9.36-4.82,8-15.27,10.77-17.62,21.2-.83,3.7-9.38.11-11.5,5.35-4.5,11.13-7.23,22.71-6.22,34.81.6,7.09-12.88,18.49-19.16,15.67-.81-.37-1.43-2.58-1.17-3.73a157.78,157.78,0,0,1,15.84-42.29c8.24-14.94,12.79-31.92,25.94-44,11.88-11,24.35-20.85,39.82-26.44,2-.71,3.78-3.08,4.79-5.11,1.18-2.38-1.42-3.27-3-4.46-4.22-3.27-5.09-6,.93-8.4,16.17-6.58,31,.4,45.15,5.83,14.93,5.71,28.91,14.1,42.83,22.15,7.3,4.21,5,10.69-.39,14.71-16.17,12-35.17,18.15-54.06,24.29C1328.38,856.91,1321.25,858.65,1310,861.81Z"/><path d="M2010.73,1369.43c-2.18-11.41,7.82-14.2,14.12-20,8.09-7.42,21.85-10.62,18.29-27.4-.77-3.65,4.11-12.35,5.93-18.66,2.4-8.32,9-16.53,3.52-26.05-.42-.72-1.25-1.66-1.06-2.18,6-16.09-13.34-27-9.72-40.85s-12.38-13.33-12.71-23.15c-.08-2.25-5.06-2.82-6.11-.37-2.22,5.16-13.58,7.08-6.18,15.66,2.86,3.33,5.08,5.67.13,9.16-1.15.81-1.26,5.82-.45,6.24,10.26,5.36,3.47,13.86,4.07,20.89.1,1.14-1.14,2.4-1.77,3.6-.87-1-2.35-1.91-2.51-3-3.63-25.18-13-49.62-10-75.67,1-8.57,5.54-13.74,13.77-8.65,17.19,10.64,36.24,18.91,50.08,34.19,7.16,7.9,17.13,14.57,17.24,27.16,0,1.64.37,4.34-.35,4.71a7.82,7.82,0,0,1-5.56.28c-7.09-2.53-8.79-.09-8.35,7,1.59,25.89,1.5,52.72-15,73.67-13.84,17.62-22.53,39.54-41.9,52.81-3.4,2.33-5,.8-5.46-5.76C2010.65,1371.94,2010.73,1370.77,2010.73,1369.43Z"/><path d="M2009.49,159.47c6.31-3.62,8.27-3.83,21,12,11.56,14.41,21.56,30.21,31.06,46.1,12,20,12.8,42.16,9.92,64.77-.74,5.78,1.44,10.2,8.89,6.89,1.25-.56,3.53-.53,4.4.26s.91,3,.51,4.34c-8.62,29.48-32.74,43.21-57.41,56.43-3.52,1.89-6.55,4.67-10,6.77-6.77,4.16-10.81-1.85-11.36-5.78-2.14-15.34-4.11-30.69,2.15-46.08,3.71-9.12,4.44-19.45,6.56-29.23.52-2.42-.48-5.78,4.68-6.71-4,5.74-.39,9.74,1.72,13.82,1.64,3.18-.43,3.57-2.32,4.68-5.38,3.18-6.11,8-2.5,12.44,2.28,2.83,2.54,4.45.19,6.84-9.46,9.66,3.1,12.34,6,18,.24.49,3.16-.37,4.83-.61-1.89-10.93,16.12-7.29,13.61-18.4-1.92-8.54-1.44-16.79,4.73-23,2.53-2.55,4.57-4.67,4.6-8,.12-13.51,6.48-28.63-1.17-39.91-4.46-6.58.54-15.39-7.49-19.27-.27-.13-.64-.55-.59-.76,4.94-22.29-15.22-26.1-26.66-36.4C2009.48,173.92,2006,168.08,2009.49,159.47Z"/><path d="M2173.84,361.84c-6.56,13.24-19.3,20.4-29.55,30-8.66,8.1-19.29,13.18-29.55,18.81-4,2.19-8.17,1.35-11.4-.42-4.23-2.32-3.17-6.71-2.79-11.26,1.32-15.68-.54-31.92,2.85-47,3-13.36,4.19-28.87,17.27-38.28,2.23-1.61,5.39-2.26,5.95.21,4,17.38,11.72,5.93,17.71,2.25,19.33-11.86,39.89-22.21,62.72-19.55,23.3,2.71,47.29,1.51,69.86,9.61,1.06.38,1.81,1.64,2.7,2.5-3.12,3.05-5.79,6.91-9.46,9-8.62,4.86-16.61-.29-23.47-4.26-7.79-4.52-18.92-9.73-23.8-6.8-8,4.81-17,5.64-24.9,8.53-6.17,2.25-16.66.82-21.49,5.24-9,8.27-24.47,9.56-27.13,25.64-1.09,6.64-9.11,11-16.16,12.89-3.35.88-5.27,1.37-5,4.93.34,5.23,3.05,10.73-3.67,14.58-1.78,1-1.11,5.16,2.16,5.78,6,1.14,13,6.35,17.08-2.7,1.66-3.72,3.05-5.52,7.36-4.5,1.59.38,5.15-.94,5.21-1.7.91-11.27,9.78-11.56,17.67-13.28Z"/><path d="M848.58,408.9c-7.22-5.6-12.24-9-19.25-5.27.48-9.59-1.84-15.75-12.18-14.24-.75.12-2.37-1.19-2.52-2-2.41-13.42-12.15-6.17-18.57-5.94-3.76.13-3.52,4.92-1.41,8.1,1.09,1.63,3.89,3.35,3.62,4.5-3.69,15.69,12.59,14.78,18.58,22.33,2,2.48,2.52,4.79,3.15,7.45.3,1.29.29,3.08,1.13,3.76,12.28,9.94,24.24,20.55,40.26,24.11,9.57,2.12,19.22,1.71,28.34,7.95,7.93,5.42,18.5-1.78,24.62-5.69,13.87-8.9,24.15-8.95,35.59,4.6-13.05,1.79-23.85,9-37,8.54-10.69-.34-21.35,1.51-32,2.74a80.22,80.22,0,0,1-43-6.95c-11.16-5.28-21.65-12-32.48-17.94-2.33-1.28-4.84-1.53-6.73.93s.42,9-4.48,7.85c-5.72-1.34-10.22-6.37-12.68-11.94-11.14-25.26-10.9-52.27-11.48-79.08-.2-9.52,6.85-10.58,13.13-7.64,24.64,11.55,43.75,30.48,63,49.13C846.64,404.58,846.79,405.26,848.58,408.9Z"/><path d="M2177.65,1173.06c-5.21-5.67-16.78,1.67-20.63-11.36-2-6.77-16.33-17.19-30.15-11.47-3,1.24-3.9,5-2.2,6,6.54,3.86,3.6,9.84,4.58,15,1.23,6.5,8.77,6.62,12.76,8.72,8.87,4.68,6.14,15.58,13.45,19.68,13.3,7.45,23.54,19.79,41.55,20.09,5.5.09,16-.79,23.42,7.55,5.63,6.34,18.32-1,25.31-5.47,12.57-7.93,23.51-8.88,33.38,2,2.21,2.43,1.4,4.12-1.77,5-26.61,7-53.93,8.72-81.14,8.84-22.14.1-40.66-11.84-58.58-23.84-1.48-1-3.69-1.8-5.3-1.46-1.29.27-2.63,2.27-3.14,3.77-.77,2.24.1,6.22-2.82,6.11s-6.35-2.09-8.55-4.27c-7.08-7-7.53-17-10.85-25.74-7.5-19.73-4.18-40.42-5.08-60.74-.45-10.08,6.69-10.63,12.62-7.82a163,163,0,0,1,54.68,42.4C2171.54,1168.73,2174.81,1170.71,2177.65,1173.06Z"/><path d="M2352.14,464.59c12.61.22,19.71-5.36,27.76-7.53,14.92-4,24.24-17.85,39.36-21.08,3.13-.67,5.72.13,6.19,3.18,3.26,20.76-3.79,38-19.65,51.16-12.59,10.43-24.81,22.26-42.55,23.47-9.6.65-19.87,3.28-26-8.2-1.18-2.21-4.8-4.17-7.42-4.34-7.61-.48-8.49-4.35-4.65-9.28C2333.69,481.05,2339.49,466.83,2352.14,464.59Zm-7.24,24.06c1.11,4.28,5.14,4.43,7.95,4.53,2.29.09,5.89-2.24,4.87-5.38-.78-2.4-4.18-6-5.69-5.67C2349.14,482.75,2345.61,484.63,2344.9,488.65Zm28.92-17.26c1.85,2.56,2.74,3.87,3.71,5.11,2.72,3.47,4.57,1.71,4.14-1.39C2381.22,471.84,2377.51,472.61,2373.82,471.39Z"/><path d="M1025.84,1283.36c-7.76-2.51-17-.42-20.18-10.67a4,4,0,0,0-2.66-2.13c-18.28-3.45-7.14-11.59-2.73-18.16,7.82-11.65,17.16-18.5,32.7-21.08,14.5-2.41,30-8.94,41.71-20.22,1.91-1.85,4.77-5.47,5.77-5,4.45,2,12.13-9.82,14.07,6.7,4.09,35-21.33,46.43-41.89,62.77C1044.64,1281.89,1034.46,1280.07,1025.84,1283.36Zm-4.6-22.07c3.09-.35,5.35-2,5.38-5.25,0-2.74-1.29-6.1-4.2-5.75-3.18.37-7.11,2-7.26,6.23C1015,1260.12,1018.27,1260.71,1021.24,1261.29Zm23-20.79c1.72,3.15,2.64,5.9,5.91,5.69.64,0,1.85-2.13,1.61-2.9C1050.69,1239.91,1047.64,1241,1044.25,1240.5Z"/><path d="M1360.72,1055.77c-3.17,14.44,5.07,26.64-3.6,38.56-11.8,16.23-27.83,24.31-46.19,29-16.33,4.15-33.33,9.9-46.65-7-1.88-2.39-8.2.65-6.89-4,1.5-5.31,4.69-10.37,11-12.52,19.86-6.77,35.4-19.27,48.81-35.41,8.61-10.37,22-9.33,34.38-9.43C1355.25,1054.86,1360.19,1051.47,1360.72,1055.77Zm-22,13.63c-2.41.9-7-.11-7.24,4.88-.13,3.15,1.64,6.34,5.14,6.2,3.86-.16,6.11-3.07,6.42-7C1343.23,1070.92,1342.37,1069.15,1338.72,1069.4Zm-26.91,28.88c1.31-2.81,2.45-4.09,2.25-5.11-.32-1.61-1.53-3-2.37-4.55-.88,1.21-2.41,2.4-2.47,3.65C1309.16,1093.7,1310.4,1095.2,1311.81,1098.28Z"/><path d="M512.8,591c-10.22,12.88-8.91,28.5-11.67,43.09-1.26,6.63,1.1,13.9,1.5,20.9.21,3.75.66,7.86-.57,11.23-6.14,16.88-15.32,1.86-19.92-.25-18.25-8.36-19.65-28-23.22-44.6-4.34-20.11-2.68-40.5,15-55.05,5.89-4.85,14.8-4.44,21.06-10.47,2.38-2.3,4.23,4.58,5.65,7.66C504.66,572.25,508.46,581.13,512.8,591ZM496,585.54c-.56-2.53-1.12-6.2-4.87-6.37s-5.88,2.57-6.16,6.35c-.23,3.05.84,5.33,4.35,5.12C492.3,590.45,496,590.87,496,585.54Zm-4,27.07c-2.2.52-3.79.79-5.31,1.28-3.3,1.09-3.9,3.1-.3,4C489.48,618.76,491,616,491.93,612.61Z"/><path d="M1096.09,305c-.54,10.2-.74,16.05-1.25,21.88-.09,1-1.63,2.73-2.29,2.63-4.45-.63-9.41,1.13-13.24-2.58-14.66-14.25-32.93-21.07-52.45-24.92-14.4-2.84-21.34-13.68-29-24.44-6.24-8.74-3.54-10.32,5.29-14.87,6.57-3.39,11.45-10.35,20.22-10.88,22-1.34,38.13,9.52,52.44,24.54C1084.92,285.93,1095.49,294.54,1096.09,305Zm-74.88-32.23c-3.15,0-5.91,1.34-5.78,4.64.16,3.94,3.42,6.23,7,6.44,3.74.21,4.79-3.51,4.95-6.31C1027.59,273.72,1024.41,272.94,1021.21,272.77Zm24.19,20.93c4.09-.09,7.28-.4,8.12-4.88C1048.22,285.66,1046.94,289.32,1045.4,293.7Z"/><path d="M1786.62,165.15c1.59-12.93-.16-26.31,5.24-35.5,6.57-11.2,7-29.59,25.78-30.89,4.44-.3,6-12.33,11.95-3.36,6.24,9.5,2.74,20.23.76,30.27-.78,4-1.93,6.66,2.22,9.2,5.52,3.37-.19,7.67-.11,11.45.22,10.79,6.28,19.77,6.94,30.38.83,13.31-8.37,22.34-11.94,33.66-.27.85-4.07,1.54-4.14,1.37-5.11-11.4-20.21-5.9-26.78-16.88C1790.54,184.82,1789.86,174.15,1786.62,165.15Zm39.24,17.62c.2-6.82-3.93-5.94-6.7-6.23-3.57-.36-6.23,2.4-5.53,5.36.58,2.46,4.18,6.22,5.89,5.94C1822.19,187.42,1824.39,184.07,1825.86,182.77Zm-6.16-31c-1.63-3.2-3.85-3.56-6.34-2.37a2.85,2.85,0,0,0-.68,2.33A5.56,5.56,0,0,0,1819.7,151.82Z"/><path d="M2425.86,1077.93c0,5.42,1.25,11.23-.28,16.18-2.41,7.8-10.92,4.1-13.32,2.13-18.65-15.25-40.18-22.93-63.1-29.14-12.82-3.47-17.9-17.8-25.3-28.24-.52-.73,0-3.19,0-3.19,12.09-.45,15.68-14.93,29.1-15.6,27.45-1.37,43.76,14.63,60.37,32.14C2420.45,1059.67,2425.86,1067.36,2425.86,1077.93Zm-74.49-37.68c-2,1.67-5.59,3.25-5.71,5-.25,3.93,3.85,6,7,6.45,2.82.43,5.68-2.11,5.65-5.6C2358.25,1042.25,2354.3,1042.42,2351.37,1040.25Zm24.54,21.25c3.48,1.58,5.68.24,7-2.71a3,3,0,0,0-1.44-2.46C2377.68,1055.88,2377.51,1059.37,2375.91,1061.5Z"/><path d="M1788.47,1371.92c-.94-14.61,5.37-25.9,14.38-36.14,5.71-6.48,14.89-7.12,21.93-10.4,6-2.82,9.85,10.71,12.44,17.42,8,20.71-3.1,40.1-6,60.14-1.14,8,2.09,16.56,3.23,24.87.73,5.37-2.18,9.87-5.24,13.38-2.41,2.77-4.4-2.17-6.89-3C1788.66,1427.35,1793.94,1396.87,1788.47,1371.92Zm32.64-13.28c2.68-.84,7.13.41,6.43-4.62-.43-3.09-1.33-7.22-5.17-7.29s-5.83,3.29-6.09,7.12C1816.07,1357.13,1817.81,1358.71,1821.11,1358.64Zm-7.36,25.69c1.69,1.07,3.36,2.94,4.64,2.71s2.23-2.54,3.51-4.19C1818.54,1381.52,1816.29,1381.75,1813.75,1384.33Z"/><path d="M1254.09,423.43c12.58-.7,16.19-15.76,29.13-13.83,13.76,2.06,27.4,1.76,40.91,8.09,13.08,6.12,24.84,12.84,32.23,24.93,4,6.59,9.06,14.7,2.34,23.12a3.86,3.86,0,0,0-.33.94c-2,5.22,5.43,14.46-.57,15-10.72,1-23.12,1.39-32.78-4.7-9.19-5.8-16.1-15.15-25.13-21.28-11-7.48-20.76-17.28-35.14-19.64C1261,435.46,1258.18,428.52,1254.09,423.43Zm82.21,44.16c4.14-.08,7-.6,6.33-4.35-.68-3.53-1-8-6.43-7.69-4.23.22-5.25,3.51-5.09,6.69C1331.29,465.8,1334.3,467.13,1336.3,467.59Zm-27.65-20.87c-.09-.16.91,2.51,1.54,2.43,3.43-.44,3-3.79,3.61-6.17.43-1.64-.13-3-2.31-2.64C1308.84,440.74,1307.86,442.3,1308.65,446.72Z"/><path d="M456.29,931.21c-.59-23.56,6.14-41.1,16.74-56.4,4.43-6.41,14.17-10.6,22.27-12.46,4.95-1.13,7.41,8.28,6.74,12-1.88,10.53-3.41,20.19-.49,31.21,1.45,5.45-1.35,13.63,1.51,19.25,9.6,18.87,3.78,35.36-5.59,51.89-1.44,2.53-2.89,4-5.33,2.67-18.87-10.25-38.43-20-35.52-46.89C456.81,930.75,455.5,928.82,456.29,931.21Zm31.56,13c-3,.54-5.84,1.81-5.45,5.51.42,4.08,3.44,6.44,7.38,6.54,4.91.14,3.65-4.22,4.06-7C494.48,945.05,491.11,944.75,487.85,944.25ZM489,919.48c-2-1.42-3-2.68-4.07-2.73-.83,0-1.74,1.42-2.61,2.21,1,.89,1.83,2.15,3,2.54C486,921.73,487.14,920.57,489,919.48Z"/><path d="M2199,1394c10.29-14.94,20.49-29.94,30.91-44.79,3.56-5.06,8.46-9.32,11.38-14.68,6.07-11.16,17.86-10.08,27.32-14a3.23,3.23,0,0,1,2.62.73,2.33,2.33,0,0,1-.06,2.2c-7.53,9.88-15.21,19.66-22.72,29.56-10.11,13.33-20.54,26.46-30,40.22-8.61,12.47-20.41,16-34.79,17.44-28,2.78-55.89,7.3-87.06,11.54,11.5-11.4,19-21.43,33.84-22.51,22.93-1.69,45.65-6,68.74-5.86Z"/><path d="M2098.85,114.12q50.42,4,100.19,12.92c16.22,2.9,19.43,19.47,28.45,29.84,12.12,13.93,23.44,28.56,34.94,43,3,3.76,5.37,8,8,12-15.52,6-68.77-47.07-72.25-71.8a416.68,416.68,0,0,1-54.54-4.27c-9.49-1.33-19.76-.27-28.19-4.85-6.76-3.67-13.61-8.79-16.48-17Z"/><path d="M766.39,654.08c8.52-9.92,14.19-19,24-20.68,24.62-4.27,49.58-6,74.55-7.66,8.49-.57,10.11-11.2,14.36-17.53,11.34-16.89,22.06-34.47,37-48.25,5.76-5.31,16.05-5.71,28.18-9.61-20.41,25.83-40.54,46.85-55.1,71.19-11.34,19-27.28,19.21-44.33,21.57C819.92,646.59,794.82,650.11,766.39,654.08Z"/><path d="M764.59,880.77c30,4,57.09,8.24,84.32,11,14.44,1.46,27.58,3.73,36.57,16.51,7.75,11,15.81,21.79,23.55,32.8,9.66,13.72,22.86,24.8,30.39,40.3-18.43,3.49-62-41.21-71.48-71.35C833.39,901.13,794,916.3,764.59,880.77Z"/><path d="M1138.14,668.94c13.81,10.75-2.43,70.34-26.72,98.69,13.51,23,24.23,47.46,33.54,72.38,3.46,9.24-2.75,18.69-6.21,31.3-11.64-29.62-19-57.5-33-81.52-15.28-26.21,2.64-43.74,9.39-64.45,5-15.23,11.17-30.05,17-45C1133.74,676.41,1136.13,672.76,1138.14,668.94Z"/><path d="M1834.52,214.49c3.48-8.3,1.09-15.86,8.87-18.58a8.2,8.2,0,0,1,1.67,3.81C1845,205.76,1841.81,209.81,1834.52,214.49Z"/><path d="M2327,472.94c-.83,8.81-3.91,13.87-9.57,17.26-.2.12-2.08-1.49-2-2.17C2316.13,481.35,2321.59,478.4,2327,472.94Z"/><path d="M513.36,572c-4.95-5.52-9.54-9.71-6.53-16.49.17-.39,3.1-.27,3.23.13C511.73,560.55,515.83,565.08,513.36,572Z"/><path d="M28,276.16c-8.58,3.55-14,6.53-20.4,4.13-.42-.15-.67-2.56-.28-2.82C13,273.74,18.91,274.83,28,276.16Z"/><path d="M1837.86,1321.46c4.7,5.44,9.39,9.12,7.73,15.92-.16.64-2.07,1.6-2.48,1.34C1837.18,1334.89,1837.79,1328.93,1837.86,1321.46Z"/><path d="M2328.76,1057.88c-.81.62-1.69,1.83-2.37,1.73-7.09-1.07-6.25-9-10.56-12.61a9.58,9.58,0,0,1,1.52-2.32C2323,1047.21,2325.35,1052.59,2328.76,1057.88Z"/><path d="M1358,1042.85c-7.43,5.63-12.59,7.54-18.6,5.19-.39-.15-.56-2.57-.1-2.89C1344.26,1041.69,1349.72,1043.11,1358,1042.85Z"/><path d="M1355.28,490.78c-5.79,2.72-12.12,3.75-16.15-2.49-1-1.48,4-2.14,6.22-1.55C1348.77,487.66,1352,489.39,1355.28,490.78Z"/><path d="M512.18,969.65c-.91,5.6-.7,10.61-6.23,12.44-.46.15-1.42-1.24-2.15-1.91,4-3.78-.31-11.46,6.49-13.75C510.59,966.33,511.81,969,512.18,969.65Z"/><path d="M985.36,275.54c6.63,4,11.26,7.61,11.93,14.36,0,.25-2.16,1.27-2.65.94C989.71,287.48,986.85,282.8,985.36,275.54Z"/><path d="M997.07,1242.93c-1.73,7.34-4.48,12.37-10.6,14.8-.2.08-1.6-1.59-1.42-2C987.14,1250.18,989.82,1245.15,997.07,1242.93Z"/><path d="M24.46,1259.06c-5.62,4.67-11,2.2-17.43-1.47C13.72,1252.32,18.92,1258.9,24.46,1259.06Z"/><path d="M1452.51,716.18l4,3.17c-1.19.85-2.44,2.47-3.54,2.37-1.47-.13-2.82-1.6-4.22-2.49Z"/><path d="M737.42,1231.44c-2.65-3.39-1.36-5.57,1-7.17.78-.54,3.23-.29,3.35.09C742.92,1228.07,739.59,1229.13,737.42,1231.44Z"/><path d="M1985.09,1120.85c4,.26,5,2.45,4.61,5.42-.11.77-1.8,2.11-2.15,1.93C1984.3,1126.64,1985,1123.79,1985.09,1120.85Z"/><path d="M1308.34,596c4.59,1.28,5.75,4.19,4.8,8.87C1309.68,602.59,1307.13,600.43,1308.34,596Z"/><path d="M2639.19,174.85c-1-7.09,1.95-9.21,8.19-15.43C2643.44,166.85,2641.9,169.76,2639.19,174.85Z"/><path d="M2645.77,1374.73c-6-4.08-7.82-6.91-6.95-13.59Z"/><path d="M2250,1136.32c-3.41,3.25-6.94,4.24-12.54.89Z"/><path d="M1448.69,816.65c1.68-2.54,3.71-3.87,6.54-2.78.51.19,1,2.4.6,2.71C1453.67,818.45,1451.27,818.58,1448.69,816.65Z"/><path d="M117.44,48.64c1.73-2.75,3.55-4.13,6.26-2.75a2.63,2.63,0,0,1,.51,2.47C122.35,50.59,120.13,50.41,117.44,48.64Z"/><path d="M739.2,304.09c1.46,1.91,2.65,3.1,3.29,4.53.19.42-1.16,1.53-1.81,2.33a51.79,51.79,0,0,1-3.93-3.91A22.91,22.91,0,0,1,739.2,304.09Z"/><path d="M1955.8,1300.29c.2,6.18-.21,9.48-6.72,12.1C1951.65,1307.75,1953.16,1305,1955.8,1300.29Z"/><path d="M1954.12,233.09q-1.74-3.9-3.47-7.81a10.08,10.08,0,0,1,2-.64c1.31,2.39,2.48,4.86,3.68,7.31Z"/><path d="M906.19,1166.56c5-4.24,8.31-3.91,16.56-1.4Z"/><path d="M2252.25,397.49h-15.6C2242.9,394.55,2246.17,394.55,2252.25,397.49Z"/><path d="M1309.11,942c-1.59-6.21.16-8.3,5.82-9.42Z"/><path d="M2069.57,462.94c-1.07-2-2.09-3-1.87-3.6a20,20,0,0,1,2.62-3.78c.75.65,2.24,1.53,2.12,1.9A36.39,36.39,0,0,1,2069.57,462.94Z"/><path d="M117.61,1486.07c2.72-.71,5-.67,6.6,1.68a4.09,4.09,0,0,1-2,2C119.66,1490.11,117.7,1489.34,117.61,1486.07Z"/><path d="M655.3,1182.94c-2.18-2.6-1.81-4.88-.22-7a2.75,2.75,0,0,1,2.44.18C658.68,1178.72,657.75,1180.85,655.3,1182.94Z"/><path d="M919.74,369.31c-4.81,3.53-7.74,2.14-15.3-1.2Z"/><path d="M660.38,358.13c-1.48.47-3,1.42-3.52,1a7.73,7.73,0,0,1-2.39-3.73c-.17-.61,1-1.62,1.6-2.45Z"/><path d="M617.73,545.09c3.53-6.37,4.92-8.9,7.13-12.89C626.05,538,624,540.29,617.73,545.09Z"/><path d="M2073.22,1076.54a22.62,22.62,0,0,1-2.43,1.9,20.33,20.33,0,0,1-2.85-3.48c-.05-.08,1.61-1.63,1.83-1.48A26.46,26.46,0,0,1,2073.22,1076.54Z"/><path d="M1986.25,407.06c3.31,3.28,1.34,4.95-.31,7.51C1983.38,411.58,1984.78,409.74,1986.25,407.06Z"/><path d="M619.91,989.26c2.79,6.26,4,8.91,6.16,13.81C620.81,999.45,620.54,996.42,619.91,989.26Z"/><path d="M2174,362c.45-1.71,1-3.21,4.25-.67l-4.38.53Z"/><path d="M148.85,197.42h-.43l.25-.65c.11.08.3.15.33.25S148.91,197.28,148.85,197.42Z"/><path d="M2082.1,102.19l.82.47-.71-.58Z"/><path d="M1843.71,1176.58c-.1-.1-.28-.22-.26-.3s.18-.22.27-.33c.1.1.28.22.26.3S1843.81,1176.47,1843.71,1176.58Z"/><path d="M2286.49,221.66c.07-.26.14-.52.23-.77-.07.26-.15.53-.23.79Z"/><path d="M712.42,728.68l-.06-.4.08.37Z"/><path d="M994.42,689.66l-.09-.4.13.38Z"/><path d="M2099,114l-.15.1Z"/><path d="M2082.21,102.08l-1.23-1.36a1,1,0,0,0-.1.11l1.22,1.36Z"/><path d="M238.73,796.72l.21.2a.74.74,0,0,0-.12-.09A.73.73,0,0,1,238.73,796.72Z"/><path d="M1836.6,761.82c4.39-1.14,5.49,1.93,5.59,5.5.1,3.88-1.24,6.23-6.06,6.07-4.28-.14-6.07-2.55-6.14-5.71C1829.91,764.21,1831.76,761.18,1836.6,761.82Z"/></svg>