<?xml version="1.0" encoding="utf-8"?>
<!-- Generator: Adobe Illustrator 22.1.0, SVG Export Plug-In . SVG Version: 6.00 Build 0)  -->
<svg version="1.1" id="Layer_1" xmlns="http://www.w3.org/2000/svg" xmlns:xlink="http://www.w3.org/1999/xlink" x="0px" y="0px"
	 viewBox="0 0 327.4 336.2" style="enable-background:new 0 0 327.4 336.2;" xml:space="preserve">
<style type="text/css">
	.st0{fill:#2696A1;}
	.st1{opacity:0.7;fill:#DAFAFF;}
	.st2{fill:#2C2C2C;}
</style>
<path class="st0" d="M158.5,12.9c-32.6,2.9-54.4,25.2-18.8,49.2c10,6.8,24.6,0.6,34.1,11c9.4,10.3,2.9,39.6,3,53.9
	c0.3,37.9,6.6,75,4.2,112.5c-2.3,36.4,11.3,34.2-29.6,39.2c-11.2,1.4-22.2,2.3-33.4,0.8c-15.2-2-84.5-8.2-40.7,36.8
	c21.3,21.9,80.4,24.2,105.1,13.8c1.7-0.7,41.4-11.5,53.1-16.8c40.2-18,83.2-76,89.6-120.2C337,110.2,238.1,5.9,158.5,12.9
	L158.5,12.9z M114.1,279.1C115.9,279.3,115.9,279.3,114.1,279.1L114.1,279.1z M314.7,135.4C312.5,130.1,312.5,130.1,314.7,135.4
	L314.7,135.4z M313,131.3C313.1,131.7,312.7,130.6,313,131.3L313,131.3z M312.9,131.1C312.3,129.8,312.3,129.8,312.9,131.1
	L312.9,131.1z"/>
<path class="st0" d="M27.1,106.5c-27.6,3.7-12.6,58.7-11.2,74.6c-0.9-2.6-6.2-19.8-4.8-25.4c-2.7,15.8,1,77.7,14.7,88.1
	c31.5,23.8,28.9-26.8,28.4-42C53.8,185.5,60.9,101.8,27.1,106.5L27.1,106.5z"/>
<path class="st1" d="M117.8,23.8c-50.3,12.2-79.3-2.4-76.1,60c2.1,41.4,2.4,89.9,7.8,134.2c2.9,23.4-1.1,55.4,20.3,70.5
	c9.1,6.4,68.7,9.7,75.1,5.9c38.7-22.7,28.3-107,26.5-143.3C169.2,106.9,187.7,6.8,117.8,23.8L117.8,23.8z M122.7,88.1
	C118.5,97.7,119.3,88.6,122.7,88.1L122.7,88.1z M90.9,95.6c-5.8,30,1.6,66.4-6.6,95C82.8,158.9,78.5,125,90.9,95.6L90.9,95.6z"/>
<path class="st1" d="M116.3,59.8c-12.3,1.9-34.8-1.7-44.4,6.6c-6.2,5.3,1.7,12.3,0.4,14.4c-27.8,44,5.3,98.1,16.3,143.4
	c-38-11.9-42.1,30.1-13.1,42c30.1,12.3,70.6-5.7,51.9-32.9c-2.6-3.8-20.5-2.1-25.1-6.4c-13.6-13-25.1-60.4-28.8-79.7
	c-4.3-22.9-7.3-45.6,13.8-61.2c6.7-4.9,43.3-2.5,40.8-1C140.7,75,137.9,56.4,116.3,59.8L116.3,59.8z M83.2,73.6
	C82.8,73.9,81.7,74,83.2,73.6L83.2,73.6z"/>
<path class="st1" d="M123.7,46.4c-9.7,0.7-46,19.5-27.4,34.3c2.8,1.7,28.2-15.3,37.9-13.6c-1.2,1.7-9.6,25.4-3.9,22
	C140.8,80.7,145.2,44.9,123.7,46.4L123.7,46.4z"/>
<path class="st2" d="M209.3,208.1c-33.4,3.8,15.2,19.7,18,21c-20,6.7-19.5,14.8-1.6,26.4c-5.5,0.6-29.1-2.6-30.7,3.3
	c-2.1,7.4,83.9,15.1,33-17.5C260.7,230.4,226.6,206.1,209.3,208.1L209.3,208.1z M232.5,260.7C232.6,260.9,232.6,260.9,232.5,260.7
	L232.5,260.7z"/>
<path class="st2" d="M217.3,177.5c-21.9,3.2-4.8,27.2,9.2,29C254.3,210.1,241.7,173.9,217.3,177.5L217.3,177.5z M218.5,187.2
	C218.4,187.2,218.5,187.2,218.5,187.2L218.5,187.2z M224.8,187.7C257.3,194.5,199.9,186.1,224.8,187.7L224.8,187.7z M233.3,195.4
	C233.4,196.2,233.4,196.2,233.3,195.4L233.3,195.4z M230.9,198.2C230,198.3,230,198.3,230.9,198.2L230.9,198.2z"/>
<path class="st2" d="M231.6,140.1c-2.4,4.3-5.4,9.3-8.1,13.3c-23.3-22.7-35.2,8.6-11.9,19.1c13.2,5.9,41.7-8.8,20.9-10
	C243.1,150.9,237.3,129.7,231.6,140.1L231.6,140.1z M208.2,154.6C207.7,154.8,207.7,154.8,208.2,154.6L208.2,154.6z M206.7,155.1
	C206,155.2,206,155.2,206.7,155.1L206.7,155.1z M207.5,155.1C207.9,155.2,207.5,155.1,207.5,155.1L207.5,155.1z M207.1,155.2
	C207.1,155.2,206.7,155.5,207.1,155.2L207.1,155.2z M207.4,155.3c2.7,0.9,5.2,3.7,6.8,5.5C212.8,160.6,203.8,159.4,207.4,155.3
	L207.4,155.3z M225.6,155.4C226.4,155.8,225.7,155.5,225.6,155.4L225.6,155.4z"/>
<path class="st2" d="M235.2,120.1c-0.6,0.1-30,1-30,6.6C205.2,146.6,253,115.4,235.2,120.1L235.2,120.1z"/>
<path class="st2" d="M221.2,102.6c-6.3,2.1-28.1,24.8-18.8,30.1c-8.5-5,35.9-23.7,27.4-15.3c-2.6,2.6,8.7,14.8,9.8,5.6
	C240.5,114.7,234.6,98.1,221.2,102.6L221.2,102.6z M225.1,111C224.7,111,224.9,111,225.1,111L225.1,111z M224.9,111
	C224.9,111,224.6,111,224.9,111L224.9,111z M225.5,111.1C225.6,111.2,225.6,111.2,225.5,111.1L225.5,111.1z"/>
<path class="st2" d="M230.4,73.2c-7.8-0.3-11,12.1-16.3,15.6c-0.9-3.1,3.6-12.9,0.3-14.8c-4.9-2.9-14,45.8,14.8,14.5
	C236.1,127.5,254.7,71.8,230.4,73.2L230.4,73.2z M213,89.3C212.3,89.4,212.3,89.4,213,89.3L213,89.3z M214.7,89.6
	C215,89.7,215,89.7,214.7,89.6L214.7,89.6z"/>
<path class="st2" d="M259.6,201C259.6,211,259.6,191,259.6,201L259.6,201z"/>
<path class="st2" d="M265.8,178.5C265.8,186.6,265.8,170.5,265.8,178.5L265.8,178.5z"/>
<path class="st2" d="M37.6,46.8C20.9,56.5,38.1,156,39,167c1.2,14,0.6,109.9,13.1,106.4C83.2,264.9,16.2,59.3,37.6,46.8L37.6,46.8z
	 M42.1,53.7C42.1,54,42.1,54,42.1,53.7L42.1,53.7z"/>
<path class="st2" d="M150,27C134,27.1,31.6,43.3,31.6,49.4c0,11.2,107.3-17.8,123.7-1c13.4,13.8,6.6,100.3,7.6,121
	c1.7,36.6,2.3,73.4,2.8,110.1c-34.4-14.4-74.1-8.5-108-3.5c5.1-31.5-20.6,0-13.6,4.5c14.7,9.5,8.5,10.6,33.2,7
	c20.2-2.7,66.6,12.1,85.2,7.4c24.6-6.2,18.7-15.5,17.7-47.9C179.3,217.8,185.7,26.9,150,27L150,27z M149.9,38.8
	C150.1,38.8,150.1,38.8,149.9,38.8L149.9,38.8z M172.7,282.4C173,282.4,173,282.4,172.7,282.4L172.7,282.4z"/>
<path class="st2" d="M55.4,86.2c-15.6,9.2,66.4,32.9,73,9.1C130.7,86.6,63.2,81.6,55.4,86.2L55.4,86.2z M121.8,99.4
	C121.4,99.5,121.4,99.5,121.8,99.4L121.8,99.4z"/>
<path class="st2" d="M122.1,111.2c-12.2,1.2-45.6-1.5-56.1,4.9c-27.9,16.8,26.3,13.1,37.9,10.5C112.4,124.8,151,108.3,122.1,111.2
	L122.1,111.2z"/>
<path class="st2" d="M116.6,138.1c-0.3,0-53.5,9.7-50.9,13.6c4.3,6.6,32.8-1.4,32.9-1.4C111.4,148.8,145.1,135.4,116.6,138.1
	L116.6,138.1z M68.6,148.2C68.7,148.2,68.7,148.2,68.6,148.2L68.6,148.2z"/>
<path class="st2" d="M117.8,159.4c-13.8,0.1-77.8,9.9-38.1,21C98.5,185.6,143.3,159.3,117.8,159.4L117.8,159.4z"/>
<path class="st2" d="M112.6,187.3c-19.9,0.5-76.3,10.6-27.9,18.5C102.3,208.7,139.5,186.7,112.6,187.3L112.6,187.3z"/>
<path class="st2" d="M111.3,223.7c-1.3,0.1-50.7,2.1-39.1,11.1C88.3,247.3,121.7,223.2,111.3,223.7L111.3,223.7z"/>
<path class="st2" d="M5.6,124c-1.8,6.4-4.8,22-5.4,26.5C-1,159.2,6,270.9,29.7,257.1C21.4,261.9,6.4,120.9,5.6,124L5.6,124z
	 M6.3,175.7C6.3,176.1,6.3,176.1,6.3,175.7L6.3,175.7z M7.3,182.9C7.4,183.7,7.4,183.7,7.3,182.9L7.3,182.9z"/>
<path class="st2" d="M140.3,1.4c-10.7,1.4-52.9,9.1-24.8,21.7c11.6,5.2,51.6-7.8,66.4-5.8c36.3,4.9,69.7,23.2,93.7,50.7
	c50.2,57.5,50.9,144.3,0.3,202c-24.2,27.5-58,46.3-94.6,51.1C171.6,322.4,83.2,310,85,307c-12.2,20.8,122.8,18.1,131.1,15.3
	c56.4-19.3,97.7-68.2,108.6-126.5C345,87,250.3-13.1,140.3,1.4L140.3,1.4z"/>
<path class="st2" d="M132.6,9.8c-10.9,1.7-57.4,17.3-54.7,22c0.2,0.3,19.8-8.7,22.6-9.9C104.9,20.1,129.1,10.4,132.6,9.8L132.6,9.8z
	 M131,10.1C130.9,10.1,130.9,10.1,131,10.1L131,10.1z M124.1,11C123.4,11.1,124.1,11,124.1,11L124.1,11z M101,21.6
	C100.8,21.7,100.8,21.7,101,21.6L101,21.6z"/>
<path class="st2" d="M142.5,3.7c1.1-0.1-74.1,15.5-66.2,29.1c4.5,7.7,77.4-27.7,77.4-24.3C153.7,2.7,146,3.4,142.5,3.7L142.5,3.7z"
	/>
<path class="st2" d="M151.7,4c-18.1,1.1-36.2,6-52.9,13.1c2.9-1.2-32.8,12.4-23.3,18C85.2,40.7,159,3.3,151.7,4L151.7,4z
	 M138.8,13.8C138.4,13.9,138.4,13.9,138.8,13.8L138.8,13.8z M101.2,23.7C100.2,24.2,100.2,24.2,101.2,23.7L101.2,23.7z"/>
<path class="st2" d="M149.7,4.7C144.5,5,70.6,20,77.6,31.9C75.4,28.1,162.8,10,162.8,8C162.8,2.6,152.2,4.6,149.7,4.7L149.7,4.7z"/>
<path class="st2" d="M122.9,6.5C116,7.7,74.3,21.7,79.6,30.8c1.3,2.2,9.5-0.2,11.9-1.2C89.1,30.6,146.2,2,122.9,6.5L122.9,6.5z"/>
<path class="st2" d="M136.5,3.4c-11.7,1-65.1,14.2-61.1,28.4C79.6,47,177.2,0,136.5,3.4L136.5,3.4z"/>
<path class="st2" d="M120.3,12.4c-5.7,1.5-54.1,18-50.3,24.5C70.7,38.1,117.5,13.2,120.3,12.4L120.3,12.4z"/>
</svg>
