<svg id="Layer_1" data-name="Layer 1" xmlns="http://www.w3.org/2000/svg" viewBox="0 0 429.59 447.1"><defs><style>.cls-1{fill:#ffca0e;}.cls-2{fill:#fff;}.cls-3{fill:#f9e6c8;opacity:0.75;}.cls-4{fill:#2c2c2c;}</style></defs><title>icon_wtf</title><path class="cls-1" d="M30.87,103.9a9.68,9.68,0,0,0-4.28,8.53c.11,2.71,1.34,4.76,2.59,7.08L29,119.2c.31.57.62,1.14.94,1.7a11.26,11.26,0,0,0-.31,3.66l.63,3a11.63,11.63,0,0,0,1.34,2.6h0l0,0a12.92,12.92,0,0,0,1,1.24q5.11,6.3,10.21,12.64c3.62,4.53,7.33,9,11,13.42,3.57,4.28,7.27,8.45,10.93,12.64s7.4,8.25,11.27,12.21c1.58,2.74,3.32,5.4,5,8.1a94.58,94.58,0,0,0,8,11.86,5.37,5.37,0,0,0,9.46-4.88l-.07-.18a10,10,0,0,0,1.15-.34,10.3,10.3,0,0,0,1.08-.46c.66,3.34,1.38,6.67,2.24,10a37.83,37.83,0,0,0,1.86,5.69,7.11,7.11,0,0,0,3.15,3.83,4.78,4.78,0,0,0,.74.3c-.63.41-1.27.8-1.89,1.25a33,33,0,0,0-3.63,3.27s0,0,0,0a28.08,28.08,0,0,1,5-2c2-.32,6-.65,5.86-3.38-.14-2-2.28-2.55-3.79-3.42l-.07-.05-.12-.38a47.25,47.25,0,0,1-.3-9.66c.08-3.35.27-6.69.44-10,.4-4.41.8-8.81,1.37-13.21.3-2.32.56-4.66.88-7,.21-1.57.42-3.13.62-4.7.07-.52.15-1,.23-1.57a14.38,14.38,0,0,0-.37-7.42,8.67,8.67,0,0,0-.79-1.62c.09-.47.18-.95.26-1.43l.24-.28a13.16,13.16,0,0,0,3.1-9.5,13.72,13.72,0,0,0-2.13-6.44c0-.35-.11-.71-.18-1.06a30.39,30.39,0,0,0-1.27-5.14,15,15,0,0,0-2.63-4.64,12,12,0,0,0-4.59-3.93,8,8,0,0,0-3.46-1.31A11.25,11.25,0,0,0,96,122.4a22.67,22.67,0,0,0-4,.93,24.08,24.08,0,0,0-3.6,1.78,18.27,18.27,0,0,0-2.13,1.29,15.13,15.13,0,0,0-3.41-1,11.65,11.65,0,0,0-1.93-.22c-.83-.85-1.67-1.7-2.52-2.53-.55-.53-1.13-1-1.71-1.54a23,23,0,0,0-4.31-2.89,14.24,14.24,0,0,0-11.25-.43A13.63,13.63,0,0,0,58.7,119c-.52-1-1-2-1.55-2.93A12.24,12.24,0,0,0,56,113.93a6.53,6.53,0,0,0-4-2.43,5.54,5.54,0,0,0-4.34.91l0,0,0-.05a64.81,64.81,0,0,0-4.13-6.2,9.64,9.64,0,0,0-5.74-3.74,9.17,9.17,0,0,0-6.91,1.46Zm79.07,107.19c0,.07,0,.15,0,.23,0-.08,0-.15,0-.23Zm-.16.39.26.3a2.55,2.55,0,0,1-.26-.3Z"/><path class="cls-1" d="M151.89,285.87a40.4,40.4,0,0,0-7.82,1.55c-1.22.29-2.45.67-3.64,1.06-2.48.82-5,1.65-7.4,2.53-5.53,2-11,4.15-16.35,6.48a14.46,14.46,0,0,0-6,.81c-.75.18-1.5.36-2.25.56a14.18,14.18,0,0,0-6,4.14,14.78,14.78,0,0,0-1.32,1.81c-1.18.59-2.35,1.2-3.53,1.8q-4.08,1.5-8.14,3.05a9.54,9.54,0,0,0-5.74-1.44,16.28,16.28,0,0,0-4.88,1c-1.09.44-2.13,1-3.18,1.49-.86.42-1.72.83-2.57,1.27L67,315.14c-3.59,1.84-7.16,3.7-10.75,5.55l1.5-.77a133,133,0,0,1-15,7A11.1,11.1,0,0,0,36.14,341a14.26,14.26,0,0,0,1.8,3.36l-.22.22c-2.16,2.17-2.59,5.91-1.59,8.68A8.78,8.78,0,0,0,38.68,357a9.22,9.22,0,0,0,6.38,2.08c4.66,0,8.15-3.2,11.41-6.12l5.69-5.14,2.26-2a16.39,16.39,0,0,0,1.34,1.29,33.6,33.6,0,0,0,3.76,2.5,15.61,15.61,0,0,0,8.07,1.53,28.94,28.94,0,0,0,6.19-1.33,11.32,11.32,0,0,0,1.37-.63q2.19-1.06,4.32-2.25c1.15-.64,2.25-1.38,3.39-2,1.44-.82,3-1.53,4.42-2.29L107.93,337c16.45-8.52,32.44-17.88,48.69-26.75.88-.42,1.75-.86,2.61-1.33l.72-.4a12.46,12.46,0,0,0,4.62-14.47,12.39,12.39,0,0,0-3.62-5.23,12.6,12.6,0,0,0-8.41-3Z"/><path class="cls-1" d="M242.71,302.93a15.46,15.46,0,0,0-6.5,4.5,15.91,15.91,0,0,0-1.09,1.43,14,14,0,0,0-2.87-.91,12.75,12.75,0,0,0-9.94,2.1c-3,2.4-5.42,5.07-6.18,9a18.57,18.57,0,0,0-.28,4.65,45.76,45.76,0,0,0-5.61-3.4,19.69,19.69,0,0,0-4.28-1.47,16.74,16.74,0,0,0-3.63-.3c-.44,0-.88-.05-1.3-.05q-3.57-3.5-7.11-7c-.83-1-1.64-2-2.53-2.91a15.71,15.71,0,0,0-4.48-3.23A8.62,8.62,0,0,0,176.07,318c2.41,3.67,4.75,7.34,7.43,10.81l7,9.09c3.33,4.32,6.83,8.52,10.27,12.76,7.11,8.79,14.75,17.11,22.39,25.45.23.25.46.51.7.76.93,1.05,1.86,2.12,2.77,3.19.62,2,1.28,4.07,2,6.06a11.53,11.53,0,0,0,2.19,5.74c.39.51.82,1,1.2,1.53a13.35,13.35,0,0,0,13.32,5.35,14.66,14.66,0,0,0,15.53,3.58,14.39,14.39,0,0,0,8.25-7.42,29.46,29.46,0,0,0,1.32-3.91,16.85,16.85,0,0,0,0-5.67c-.2-1.25-.49-2.46-.8-3.67a15.37,15.37,0,0,0,4.32-3.52,15.61,15.61,0,0,0,3.47-7.17,34.9,34.9,0,0,0,.2-8.84c-.12-.82-.21-1.64-.31-2.46-.16-1.34-.32-2.68-.52-4-.66-4.36-1.44-8.6-2.37-12.92-.85-3.94-1.71-7.88-2.86-11.75s-2.63-7.81-4-11.7a51.73,51.73,0,0,0-3.77-7.83,20.5,20.5,0,0,0-4-4.63,33.19,33.19,0,0,0-5.09-3.27l-3.81-1.27a15.67,15.67,0,0,0-8.21.63Z"/><path class="cls-1" d="M238.91,34.09l-1.59,1.44a8.33,8.33,0,0,0-1.85,3.85,4.86,4.86,0,0,0-.18.73c-.35,1.41-.73,2.79-1.17,4.17-.24.72-.5,1.43-.75,2.14a13.28,13.28,0,0,0-5.67,2.22,13,13,0,0,0-4.37,5.17l0-.05c-2.17,3.82-4.4,7.63-6.75,11.35-1.37,2-2.81,4-4.28,5.88a14.86,14.86,0,0,0-2,1.18,32.22,32.22,0,0,0-5.14,3.13c-2.16,1.68-4.2,3.66-6.2,5.5l-3.74,3.44c-1,.91-2,1.86-2.93,2.81l-2,2a16.61,16.61,0,0,0-4.72,9.12,14.56,14.56,0,0,0,2.28,10.79A14.2,14.2,0,0,0,200.57,115c4.65.14,8.57-1.74,12.49-4l2.57.86,4.36.24a14.79,14.79,0,0,0,4.83-1,14.21,14.21,0,0,0,3.9-2.07c.23.91.47,1.81.72,2.72.39,1.44.78,2.88,1.19,4.32.26.88.51,1.76.76,2.64.17.58.3,1.19.45,1.77a7,7,0,0,0,.51,1.24,36,36,0,0,0,1.94,3.69,14.61,14.61,0,0,0,2.13,2.43q.89,3.67,1.83,7.33c.81,3.21,1.76,6.35,2.88,9.46a36.15,36.15,0,0,0,2,4.61l0,.1c0,2,.06,4,.09,6,0,2.79,0,5.58.12,8.36A53.21,53.21,0,0,0,244.82,174l.06.25a6.82,6.82,0,0,0-.74,1.86c-.24.5-.49,1-.73,1.52a10.65,10.65,0,0,0-1.29,3.47,3.66,3.66,0,0,0,.49,2.33,38.45,38.45,0,0,0-.26,5.78c0,.71.22,2.84,1.11,3.18a3.1,3.1,0,0,0,2.23-.22l.45,0a10.13,10.13,0,0,1,1.88.39l-.05,0c.84.29,1.66.58,2.48.89,0,0,0,0,0,0-.83-.46-1.64-.94-2.49-1.34a6,6,0,0,0-3.64-.55l-.14,0h0l-.12-.26a12.29,12.29,0,0,1-.06-1.92,34.67,34.67,0,0,1,.79-4,3.29,3.29,0,0,0,1.65.25c2.57-.32,4.71-1.87,6.71-3.42a9.43,9.43,0,0,0,3.49-.56,8,8,0,0,0,4.27-4.11,28.29,28.29,0,0,0,1.22-2.62,19.78,19.78,0,0,0,1.46-4.09,6.15,6.15,0,0,0-1-4.51,6.24,6.24,0,0,0-2.43-2c.23-1.56.48-3.13.74-4.69l.34-.11c5-1.81,8.88-7.23,8.19-12.69a78.86,78.86,0,0,0-2.13-9.09c-.2-.81-.38-1.62-.56-2.43-.79-3.84-1.6-7.69-2.29-11.55a11,11,0,0,0-.65-4.12,10.28,10.28,0,0,0-2.2-4c-.39-2.16-.77-4.33-1.16-6.49,0-2.92-.16-5.84-.22-8.74a93.58,93.58,0,0,0-.52-9.47,81.52,81.52,0,0,0-1.78-9c-.24-1-.58-2-.9-3A18.33,18.33,0,0,0,252.84,72c-.09-.36-.17-.73-.26-1.09-.25-1.22-.52-2.43-.85-3.62a10.34,10.34,0,0,0-.36-1.07,38,38,0,0,0,1.08-5.78,24.83,24.83,0,0,0-.16-8.6.63.63,0,0,0-.95-.3l-.06,0c0-.14,0-.27.05-.41a83.66,83.66,0,0,0,.72-10.85c0-3.69-3.3-6.91-6.76-7.58a8.46,8.46,0,0,0-6.38,1.34Zm-4.28,8.7c0,.16-.11.32-.16.48.05-.16.1-.32.16-.48Z"/><path class="cls-1" d="M18.71,111.53c.63.17,1.25.35,1.87.55l0,0a10.68,10.68,0,0,1,2,1,36.94,36.94,0,0,1,4,3.46,3,3,0,0,0-3.05.68,1.63,1.63,0,0,0-.15,1.5,6.8,6.8,0,0,0,1.44,2,20.39,20.39,0,0,0,6.61,4.3c.36.16.71.34,1.06.51a9.64,9.64,0,0,0,2,.66,1.94,1.94,0,0,0,1.67-.4l4.19,4.36s0,0,0,0c-1.28-1.6-2.54-3.21-3.84-4.8a1.64,1.64,0,0,0,0-1.71,9.07,9.07,0,0,0-1.61-2c-.78-.8-1.64-1.53-2.48-2.26S31,118.1,30.31,117.5c-1.12-.93-2.26-1.85-3.45-2.71a33.16,33.16,0,0,0-3.07-2,9.81,9.81,0,0,0-2.26-.91,14.81,14.81,0,0,0-2.82-.36s0,0,0,0Zm7.11,6.35a7,7,0,0,1,1.12.25,16.07,16.07,0,0,1,2.73,1.49l-.13-.08c.24.16.47.33.7.5,1.05,1,2.12,2,3.11,3l.59.69-1.58-.41a28,28,0,0,1-4-2.08,17.3,17.3,0,0,1-3-2.56l.14.16a5.38,5.38,0,0,1-.48-.59,1.3,1.3,0,0,0-.08-.17v-.06a2.74,2.74,0,0,1,.4-.15,2.74,2.74,0,0,1,.5,0Zm-.34,0-.16,0,.16,0Zm-.68.25h0l-.06,0,.06,0Zm8.63,5,.07.08-.07-.08Z"/><path class="cls-2" d="M266.74,172.2c-4,.18-7.95,1.23-11.79,2.07-5.21,1.15-9.84,3.57-14.43,6.27-3,1.75-5.42,4.35-7.8,6.79a13.23,13.23,0,0,0-1.46,1.87c-3.66,5.41-4.31,6.34-6.13,12.68a31.47,31.47,0,0,0-.78,10.06q0,.65.09,1.26c-2.92,2.5-5.73,5.13-8.49,7.82l-1.53,1.49a30.73,30.73,0,0,0-6.48,9.32,22.91,22.91,0,0,0-2.23,11.84c.44,5.76,3.28,12.14,8,15.71,1.91,1.46,4.17,3.37,6.18,4.19l.65.26a23,23,0,0,0,11.86,2.25H233a17,17,0,0,0,2.57,1.07,26.25,26.25,0,0,0,5.14,5.88c2.89,2.51,6.14,3.72,9.73,4.78a30.71,30.71,0,0,0,8,.92,33.2,33.2,0,0,0,8-1.27c2.94-.66,5.71-2.33,8.33-3.68a27.58,27.58,0,0,0,3-1.81,30.51,30.51,0,0,0,5.93,1.28,45.13,45.13,0,0,0,14.16-.45,67.25,67.25,0,0,0,14.52-4.4,87,87,0,0,0,12-6.69,56.56,56.56,0,0,0,9.23-7.92l3-.69c3.53-.8,7.06-1.68,10.52-2.76l5.46-1.72c.82-.13,1.65-.26,2.47-.37,5.26-.75,10.55-1.67,15.86-2.06a24.63,24.63,0,0,0,4.79.1c2.56-.49,5.11-1,7.65-1.64a24.08,24.08,0,0,0,15.81-24.49c-.81-10.42-8.88-20.07-19.41-21.77-.83-.13-1.66-.24-2.49-.34-.76-.82-1.59-1.68-2.51-2.63A14.52,14.52,0,0,0,373,194c-2.3-1.71-4.76-3.22-7.22-4.71a36.61,36.61,0,0,0-4.79-2.24,123,123,0,0,0-17.14-5.91c-9.65-2.52-19.52-3.27-29.45-3.81a136.06,136.06,0,0,0-17.37.11q-1.39-.57-2.82-1a92.5,92.5,0,0,0-10.55-3.17,38.32,38.32,0,0,0-5.54-.7c-3-.2-5.94-.42-8.92-.42-.8,0-1.61,0-2.42.06Z"/><path class="cls-1" d="M242.51,169.33A19.38,19.38,0,0,0,239.6,174q-.51,1.08-1.11,2.1a52,52,0,0,1-4.72,5.64,14.47,14.47,0,0,0-1.76,1.16,12.21,12.21,0,0,0-4,4.7,32.6,32.6,0,0,0-1.08,3.3,12.32,12.32,0,0,0,0,4.57q-1.48,1.89-3,3.72l-.81.94c-.41.33-.81.67-1.21,1L220,202.78c-1.27,1.09-2.52,2.21-3.76,3.34-1.74,1.55-3.47,3.11-5.16,4.71-1,1-2.07,1.91-3,2.95-2.67,2.27-5.33,4.55-7.95,6.87l-1.9,1.73A10,10,0,0,0,196,227a10,10,0,0,0,8,11.78l2.69.15a9.94,9.94,0,0,0,4.95-1.76c1.86-1.3,3.71-2.63,5.55-4,5.11-.44,9.09-4.11,12.79-7.36,2.27-2,4.5-4,6.74-6.08,1-.95,2.1-1.86,3.07-2.87l4.07-4.24c2.18-2.29,4.16-4.82,6.21-7.24.59-.68,1.16-1.35,1.7-2.09.69-1,1.37-2.08,2.05-3.14a10.86,10.86,0,0,0,.76-1.62c1.32.06,2.64,0,4,0,1.63,0,3.26-.12,4.88-.3s3.05-.29,4.57-.45l3,.4,5.91.76,2.64.31a29.26,29.26,0,0,0,5.59.49,11.19,11.19,0,0,0,10-8.93,11.06,11.06,0,0,0,0-4.44h0c1.32-.24,2.66-.46,4-.78.58-.14,1.15-.28,1.72-.44l-.15.38s0,0,0,0c.15-.17.29-.34.45-.49l.39-.13c.51-.17,1.09-.4,1.11-1a.44.44,0,0,0-.47-.41,1.31,1.31,0,0,0-.38.13h-.52a74.56,74.56,0,0,1-7.71-1.25l-.16,0h0c-.64-.7-1.27-1.4-1.9-2.11a11.15,11.15,0,0,0-3.44-2l0-.07a13.86,13.86,0,0,0-6.77-7.52,16.4,16.4,0,0,0-6.2-2,53.85,53.85,0,0,0-6.84-.22c-1.46.05-2.95.15-4.41.33l-.6.08a13.81,13.81,0,0,0-7.41-4.24,13.38,13.38,0,0,0-2.59-.26,14.18,14.18,0,0,0-10.56,4.88Z"/><path class="cls-1" d="M353.84,203.39a11.49,11.49,0,0,0-3.11,3.61c-.37.67-.69,1.36-1,2.05-.55,1.16-1,2.36-1.46,3.54-.56,1.4-1.1,2.82-1.65,4.22s-1.13,3-1.63,4.59a10.41,10.41,0,0,0-.47,4.67,2.8,2.8,0,0,0,2.5,2.54,10.34,10.34,0,0,0,10.77,7.48,38.06,38.06,0,0,0,6-1.17l.51,0c5.76-.45,10.91-3.13,16.05-5.55,1-.47,2-1,3-1.46l4.29-1.8.79-.34a12.22,12.22,0,0,0,4.23-2.84c1.32-.74,2.63-1.5,3.95-2.26a80.3,80.3,0,0,0,7.72-4.75,4.48,4.48,0,0,0-3.84-8l-.9.25,1.22-.26-2.71.58-4.77,1c-2.74-3.59-7.76-5.49-12.11-3.67q-2.64,1.11-5.23,2.33l-4.21,1.78a8.58,8.58,0,0,0-4.86-2.83,9.21,9.21,0,0,0-3.47,0,7,7,0,0,0-3.53-4.15,5.5,5.5,0,0,0-2.59-.61,5.69,5.69,0,0,0-3.41,1.07Z"/><path class="cls-1" d="M252,279.78l-4.51,1a24.24,24.24,0,0,0-2.65.62l-2,.76-6.5,2.45c-2.67,1-5.27,2.25-7.88,3.45a63.35,63.35,0,0,1-8.59.58,53.49,53.49,0,0,1-10.54-2.36l-4.71-1.59A90.76,90.76,0,0,0,195.6,282a67.54,67.54,0,0,0-12.92-1.44c-5.2-.14-10.39-.19-15.59-.11-4.63.07-9.29.2-13.91.49-2.36.14-4.73.3-7.09.51a49.08,49.08,0,0,0-6.19,1.13,15,15,0,0,0-6.76,2.89,13.67,13.67,0,0,0-4.47,5.22,13.43,13.43,0,0,0-1.31,7,13.7,13.7,0,0,0,10.93,12.26,24.62,24.62,0,0,0,3,.41c.13.21.27.42.41.62,1,1.25,2.1,2.45,3.22,3.6a17.36,17.36,0,0,0,4.18,2.62,18.42,18.42,0,0,0,7.16,1.75c.94,0,1.88.23,2.81.36,2,.27,4,.54,6.08.83,4,.57,8,1.13,12,1.73l6.93,1.05c2,.31,4,.83,6,1.24,1.54.33,3.08.62,4.59,1.06l5.42,1.58a60.49,60.49,0,0,1,9.19,4.2,46.43,46.43,0,0,1,5,4.33,66.68,66.68,0,0,1,6.56,9.88c2.05,4.26,3.78,8.65,5.56,13.05a98.36,98.36,0,0,1,4.32,13.2c.83,4.43,1.41,8.89,2.12,13.34q.51,3.28,1.09,6.56c.4,2.2.9,4.39,1.41,6.57a26.21,26.21,0,0,0,2.63,5.7c.37.68.77,1.35,1.17,2a33.81,33.81,0,0,0,3.83,4.84c2.19,2.49,4.4,5,6.68,7.35,1.43,1.5,2.89,3,4.41,4.37A26.81,26.81,0,0,0,256.1,424a22.48,22.48,0,0,0,3.32,2.09,11.3,11.3,0,0,0,5.73,1.08,10.63,10.63,0,0,0,5.4-2,11,11,0,0,0,3.58-4.18,11.16,11.16,0,0,0,.44-8.4,13.76,13.76,0,0,0-3.92-5.51c-1.25-1.69-2.38-3.46-3.52-5.22-1.6-2.47-3.15-5-4.69-7.47-.2-.48-.4-1-.58-1.45.25-1.62.57-3.22.76-4.86.47-4.1.64-8.23.73-12.35a55.74,55.74,0,0,0-1-10.79,82.1,82.1,0,0,0-2.67-11.46q-.87-2.61-1.73-5.22a130.19,130.19,0,0,0-12.29-26.86,56.58,56.58,0,0,0-5.89-7.78l2.81-.93c4.09-.6,8.16-1.32,12.17-2.26a13.67,13.67,0,0,0,5.88-2.28,13.09,13.09,0,0,0,3.3-18.25,11.13,11.13,0,0,0-.84-1.08,10.46,10.46,0,0,0-3.57-6.59l-2.23-1.47a10.35,10.35,0,0,0-4.56-1l-.81,0Z"/><path class="cls-1" d="M15.29,101.51A10.81,10.81,0,0,0,5.9,116c-.05.13-.09.26-.13.39a11.54,11.54,0,0,0,.47,6.08c.77,3.09,3.36,5.4,5.7,7.39,1,.85,2,1.66,3.07,2.46,2,1.58,4.07,3.13,6.16,4.62a143.51,143.51,0,0,0,24.92,14.71,74.57,74.57,0,0,0,12.76,4.55,30.54,30.54,0,0,0,7.13.59,16.76,16.76,0,0,0,4.51-1c2.48-.75,4.35-2.6,6.14-4.33a10.67,10.67,0,0,0,1.9-2.94c2.94.06,5.87,0,8.8,0s5.82,0,8.73.12c.71,0,1.4,0,2.08-.06a44.28,44.28,0,0,1,2.35,4,0,0,0,0,0,0,0c-.55-1.41-1.11-2.76-1.77-4.06a21.78,21.78,0,0,0,2.35-.4,21.54,21.54,0,0,0,5.52-2.53,20.26,20.26,0,0,1,3.63-1.26,58.49,58.49,0,0,1,7-.88,55.22,55.22,0,0,0,6-.45,5,5,0,0,0,4.25-3.36c.54-1.93-.28-3.8-1.33-5.4-1.21-1.86-3.1-2.26-5.17-2.44a12.09,12.09,0,0,0-5.85.62s0,0,0,0q.6-.08,1.2-.09a14.86,14.86,0,0,1,3.48.84l-.18-.06a17.71,17.71,0,0,1,2.88,1.29l.3.25.31.44a9.24,9.24,0,0,1,.56,1.58c0-.15-.07-.3-.1-.45a6.19,6.19,0,0,1,.19,1.28l0-.5a4,4,0,0,1-.08.91l0,0,0,0-.15.09h-.46c-2.51-.24-4.95-1-7.46-1.25a41.07,41.07,0,0,0-9.2-.38,43.67,43.67,0,0,0-6.46,1.64c-.34,0-.67.05-1,.05-2.88-.37-5.7-1.25-8.55-1.83-3.06-.62-6.13-1.21-9.2-1.8-1.81-.78-3.65-1.48-5.52-2.14a45.17,45.17,0,0,0-3.64-3.94,49.72,49.72,0,0,0-8.15-6c-2.24-1.44-4.5-2.85-6.82-4.18-2.88-1.65-5.92-3-8.94-4.36s-6.27-2.76-9.41-4.12Q34.39,108,30,106.22l-4.87-2-2.2-.91c-.45-.19-.89-.38-1.35-.55A14.45,14.45,0,0,0,16,101.49c-.24,0-.48,0-.73,0Zm108.4,36.76-.06.17.06-.17Z"/><path class="cls-1" d="M102.2,117.34a8.05,8.05,0,0,0-5.42,2.75,13.64,13.64,0,0,0-1.47,2.23,7.88,7.88,0,0,0-.77,4.05l.45,2.06a8.26,8.26,0,0,0,.59,1.28,4.93,4.93,0,0,0-.57,1.12l-.69,2.06a8.5,8.5,0,0,0,.35,4.47,8.34,8.34,0,0,0,2.44,3.53,8.61,8.61,0,0,0,2.27,1.39c-1.93,2.49-3.77,5.08-5.62,7.64a78.35,78.35,0,0,0-6.37,10.33A45.46,45.46,0,0,0,85,166.41c-.27.81-.5,1.62-.72,2.45-.06.23-.11.47-.16.71q-2.58-3.67-5.24-7.3c-3.08-4.19-6.2-8.42-9.64-12.32L68,148.48a11.63,11.63,0,0,0-1.81-1.9,9.28,9.28,0,0,0-4.21-1.9,7.85,7.85,0,0,0-8.87,10.37c.07.31.15.6.24.89a7.62,7.62,0,0,0-2.89,11.2,65.08,65.08,0,0,0,5.75,6.12q2.51,2.56,5,5.13c2.66,2.75,5.3,5.5,8,8.23C75.61,193.25,82,200,88.84,206.24a4.65,4.65,0,0,0,1.88,1.06c.2.23.4.45.61.67q2.19,2.5,4.4,5a6.93,6.93,0,0,0,1.56,1.59l0,.1a28.59,28.59,0,0,0-.29,4.43,22,22,0,0,0,.85,5.46l.27,1a10.66,10.66,0,0,0-1,2.66,8.41,8.41,0,0,0,1.48,6.91,7.72,7.72,0,0,0,4.83,3.15l2,.12a7.25,7.25,0,0,0,1-.16,11.24,11.24,0,0,0,8.46,2.06,13.07,13.07,0,0,0,2.61-.63c.77-.38,1.53-.77,2.29-1.17a16.88,16.88,0,0,0,2-1.75,17.4,17.4,0,0,0,2-2.83,26.22,26.22,0,0,0,3.08-10,8.54,8.54,0,0,0,.56-8.53c0-.13,0-.26-.06-.39-.38-2.35-1.25-5-3.25-6.5a20.29,20.29,0,0,0-1.73-1.18l-.7-1c-2.17-3.21-4.41-6.35-6.68-9.49-1.94-2.68-3.92-5.33-5.85-8-1-1.41-2-2.82-3-4.24-1.13-1.59-2.27-3.18-3.26-4.86a27.54,27.54,0,0,1-1.14-3.07c-.09-.76-.15-1.52-.17-2.29a22.56,22.56,0,0,1,.57-2.81,43.28,43.28,0,0,1,1.82-4.12c.78-1.53,1.69-3,2.6-4.45,2.45-3.6,5.09-7.1,7.74-10.55,2-2.59,4-5.15,6-7.72.4-.53.82-1,1.23-1.57a7.58,7.58,0,0,0,3.24-2.24l.38-.52a7.66,7.66,0,0,0,1.7-3.53,7.14,7.14,0,0,0,.28-1.89,5.69,5.69,0,0,0,5.07-4.54,5.58,5.58,0,0,0-.23-3,5.43,5.43,0,0,0-2.84-3.16l-.49-.16a5.62,5.62,0,0,0-2.91-.55c-.52,0-1,0-1.53,0-1.87-.24-3.73-.55-5.59-.83l-2.63-.43-1.43-.78c-1.07-.59-2.14-1.18-3.23-1.74a35.61,35.61,0,0,0-5.32-2,9.39,9.39,0,0,0-2.78-.4,10.08,10.08,0,0,0-1.13.07Z"/><path class="cls-1" d="M292.28,188.18c-.48.13-.82.26-.92.77s.37.69.63.9a18.32,18.32,0,0,0,1.58,1,25.29,25.29,0,0,0,5.93,2.55c-4-.23-8-.56-12-1-.93-.09-1.86-.21-2.79-.32a19,19,0,0,0-2.38-.12,3.17,3.17,0,0,0-1.86.36c-1,.88-.83,2.15-.7,3.38.11,1,.29,2,.44,3.07,0,0,0,0,0,0-.1-1.33-.21-2.65-.24-4a.09.09,0,0,0,0,0,4.52,4.52,0,0,1,.16-1.21l.18-.36.21-.25.24-.15.32-.1.54,0a40.53,40.53,0,0,1,6,1.09l5,1.06c3,.67,6.05,1.28,9.07,1.92,5.65,1.21,11.47,1.43,17.13,2.59a4,4,0,0,0,1.34.61,10.74,10.74,0,0,0,2.94.32,5,5,0,0,0,3.45-1.85,4.54,4.54,0,0,0,.73-4.33,5.9,5.9,0,0,0-3.08-3,13.35,13.35,0,0,0-2.12-.75,13.81,13.81,0,0,0-2.21-.48,40.63,40.63,0,0,0-7-.38c-4.68,0-9.37.36-14.06.24a29.27,29.27,0,0,1-6.37-1.08l.11-.1.31-.12.43,0,.49.08s0,0,0,0a2.52,2.52,0,0,0-1.19-.43.92.92,0,0,0-.29,0Zm6.88,5.2.34,0h0l-.35,0Zm-19,.25a0,0,0,0,0,0,0v0Z"/><path class="cls-3" d="M174.53,100.55a64.48,64.48,0,0,0-12.19,5c-1.05.55-2.08,1.14-3.08,1.76-2.42.88-4.79,1.91-7.11,3a58.13,58.13,0,0,0-17.8,13,77.75,77.75,0,0,0-14.58,20.57,86.64,86.64,0,0,0-8.06,30.41c-.28,3.54-.2,7.22-.16,10.72,0,1.78.1,3.55.27,5.33a96.69,96.69,0,0,0,1.66,10.45,63.6,63.6,0,0,0,3.23,10,33.12,33.12,0,0,0,2.06,4.29,70.57,70.57,0,0,0,4.55,7.3,29.33,29.33,0,0,0,1.88,2.32c.13.82.27,1.63.42,2.44a64,64,0,0,0-5.29,6.23,23,23,0,0,0-2.48,4l-.65.54q-3.92,3.3-7.51,6.87c-2,1.3-4.06,2.65-6,4.07a136.28,136.28,0,0,0-18,15.56A85.84,85.84,0,0,0,80,271a14.67,14.67,0,0,0-1.39,2,46,46,0,0,0-2.59,6.25,54.41,54.41,0,0,0-1.41,7.41c-.46,3,.09,10.95,1.07,13.81a41.81,41.81,0,0,0,2.45,6.78,29.5,29.5,0,0,0,3,4.89,24.48,24.48,0,0,0,3.57,3.25c1.91,1.68,3.86,1.94,6.38,2.53a17.55,17.55,0,0,0,4.63.39,38.28,38.28,0,0,0,11.06-2.16c4-1.34,7.82-3,11.64-4.71.86.18,1.61.31,1.8.35.74.11,1.46.18,2.2.22a24.38,24.38,0,0,0,4.9-.26,52.17,52.17,0,0,0,11.23-3.35l2.54-1a9.59,9.59,0,0,0,3.22,1.88,11.07,11.07,0,0,0,6.94.41,50.47,50.47,0,0,0,6.87-2.64,46.29,46.29,0,0,0,9.76-6.19,68.78,68.78,0,0,0,6.2-5.27h0a24.93,24.93,0,0,0,4.94,5.12,9.58,9.58,0,0,0,6.54,1.77,10.25,10.25,0,0,0,4.47-1.89,4.77,4.77,0,0,0,.92-.93,26.57,26.57,0,0,0,3.26-4.07A41.84,41.84,0,0,0,197,289a70.71,70.71,0,0,0,1.44-7.79,18.8,18.8,0,0,0,.17-2.18c.1-.71.18-1.41.24-2.08q0-3.25,0-6.51a35.89,35.89,0,0,0-1.12-6.8c0-.37,0-.75-.07-1.14a32.39,32.39,0,0,0-6-17,9.78,9.78,0,0,0-8-4,5.36,5.36,0,0,0-1.62.22c-.77-.42-1.57-.79-2.37-1.13a20,20,0,0,0-7.64-1.63h-.23c-.05-.66-.14-1.42-.26-2.25a24.35,24.35,0,0,0,.24-4.09,55.33,55.33,0,0,0,5-2.83,41.73,41.73,0,0,0,7.79-6.48,48.82,48.82,0,0,0,8.14-11c.31-.6.61-1.21.9-1.82.18-.2.36-.39.53-.59a63.3,63.3,0,0,0,5.18-6.52,88.9,88.9,0,0,0,11.43-12.14,51,51,0,0,0,5.52-8.68,68.61,68.61,0,0,0,5.19-13.74,79.58,79.58,0,0,0,2.27-14.31,73,73,0,0,0,0-10.14,45.88,45.88,0,0,0-.6-4.78,45.92,45.92,0,0,0,.6-5.21,57,57,0,0,0-1-14.47,34.53,34.53,0,0,0-5.19-12.3,12.26,12.26,0,0,0-5.32-4.66,21.31,21.31,0,0,0-6.61-1.43c-3.4-.29-6.67.71-9.8,2a14.22,14.22,0,0,0-3.28-1.83,38.56,38.56,0,0,0-7.4-1.86,19.35,19.35,0,0,0-3.46-.31,26.92,26.92,0,0,0-7.15,1.07Z"/><path class="cls-4" d="M84,39.69a3,3,0,0,0-2,1,5.51,5.51,0,0,0-1.42,4.68c.14.84.32,1.68.53,2.5.13.57.27,1.15.4,1.72l-1-.74c-.5-.34-1-.66-1.52-1a6.69,6.69,0,0,0-2-.74A11,11,0,0,0,75.17,47a9.27,9.27,0,0,0-2.45.38l-.39.18a4.22,4.22,0,0,0-1.14.67,5.07,5.07,0,0,0-1.44,1.81,11,11,0,0,0-.9,2.74c-.09.42-.18.84-.25,1.26-.13.89-.24,1.77-.34,2.66s-.21,1.76-.31,2.64l-1.12-1.44c-1.68-2.17-3.41-4.29-5.14-6.42a3.48,3.48,0,0,0-2.11-1.37,3.3,3.3,0,0,0-2.53.53,3.35,3.35,0,0,0-.84,4.65c1.76,2.18,3.55,4.36,5.26,6.59,1.46,1.89,2.87,3.84,4.46,5.63a7,7,0,0,0,2,1.74,4,4,0,0,0,3,.09c1.85-.66,2.52-2.59,3-4.29a21.7,21.7,0,0,0,.51-3.31l.21-1.84a54.79,54.79,0,0,1,.86-5.84l.18.1a48.48,48.48,0,0,1,4.3,3.52,21.1,21.1,0,0,0,3.24,2.46,4.88,4.88,0,0,0,2.4.48A4.44,4.44,0,0,0,90,55.5a34.81,34.81,0,0,0-1.07-7.59c-.2-.87-.42-1.74-.68-2.6a9,9,0,0,0-.35-1c-.24-.6-.56-1.17-.78-1.77a3.13,3.13,0,0,0-.17-1A2.94,2.94,0,0,0,85.46,40a2.83,2.83,0,0,0-1.25-.29ZM82.4,55.81a.14.14,0,0,0,0,.06l0-.06Z"/><path class="cls-4" d="M97.94,34.33a3,3,0,0,0-2.8,3.27c.06.26.11.53.17.8a3,3,0,0,0,.88,1.27c.32.34.63.69.94,1l-.52-.58c1,1.08,2,2.15,2.9,3.26s2,2.48,3,3.75,1.83,2.46,2.68,3.73c.4.62.79,1.24,1.19,1.85A7,7,0,0,0,108.82,55a2.76,2.76,0,0,0,2.8-.22,2.88,2.88,0,0,0,.92-1.07,3,3,0,0,0,.11-2.16,14.14,14.14,0,0,0-2.44-4.43c-.86-1.21-1.77-2.39-2.7-3.55-2.34-2.93-4.83-5.71-7.36-8.47a2.82,2.82,0,0,0-2-.73Z"/><path class="cls-4" d="M113.66,29.17a24.08,24.08,0,0,0-4.11,1c-1.09.41-2.12.89-3.17,1.4A71.62,71.62,0,0,0,100.07,35c-1.91,1.17-3.84,2.33-5.67,3.62-2.1,1.48-4.16,3-6.25,4.55a2.72,2.72,0,0,0,3.1,4.47c2.88-2.07,5.72-4.22,8.74-6.09,1.46-.89,2.9-1.81,4.39-2.64s2.84-1.57,4.27-2.32c.86-.44,1.72-.88,2.59-1.28,1.12-.52,2.28-1,3.44-1.38a2.48,2.48,0,0,0,.77-4.2,2.53,2.53,0,0,0-1.53-.6l-.26,0Z"/><path class="cls-4" d="M130.84,22.61a3.28,3.28,0,0,0-2.24,1.14,3.37,3.37,0,0,0-.77,2.38,37.8,37.8,0,0,0,.18,4,15.75,15.75,0,0,0,1.29,4.46,34.89,34.89,0,0,0,3,5,45.65,45.65,0,0,0,3.66,4.88l-.2-.22c.34.38.67.76,1,1.12a2.87,2.87,0,0,0,2.89.53,2.91,2.91,0,0,0,1.93-3,7,7,0,0,0-.38-1.5,9.9,9.9,0,0,0-.58-1.12c-.18-.31-.37-.63-.57-.93l-1.25-1.86c-1.09-1.63-2.25-3.25-3.2-5a15.68,15.68,0,0,1-1-2.65,36.18,36.18,0,0,1-.25-4.29,3.29,3.29,0,0,0-3.29-3Z"/><path class="cls-4" d="M147.36,14.78a11.6,11.6,0,0,0-2.17.51c-1,.34-2,.71-3,1.11a31.29,31.29,0,0,0-2.92,1.4c-.93.49-1.86,1-2.76,1.5s-1.81,1-2.67,1.57l-3.32,2.19c-.76.5-1.47,1.07-2.19,1.62q-1.84,1.39-3.68,2.82a2.73,2.73,0,0,0-1.06,1.63,2.57,2.57,0,0,0,.42,2,2.59,2.59,0,0,0,3.59.65c1.52-1.2,3.07-2.37,4.61-3.55,1.07-.81,2.2-1.54,3.32-2.29,2.21-1.47,4.5-2.8,6.82-4.09.8-.4,1.6-.8,2.41-1.17a34.9,34.9,0,0,1,4.47-1.77l.4-.05a1.74,1.74,0,0,0,2.75-1.92q-.17-.36-.36-.72a6,6,0,0,0-.6-.63,5.27,5.27,0,0,0-2.85-.86,9.55,9.55,0,0,0-1.2.09Zm2,3.87.11,0h0l-.11,0Zm-.5.29-.09,0,.09,0Z"/><path class="cls-4" d="M151,23.55l-.42.29c-2.52,1-5,2.22-7.46,3.34-2.89,1.29-5.82,2.42-8.79,3.51a3.76,3.76,0,1,0,2.55,7.07c1.7-.63,3.4-1.29,5.1-1.94,1.44-.56,2.84-1.26,4.23-2s2.81-1.46,4.18-2.26a16.06,16.06,0,0,0,4.42-3.83,2.91,2.91,0,0,0,.18-3.51,2.84,2.84,0,0,0-2.36-1.21,2.94,2.94,0,0,0-1.63.49Zm-.56.37-.44.23.44-.23Z"/><path class="cls-4" d="M161.43.66a3.77,3.77,0,0,0-1,5.22c1.07,1.44,2.15,2.88,3.17,4.35a44.39,44.39,0,0,1,2.57,4.22c.53,1.11,1,2.23,1.51,3.36.6,1.42,1.28,2.8,1.81,4.26a3.38,3.38,0,0,0,6.55-1.41c-.19-1.22-.42-2.43-.7-3.63a20.37,20.37,0,0,0-.74-2.29,31.36,31.36,0,0,0-2.32-5.07,40.3,40.3,0,0,0-2.75-4.19c-1-1.3-2-2.57-2.93-3.88A3.94,3.94,0,0,0,163.52,0a3.62,3.62,0,0,0-2.09.66Z"/><path class="cls-4" d="M175.14,31.92a2.77,2.77,0,0,0,1,1.87,2.9,2.9,0,0,0,2,.65,2.74,2.74,0,0,0,1.57-4.81,2.87,2.87,0,0,0-2-.65,2.74,2.74,0,0,0-2.52,2.94Z"/><path class="cls-4" d="M146,106.71a1.48,1.48,0,1,0,1.47-1.47,1.49,1.49,0,0,0-1.47,1.47Z"/><path class="cls-4" d="M148.6,102.79a1.48,1.48,0,1,0,1.47-1.47,1.49,1.49,0,0,0-1.47,1.47Z"/><path class="cls-4" d="M171.78,97c-2.39.08-4.78.39-7.16.67-2.84.33-5.66.81-8.47,1.36-2.42.46-4.81,1-7.2,1.59-1,.25-2,.6-3,1s-2,.83-3,1.24a8.57,8.57,0,0,0-1.58,1,18.32,18.32,0,0,0-2.62,2.27,7.18,7.18,0,0,0-1.85,3.77,48.82,48.82,0,0,0-3.73,4.76,64,64,0,0,0-4.09,6.34c-2.38,4.29-4.28,8.8-6.41,13.21s-4.34,8.64-6.37,13c-1.16,2.48-2.18,5-3.16,7.59a65.34,65.34,0,0,0-2.08,7.26,97.22,97.22,0,0,0-2.57,16.72c-.21,2.63-.42,5.25-.43,7.89a57.45,57.45,0,0,0,2.11,15.49,58.06,58.06,0,0,0,3.29,8.38,35.21,35.21,0,0,0,4.65,6.64,51.56,51.56,0,0,0,5,5.27,65.53,65.53,0,0,0,6.44,5.07c1.83,1.3,3.63,2.64,5.48,3.9a45.85,45.85,0,0,0,5.49,3.33,41.65,41.65,0,0,0,8.36,3c1.2.31,2.47.45,3.69.65,1.86.28,3.73.52,5.6.7a29.54,29.54,0,0,0,10.53-1.2c5.18-1.41,10.22-3.34,15.25-5.22,2.42-.9,4.8-1.91,7.18-2.91a80.33,80.33,0,0,0,8.27-3.81c2.33-1.32,4.59-2.74,6.78-4.28,1.07-.75,2.11-1.53,3.16-2.31,1.5-1.13,2.9-2.35,4.31-3.59,1-.9,2-2,2.93-2.95s1.82-2.08,2.72-3.11c1.9-2.2,3.74-4.52,5.44-6.88l2.61-3.64c.89-1.24,1.66-2.58,2.49-3.86,1.33-2,2.57-4.19,3.76-6.33.36-.63.71-1.27,1.07-1.91a48.7,48.7,0,0,0,2.6-5.69c.48-1.21.91-2.46,1.27-3.7.75-2.68,1.43-5.36,2-8.08a104,104,0,0,0,2-17.78,48.77,48.77,0,0,0-.51-7.82,46.17,46.17,0,0,0-1.31-7,53.2,53.2,0,0,0-2.72-7c-.55-1.25-1.11-2.46-1.75-3.67S235,124.1,234.28,123s-1.33-2-2-2.94a45.92,45.92,0,0,0-3.59-4.4,65.06,65.06,0,0,0-11.16-9,37.54,37.54,0,0,0-6.23-3.31c-1.84-.78-3.66-1.59-5.54-2.24-1.18-.41-2.34-.84-3.54-1.16s-2.67-.79-4-1l-4.51-.84c-2-.37-4-.51-6-.75a75.71,75.71,0,0,0-8.9-.47c-2.32,0-4.63.07-6.95.16Zm5.66,15.83h3.91c1.16,0,2.35.15,3.52.23,1.64.1,3.27.29,4.9.49,2,.37,4,.72,6,1.24,1.07.28,2.18.52,3.23.88l3.68,1.26a53.32,53.32,0,0,1,4.88,2.35c1.16.65,2.25,1.43,3.34,2.19.84.58,1.67,1.16,2.49,1.76a44.77,44.77,0,0,1,5.17,5c.92,1.27,1.8,2.55,2.62,3.89a45.77,45.77,0,0,1,2.82,5.31c.28.7.56,1.4.82,2.11a33.84,33.84,0,0,1,1.43,5.49,54.65,54.65,0,0,1,.35,8.09c-.11,2.81-.39,5.61-.7,8.41a83.74,83.74,0,0,1-4,15.5c-.8,1.7-1.75,3.32-2.7,4.95s-1.91,3.23-2.88,4.84c-1.67,2.78-3.55,5.39-5.43,8l-2,2.52c-.92,1.17-2,2.27-2.93,3.39a58,58,0,0,1-5.85,5.67c-2.15,1.57-4.34,3.08-6.63,4.49a61.87,61.87,0,0,1-7.57,3.85q-5.5,2.28-11.09,4.31c-2,.72-3.94,1.4-5.92,2.05a60.56,60.56,0,0,1-7,2,30.62,30.62,0,0,1-5.58-.2,32,32,0,0,1-3.36-.61c-1.27-.32-2.52-.69-3.76-1.13a45,45,0,0,1-6.52-3.85c-2.13-1.49-4.29-2.95-6.38-4.49a56.18,56.18,0,0,1-7.56-7.55,30.38,30.38,0,0,1-2.6-4.57,51.86,51.86,0,0,1-2.8-10.16,88,88,0,0,1-.5-10.65c0-3.91.21-7.79.59-11.68a92.77,92.77,0,0,1,2.28-10.94,112.54,112.54,0,0,1,3.91-11.44c1.37-3.42,2.67-6.83,3.92-10.29s2.29-7.19,3.69-10.7a72.31,72.31,0,0,1,3.93-7.88,6.87,6.87,0,0,0,5.69-.46h0a45.27,45.27,0,0,1,4.77-.82l4.66-.74,8.77-1.4a112.92,112.92,0,0,1,12.34-.78Z"/><path class="cls-4" d="M162.29,221.66a51.61,51.61,0,0,0-8.92,1.32c-1.26.3-2.57.54-3.81.92l-4.72,1.42c-2.41.73-4.79,1.61-7.15,2.48-2.77,1-5.5,2.11-8.22,3.23-.54.07-1.09.15-1.63.25a62.67,62.67,0,0,0-7.93,1.64,35.17,35.17,0,0,0-5.45,2.08c-1.69.82-3.3,1.85-4.94,2.79-1.15.67-2.25,1.43-3.37,2.15a62.45,62.45,0,0,0-7.33,5.52c-.86.76-1.69,1.56-2.5,2.37l-.06,0c-2,1.38-3.91,2.77-5.81,4.26a65.38,65.38,0,0,0-8,7.31c-1.44,1.58-2.75,3.29-4,5-.92,1.22-1.85,2.45-2.66,3.75l-2.5,4c-.72,1.15-1.34,2.38-2,3.57C69,279.78,66.9,284,66,288.55c-.26,1.27-.53,2.55-.72,3.84-.52,3.63-1.29,7.67.7,11a8.56,8.56,0,0,0,6.67,4.33l.12.73a7.14,7.14,0,0,0,1.91,3.56,5.87,5.87,0,0,0,2.61,1.53,6.1,6.1,0,0,0,4.56-.6c3.53-1.86,3.16-6,3.43-9.39.14-1.69.34-3.38.54-5.06q.45-3.24,1-6.47l.62-1.09,2.32-4c.79-1.38,1.73-2.69,2.58-4,1.31-2,2.76-4,4.24-6a77,77,0,0,1,5.18-6,58.94,58.94,0,0,1,5.47-4.89c1.83-1.33,3.64-2.68,5.51-3.94l3.51-2.38A55.79,55.79,0,0,1,125,255,206.84,206.84,0,0,1,146,248.14c2.91-.82,5.85-1.61,8.82-2.19s6.08-1.1,9.14-1.58c1.85-.21,3.69-.44,5.55-.55l4-.27a48.34,48.34,0,0,1,7.41.18,46.92,46.92,0,0,1,4.52,2.91,30.81,30.81,0,0,1,3.81,3.68,49.81,49.81,0,0,1,5.62,9.09c1.23,3,2.38,6.1,3.47,9.18.3.84.58,1.69.84,2.54a6.89,6.89,0,0,0-1,3.88,8.14,8.14,0,0,0,2.3,5.56,7.63,7.63,0,0,0,1.34,1.08c.37,1.81.71,3.63,1,5.44.29,1.58.57,3.16.86,4.73.14.77.28,1.55.44,2.32.08.39.16.77.25,1.16a9.75,9.75,0,0,0,1,2.65c.48.65,1,1.29,1.49,1.91a7.75,7.75,0,0,0,3.44,2,7.76,7.76,0,0,0,9.38-4.88,7.54,7.54,0,0,0,2.4-.27,8.28,8.28,0,0,0,6.07-8c-.06-3-1-6.1-1.73-9-.57-2.29-1.21-4.55-1.79-6.83q-2-7.68-4.39-15.2a77,77,0,0,0-3.09-8,29.82,29.82,0,0,0-5.61-8.19c-1-1-2-2-3-2.92a43.46,43.46,0,0,0-3.82-3.1,28.76,28.76,0,0,0-4.87-3l-.47-.23a51.19,51.19,0,0,0-4.23-3,53.08,53.08,0,0,0-8.21-4,38.33,38.33,0,0,0-7.07-2.2c-1.46-.28-2.91-.53-4.37-.75-1.76-.27-3.57-.6-5.35-.72-1.57-.11-3.12-.18-4.68-.18-1.09,0-2.19,0-3.29.1Z"/><path class="cls-4" d="M152.47,154.14a9.7,9.7,0,0,0-2.46.44l-.82.32a13,13,0,0,1-1.45.48l-.22-.08-.32-.15a9,9,0,0,0-3.21-.92,7.81,7.81,0,0,0-5.42,1.68,11.77,11.77,0,0,0-2.11,2,24,24,0,0,0-1.69,2.43c-.56.93-1,1.93-1.52,2.89a4.47,4.47,0,0,0-.43,3.3,4.29,4.29,0,0,0,7.83,1,36.55,36.55,0,0,1,2.21-4h0l.41.29a8.63,8.63,0,0,0,4.32,1.55,8.07,8.07,0,0,0,2.2-.09,4.24,4.24,0,0,0,.46.65,8.14,8.14,0,0,0,2.45,2.44A8.29,8.29,0,0,0,157,169.7a14.59,14.59,0,0,0,3.41-.47c.78-.17,1.55-.35,2.32-.56,1.12-.3,2.18-.81,3.28-1.19a4.71,4.71,0,0,0,3.28-5.79,4.53,4.53,0,0,0-2.16-2.81c-.88-.38-1.75-.79-2.66-1.11a9.35,9.35,0,0,0-3.25-.32,20.11,20.11,0,0,0-2.55.29,9,9,0,0,0-.94-1.18,10.89,10.89,0,0,0-2-1.54,7.34,7.34,0,0,0-3-.89Zm5.14,3.84h0Zm2,1.17.12.1-.12-.1Zm-15.48,3.53-.58.25a3.76,3.76,0,0,1,.58-.25Zm-2.31.3.3,0h0l-.31-.05Zm.36.05Z"/><path class="cls-4" d="M202.05,157.13l-1,.09c-1.46.12-2.92.36-4.37.61-2.37.41-4.68,1.06-7,1.46a3.92,3.92,0,0,0-1.7,1,4.43,4.43,0,0,0-.55.68c-2,.41-4,.85-6,1.24a3.54,3.54,0,0,0-2.46,4.33,3.6,3.6,0,0,0,1.62,2.09,3.66,3.66,0,0,0,2.71.36c2.26-.45,4.49-1,6.76-1.33l.93-.09a5.3,5.3,0,0,0,1.92,1.93,9.66,9.66,0,0,0,5.19,1,10.24,10.24,0,0,0,3-.59,6.45,6.45,0,0,0,3.26-2.3,5.93,5.93,0,0,0,1.88-.77,5.21,5.21,0,0,0,2.29-3A5,5,0,0,0,208,160a5.42,5.42,0,0,0-3.76-2.7,10.52,10.52,0,0,0-1.67-.16ZM198.13,168l.12.08-.12-.08Z"/><path class="cls-4" d="M161.2,184.25c-2.25.34-4.48.78-6.7,1.24a19.21,19.21,0,0,0-4.84,1.85,29.74,29.74,0,0,0-3.08,1.91c-2.19,1.5-4.28,3.16-6.4,4.77l-1.12.87a5.54,5.54,0,0,0,2.44,9.26,5.32,5.32,0,0,0,4.27-.56c1.8-1.36,3.58-2.73,5.41-4a29.44,29.44,0,0,1,4.29-2.7,41.88,41.88,0,0,1,7.61-1.61,34.38,34.38,0,0,1,6.65-.2,18.72,18.72,0,0,1,2.56.62,20.82,20.82,0,0,1,2.85,1.73,21.14,21.14,0,0,1,2.19,2.15c.4.56.78,1.14,1.13,1.73a19.7,19.7,0,0,1,1,2c.12.33.25.66.38,1a8.08,8.08,0,0,0,1.84,3.2,6.22,6.22,0,0,0,3.26,1.89l1.73.23a6.47,6.47,0,0,0,3.27-.88,7,7,0,0,0,2.4-2.43,6.74,6.74,0,0,0-.17-6.82,5.18,5.18,0,0,0-1.11-1.37c-1.88-3-3.79-6.09-6.55-8.4a27,27,0,0,0-6.27-4.1,20.89,20.89,0,0,0-4.33-1.48,30.38,30.38,0,0,0-4.66-.54c-.38,0-.76,0-1.14,0a47.21,47.21,0,0,0-6.92.73Z"/><path class="cls-4" d="M1.23,96.37A4.2,4.2,0,0,0,.15,98.21a4,4,0,0,0,.42,3.22l2.85,3.88a4.69,4.69,0,0,0,.4.54l1.48,2,.66.84a4.57,4.57,0,0,0,.47.42l.41.52a4,4,0,0,0,1.19.82q4.34,5.9,8.7,11.77l15.62,20.92q7.74,10.36,15.52,20.7l7.54,10c2.57,3.42,5.12,6.86,7.84,10.16a2.13,2.13,0,0,0,1.48.71,2.51,2.51,0,0,0,1,0h0a2,2,0,0,0,1-.57,1.92,1.92,0,0,0,.46-.59s0,0,0,0l0,0a2.75,2.75,0,0,0,.21-.51s0,0,0-.06a2.4,2.4,0,0,0-.25-2c-2.2-3.38-4.58-6.65-6.93-9.93l-7.32-10.18q-7.53-10.48-15.08-21T22.72,118.74q-4.5-6.22-9-12.39s0-.1,0-.15L37,112.49l.44.13,2.31.72c2.4.75,4.81,1.44,7.22,2.13q7.22,2.09,14.46,4l14.74,3.91c2.45.64,4.91,1.28,7.37,1.9l3.52.89,1.74.42a10.23,10.23,0,0,0,2.57.42,4.11,4.11,0,0,0,4.11-4.11,4.15,4.15,0,0,0-2-3.54A15,15,0,0,0,90,118.1c-1.35-.4-2.71-.78-4.06-1.17-2.44-.7-4.89-1.39-7.33-2.07-4.89-1.38-9.8-2.71-14.7-4.06s-9.66-2.6-14.5-3.83c-2.44-.61-4.87-1.23-7.32-1.79l-2.71-.63q-17-4.64-34-9.25a4.09,4.09,0,0,0-1.09-.15,4.19,4.19,0,0,0-3,1.22Z"/><path class="cls-4" d="M248.78,4.68C245,10.32,241.18,16,237.44,21.62q-5.85,8.86-11.74,17.71c-3.81,5.72-7.64,11.43-11.43,17.15-1.9,2.87-3.8,5.72-5.71,8.58s-3.93,5.73-5.76,8.69a3.2,3.2,0,0,0-.26,3l0,.06q-3.65,5.49-7.35,11a2,2,0,0,0,.71,2.68,2,2,0,0,0,2.68-.7c2.41-3.56,4.85-7.11,7.29-10.65a3.37,3.37,0,0,0,.9-.12,3.43,3.43,0,0,0,1.67-1.07,4,4,0,0,0,.44-.56c1.9-2.55,3.65-5.23,5.45-7.85,1.93-2.8,3.85-5.61,5.79-8.41q6.15-8.88,12.26-17.8,5.78-8.4,11.61-16.75,2.56-3.69,5.11-7.39l0,.51a15.56,15.56,0,0,0,0,2.73l-.15.29a6.07,6.07,0,0,0-.69,3.67c.13,1.87.3,3.74.45,5.61l.81,10c.6,7.4,1.25,14.79,1.85,22.19L252.67,79q.71,9.69,1.43,19.39c1.81,23.8,3.22,47.62,5,71.42a5.63,5.63,0,0,0,.76,2.8,5.55,5.55,0,0,0,3.32,2.54c5.43,1.48,10.85,3,16.23,4.61,6.41,2,12.89,3.74,19.34,5.55q20.36,5.72,40.68,11.53,19.65,5.57,39.29,11.19,11.13,3.18,22.3,6.27l-18.22,8.1q-17.5,7.78-35.07,15.47C336,243,324.16,248.05,312.38,253.16c-11,4.78-22.06,9.62-33.14,14.34q-6.28,2.64-12.58,5.3a6.13,6.13,0,0,0-2.2,2.21,6,6,0,0,0-.84,3.09c.29,7.61.51,15.2.74,22.81.29,9.51.66,19,1,28.54.32,10.24.76,20.48,1,30.73q.19,7.44.47,14.89c.15,3.72.38,7.44.51,11.16,0,.1,0,.21,0,.31h0v.22c0,.78,0,1.55.05,2.33a4.33,4.33,0,0,0,0,.72c.1,3.51.24,7,.41,10.52.21,4.48.27,9,.38,13.44l.15,6.71q-6.26-7.44-12.51-14.89-13.67-16.18-27.37-32.33Q201.56,341.55,174.53,310a7.66,7.66,0,0,0-5.59-2.31,8,8,0,0,0-6.12,2.92c-1.89.52-3.76,1.11-5.63,1.69-3,.93-6,2-9.06,3-6.11,2-12.2,4.18-18.29,6.29-12.46,4.33-24.9,8.75-37.33,13.17Q64.09,344.77,35.72,355l1.64-2.65,11.91-19.28a7.92,7.92,0,0,0-13.68-8q-5.76,9.26-11.51,18.51c-1.48,2.37-2.94,4.74-4.41,7.11-1,1.51-2,3.08-2.91,4.63-1.38,2.22-2.76,4.43-4.13,6.66a6.9,6.9,0,0,0-.45.85c-.67,1.1-1.35,2.19-2,3.28A7.92,7.92,0,0,0,13,377a7.73,7.73,0,0,0,6.1.8c25.87-9.3,51.75-18.55,77.59-27.94,12.41-4.51,24.83-9,37.21-13.6,6.06-2.25,12.13-4.48,18.16-6.8q4.47-1.71,8.9-3.49c1.61-.64,3.22-1.28,4.82-2q25.57,29.75,51.31,59.33,13.88,16,27.77,31.92c8.69,10,17.46,19.83,26.06,29.85a6.91,6.91,0,0,0,6.79,1.8,7,7,0,0,0,5.13-6.74c0-.3,0-.62,0-.93v.09a47.06,47.06,0,0,0-.15-5c-.1-2.12-.21-4.23-.32-6.35q-.34-6.61-.68-13.23c-.23-4.5-.46-9-.64-13.52-.15-3.77-.24-7.55-.41-11.33,0-.25,0-.49-.06-.73,0-.85-.09-1.69-.14-2.54l0-.43c-.15-3.4-.26-6.81-.31-10.21-.07-4.95-.4-9.91-.64-14.85-.51-10.54-.86-21.07-1.33-31.6-.41-9.24-.77-18.47-1.17-27.71-.28-6.58-.6-13.15-.88-19.74,6.23-2.73,12.44-5.49,18.68-8.19,7.91-3.43,15.85-6.8,23.77-10.2q24.36-10.47,48.74-20.87l-.31.13q13.92-5.87,27.85-11.71l14.12-5.91,2.35-1a7.44,7.44,0,0,0,2.33-.25l10.5-4.43a7.47,7.47,0,0,0,1.76-.75h0a7.51,7.51,0,0,0,0-13,7.36,7.36,0,0,0-3.05-1c-13.13-3.52-26.27-7-39.44-10.37s-26.4-6.74-39.59-10.14c-13.66-3.52-27.33-7-41-10.55-6.47-1.69-12.94-3.36-19.43-5-2.36-.58-4.73-1.07-7.08-1.69l-6.47-1.73c-1.73-22.36-3.73-44.71-5.38-67.08q-.7-9.54-1.45-19.08-.51-7.56-1-15.1c-.51-7.4-1-14.8-1.48-22.19l-.69-10c-.13-1.87-.24-3.74-.39-5.61a8.17,8.17,0,0,0-.82-3.67,6.25,6.25,0,0,0-.67-.91l0-.23a10.32,10.32,0,0,0-.32-2.56l0-.07q-.46-6-.91-12.06a4.31,4.31,0,0,0-.58-2.13,4.26,4.26,0,0,0-2.52-1.94,4.35,4.35,0,0,0-1.11-.15,4.46,4.46,0,0,0-3.66,2.09Z"/><path class="cls-4" d="M3,99.32a1.18,1.18,0,1,0,1.17-1.17A1.18,1.18,0,0,0,3,99.32Z"/><path class="cls-4" d="M270.4,439.85a5.44,5.44,0,1,0,5.44-5.45,5.5,5.5,0,0,0-5.44,5.45Z"/><path class="cls-4" d="M299.45,200.13l-3.15.06c-1.1,0-2.19,0-3.29.07h.25l-.46,0h0l-.24,0h-.12l-.39,0h0c-1.13.05-2.25.16-3.37.26-.55,0-1.09.14-1.64.21l-1.65.24c-1.09.16-2.18.35-3.26.56s-2.11.44-3.16.69q-3.24.75-6.43,1.69c-1.1.33-2.19.69-3.27,1.07s-1.89.8-2.81,1.22l-1.54.72c-.5.22-1,.49-1.45.75a22.83,22.83,0,0,0-4.7,3.61l.78-1.71c.49-1.1,1-2.2,1.43-3.3a.79.79,0,1,0-1.49-.53c-.45,1-.89,2.12-1.37,3.16s-.88,1.9-1.33,2.85a1.62,1.62,0,0,0,.1-.18c-.23.46-.46.91-.7,1.36s-.6,1-.91,1.56c-.52.88-1,1.76-1.65,2.6-1.26,1.78-2.73,3.4-4.15,5.06-.67.78-1.34,1.56-1.94,2.39a13.87,13.87,0,0,0-.87,1.29c-.29.52-.59,1-.86,1.57a44.49,44.49,0,0,0-2.42,6.1c-.31,1-.68,1.93-1,2.88s-.67,1.9-1.06,2.83-.83,2-1.21,3c-.17.45-.36.9-.55,1.34l-.13.17-1,1.22a4,4,0,0,0-.41.51,4.21,4.21,0,0,0-.77,1.37,2.67,2.67,0,0,0-.08.48,1.28,1.28,0,0,0,.11.64,1.5,1.5,0,0,0,.38.45.94.94,0,0,0,.55.21h.07a1,1,0,0,0,.55-.1,1.16,1.16,0,0,0,.4-.23,3.33,3.33,0,0,0,.72-.86,10.33,10.33,0,0,0,.54-1c.15-.29.3-.58.44-.87s.33-.75.49-1.13.57-.76.85-1.15.64-.87.92-1.33c.58-.9,1.14-1.8,1.66-2.73s1.13-2,1.65-3c1-2,2-4.07,3-6.09s1.89-3.87,2.82-5.81c.29-.61.6-1.2.91-1.8.74-1.41,1.5-2.81,2.32-4.18.38-.65.76-1.3,1.2-1.91s.93-1.27,1.43-1.88c.79-.88,1.55-1.79,2.41-2.59.48-.44,1-.86,1.49-1.27s.91-.69,1.38-1,1.21-.72,1.85-1,1.26-.59,1.89-.88,1.24-.58,1.87-.84,1.3-.49,2-.72c2-.63,4.06-1.22,6.13-1.71,1.07-.26,2.15-.52,3.24-.75l1.69-.36,1.77-.3c.62-.12,1.25-.2,1.87-.29l2.09-.28c.75-.09,1.51-.18,2.27-.25l1.76-.13h.07c1-.05,2-.09,3-.1l3.29-.05q3.38-.06,6.74.05c1.1,0,2.2.08,3.29.13l1.51.1c.5,0,1,.08,1.5.14l3.48.45c1,.15,2.07.37,3.11.56.87.16,1.74.35,2.61.54l-.22-.05c1.49.33,2.92.79,4.38,1.23.79.24,1.57.5,2.35.75a22.57,22.57,0,0,0,2.29.58c.7.16,1.4.3,2.1.43s1.43.2,2.14.29,1.37.11,2.05.16l1,.07c.35,0,.71,0,1.06.08l-.17.36v0c-.95,1.87-1.8,3.8-2.65,5.72-.23.53-.48,1.05-.69,1.58l-.7,1.73c-.41,1-.81,2-1.21,3-.84,2.1-1.66,4.2-2.49,6.31s-1.59,4.11-2.31,6.2c-.67,1.92-1.38,3.84-2.08,5.75-.33.89-.66,1.78-1,2.67-.22.53-.43,1.06-.66,1.59s-.4.87-.61,1.3c-.13.25-.27.49-.41.74a1,1,0,0,0-.14.69.91.91,0,0,0,.38.59.93.93,0,0,0,1.28-.24,20.35,20.35,0,0,0,1.1-2.06c.25-.56.49-1.12.72-1.69.39-1,.75-1.93,1.1-2.9.75-2.08,1.51-4.17,2.22-6.27s1.49-4.17,2.29-6.23,1.63-4.22,2.46-6.32c.39-1,.79-2,1.19-3s.83-2,1.25-3,.93-2.12,1.41-3.17c.21-.48.44-1,.66-1.43.08-.19.17-.37.26-.55a4.24,4.24,0,0,0,.57-1.42,2.46,2.46,0,0,0,0-.47,1.38,1.38,0,0,0-.28-.57,1.27,1.27,0,0,0-.57-.36,2.15,2.15,0,0,0-.57-.13c-.43-.07-.87-.09-1.31-.12-.7-.06-1.41-.11-2.11-.18a36.17,36.17,0,0,1-4-.57l-1.06-.24.21.05c-.41-.09-.82-.18-1.23-.29s-1-.3-1.52-.47l-2.66-.84c-.84-.27-1.69-.52-2.56-.73-1.05-.26-2.1-.48-3.16-.72l.16,0c-1.11-.24-2.23-.43-3.35-.63s-2-.31-3-.44c-1.16-.15-2.33-.25-3.5-.34s-2.12-.11-3.17-.16-2-.06-3-.08l-2.37,0Zm31,4.88.11,0-.11,0Zm-1.46,1.4.09,0-.09,0Zm8.86,1.13h0Zm.08,0,0,0,0,0Zm-84.67,14.74-.09.19.09-.19Zm-5.07,4.55c.27-.44.55-.87.85-1.29.5-.71,1-1.38,1.59-2.05-.37.75-.74,1.5-1.1,2.25-.58,1.19-1.16,2.38-1.75,3.56l.1-.22c-1,1.95-2,3.91-3,5.87.33-1,.63-2,1-2.92.24-.65.46-1.3.73-1.93s.58-1.38.91-2c.21-.41.42-.83.66-1.22ZM323,243.54l0,.06,0-.06Zm-31.19-41.42Zm0-1.79h0Zm.81-.05h0Zm.39,0h0Z"/><path class="cls-4" d="M286.16,220.9l-1.25.27-.9.24c-.49.12-1,.25-1.45.39l-3.12.87c-.55.15-1.1.31-1.66.45l-1.85.47c-.91.23-1.83.43-2.74.65-2.16.52-4.32,1-6.47,1.62-2.4.64-4.79,1.3-7.18,2l-.72.2a.62.62,0,0,0-.35.24.55.55,0,0,0,.56.85q3.75-1.05,7.52-2.07c2.17-.58,4.35-1.12,6.53-1.65,1-.23,2-.46,3-.71s2.22-.57,3.33-.88,2.09-.59,3.13-.89l1.57-.45c.54-.16,1.07-.33,1.61-.47l.65-.17a.47.47,0,0,0,.37-.54.48.48,0,0,0-.46-.39Z"/><path class="cls-4" d="M271.41,229a14.2,14.2,0,0,0-1.59.13l-1,.13-.62.11-.93.18-.66.18-.89.25c-.24.07-.48.16-.71.24-.49.18-1,.34-1.45.54s-1,.42-1.54.66c-1,.47-2,.93-3,1.42l-2.71,1.31a.72.72,0,1,0,.63,1.29q2.5-1.23,5-2.42l2.16-1c.63-.27,1.29-.5,1.94-.74l1.22-.37c.38-.12.78-.19,1.17-.28s.74-.16,1.12-.22a19.53,19.53,0,0,1,2.3-.29h-.16c.58,0,1.15,0,1.73,0a.58.58,0,0,0,.6-.51.57.57,0,0,0-.51-.6c-.58,0-1.16-.07-1.74-.07Z"/><path class="cls-4" d="M270.48,235.58c-.52.07-1.05.13-1.57.22l-1.09.2c-.52.08-1,.19-1.52.31-1,.23-2.08.47-3.11.73-2,.51-4.07,1-6.09,1.58L253,239.78a.62.62,0,0,0-.23,1.12.62.62,0,0,0,.46.1c1.43-.42,2.87-.82,4.29-1.22l3.12-.84c2.06-.55,4.14-1.07,6.22-1.57l1.31-.3.91-.2c.52-.11,1-.19,1.56-.28a.52.52,0,0,0,.41-.6.51.51,0,0,0-.52-.41Z"/><path class="cls-4" d="M271.49,241.81,264.15,244l-3,.88c-.49.15-1,.27-1.47.4l-1.55.41c-1.37.37-2.74.74-4.1,1.13l-6.35,1.82a.51.51,0,0,0-.31.21.48.48,0,0,0-.08.37.5.5,0,0,0,.57.39c2.47-.71,5-1.44,7.42-2.13l3.26-.9c1.07-.29,2.15-.57,3.21-.89,3.32-1,6.63-2,9.94-3a.5.5,0,0,0,.27-.18.41.41,0,0,0,.07-.32.45.45,0,0,0-.41-.36l-.09,0Z"/><path class="cls-4" d="M286.2,230.14c-.18,1.24-.37,2.48-.55,3.72-.1.18-.19.37-.27.55-.16.34-.28.69-.42,1l-.29.78c-.19.52-.34,1.05-.5,1.59-.06.23-.11.47-.16.71s-.13.57-.18.86c-.11.5-.18,1-.24,1.53,0,.33,0,.65-.06,1s0,.6,0,.9c0,.14,0,.28.06.41a1.16,1.16,0,0,0,.24.5.57.57,0,0,0,.4.2.65.65,0,0,0,.44-.14.63.63,0,0,0,.22-.21,1.81,1.81,0,0,0,.2-.33,4.51,4.51,0,0,0,.28-.88c.1-.39.17-.79.24-1.18s.17-.95.25-1.42c.18-1,.34-1.93.52-2.89s.34-2,.5-3l0,0a.64.64,0,0,1,.15-.13l-.11.07a.35.35,0,0,1,.13-.08h0a1.54,1.54,0,0,1,.17.19,9.71,9.71,0,0,1,.75,1.75c.17.53.33,1.06.49,1.59.07.25.15.49.22.74.15.48.31,1,.48,1.43a.47.47,0,0,0,.83.06.45.45,0,0,0,.07-.36c-.14-.43-.28-.88-.41-1.32-.07-.24-.13-.49-.21-.74-.16-.55-.33-1.11-.51-1.66-.09-.27-.2-.54-.3-.8a5,5,0,0,0-.73-1.41,1.26,1.26,0,0,0-.63-.43.75.75,0,0,0-.26,0c.12-.8.23-1.6.35-2.39a.62.62,0,0,0-.56-.67h-.05a.64.64,0,0,0-.62.56Z"/><path class="cls-4" d="M283.17,240.73l-1.25.07h.1c-2.18.11-4.36.13-6.54.15a.42.42,0,0,0-.3.1.34.34,0,0,0-.13.27.39.39,0,0,0,.36.43l3.64-.05,1.55-.05c.91,0,1.81-.08,2.72-.13a.42.42,0,0,0,.32-.46.39.39,0,0,0-.17-.26.41.41,0,0,0-.23-.07Z"/><path class="cls-4" d="M306.39,219.71a17.24,17.24,0,0,0-3,.72,12.78,12.78,0,0,0-3,1.35,10.17,10.17,0,0,0-1.13.82,6.75,6.75,0,0,0-1,1,13,13,0,0,0-2.1,1.24,7.45,7.45,0,0,0-1.44,1.42,6.32,6.32,0,0,0-1,1.85,6,6,0,0,0-.38,2.1,5.52,5.52,0,0,0,.49,2.22,3.37,3.37,0,0,0,1.33,1.47,7,7,0,0,0,2.11.82,12.14,12.14,0,0,0,3.07.26h.09c-.43.23-.86.44-1.3.65-.79.39-1.59.77-2.36,1.19a11.1,11.1,0,0,0-2.15,1.51,10.37,10.37,0,0,0-1.06,1.14,6.07,6.07,0,0,0-.94,1.46,3.55,3.55,0,0,0,0,3.27,3.64,3.64,0,0,0,.37.59,5.45,5.45,0,0,0,.57.7c.19.19.38.38.58.55a5.07,5.07,0,0,0,.46.35l-.37.09a9.62,9.62,0,0,0-1.68.52,4.7,4.7,0,0,0-1.64,1.14,4.1,4.1,0,0,0-1.08,1.91,2.91,2.91,0,0,0-.09.58,3.81,3.81,0,0,0,0,.59,3.08,3.08,0,0,0,.17.57,2.14,2.14,0,0,0,.3.5,2.43,2.43,0,0,0,.73.62,4.29,4.29,0,0,0,1.11.38,12.28,12.28,0,0,0,2.19.3,15.8,15.8,0,0,0,2.48,0c.76-.06,1.5-.2,2.25-.33l.65-.14.81-.19c.51-.13,1-.24,1.51-.4s1.2-.37,1.79-.59l.88-.33c.27-.1.54-.23.8-.35.48-.21.94-.45,1.41-.68a12.94,12.94,0,0,0,1.93-1.24,11.06,11.06,0,0,0,1.7-1.65,16.25,16.25,0,0,0,2.62-5.08,26.56,26.56,0,0,0,.93-3.12,11,11,0,0,0,.3-1.23c0-.14.05-.28.07-.41.11-.5.21-1,.31-1.49.23-1.09.45-2.19.65-3.29s.48-2.07.62-3.12a30.16,30.16,0,0,0,.26-3.3,13.43,13.43,0,0,0-.22-3.47,4.88,4.88,0,0,0-.38-1,2.75,2.75,0,0,0-.73-.89,6.6,6.6,0,0,0-2.09-1,12.35,12.35,0,0,0-1.48-.38,10.19,10.19,0,0,0-1.66-.22q-.45,0-.9,0a17.5,17.5,0,0,0-2.4.18Zm4.92,2.06a9.82,9.82,0,0,1,1.9.62,6.06,6.06,0,0,1,.53.35l.15.17a4,4,0,0,1,.21.47,6.88,6.88,0,0,1,.22,1.42,30.16,30.16,0,0,1-.14,3.92,21.36,21.36,0,0,1-.42,2.52,12.65,12.65,0,0,0-1-2.35,1.5,1.5,0,0,0-.76-.71,1.46,1.46,0,0,0-1-.05,3.89,3.89,0,0,0-1.36,1c-.38.34-.76.66-1.15,1s-.75.57-1.14.84l-1.15.7-.38.22a5.55,5.55,0,0,0,.49-1.49,3.54,3.54,0,0,0,.08-1,3.58,3.58,0,0,0-.25-1.21,2.1,2.1,0,0,0-.21-.39,4.46,4.46,0,0,0-.33-.43,4.23,4.23,0,0,0-.83-.69,6.45,6.45,0,0,0-2.07-.84c-.89-.21-1.8-.27-2.7-.44a3.88,3.88,0,0,1-.45-.14,3.59,3.59,0,0,1,.37-.5l.31-.31h0l2-.85a.74.74,0,0,0,.43-.72c.41-.19.83-.35,1.26-.5a17.58,17.58,0,0,1,4.13-.82,13.82,13.82,0,0,1,3.21.24Zm-3-.25h0Zm-4.25.81h0Zm10.29,2.49c0,.05,0,.1,0,.16s0-.11,0-.16Zm-14.89.25,0,.09,0-.09Zm.12.24v0Zm.59.08.05,0-.05,0Zm-2.54.37a2.83,2.83,0,0,0,.11.31,2.75,2.75,0,0,0,.32.44,2.58,2.58,0,0,0,1.18.64,9.53,9.53,0,0,0,1.4.24c.55.07,1.1.13,1.65.23a6.76,6.76,0,0,1,1.31.45,4.77,4.77,0,0,1,.64.43l.23.27a1.51,1.51,0,0,1,.11.22,2.74,2.74,0,0,1,.08.5,3.68,3.68,0,0,1-.06.66,5.39,5.39,0,0,1-.41,1.1,11.46,11.46,0,0,1-1.07,1.69l-.38.09a19.42,19.42,0,0,1-2.27.34,13.61,13.61,0,0,1-2.78-.22,7,7,0,0,1-1.41-.5,4.72,4.72,0,0,1-.55-.36l-.22-.24a4.12,4.12,0,0,1-.34-.74,5.44,5.44,0,0,1-.19-.91,7,7,0,0,1,.09-1.12,7.27,7.27,0,0,1,.47-1.28,6.26,6.26,0,0,1,.76-1.09,8.44,8.44,0,0,1,1.32-1.14Zm-1.21,1-.08.09.08-.09Zm15.3,2.82-.08,0,.08,0Zm-5.91,4.14a13,13,0,0,0,1.16-.63c.53-.3,1.06-.61,1.56-1s1-.72,1.48-1.11c.2-.16.4-.34.6-.52s.58-.57.89-.82a8.77,8.77,0,0,1,.6,1.28c.14.37.29.73.41,1.11a14.1,14.1,0,0,1,.57,2.73c0,.07,0,.15-.05.22-.21,1.1-.45,2.19-.68,3.29,0,0,0,.05,0,.08-.1.42-.2.84-.32,1.26s-.29,1-.45,1.49a11.17,11.17,0,0,1-.74,1,8.93,8.93,0,0,1-1.38,1.22,12.27,12.27,0,0,1-2.6,1.2l.2-.07a21.31,21.31,0,0,1-4,.76l-3.25.4-3.16.41-.93.15a.63.63,0,0,0-.25-.65l-.4-.32a7.32,7.32,0,0,1-.77-.9,6.06,6.06,0,0,1-.39-.76,4.3,4.3,0,0,1-.13-.7,2.63,2.63,0,0,1,0-.49,3.81,3.81,0,0,1,.24-.64,7,7,0,0,1,.9-1.27,10.73,10.73,0,0,1,1.75-1.55,31.07,31.07,0,0,1,3.28-1.73c.41-.19.82-.38,1.22-.59l.93-.53a9.68,9.68,0,0,0,1.78-1.39l.32-.34a12.06,12.06,0,0,0,1.55-.59Zm5.7-4,0,0,0,0Zm-6.94.58v0Zm-6.81,2.88h0Zm15.15,5h0Zm-2,3.82-.08.08.08-.08Zm-1.52,1.36-.05,0,.05,0Zm-12,4.37,3-.43,3.4-.49c.47-.07.94-.14,1.41-.23l.91-.18a12.07,12.07,0,0,0,2-.62,11.51,11.51,0,0,0,2.15-1.11l0,0c-.19.34-.38.68-.6,1a9.14,9.14,0,0,1-.71.93,11.59,11.59,0,0,1-1.8,1.55,17.33,17.33,0,0,1-2.41,1.27c-.31.14-.61.28-.92.4l-1.06.4c-.9.28-1.78.56-2.69.76-.53.12-1.05.25-1.57.34l-1,.17a11,11,0,0,1-1.51.15,13.79,13.79,0,0,1-3.27-.23,5,5,0,0,1-.63-.19l-.14-.09,0,0-.09-.19a.5.5,0,0,1,0-.12,2,2,0,0,1,0-.34,3,3,0,0,1,.15-.42,4.24,4.24,0,0,1,.38-.56,4.31,4.31,0,0,1,.6-.52,5,5,0,0,1,1-.46,25.66,25.66,0,0,1,3.58-.78Zm11.37-1-.07.07.07-.07ZM293,248.85l-.09.06.09-.06Z"/><path class="cls-4" d="M295.76,241.82a1.51,1.51,0,0,0-.5,1,1.48,1.48,0,0,0,1.35,1.59,1.56,1.56,0,0,0,1.08-.35,1.47,1.47,0,0,0-.84-2.58,1.59,1.59,0,0,0-1.09.35Z"/><path class="cls-4" d="M335.22,194.25l-2.34,0-2.5.12h-.18l-1.33.08h0l-3.9.16c-1.33.06-2.66.15-4,.23-2.51.12-5,.22-7.52.37h0l-2.31.11c-.73,0-1.46,0-2.18,0s-1.38,0-2.07,0-1.41,0-2.11-.07l-4.1-.19c-1.38-.06-2.75-.22-4.12-.33s-2.66-.24-4-.31l-4.47-.2c-.62,0-1.25,0-1.87,0s-1.33,0-2,0c-1.46,0-2.93.06-4.39.19s-2.93.28-4.4.47-2.76.43-4.15.67c-.67.11-1.35.25-2,.38s-1.38.31-2.06.47-1.34.37-2,.56l-.74.23c-.4.12-.81.23-1.21.38a28.24,28.24,0,0,0-3.72,1.58c-1.21.65-2.33,1.42-3.49,2.13q-.94.58-1.86,1.23a13.48,13.48,0,0,0-1.54,1.16c-.51.47-1,.94-1.48,1.43a14.56,14.56,0,0,0-1.34,1.6c-.4.53-.75,1.08-1.13,1.63s-.8,1.15-1.2,1.73l-2.29,3.27c-1.55,2.24-3.14,4.46-4.88,6.56-.58.69-1.16,1.38-1.75,2.06s-1,1.08-1.45,1.63l.14-.16c-.94,1-1.87,2.08-2.82,3.11s-2,2-2.94,3.07-1.91,1.91-2.88,2.85l-3.28,3.25-2,2a.87.87,0,0,0-.08,1.19.86.86,0,0,0,1.19.08l4.06-4.05c.91-.89,1.83-1.78,2.73-2.69,2-2,3.92-4,5.77-6,.72-.8,1.44-1.59,2.14-2.4L239,224l1.48-1.66c.45-.51.87-1,1.3-1.58.88-1.07,1.71-2.18,2.52-3.29,1.62-2.25,3.18-4.54,4.75-6.82.5-.71,1-1.44,1.47-2.16.22-.33.45-.65.69-1s.55-.7.84-1c.52-.54,1.06-1.06,1.61-1.57a10,10,0,0,1,1-.76c.35-.26.71-.51,1.07-.75l-.17.11c.66-.44,1.33-.85,2-1.28s1.35-.87,2-1.28c.3-.18.63-.33.95-.5s.35-.16.52-.24l.54-.25c.38-.15.75-.32,1.14-.45l1.14-.41c1.24-.37,2.47-.75,3.73-1,.7-.16,1.39-.32,2.09-.45s1.35-.25,2-.36c1.38-.22,2.77-.45,4.16-.62s2.92-.32,4.39-.44h.21c2.74-.11,5.47-.17,8.22,0l2.23.11c.63,0,1.26.05,1.89.1l4.34.38c1.29.11,2.59.25,3.88.31l4.39.23c1.38.06,2.76.09,4.13.08s2.86-.08,4.29-.15l1.85-.1h-.26c1.38-.07,2.77-.11,4.16-.16s3-.12,4.47-.21h0l4.21-.14c1.33,0,2.64-.12,4-.15s2.76,0,4.15,0l2.13,0c.74,0,1.48,0,2.21.06,1.3.05,2.6.09,3.91.1.7,0,1.4,0,2.1.1a18.15,18.15,0,0,1,1.94.29,10,10,0,0,1,1.59.48,5.91,5.91,0,0,1,.52.35c.13.14.25.28.37.43a4.12,4.12,0,0,1,.32.67,3.78,3.78,0,0,1,.1.57,7.59,7.59,0,0,1-.18,1.5,27.74,27.74,0,0,1-1.4,4.15c-.56,1.31-1.12,2.63-1.66,3.95-1.07,2.61-2.23,5.17-3.39,7.74-.37.81-.76,1.6-1.16,2.4-1.27,2.42-2.67,4.76-4.14,7.07-.72,1.13-1.46,2.25-2.2,3.37-.38.58-.77,1.15-1.14,1.74s-.62,1.09-.92,1.63c-.18.33-.34.68-.51,1a4.47,4.47,0,0,0-.19.46c-.05.12-.1.24-.14.36-.28.85-.53,1.7-.76,2.56a1,1,0,0,0,0,.72.93.93,0,0,0,1.72-.1c.38-1.09.82-2.15,1.3-3.2s1.22-2.18,1.93-3.22,1.48-2.19,2.19-3.31c1.47-2.31,3-4.63,4.23-7.07.37-.73.75-1.46,1.12-2.2s.57-1.21.85-1.82c.59-1.29,1.16-2.58,1.73-3.87,1.14-2.57,2.19-5.18,3.29-7.77a24.64,24.64,0,0,0,1.47-4.75,5.14,5.14,0,0,0-.1-2.64,4.92,4.92,0,0,0-.64-1.3,5,5,0,0,0-1.15-1.15,5.68,5.68,0,0,0-1.29-.62c-.23-.08-.48-.14-.71-.2l-1.29-.28-1-.17c-.36,0-.73-.07-1.1-.1-.67,0-1.34,0-2,0-1.37,0-2.73,0-4.11-.08H339c-1.27,0-2.54,0-3.81.06Zm13.25,2.64.17,0-.17,0Zm-84.66,2.2-.07,0,.07,0Zm-25.32,23-.05.06.05-.06Zm90.32-27.57h0Zm0,0h0Zm1.37-.08h0Z"/><path class="cls-4" d="M245.76,265.16c-1.19,0-2.39,0-3.57.16-.58.05-1.15.12-1.72.2s-1.08.17-1.61.26-1.06.22-1.58.34-1.07.28-1.61.45c-.76.22-1.5.49-2.25.75l-2.86,1a1,1,0,0,0-.5.56,1,1,0,0,0,.05.76,1,1,0,0,0,.55.5,1.08,1.08,0,0,0,.77,0l4.33-1.54c.54-.16,1.08-.35,1.64-.47s1.27-.3,1.91-.41,1.33-.23,2-.32,1.21-.14,1.81-.2c1-.05,1.94-.11,2.91-.09s2.18,0,3.27.08c2.18.08,4.34.22,6.5.39l3.2.22c1.08.08,2.16.18,3.25.24,2.27.13,4.53.3,6.8.39.9,0,1.8,0,2.7.07l3.87.1a.76.76,0,1,0,.12-1.51l-4.25-.34c-1.1-.08-2.2-.12-3.3-.18l-3.18-.24c-1-.07-2-.12-3-.2l-3.29-.26-3.3-.24c-2.14-.17-4.27-.31-6.41-.38-1,0-1.92-.08-2.87-.08Z"/><path class="cls-4" d="M274,280c-.94,0-1.87.08-2.81.13-.54,0-1.07.1-1.61.15l-3.24.32c-2.21.21-4.41.49-6.62.78s-4.38.55-6.58.8c-1,.11-1.91.2-2.87.29s-2,.21-3,.28c-2.23.15-4.45.31-6.68.45a.73.73,0,0,0-.5.33.78.78,0,0,0,.79,1.21l4.72-.32c.94-.06,1.87-.12,2.81-.21,1.31-.11,2.61-.24,3.92-.36l1.23-.14,2.29-.26c2.13-.24,4.26-.53,6.39-.8s4.09-.44,6.14-.64l2.59-.25c1-.1,2.1-.16,3.15-.23a.74.74,0,0,0,.37-.17.84.84,0,0,0,.26-.52.78.78,0,0,0-.19-.57A.74.74,0,0,0,274,280Z"/><path class="cls-4" d="M283.29,254.55h-1.71l-1.79,0-2.92.07c-.59,0-1.19,0-1.79.05l-1.9.09c-1,0-2,.08-3.06.14-1.2.07-2.4.15-3.59.25-1,.08-1.93.15-2.89.25-2.33.24-4.64.54-7,.82l-1.35.18c-.52.07-1.05.11-1.57.2-1,.17-2.07.34-3.1.53l-6.61,1.26-6.81,1.29a.51.51,0,0,0-.39.58.49.49,0,0,0,.57.39l7.42-1.41,3.53-.67,1.84-.34c.45-.09.9-.18,1.35-.25l2.06-.34,1.22-.16,3.46-.43c2.11-.24,4.22-.5,6.34-.66l3.78-.28c2.18-.1,4.37-.17,6.55-.26.57,0,1.15,0,1.72,0l1.35,0,3.43,0c.57,0,1.13,0,1.7,0l1.6,0c1,0,2,.06,3.06.11s2.32.12,3.48.21l3.19.26,1.63.15c.58.05,1.17.08,1.76.12,1.09.08,2.18.13,3.27.22l3.12.18c.51,0,1,0,1.54,0,.26,0,.52,0,.78,0h.79c.6,0,1.2,0,1.8-.06s1.09-.06,1.64-.11,1.12-.09,1.68-.16l1.11-.16c.58-.09,1.15-.2,1.72-.31a.71.71,0,0,0-.26-1.4c-.58.09-1.15.19-1.73.26l-1.18.14c-.54.06-1.09.08-1.63.12h-.12l-1.36.07h.08c-1.06.05-2.12.05-3.18.07l-1.54,0c-.52,0-1,0-1.55-.07-1.05-.06-2.11-.13-3.17-.18l-3.44-.19-1.63-.13-1.43-.1c-1.15-.08-2.3-.16-3.44-.21s-2.23-.1-3.35-.13c-.51,0-1,0-1.53,0h-1.59Zm27.22.91-.27,0h.27Zm-42.11.7Zm40.54-.62h0Z"/><path class="cls-4" d="M89.22,72.17a4.79,4.79,0,0,0-1.28.36,2.62,2.62,0,0,0-1,.93A3.68,3.68,0,0,0,86.41,75a6.75,6.75,0,0,0,0,1.68A15.38,15.38,0,0,0,87.68,81c.61,1.46,1.25,2.89,1.89,4.34,1.16,2.62,2.43,5.2,3.64,7.8q2.16,4.66,4.36,9.32a1.43,1.43,0,1,0,2.56-1.26q-2.19-4.62-4.33-9.29c-1.21-2.61-2.46-5.19-3.61-7.83-.86-2-1.78-3.92-2.49-6a13.34,13.34,0,0,1-.56-2.58,4.1,4.1,0,0,1,0-.7l0-.06h0l0,0,.45-.1a1.26,1.26,0,0,0-.24-2.49.82.82,0,0,0-.22,0Zm.08,2.46-.08.08.08-.08Zm0,0-.09,0,.09,0Zm-.19.14-.08.16a.8.8,0,0,1,.08-.16Zm0,0-.05,0,.05,0Zm0,.14,0,.14,0-.14Zm.61,3.31,0,.15,0-.15Z"/><path class="cls-4" d="M136.16,60.8c-.25.37-.5.74-.72,1.14a10.19,10.19,0,0,0-1.14,3.83c-.09.72-.17,1.43-.24,2.14a24,24,0,0,0,0,4.32c.27,2.86.77,5.68,1.26,8.51l.48,2.73a1.35,1.35,0,0,0,2.65-.5q-.57-3.23-1.12-6.45c-.28-1.68-.46-3.37-.62-5.07,0-1,0-2,0-3a29.61,29.61,0,0,1,.46-3.87,9.54,9.54,0,0,1,.61-1.8l.34-.63a1.29,1.29,0,0,0,.2-.92,1.21,1.21,0,0,0-.52-.78,1.17,1.17,0,0,0-.69-.21,1.19,1.19,0,0,0-1,.53Zm1.06,3.88a1.24,1.24,0,0,1,0,.16c0-.06,0-.11,0-.16Z"/><path class="cls-4" d="M180.72,43.66a1.57,1.57,0,0,0-1,.67c-.46.83-.9,1.65-1.33,2.49-.23.43-.44.86-.64,1.3a19.9,19.9,0,0,0-.86,2.34c-.36,1.15-.71,2.29-1,3.45s-.62,2.56-.92,3.84-.56,2.55-.83,3.84l-.27,1.24c0-.07,0-.14,0-.2-.25,1.17-.51,2.35-.76,3.52a.29.29,0,0,0,0,.09l-.06.28a.52.52,0,0,0,0-.11.52.52,0,0,1,0,.11s0,0,0,.06q-.59,2.69-1.19,5.37a1.9,1.9,0,0,0,.07,1.35,1.7,1.7,0,0,0,1,.86,1.73,1.73,0,0,0,1.34-.07,1.66,1.66,0,0,0,.87-1c.43-1.92.85-3.84,1.28-5.77a1.64,1.64,0,0,0,.09-.44l.6-2.73c0,.14-.07.29-.1.43.36-1.64.71-3.29,1-4.94s.77-3.44,1.2-5.15c.24-1,.51-2,.79-2.94a17.24,17.24,0,0,1,1.1-3c.19-.4.39-.79.59-1.19s.44-.82.67-1.23a1.69,1.69,0,0,0,.25-1.2,1.58,1.58,0,0,0-.68-1,1.6,1.6,0,0,0-.91-.28,1.43,1.43,0,0,0-.29,0Zm-6.53,17.52,0,.13,0-.13ZM173,66.77a.29.29,0,0,0,0-.09l0-.16-.06.25Z"/></svg>