<?xml version="1.0" encoding="utf-8"?>
<!-- Generator: Adobe Illustrator 22.1.0, SVG Export Plug-In . SVG Version: 6.00 Build 0)  -->
<svg version="1.1" id="Layer_1" xmlns="http://www.w3.org/2000/svg" xmlns:xlink="http://www.w3.org/1999/xlink" x="0px" y="0px"
	 viewBox="0 0 429.6 447.1" style="enable-background:new 0 0 429.6 447.1;" xml:space="preserve">
<style type="text/css">
	.st0{fill:#D80272;}
	.st1{opacity:0.75;fill:#D851A0;}
	.st2{fill:#2C2C2C;}
</style>
<path class="st0" d="M283.8,55.1c-38.7,1.6-120.9,21-49.8,52.9c8.8,4,20.9-4.5,29.5,2.2c9.9,7.8,18.6,69.6,16.7,83.4
	c-6.1,45.5-46.7,42.7-89.3,39.8c-18.8-1.3-69-10.1-88.3-1.2c-11.6,5.4-35.2,28.1-11.6,38.8c-61,35.9,39.7,103.2,74.3,108.6
	c56.9,8.8,109.4,34.1,156.7-12.2c33.6-32.9,97-125.9,77.1-172.8c-9.5-22.4-31.3-41.9-43.1-64.6C340.5,100.4,324.5,53.5,283.8,55.1
	L283.8,55.1z"/>
<path class="st1" d="M129,62c-12.7,3.5-92.1,44.9-90.6,47.3c-33.6-33.9-24.1,47.9-21.7,66.5c2.8,22.1,2.9,62.3,30.6,68.8
	c33.9,8.1,123-3.8,172.4-6.3c71.7-3.5,77.8-25.8,56.9-99c-14.7-51.6-41.1-31.9-86.9-52.8C175.1,79.9,148.4,56.7,129,62L129,62z"/>
<path class="st2" d="M173.4,287.8c-24.6,2.6-10,35.3-4.5,32.4c-7.3-15.9,5.3,19.7,10.2,17.9C168.1,342.2,203.1,284.7,173.4,287.8
	L173.4,287.8z M172.2,293c19.2-2.2,8,14-0.3,19.3C170.2,304.4,156.2,294.8,172.2,293L172.2,293z M164.2,295
	C164,295.2,164.1,295.1,164.2,295L164.2,295z M164.3,295.1C164.1,295.2,164.1,295.2,164.3,295.1L164.3,295.1z M164.1,295.3
	C164.1,295.8,164.1,295.3,164.1,295.3L164.1,295.3z M164,295.4C163.8,295.8,163.9,295.4,164,295.4L164,295.4z M171.4,310
	C171.5,310.2,171.5,310.2,171.4,310L171.4,310z M167.4,319C167.5,319.3,167.5,319.3,167.4,319L167.4,319z"/>
<path class="st2" d="M204.7,299.5c-2.7,1,8.7,32.2,12.9,27.3C219.8,324.2,204,299.8,204.7,299.5L204.7,299.5z"/>
<path class="st2" d="M203.1,288.3c0.6,1.6,10.7,9,11.5,8C218.1,292.3,201.8,285,203.1,288.3L203.1,288.3z"/>
<path class="st2" d="M247.6,287.1c-46.1,20,16.9,34,15.9,20.6C263.8,311.4,213.1,302.1,247.6,287.1L247.6,287.1z"/>
<path class="st2" d="M283.9,275.1c-34,2.8,1.9,15.7,6.5,19.9c-1.6,0.7-22.8,7-15,13.6c3.1,2.6,20-10.1,20.5-13.7
	c1-7.3-19.4-6.5-19.5-9.1C276,280.8,292.8,274.4,283.9,275.1L283.9,275.1z M273,283.3C273.1,283.7,273.1,283.7,273,283.3L273,283.3z
	 M273.2,283.6C273.2,283.8,273.2,283.7,273.2,283.6L273.2,283.6z M273.2,283.7C273.2,283.8,273.1,284.3,273.2,283.7L273.2,283.7z
	 M273.3,283.9C273.4,284,273.4,284,273.3,283.9L273.3,283.9z M289,293.9C289.2,294,289.2,294,289,293.9L289,293.9z"/>
<path class="st2" d="M181.3,273.6c-16.6,6.7-11.4,25.1-6.7,38c-29.7-44.6-9.8,52.3,18.1,26.6c-4.5,4.1,12.9-48.7,13.8-41.3
	C205.1,284.3,197.4,269.6,181.3,273.6L181.3,273.6z M186.1,288.7C186.9,288.7,186.2,288.6,186.1,288.7L186.1,288.7z M185.9,288.8
	c8.5,1.9,4.8,6.9,0.4,10.3C185.9,297.5,182.5,291.3,185.9,288.8L185.9,288.8z M157.1,307.9C157.3,308,157.3,308,157.1,307.9
	L157.1,307.9z"/>
<path class="st2" d="M221.9,278.6c-16.3,9.5-25.2,38.5-11.6,53.1c5.1,5.4,21.5-21.4,9.3-23.8c-4.9-1-5.8,4.9-7.3,8
	C210.5,303.7,221.2,279,221.9,278.6L221.9,278.6z"/>
<path class="st2" d="M215,260.5c-10.3,0.6-2.6,18.1,2.4,16.3C219.5,276,221.2,260.2,215,260.5L215,260.5z"/>
<path class="st2" d="M254.4,277.9c-79.2,39.4,40.9,42.4,31.5,16.3c-2.8-7.7-37.1,10.8-46.5,8.8C239,305.4,265.2,272.6,254.4,277.9
	L254.4,277.9z M238.8,302.5C239.2,303.4,238.8,302.5,238.8,302.5L238.8,302.5z M238.5,302.6C238.6,302.7,238.6,302.7,238.5,302.6
	L238.5,302.6z M239.4,303.3C239.8,303.6,239.4,303.3,239.4,303.3L239.4,303.3z M239.5,304.3C239.5,304.6,239.5,304.6,239.5,304.3
	L239.5,304.3z"/>
<path class="st2" d="M291.3,265.3c-43.6,1.6-17,24.8,1.6,34.5c-24.6,19.4,1.8,25.7,7.4,12.6c11.1-26.2,0.4-19.2-23.7-31.9
	c1.6-1.3,24.6-9.7,24.8-10.7C302.5,264.5,294,265.2,291.3,265.3L291.3,265.3z M274.9,278.9C275.2,279.5,275.2,279.5,274.9,278.9
	L274.9,278.9z M275.2,282.2C275.1,282.4,275.1,282.4,275.2,282.2L275.2,282.2z M295.5,301.6C295.7,302,295.7,302,295.5,301.6
	L295.5,301.6z"/>
<path class="st2" d="M180,268.1c-26,2.1-22.3,27.7-18.7,22.3c-4.9,9.2,6.9,52.7,21.9,52c5-0.2-1.9-18-0.2-20.2
	C196.1,305.9,229.2,264,180,268.1L180,268.1z M167.9,283.6c-2.5,1.6-4.5,3.4-6.1,5.9C163.1,286.1,163.7,285.1,167.9,283.6
	L167.9,283.6z M190.2,288.2c12.8-0.9-16.2,20.3-15.1,19.6C170.9,292.4,172.5,289.5,190.2,288.2L190.2,288.2z M176.4,311.6
	C176.7,311.7,176.4,311.6,176.4,311.6L176.4,311.6z"/>
<path class="st2" d="M217,291c-23.8,1.4-11.1,46.5-6.6,45.1c4.5-1.4,2.8-10.1,2.7-13.2C227.5,351.4,240.6,289.6,217,291L217,291z"/>
<path class="st2" d="M253.9,279.5c-53.8,8.8-15.3,73.4,17.9,42c12.7-12-18.5-7.5-22.5-17.9C248.6,301.6,280.7,275,253.9,279.5
	L253.9,279.5z M235.3,311.1C235.3,311.4,235.3,311.2,235.3,311.1L235.3,311.1z"/>
<path class="st2" d="M286.4,265.5c-16.1,4.1-24.4,46.1-14.1,57.6c20.2,22.7,45.3-19.2,16.7-40.9c11.6-12.6,5,0.1,11.7-2.3
	C306,278,291.8,264.2,286.4,265.5L286.4,265.5z M297,276.1C297.5,276.1,297.1,276.1,297,276.1L297,276.1z M295.8,276.4
	C295.6,276.5,295.6,276.5,295.8,276.4L295.8,276.4z M296.9,276.5C297.2,277,297.2,277,296.9,276.5L296.9,276.5z M285.1,300.2
	C287.5,301.5,285.1,300.5,285.1,300.2L285.1,300.2z"/>
<path class="st2" d="M208.4,255.6c-11.3,13.2,0.6,57,5.3,33.2c-0.3,1.6-3.3-15.2-3.4-12.6C240.5,304.8,228.7,232,208.4,255.6
	L208.4,255.6z M225.9,264.3c5.1,0.8-3.4,12.1-8,11C223.6,274.4,223.3,264.4,225.9,264.3L225.9,264.3z M210.5,268.1
	C210.5,261.1,210.5,274.1,210.5,268.1L210.5,268.1z M209.9,265.9C209.7,266.4,209.9,265.9,209.9,265.9L209.9,265.9z M224.9,271.2
	C224.7,271.4,224.7,271.4,224.9,271.2L224.9,271.2z"/>
<path class="st2" d="M274,333.3c-10.9,0.1-147.4,13.6-88.8,39.1c9.6,4.2,28.8-7.8,31.4-8.2c9.3-1.4,98.8,3.9,101-7.7
	c1.7-8.8-24.9-9.3-26.8-9.4C310.5,342.8,279.7,333.3,274,333.3L274,333.3z M213.1,351.9c6.1-1.3,12.5-1.9,18.6-2.8
	c-13.6,3.7-26.7,10.8-40.7,7.8C198.3,354.9,205.7,353.2,213.1,351.9L213.1,351.9z M259.9,355.6c5.1-0.2,10.3-0.4,15.4-0.6
	c-8.2,0.5-16.3,0.9-24.5,1.4C253.9,356.2,256.9,355.9,259.9,355.6L259.9,355.6z"/>
<path class="st2" d="M295.7,264.4c-31.4,0.1-95.6,25.9-28,23c-2.9,0.2-4.6,1.6-5.1,4.4c-2-5.4,42.6-10.6-15.1-9.9
	c9-3.6,51.8-7.1,56.5-12.6C308.3,264.2,297.4,264.4,295.7,264.4L295.7,264.4z M280.1,271.4C279.7,271.5,279.7,271.5,280.1,271.4
	L280.1,271.4z"/>
<path class="st2" d="M212.9,276.7c-29.4,2.7-63.1,25.5-22.3,37.3c-19.1,17.9,31.4,14.2,37.2,12.9c0.9-0.2,3-2.1,1.2-3.7
	c-5.6-4.7-34,10.5-37.3-2.6c-2.2-8.8,22.7-5.6,27.6-9.3C232.7,301.1,252.3,273.1,212.9,276.7L212.9,276.7z M217.8,282.9
	c3.6,0.3,7.8,1.5,10.8,3.7c-11.6,7.5-20.5-1.7-32.5,9.9C195.6,287.9,212.2,282.7,217.8,282.9L217.8,282.9z M184.3,288.7
	c-3.9,3.8-6.2,10.5-4.3,15.9C163.2,304.5,174.5,289.9,184.3,288.7L184.3,288.7z M229.4,291.2c7.7-4.3-5,7.6-5.7,8
	C225.4,292.1,219.4,296.8,229.4,291.2L229.4,291.2z M232.3,290.7C232.3,291,232.3,291,232.3,290.7L232.3,290.7z M192.1,290.8
	c-2.4,4.4,0.9,8.2,0,12c-1.7,0.4-3.5,0.8-5.2,1C183.8,298.7,187.8,293.6,192.1,290.8L192.1,290.8z M232.2,291.3
	C232.2,291.4,232.2,291.4,232.2,291.3L232.2,291.3z M211.8,295.8c-2.9,1.3-5.8,2.6-8.8,3.7C205.5,297.7,208.7,296,211.8,295.8
	L211.8,295.8z M213.5,299.3c7.1-3.2-1.5,5.8-10,4C206.8,302,210.2,300.7,213.5,299.3L213.5,299.3z M171.6,298.8
	C171.4,299.1,171.4,299.1,171.6,298.8L171.6,298.8z M171.1,299.6C171,299.9,171,299.9,171.1,299.6L171.1,299.6z M191.4,306.8
	C194.1,306.2,188.1,307.4,191.4,306.8L191.4,306.8z M227.6,327C227.2,327.1,227.5,327,227.6,327L227.6,327z"/>
<path class="st0" d="M241.5,240.4c-20.1,1.5-39.5,5.7-59.1,10.3c-24.8,5.4-44.1,25.2-52.4,51.4c-16.1,50.6,26.2,71.1,73.4,76.8
	c43.5,5.3,118.6,2.7,137.9-46.4C368.2,264.1,296.7,236.1,241.5,240.4L241.5,240.4z M170.2,320.2c1,0.1,9.5,0.2,9.5,0.4
	C168.9,321.4,164.3,323.8,170.2,320.2L170.2,320.2z"/>
<path class="st0" d="M194.3,313.5c-4.1,0.3-14.8,8.1-17.7,9.9c0.6-4.9-32.7,17.7-0.4,20.1C194.5,344.8,217.3,311.7,194.3,313.5
	L194.3,313.5z M172,321.4C172.1,321.6,172.2,321.8,172,321.4L172,321.4z M197.1,332C195.4,331.9,197.1,332,197.1,332L197.1,332z"/>
<path class="st2" d="M140.7,282.8c-46.3,6.6,26.1,105.3,4.8,37.1C175.7,320.9,171,278.6,140.7,282.8L140.7,282.8z M146.2,294
	c21.7,1.9,0.3,11.4,0,13.2C145.2,312.6,117.6,293.6,146.2,294L146.2,294z M146.1,319.9C146.4,320,146.1,319.9,146.1,319.9
	L146.1,319.9z"/>
<path class="st2" d="M184.1,276.1c-8.9,0.7,9.4,58.6,17.6,45.3C204.4,317.1,181.4,276.3,184.1,276.1L184.1,276.1z M197.8,311
	C198.1,311.7,198.1,311.7,197.8,311L197.8,311z"/>
<path class="st2" d="M220.5,266.3c-25.3,0.8-14.6,37.2-1.2,45.5c12.9,8,52.4-0.9,35.5-15.3c-16.3-13.9-30.2,18.4-38-17.1
	c-1.4-6.2,16.9,2,16.5,2.4C241.5,276.2,226.1,266.1,220.5,266.3L220.5,266.3z"/>
<path class="st2" d="M278,254.7c-47,11,9.9,15.8,12.5,18.2c20.4,18.6-13.3,2.3-19.4,13.2c-15.1,26.8,41.2,16.5,42.1-3.9
	c1.1-25.7-28.3-18.3-42.7-17.9C271.8,263.5,289.4,252.1,278,254.7L278,254.7z M267,263.9C267.4,264.5,267,264,267,263.9L267,263.9z"
	/>
<path class="st2" d="M301.6,225.2c-2.9,2,15.8,50.5,23.5,47.7C332.6,270.2,314.2,216.4,301.6,225.2L301.6,225.2z"/>
<path class="st2" d="M318.6,288.9c0.3,3.4,6.8,4.4,6.4-0.5C324.7,285,318.2,284,318.6,288.9L318.6,288.9z"/>
<path class="st2" d="M179,280c-6.5,8.1,4.8,40.5,13,45.1C217.4,339.1,185.9,271.5,179,280L179,280z M193,320.3
	C192.9,320.8,192.9,320.8,193,320.3L193,320.3z"/>
<path class="st2" d="M18,103.4c-10.2,10.2-1.9,80-0.8,97.1c0.7,11.3-5.4,46,12,25.9C44.6,208.5,20.1,101.4,18,103.4L18,103.4z"/>
<path class="st2" d="M147,50.4c-33.8,2.8-51.4,45.2-74.8,48.3c-3.7,0.4-58.4,0.8-58.4,4c0,16.5,70.1,0.1,79.7-5.2
	c33.5-18.3,42.2-46.6,73.7-16c8.7,8.4,8.9,22.3,20.2,28.2c18.3,9.6,47.5-5,67.1,1.6c25.8,8.6,21.1-0.3,23.5,37.1
	c1.1,16.8,8.4,59.8-4.4,73.4c-20.9,22.2-124.3,4.8-149.9,4.3c-8.5-0.2-99.9-13.5-87.1,8.9c13.6,23.8,232.8,15,249.4-3.2
	c17.2-19,9.4-66.8,7.5-89.7c-2.4-30.8-1.8-37.5-25.9-46.6c-30.5-11.5-57.1,7.6-81.3-11.6C171.7,72.3,170.5,48.6,147,50.4L147,50.4z
	 M192.7,96C193.2,96.2,193.2,96.2,192.7,96L192.7,96z M193.1,96.5C193.2,96.6,193.2,96.6,193.1,96.5L193.1,96.5z M50.3,233.1
	C50.1,233.7,50.3,233.2,50.3,233.1L50.3,233.1z"/>
<path class="st2" d="M134.3,114.8c-53.9,7.8-57.8,89.3,1.1,99.8C225.9,230.6,224.7,101.8,134.3,114.8L134.3,114.8z M150.2,130.4
	c66.9,3.5,35.8,96.2-24.4,66.5C82.1,175.3,110.7,128.4,150.2,130.4L150.2,130.4z M183.3,143C183.5,143.3,183.5,143.3,183.3,143
	L183.3,143z"/>
<path class="st2" d="M143.2,137.7c-3.9,1.1,8.4,39.9,7.5,39.5C182.5,189,165.6,131.5,143.2,137.7L143.2,137.7z"/>
<path class="st2" d="M130.6,136.3c-34.7,11.6-6.6,71.4,9.6,52C137,192.2,116.2,141.1,130.6,136.3L130.6,136.3z"/>
<path class="st2" d="M123.3,90.3c-3.7,2-3.1,12.5,0.2,12.5c4.7,0,46.5,7.1,46.5-2.8C170,100.8,115.7,94.3,123.3,90.3L123.3,90.3z
	 M124.9,96.7C125,96.8,125,96.8,124.9,96.7L124.9,96.7z"/>
<path class="st2" d="M244.7,82.2c-15.9,0.1-35.3,23.8-20.4,23.8c3.8,0,9.6-10.6,19.6-13c11.1-2.6,4.4,14.6,15.3,11.6
	C273.3,100.8,253.6,82.2,244.7,82.2L244.7,82.2z M230.2,90.3C230,90.9,230,90.9,230.2,90.3L230.2,90.3z M249.5,93.2
	C249.6,93.3,250.4,94.4,249.5,93.2L249.5,93.2z"/>
<path class="st2" d="M319,63.1c-10.9,0.1-80-0.9-80,5.6c0,10.6,68.2,0.8,76.8,5.6c19.4,10.9,36.9,66.1,48,85.8
	c8.1,14.4,22.4,31.2,26.7,47.3c6.5,24.2,4.8,20.1-6.3,46c-12.4,29-32.8,56.3-48.6,83.7c-24.6,42.6-34.2,36.7-83,36.7
	c-22.3,0-90.2,11.5-109.7,0c-17-10-40.2-99.9-59.4-94.8c-21.2,5.7,2.9,29,12.1,44.9c9.2,16,22.2,54.9,38.6,64.7
	c16.9,10.1,67.7,1.1,86.2,1.1c53.1,0,90.4,16.2,119.3-28c17-26,31.3-54.3,46.8-81.3c19.5-34,31-42.9,18.2-78.2
	C398.4,185,334.9,63,319,63.1L319,63.1z"/>
</svg>
