<?xml version="1.0" encoding="utf-8"?>
<!-- Generator: Adobe Illustrator 22.1.0, SVG Export Plug-In . SVG Version: 6.00 Build 0)  -->
<svg version="1.1" id="Layer_1" xmlns="http://www.w3.org/2000/svg" xmlns:xlink="http://www.w3.org/1999/xlink" x="0px" y="0px"
	 viewBox="0 0 48.7 517.1" style="enable-background:new 0 0 48.7 517.1;" xml:space="preserve">
<style type="text/css">
	.st0{fill:none;}
	.st1{fill:none;stroke:#231F20;stroke-width:0.5;}
	.st2{fill:none;stroke:#231F20;stroke-width:2.16;}
	.st3{fill:none;stroke:#231F20;stroke-width:2.88;}
	.st4{fill:none;stroke:#231F20;stroke-width:3.6;}
	.st5{fill:none;stroke:#231F20;stroke-width:4.32;}
	.st6{fill:none;stroke:#231F20;stroke-width:5.04;}
	.st7{fill:none;stroke:#231F20;stroke-width:5.76;}
	.st8{fill:none;stroke:#231F20;stroke-width:6.48;}
	.st9{fill:none;stroke:#74CDD5;stroke-width:1.5;stroke-linecap:square;}
	.st10{fill:#13BDC8;}
	.st11{fill:#FFFFFF;}
	.st12{fill:url(#SVGID_1_);}
	.st13{fill:url(#SVGID_2_);}
	.st14{fill:url(#SVGID_3_);}
	.st15{fill:url(#SVGID_4_);}
	.st16{fill:url(#SVGID_5_);}
	.st17{fill:url(#SVGID_6_);}
	.st18{fill:url(#SVGID_7_);}
	.st19{fill:url(#SVGID_8_);}
	.st20{fill:url(#SVGID_9_);}
	.st21{fill:url(#SVGID_10_);}
	.st22{fill:url(#SVGID_11_);}
	.st23{fill:url(#Waves_Smooth_Color);}
	.st24{fill:url(#SVGID_22_);}
	.st25{fill:url(#SVGID_23_);}
	.st26{fill:url(#SVGID_24_);}
	.st27{fill:url(#SVGID_25_);}
	.st28{fill:url(#SVGID_26_);}
	.st29{fill:url(#SVGID_27_);}
	.st30{fill:url(#SVGID_28_);}
	.st31{fill:url(#SVGID_29_);}
	.st32{fill:url(#SVGID_30_);}
	.st33{fill:url(#SVGID_31_);}
</style>
<pattern  y="517.1" width="72" height="72" patternUnits="userSpaceOnUse" id="Burlap" viewBox="12.8 -86.3 72 72" style="overflow:visible;">
	<g>
		<rect x="12.8" y="-86.3" class="st0" width="72" height="72"/>
		<g>
			<rect x="12.8" y="-86.3" class="st0" width="72" height="72"/>
			<g>
				<line class="st1" x1="83.2" y1="-86.5" x2="97.8" y2="-86.5"/>
			</g>
			<g>
				<line class="st1" x1="11.2" y1="-86.5" x2="25.8" y2="-86.5"/>
			</g>
			<g>
				<line class="st1" x1="81.3" y1="-21.3" x2="96" y2="-21.3"/>
				<line class="st1" x1="79.7" y1="-28" x2="94.3" y2="-28"/>
				<line class="st1" x1="83.2" y1="-14.5" x2="97.8" y2="-14.5"/>
				<line class="st1" x1="84.2" y1="-45.3" x2="98.8" y2="-45.3"/>
				<line class="st1" x1="88.7" y1="-17.1" x2="74" y2="-17.1"/>
				<line class="st1" x1="92.2" y1="-22.6" x2="77.5" y2="-22.6"/>
				<line class="st1" x1="74.3" y1="-30.8" x2="89" y2="-30.8"/>
				<line class="st1" x1="78" y1="-79.8" x2="92.7" y2="-79.8"/>
				<line class="st1" x1="74.3" y1="-84.5" x2="89" y2="-84.5"/>
				<line class="st1" x1="79.7" y1="-82.5" x2="94.3" y2="-82.5"/>
				<line class="st1" x1="75" y1="-77.5" x2="89.7" y2="-77.5"/>
				<line class="st1" x1="79.7" y1="-68.8" x2="94.3" y2="-68.8"/>
				<line class="st1" x1="76.3" y1="-73.1" x2="91" y2="-73.1"/>
				<line class="st1" x1="89.8" y1="-37.6" x2="75.2" y2="-37.6"/>
				<line class="st1" x1="90.3" y1="-41.1" x2="75.7" y2="-41.1"/>
				<line class="st1" x1="93.3" y1="-43.1" x2="78.7" y2="-43.1"/>
				<line class="st1" x1="79" y1="-33" x2="93.7" y2="-33"/>
				<line class="st1" x1="89.5" y1="-47.1" x2="74.8" y2="-47.1"/>
				<line class="st1" x1="93.5" y1="-49.1" x2="78.8" y2="-49.1"/>
				<line class="st1" x1="87.8" y1="-51.5" x2="73.2" y2="-51.5"/>
				<line class="st1" x1="76" y1="-65.8" x2="90.7" y2="-65.8"/>
				<line class="st1" x1="78" y1="-61.5" x2="92.7" y2="-61.5"/>
				<line class="st1" x1="78" y1="-56.1" x2="92.7" y2="-56.1"/>
				<line class="st1" x1="80.7" y1="-58.8" x2="95.3" y2="-58.8"/>
				<line class="st1" x1="82.7" y1="-53.8" x2="97.3" y2="-53.8"/>
			</g>
			<g>
				<line class="st1" x1="22.5" y1="-20" x2="22.5" y2="-34.6"/>
				<line class="st1" x1="25" y1="-23" x2="25" y2="-37.6"/>
				<line class="st1" x1="21.3" y1="-32.6" x2="21.3" y2="-47.3"/>
				<line class="st1" x1="28.7" y1="-33" x2="28.7" y2="-47.6"/>
				<line class="st1" x1="19" y1="-26" x2="19" y2="-40.6"/>
				<line class="st1" x1="31" y1="-23" x2="31" y2="-37.6"/>
				<line class="st1" x1="36.5" y1="-23" x2="36.5" y2="-37.6"/>
				<line class="st1" x1="37.8" y1="-26.6" x2="37.8" y2="-41.3"/>
				<line class="st1" x1="34" y1="-17.5" x2="34" y2="-32.1"/>
				<line class="st1" x1="27.5" y1="-19.5" x2="27.5" y2="-34.1"/>
				<line class="st1" x1="14" y1="-25.3" x2="28.7" y2="-25.3"/>
				<line class="st1" x1="9.3" y1="-21.3" x2="24" y2="-21.3"/>
				<line class="st1" x1="7.7" y1="-28" x2="22.3" y2="-28"/>
				<line class="st1" x1="26" y1="-21.6" x2="40.7" y2="-21.6"/>
				<line class="st1" x1="20.8" y1="-23.5" x2="35.5" y2="-23.5"/>
				<line class="st1" x1="24.5" y1="-31.6" x2="39.2" y2="-31.6"/>
				<line class="st1" x1="17.8" y1="-29.1" x2="32.5" y2="-29.1"/>
				<line class="st1" x1="51.3" y1="-24.3" x2="51.3" y2="-39"/>
				<line class="st1" x1="48.8" y1="-27.3" x2="48.8" y2="-42"/>
				<line class="st1" x1="54.8" y1="-30.3" x2="54.8" y2="-45"/>
				<line class="st1" x1="56.2" y1="-37.6" x2="56.2" y2="-52.3"/>
				<line class="st1" x1="57.5" y1="-30.3" x2="57.5" y2="-45"/>
				<line class="st1" x1="42.8" y1="-27.3" x2="42.8" y2="-42"/>
				<line class="st1" x1="32.7" y1="-30.6" x2="32.7" y2="-45.3"/>
				<line class="st1" x1="41.2" y1="-20.8" x2="41.2" y2="-35.5"/>
				<line class="st1" x1="39.5" y1="-17.5" x2="39.5" y2="-32.1"/>
				<line class="st1" x1="46.3" y1="-22.5" x2="46.3" y2="-37.1"/>
				<line class="st1" x1="54.8" y1="-29" x2="40.2" y2="-29"/>
				<line class="st1" x1="46.5" y1="-27" x2="31.8" y2="-27"/>
				<line class="st1" x1="55.3" y1="-32.5" x2="40.7" y2="-32.5"/>
				<line class="st1" x1="49.7" y1="-36.3" x2="35" y2="-36.3"/>
				<line class="st1" x1="58.3" y1="-34.5" x2="43.7" y2="-34.5"/>
				<line class="st1" x1="83.7" y1="-15.5" x2="83.7" y2="-30.1"/>
				<line class="st1" x1="79" y1="-15.5" x2="79" y2="-30.1"/>
				<line class="st1" x1="71.2" y1="-15.5" x2="71.2" y2="-30.1"/>
				<line class="st1" x1="88.7" y1="-17.1" x2="74" y2="-17.1"/>
				<line class="st1" x1="87.2" y1="-19.6" x2="72.5" y2="-19.6"/>
				<line class="st1" x1="83.2" y1="-24.1" x2="68.5" y2="-24.1"/>
				<line class="st1" x1="75.2" y1="-22.8" x2="60.5" y2="-22.8"/>
				<line class="st1" x1="92.2" y1="-22.6" x2="77.5" y2="-22.6"/>
				<line class="st1" x1="54.3" y1="-16.8" x2="54.3" y2="-31.5"/>
				<line class="st1" x1="58.8" y1="-19.8" x2="58.8" y2="-34.5"/>
				<line class="st1" x1="52.8" y1="-22.8" x2="52.8" y2="-37.5"/>
				<line class="st1" x1="65.5" y1="-19.1" x2="65.5" y2="-33.8"/>
				<line class="st1" x1="75" y1="-23.1" x2="75" y2="-37.8"/>
				<line class="st1" x1="67.8" y1="-14.3" x2="67.8" y2="-29"/>
				<line class="st1" x1="63" y1="-15.3" x2="63" y2="-30"/>
				<line class="st1" x1="52.7" y1="-16.6" x2="67.3" y2="-16.6"/>
				<line class="st1" x1="59.8" y1="-18.5" x2="74.5" y2="-18.5"/>
				<line class="st1" x1="51.5" y1="-20.1" x2="66.2" y2="-20.1"/>
				<line class="st1" x1="52.3" y1="-25" x2="67" y2="-25"/>
				<line class="st1" x1="58" y1="-29.8" x2="72.7" y2="-29.8"/>
				<line class="st1" x1="61.7" y1="-27.8" x2="76.3" y2="-27.8"/>
				<line class="st1" x1="49.3" y1="-27" x2="64" y2="-27"/>
				<line class="st1" x1="44.3" y1="-16" x2="44.3" y2="-30.6"/>
				<line class="st1" x1="42.7" y1="-15.3" x2="42.7" y2="-30"/>
				<line class="st1" x1="36.7" y1="-16" x2="36.7" y2="-30.6"/>
				<line class="st1" x1="14.8" y1="-52.6" x2="14.8" y2="-67.3"/>
				<line class="st1" x1="14.3" y1="-36.1" x2="14.3" y2="-50.8"/>
				<line class="st1" x1="15.5" y1="-24.1" x2="15.5" y2="-38.8"/>
				<line class="st1" x1="13.5" y1="-21.6" x2="13.5" y2="-36.3"/>
				<line class="st1" x1="11.2" y1="-14.5" x2="25.8" y2="-14.5"/>
				<line class="st1" x1="19.5" y1="-16.1" x2="34.2" y2="-16.1"/>
				<line class="st1" x1="14" y1="-18.6" x2="28.7" y2="-18.6"/>
				<line class="st1" x1="36" y1="-19.3" x2="50.7" y2="-19.3"/>
				<line class="st1" x1="31" y1="-18" x2="45.7" y2="-18"/>
				<line class="st1" x1="33" y1="-15.3" x2="47.7" y2="-15.3"/>
				<line class="st1" x1="38.3" y1="-23.6" x2="53" y2="-23.6"/>
				<line class="st1" x1="54.5" y1="-38.5" x2="39.8" y2="-38.5"/>
				<line class="st1" x1="58.5" y1="-40.5" x2="43.8" y2="-40.5"/>
				<line class="st1" x1="52.8" y1="-42.8" x2="38.2" y2="-42.8"/>
				<line class="st1" x1="31" y1="-48.6" x2="31" y2="-63.3"/>
				<line class="st1" x1="34.5" y1="-54.6" x2="34.5" y2="-69.3"/>
				<line class="st1" x1="28.8" y1="-51" x2="14.2" y2="-51"/>
				<line class="st1" x1="39.8" y1="-55" x2="25.2" y2="-55"/>
				<line class="st1" x1="35" y1="-56.8" x2="20.3" y2="-56.8"/>
				<line class="st1" x1="38" y1="-58.8" x2="23.3" y2="-58.8"/>
				<line class="st1" x1="50.8" y1="-39.8" x2="50.8" y2="-54.5"/>
				<line class="st1" x1="52.2" y1="-45.6" x2="52.2" y2="-60.3"/>
				<line class="st1" x1="36" y1="-41.1" x2="36" y2="-55.8"/>
				<line class="st1" x1="39.2" y1="-35.8" x2="39.2" y2="-50.5"/>
				<line class="st1" x1="44.5" y1="-44.1" x2="44.5" y2="-58.8"/>
				<line class="st1" x1="47.5" y1="-38.6" x2="47.5" y2="-53.3"/>
				<line class="st1" x1="45.8" y1="-38.3" x2="45.8" y2="-53"/>
				<line class="st1" x1="41" y1="-40.6" x2="41" y2="-55.3"/>
				<line class="st1" x1="37.7" y1="-54.1" x2="52.3" y2="-54.1"/>
				<line class="st1" x1="40.3" y1="-55.5" x2="55" y2="-55.5"/>
				<line class="st1" x1="43" y1="-52.8" x2="57.7" y2="-52.8"/>
				<line class="st1" x1="43" y1="-47.5" x2="57.7" y2="-47.5"/>
				<line class="st1" x1="45.7" y1="-50.1" x2="60.3" y2="-50.1"/>
				<line class="st1" x1="59" y1="-47.5" x2="73.7" y2="-47.5"/>
				<line class="st1" x1="47.7" y1="-45.1" x2="62.3" y2="-45.1"/>
				<line class="st1" x1="74.3" y1="-30.8" x2="89" y2="-30.8"/>
				<line class="st1" x1="58.3" y1="-37.8" x2="73" y2="-37.8"/>
				<line class="st1" x1="56.3" y1="-35.5" x2="71" y2="-35.5"/>
				<line class="st1" x1="29" y1="-51.3" x2="43.7" y2="-51.3"/>
				<line class="st1" x1="29.3" y1="-49.3" x2="44" y2="-49.3"/>
				<line class="st1" x1="43.2" y1="-60.1" x2="28.5" y2="-60.1"/>
				<line class="st1" x1="34.8" y1="-35.1" x2="34.8" y2="-49.8"/>
				<line class="st1" x1="32.7" y1="-31.6" x2="32.7" y2="-46.3"/>
				<line class="st1" x1="23.7" y1="-40.3" x2="38.3" y2="-40.3"/>
				<line class="st1" x1="16.7" y1="-39" x2="31.3" y2="-39"/>
				<line class="st1" x1="18.3" y1="-37" x2="33" y2="-37"/>
				<line class="st1" x1="17" y1="-34.3" x2="31.7" y2="-34.3"/>
				<line class="st1" x1="26.3" y1="-34.3" x2="41" y2="-34.3"/>
				<line class="st1" x1="19.8" y1="-58" x2="19.8" y2="-72.6"/>
				<line class="st1" x1="22.3" y1="-61" x2="22.3" y2="-75.6"/>
				<line class="st1" x1="18.7" y1="-70.6" x2="18.7" y2="-85.3"/>
				<line class="st1" x1="15.7" y1="-68.3" x2="15.7" y2="-83"/>
				<line class="st1" x1="26" y1="-71" x2="26" y2="-85.6"/>
				<line class="st1" x1="28.3" y1="-61" x2="28.3" y2="-75.6"/>
				<line class="st1" x1="37.8" y1="-52.6" x2="37.8" y2="-67.3"/>
				<line class="st1" x1="71.3" y1="-74.3" x2="71.3" y2="-89"/>
				<line class="st1" x1="74.2" y1="-61.6" x2="74.2" y2="-76.3"/>
				<line class="st1" x1="70.8" y1="-78.3" x2="56.2" y2="-78.3"/>
				<line class="st1" x1="75.3" y1="-82.5" x2="60.7" y2="-82.5"/>
				<line class="st1" x1="72.7" y1="-84.5" x2="58" y2="-84.5"/>
				<line class="st1" x1="76.7" y1="-80.8" x2="62" y2="-80.8"/>
				<line class="st1" x1="76.3" y1="-66.8" x2="76.3" y2="-81.5"/>
				<line class="st1" x1="72.8" y1="-72.8" x2="72.8" y2="-87.5"/>
				<line class="st1" x1="61.5" y1="-62.1" x2="61.5" y2="-76.8"/>
				<line class="st1" x1="59.8" y1="-64.8" x2="59.8" y2="-79.5"/>
				<line class="st1" x1="57.8" y1="-70.6" x2="57.8" y2="-85.3"/>
				<line class="st1" x1="80" y1="-68.6" x2="80" y2="-83.3"/>
				<line class="st1" x1="81.7" y1="-62.6" x2="81.7" y2="-77.3"/>
				<line class="st1" x1="84" y1="-60.3" x2="84" y2="-75"/>
				<line class="st1" x1="78" y1="-79.8" x2="92.7" y2="-79.8"/>
				<line class="st1" x1="74.3" y1="-84.5" x2="89" y2="-84.5"/>
				<line class="st1" x1="79.7" y1="-82.5" x2="94.3" y2="-82.5"/>
				<line class="st1" x1="75" y1="-77.5" x2="89.7" y2="-77.5"/>
				<line class="st1" x1="72" y1="-70.8" x2="86.7" y2="-70.8"/>
				<line class="st1" x1="79.7" y1="-68.8" x2="94.3" y2="-68.8"/>
				<line class="st1" x1="76.3" y1="-73.1" x2="91" y2="-73.1"/>
				<line class="st1" x1="78.2" y1="-78.3" x2="78.2" y2="-93"/>
				<line class="st1" x1="82.5" y1="-75.6" x2="82.5" y2="-90.3"/>
				<line class="st1" x1="16.3" y1="-62.6" x2="31" y2="-62.6"/>
				<line class="st1" x1="21" y1="-82" x2="35.7" y2="-82"/>
				<line class="st1" x1="17.8" y1="-65.1" x2="32.5" y2="-65.1"/>
				<line class="st1" x1="21.8" y1="-69.6" x2="36.5" y2="-69.6"/>
				<line class="st1" x1="32.8" y1="-66.6" x2="47.5" y2="-66.6"/>
				<line class="st1" x1="13.7" y1="-66.8" x2="28.3" y2="-66.8"/>
				<line class="st1" x1="30.5" y1="-66.3" x2="30.5" y2="-81"/>
				<line class="st1" x1="45.2" y1="-64" x2="30.5" y2="-64"/>
				<line class="st1" x1="47" y1="-74.3" x2="32.3" y2="-74.3"/>
				<line class="st1" x1="48.7" y1="-76" x2="34" y2="-76"/>
				<line class="st1" x1="47.2" y1="-71" x2="32.5" y2="-71"/>
				<line class="st1" x1="51.8" y1="-68.3" x2="37.2" y2="-68.3"/>
				<line class="st1" x1="32.2" y1="-73.1" x2="32.2" y2="-87.8"/>
				<line class="st1" x1="25.3" y1="-52.3" x2="25.3" y2="-67"/>
				<line class="st1" x1="23.7" y1="-47" x2="23.7" y2="-61.6"/>
				<line class="st1" x1="26.7" y1="-44" x2="26.7" y2="-58.6"/>
				<line class="st1" x1="21.3" y1="-45.6" x2="21.3" y2="-60.3"/>
				<line class="st1" x1="17.7" y1="-46.6" x2="17.7" y2="-61.3"/>
				<line class="st1" x1="19.7" y1="-42" x2="19.7" y2="-56.6"/>
				<line class="st1" x1="21" y1="-78.3" x2="35.7" y2="-78.3"/>
				<line class="st1" x1="13.8" y1="-76.6" x2="28.5" y2="-76.6"/>
				<line class="st1" x1="15.7" y1="-75" x2="30.3" y2="-75"/>
				<line class="st1" x1="42.3" y1="-64.3" x2="42.3" y2="-79"/>
				<line class="st1" x1="39.3" y1="-57.3" x2="39.3" y2="-72"/>
				<line class="st1" x1="38.7" y1="-74" x2="38.7" y2="-88.6"/>
				<line class="st1" x1="46" y1="-74.3" x2="46" y2="-89"/>
				<line class="st1" x1="36.3" y1="-67.3" x2="36.3" y2="-82"/>
				<line class="st1" x1="48.3" y1="-64.3" x2="48.3" y2="-79"/>
				<line class="st1" x1="43.8" y1="-73.1" x2="43.8" y2="-87.8"/>
				<line class="st1" x1="40.8" y1="-69.1" x2="40.8" y2="-83.8"/>
				<line class="st1" x1="41" y1="-85.3" x2="55.7" y2="-85.3"/>
				<line class="st1" x1="43" y1="-83" x2="57.7" y2="-83"/>
				<line class="st1" x1="50" y1="-72" x2="50" y2="-86.6"/>
				<line class="st1" x1="45.3" y1="-59.6" x2="45.3" y2="-74.3"/>
				<line class="st1" x1="67.8" y1="-72" x2="67.8" y2="-86.6"/>
				<line class="st1" x1="60.8" y1="-80" x2="60.8" y2="-94.6"/>
				<line class="st1" x1="47" y1="-55" x2="47" y2="-69.6"/>
				<line class="st1" x1="41" y1="-81.6" x2="55.7" y2="-81.6"/>
				<line class="st1" x1="34" y1="-80.3" x2="48.7" y2="-80.3"/>
				<line class="st1" x1="26" y1="-83.6" x2="40.7" y2="-83.6"/>
				<line class="st1" x1="20.7" y1="-85" x2="35.3" y2="-85"/>
				<line class="st1" x1="35.7" y1="-78.3" x2="50.3" y2="-78.3"/>
				<line class="st1" x1="14.3" y1="-72.3" x2="29" y2="-72.3"/>
				<line class="st1" x1="23.7" y1="-72.3" x2="38.3" y2="-72.3"/>
				<line class="st1" x1="29.3" y1="-45.1" x2="44" y2="-45.1"/>
				<line class="st1" x1="20.7" y1="-42.3" x2="35.3" y2="-42.3"/>
				<line class="st1" x1="19.5" y1="-47.6" x2="34.2" y2="-47.6"/>
				<line class="st1" x1="12.2" y1="-45.3" x2="26.8" y2="-45.3"/>
				<line class="st1" x1="60" y1="-31.6" x2="60" y2="-46.3"/>
				<line class="st1" x1="63.7" y1="-41.6" x2="63.7" y2="-56.3"/>
				<line class="st1" x1="65.7" y1="-34.3" x2="65.7" y2="-49"/>
				<line class="st1" x1="71.5" y1="-31.6" x2="71.5" y2="-46.3"/>
				<line class="st1" x1="72.8" y1="-35.3" x2="72.8" y2="-50"/>
				<line class="st1" x1="69" y1="-26.1" x2="69" y2="-40.8"/>
				<line class="st1" x1="61.5" y1="-28.1" x2="61.5" y2="-42.8"/>
				<line class="st1" x1="59.5" y1="-40.3" x2="74.2" y2="-40.3"/>
				<line class="st1" x1="53.2" y1="-62.6" x2="53.2" y2="-77.3"/>
				<line class="st1" x1="54.5" y1="-70" x2="54.5" y2="-84.6"/>
				<line class="st1" x1="51.2" y1="-59.6" x2="51.2" y2="-74.3"/>
				<line class="st1" x1="55.8" y1="-62.6" x2="55.8" y2="-77.3"/>
				<line class="st1" x1="77.8" y1="-36" x2="77.8" y2="-50.6"/>
				<line class="st1" x1="67.7" y1="-39.3" x2="67.7" y2="-54"/>
				<line class="st1" x1="76.2" y1="-29.5" x2="76.2" y2="-44.1"/>
				<line class="st1" x1="79.8" y1="-24.8" x2="79.8" y2="-39.5"/>
				<line class="st1" x1="81.3" y1="-27" x2="81.3" y2="-41.6"/>
				<line class="st1" x1="83.3" y1="-31.8" x2="83.3" y2="-46.5"/>
				<line class="st1" x1="89.8" y1="-37.6" x2="75.2" y2="-37.6"/>
				<line class="st1" x1="82.8" y1="-34.6" x2="68.2" y2="-34.6"/>
				<line class="st1" x1="77.2" y1="-32.3" x2="62.5" y2="-32.3"/>
				<line class="st1" x1="81.5" y1="-26" x2="66.8" y2="-26"/>
				<line class="st1" x1="90.3" y1="-41.1" x2="75.7" y2="-41.1"/>
				<line class="st1" x1="84.7" y1="-45" x2="70" y2="-45"/>
				<line class="st1" x1="93.3" y1="-43.1" x2="78.7" y2="-43.1"/>
				<line class="st1" x1="54.7" y1="-49.1" x2="54.7" y2="-63.8"/>
				<line class="st1" x1="57.2" y1="-52.1" x2="57.2" y2="-66.8"/>
				<line class="st1" x1="72.5" y1="-55.1" x2="72.5" y2="-69.8"/>
				<line class="st1" x1="59.7" y1="-48.6" x2="59.7" y2="-63.3"/>
				<line class="st1" x1="50.7" y1="-57.3" x2="65.3" y2="-57.3"/>
				<line class="st1" x1="56.3" y1="-62.1" x2="71" y2="-62.1"/>
				<line class="st1" x1="79" y1="-33" x2="93.7" y2="-33"/>
				<line class="st1" x1="89.5" y1="-47.1" x2="74.8" y2="-47.1"/>
				<line class="st1" x1="93.5" y1="-49.1" x2="78.8" y2="-49.1"/>
				<line class="st1" x1="87.8" y1="-51.5" x2="73.2" y2="-51.5"/>
				<line class="st1" x1="66" y1="-57.3" x2="66" y2="-72"/>
				<line class="st1" x1="69.5" y1="-63.3" x2="69.5" y2="-78"/>
				<line class="st1" x1="65.5" y1="-71" x2="65.5" y2="-85.6"/>
				<line class="st1" x1="63.2" y1="-68.6" x2="63.2" y2="-83.3"/>
				<line class="st1" x1="73" y1="-67.5" x2="58.3" y2="-67.5"/>
				<line class="st1" x1="65" y1="-64.8" x2="50.3" y2="-64.8"/>
				<line class="st1" x1="54.7" y1="-61.8" x2="40" y2="-61.8"/>
				<line class="st1" x1="64.8" y1="-46.1" x2="64.8" y2="-60.8"/>
				<line class="st1" x1="51.8" y1="-78" x2="51.8" y2="-92.6"/>
				<line class="st1" x1="77.8" y1="-61.1" x2="77.8" y2="-75.8"/>
				<line class="st1" x1="71" y1="-49.8" x2="71" y2="-64.5"/>
				<line class="st1" x1="74.2" y1="-44.5" x2="74.2" y2="-59.1"/>
				<line class="st1" x1="67.5" y1="-55.8" x2="67.5" y2="-70.5"/>
				<line class="st1" x1="79.5" y1="-52.8" x2="79.5" y2="-67.5"/>
				<line class="st1" x1="82.5" y1="-47.3" x2="82.5" y2="-62"/>
				<line class="st1" x1="80.8" y1="-47" x2="80.8" y2="-61.6"/>
				<line class="st1" x1="76" y1="-49.3" x2="76" y2="-64"/>
				<line class="st1" x1="72.7" y1="-62.8" x2="87.3" y2="-62.8"/>
				<line class="st1" x1="76" y1="-65.8" x2="90.7" y2="-65.8"/>
				<line class="st1" x1="78" y1="-61.5" x2="92.7" y2="-61.5"/>
				<line class="st1" x1="78" y1="-56.1" x2="92.7" y2="-56.1"/>
				<line class="st1" x1="80.7" y1="-58.8" x2="95.3" y2="-58.8"/>
				<line class="st1" x1="82.7" y1="-53.8" x2="97.3" y2="-53.8"/>
				<line class="st1" x1="51" y1="-76.1" x2="65.7" y2="-76.1"/>
				<line class="st1" x1="55.3" y1="-73.5" x2="70" y2="-73.5"/>
				<line class="st1" x1="54.7" y1="-68.8" x2="69.3" y2="-68.8"/>
				<line class="st1" x1="39" y1="-58.8" x2="53.7" y2="-58.8"/>
				<line class="st1" x1="64" y1="-60" x2="78.7" y2="-60"/>
				<line class="st1" x1="64.3" y1="-58" x2="79" y2="-58"/>
				<line class="st1" x1="69.8" y1="-43.8" x2="69.8" y2="-58.5"/>
				<line class="st1" x1="67.7" y1="-40.3" x2="67.7" y2="-55"/>
				<line class="st1" x1="61.3" y1="-46" x2="61.3" y2="-60.6"/>
				<line class="st1" x1="58.7" y1="-51.6" x2="73.3" y2="-51.6"/>
				<line class="st1" x1="61.3" y1="-43" x2="76" y2="-43"/>
				<line class="st1" x1="64.3" y1="-53.8" x2="79" y2="-53.8"/>
				<line class="st1" x1="81.3" y1="-21.3" x2="96" y2="-21.3"/>
				<line class="st1" x1="79.7" y1="-28" x2="94.3" y2="-28"/>
				<line class="st1" x1="16.7" y1="-17.1" x2="2" y2="-17.1"/>
				<line class="st1" x1="20.2" y1="-22.6" x2="5.5" y2="-22.6"/>
				<line class="st1" x1="2.3" y1="-30.8" x2="17" y2="-30.8"/>
				<line class="st1" x1="6" y1="-79.8" x2="20.7" y2="-79.8"/>
				<line class="st1" x1="2.3" y1="-84.5" x2="17" y2="-84.5"/>
				<line class="st1" x1="7.7" y1="-82.5" x2="22.3" y2="-82.5"/>
				<line class="st1" x1="3" y1="-77.5" x2="17.7" y2="-77.5"/>
				<line class="st1" x1="7.7" y1="-68.8" x2="22.3" y2="-68.8"/>
				<line class="st1" x1="4.3" y1="-73.1" x2="19" y2="-73.1"/>
				<line class="st1" x1="17.8" y1="-37.6" x2="3.2" y2="-37.6"/>
				<line class="st1" x1="18.3" y1="-41.1" x2="3.7" y2="-41.1"/>
				<line class="st1" x1="21.3" y1="-43.1" x2="6.7" y2="-43.1"/>
				<line class="st1" x1="7" y1="-33" x2="21.7" y2="-33"/>
				<line class="st1" x1="17.5" y1="-47.1" x2="2.8" y2="-47.1"/>
				<line class="st1" x1="21.5" y1="-49.1" x2="6.8" y2="-49.1"/>
				<line class="st1" x1="15.8" y1="-51.5" x2="1.2" y2="-51.5"/>
				<line class="st1" x1="4" y1="-65.8" x2="18.7" y2="-65.8"/>
				<line class="st1" x1="6" y1="-61.5" x2="20.7" y2="-61.5"/>
				<line class="st1" x1="6" y1="-56.1" x2="20.7" y2="-56.1"/>
				<line class="st1" x1="8.7" y1="-58.8" x2="23.3" y2="-58.8"/>
				<line class="st1" x1="10.7" y1="-53.8" x2="25.3" y2="-53.8"/>
				<line class="st1" x1="25.8" y1="-79.1" x2="25.8" y2="-93.8"/>
				<line class="st1" x1="23.2" y1="-76.8" x2="23.2" y2="-91.5"/>
				<line class="st1" x1="76.2" y1="-82.6" x2="76.2" y2="-97.3"/>
				<line class="st1" x1="73.7" y1="-82" x2="73.7" y2="-96.6"/>
				<line class="st1" x1="50.3" y1="-82.6" x2="50.3" y2="-97.3"/>
				<line class="st1" x1="81.5" y1="-82.6" x2="81.5" y2="-97.3"/>
				<line class="st1" x1="56" y1="-80.8" x2="56" y2="-95.5"/>
				<line class="st1" x1="29.7" y1="-82" x2="29.7" y2="-96.6"/>
				<line class="st1" x1="14.7" y1="-81.8" x2="14.7" y2="-96.5"/>
				<line class="st1" x1="19.7" y1="-79.8" x2="19.7" y2="-94.5"/>
				<line class="st1" x1="47.7" y1="-82.6" x2="47.7" y2="-97.3"/>
				<line class="st1" x1="71.3" y1="-74.3" x2="71.3" y2="-89"/>
				<line class="st1" x1="46" y1="-74.3" x2="46" y2="-89"/>
			</g>
			<g>
				<line class="st1" x1="16.7" y1="-17.1" x2="2" y2="-17.1"/>
				<line class="st1" x1="15.2" y1="-19.6" x2="0.5" y2="-19.6"/>
				<line class="st1" x1="20.2" y1="-22.6" x2="5.5" y2="-22.6"/>
				<line class="st1" x1="2.3" y1="-30.8" x2="17" y2="-30.8"/>
				<line class="st1" x1="6" y1="-79.8" x2="20.7" y2="-79.8"/>
				<line class="st1" x1="2.3" y1="-84.5" x2="17" y2="-84.5"/>
				<line class="st1" x1="7.7" y1="-82.5" x2="22.3" y2="-82.5"/>
				<line class="st1" x1="3" y1="-77.5" x2="17.7" y2="-77.5"/>
				<line class="st1" x1="0" y1="-70.8" x2="14.7" y2="-70.8"/>
				<line class="st1" x1="7.7" y1="-68.8" x2="22.3" y2="-68.8"/>
				<line class="st1" x1="4.3" y1="-73.1" x2="19" y2="-73.1"/>
				<line class="st1" x1="17.8" y1="-37.6" x2="3.2" y2="-37.6"/>
				<line class="st1" x1="18.3" y1="-41.1" x2="3.7" y2="-41.1"/>
				<line class="st1" x1="21.3" y1="-43.1" x2="6.7" y2="-43.1"/>
				<line class="st1" x1="7" y1="-33" x2="21.7" y2="-33"/>
				<line class="st1" x1="17.5" y1="-47.1" x2="2.8" y2="-47.1"/>
				<line class="st1" x1="21.5" y1="-49.1" x2="6.8" y2="-49.1"/>
				<line class="st1" x1="15.8" y1="-51.5" x2="1.2" y2="-51.5"/>
				<line class="st1" x1="0.7" y1="-62.8" x2="15.3" y2="-62.8"/>
				<line class="st1" x1="4" y1="-65.8" x2="18.7" y2="-65.8"/>
				<line class="st1" x1="6" y1="-61.5" x2="20.7" y2="-61.5"/>
				<line class="st1" x1="6" y1="-56.1" x2="20.7" y2="-56.1"/>
				<line class="st1" x1="8.7" y1="-58.8" x2="23.3" y2="-58.8"/>
				<line class="st1" x1="10.7" y1="-53.8" x2="25.3" y2="-53.8"/>
				<line class="st1" x1="9.3" y1="-21.3" x2="24" y2="-21.3"/>
				<line class="st1" x1="7.7" y1="-28" x2="22.3" y2="-28"/>
			</g>
			<g>
				<line class="st1" x1="71.3" y1="-2.3" x2="71.3" y2="-17"/>
				<line class="st1" x1="72.8" y1="-0.8" x2="72.8" y2="-15.5"/>
				<line class="st1" x1="78.2" y1="-6.3" x2="78.2" y2="-21"/>
				<line class="st1" x1="82.5" y1="-3.6" x2="82.5" y2="-18.3"/>
				<line class="st1" x1="32.2" y1="-1.1" x2="32.2" y2="-15.8"/>
				<line class="st1" x1="38.7" y1="-2" x2="38.7" y2="-16.6"/>
				<line class="st1" x1="46" y1="-2.3" x2="46" y2="-17"/>
				<line class="st1" x1="43.8" y1="-1.1" x2="43.8" y2="-15.8"/>
				<line class="st1" x1="50" y1="0" x2="50" y2="-14.6"/>
				<line class="st1" x1="67.8" y1="0" x2="67.8" y2="-14.6"/>
				<line class="st1" x1="60.8" y1="-8" x2="60.8" y2="-22.6"/>
				<line class="st1" x1="51.8" y1="-6" x2="51.8" y2="-20.6"/>
				<line class="st1" x1="25.8" y1="-7.1" x2="25.8" y2="-21.8"/>
				<line class="st1" x1="23.2" y1="-4.8" x2="23.2" y2="-19.5"/>
				<line class="st1" x1="76.2" y1="-10.6" x2="76.2" y2="-25.3"/>
				<line class="st1" x1="73.7" y1="-10" x2="73.7" y2="-24.6"/>
				<line class="st1" x1="50.3" y1="-10.6" x2="50.3" y2="-25.3"/>
				<line class="st1" x1="81.5" y1="-10.6" x2="81.5" y2="-25.3"/>
				<line class="st1" x1="56" y1="-8.8" x2="56" y2="-23.5"/>
				<line class="st1" x1="29.7" y1="-10" x2="29.7" y2="-24.6"/>
				<line class="st1" x1="14.7" y1="-9.8" x2="14.7" y2="-24.5"/>
				<line class="st1" x1="19.7" y1="-7.8" x2="19.7" y2="-22.5"/>
				<line class="st1" x1="47.7" y1="-10.6" x2="47.7" y2="-25.3"/>
				<line class="st1" x1="71.3" y1="-2.3" x2="71.3" y2="-17"/>
				<line class="st1" x1="46" y1="-2.3" x2="46" y2="-17"/>
			</g>
		</g>
	</g>
</pattern>
<pattern  y="517.1" width="72" height="72" patternUnits="userSpaceOnUse" id="SVGID_12_" viewBox="72.3 -72 72 72" style="overflow:visible;">
	<g>
		<rect x="72.3" y="-72" class="st0" width="72" height="72"/>
		<g>
			<rect x="72.3" y="-72" class="st0" width="72" height="72"/>
			<g>
				<line class="st2" x1="144" y1="-68.4" x2="216.5" y2="-68.4"/>
				<line class="st2" x1="144" y1="-54" x2="216.5" y2="-54"/>
				<line class="st2" x1="144" y1="-39.6" x2="216.5" y2="-39.6"/>
				<line class="st2" x1="144" y1="-25.2" x2="216.5" y2="-25.2"/>
				<line class="st2" x1="144" y1="-10.8" x2="216.5" y2="-10.8"/>
				<line class="st2" x1="144" y1="-61.2" x2="216.5" y2="-61.2"/>
				<line class="st2" x1="144" y1="-46.8" x2="216.5" y2="-46.8"/>
				<line class="st2" x1="144" y1="-32.4" x2="216.5" y2="-32.4"/>
				<line class="st2" x1="144" y1="-18" x2="216.5" y2="-18"/>
				<line class="st2" x1="144" y1="-3.6" x2="216.5" y2="-3.6"/>
			</g>
			<g>
				<line class="st2" x1="72" y1="-68.4" x2="144.5" y2="-68.4"/>
				<line class="st2" x1="72" y1="-54" x2="144.5" y2="-54"/>
				<line class="st2" x1="72" y1="-39.6" x2="144.5" y2="-39.6"/>
				<line class="st2" x1="72" y1="-25.2" x2="144.5" y2="-25.2"/>
				<line class="st2" x1="72" y1="-10.8" x2="144.5" y2="-10.8"/>
				<line class="st2" x1="72" y1="-61.2" x2="144.5" y2="-61.2"/>
				<line class="st2" x1="72" y1="-46.8" x2="144.5" y2="-46.8"/>
				<line class="st2" x1="72" y1="-32.4" x2="144.5" y2="-32.4"/>
				<line class="st2" x1="72" y1="-18" x2="144.5" y2="-18"/>
				<line class="st2" x1="72" y1="-3.6" x2="144.5" y2="-3.6"/>
			</g>
			<g>
				<line class="st2" x1="0" y1="-68.4" x2="72.5" y2="-68.4"/>
				<line class="st2" x1="0" y1="-54" x2="72.5" y2="-54"/>
				<line class="st2" x1="0" y1="-39.6" x2="72.5" y2="-39.6"/>
				<line class="st2" x1="0" y1="-25.2" x2="72.5" y2="-25.2"/>
				<line class="st2" x1="0" y1="-10.8" x2="72.5" y2="-10.8"/>
				<line class="st2" x1="0" y1="-61.2" x2="72.5" y2="-61.2"/>
				<line class="st2" x1="0" y1="-46.8" x2="72.5" y2="-46.8"/>
				<line class="st2" x1="0" y1="-32.4" x2="72.5" y2="-32.4"/>
				<line class="st2" x1="0" y1="-18" x2="72.5" y2="-18"/>
				<line class="st2" x1="0" y1="-3.6" x2="72.5" y2="-3.6"/>
			</g>
		</g>
	</g>
</pattern>
<pattern  y="517.1" width="72" height="72" patternUnits="userSpaceOnUse" id="SVGID_13_" viewBox="72.3 -72 72 72" style="overflow:visible;">
	<g>
		<rect x="72.3" y="-72" class="st0" width="72" height="72"/>
		<g>
			<rect x="72.3" y="-72" class="st0" width="72" height="72"/>
			<g>
				<line class="st3" x1="144" y1="-68.4" x2="216.5" y2="-68.4"/>
				<line class="st3" x1="144" y1="-54" x2="216.5" y2="-54"/>
				<line class="st3" x1="144" y1="-39.6" x2="216.5" y2="-39.6"/>
				<line class="st3" x1="144" y1="-25.2" x2="216.5" y2="-25.2"/>
				<line class="st3" x1="144" y1="-10.8" x2="216.5" y2="-10.8"/>
				<line class="st3" x1="144" y1="-61.2" x2="216.5" y2="-61.2"/>
				<line class="st3" x1="144" y1="-46.8" x2="216.5" y2="-46.8"/>
				<line class="st3" x1="144" y1="-32.4" x2="216.5" y2="-32.4"/>
				<line class="st3" x1="144" y1="-18" x2="216.5" y2="-18"/>
				<line class="st3" x1="144" y1="-3.6" x2="216.5" y2="-3.6"/>
			</g>
			<g>
				<line class="st3" x1="72" y1="-68.4" x2="144.5" y2="-68.4"/>
				<line class="st3" x1="72" y1="-54" x2="144.5" y2="-54"/>
				<line class="st3" x1="72" y1="-39.6" x2="144.5" y2="-39.6"/>
				<line class="st3" x1="72" y1="-25.2" x2="144.5" y2="-25.2"/>
				<line class="st3" x1="72" y1="-10.8" x2="144.5" y2="-10.8"/>
				<line class="st3" x1="72" y1="-61.2" x2="144.5" y2="-61.2"/>
				<line class="st3" x1="72" y1="-46.8" x2="144.5" y2="-46.8"/>
				<line class="st3" x1="72" y1="-32.4" x2="144.5" y2="-32.4"/>
				<line class="st3" x1="72" y1="-18" x2="144.5" y2="-18"/>
				<line class="st3" x1="72" y1="-3.6" x2="144.5" y2="-3.6"/>
			</g>
			<g>
				<line class="st3" x1="0" y1="-68.4" x2="72.5" y2="-68.4"/>
				<line class="st3" x1="0" y1="-54" x2="72.5" y2="-54"/>
				<line class="st3" x1="0" y1="-39.6" x2="72.5" y2="-39.6"/>
				<line class="st3" x1="0" y1="-25.2" x2="72.5" y2="-25.2"/>
				<line class="st3" x1="0" y1="-10.8" x2="72.5" y2="-10.8"/>
				<line class="st3" x1="0" y1="-61.2" x2="72.5" y2="-61.2"/>
				<line class="st3" x1="0" y1="-46.8" x2="72.5" y2="-46.8"/>
				<line class="st3" x1="0" y1="-32.4" x2="72.5" y2="-32.4"/>
				<line class="st3" x1="0" y1="-18" x2="72.5" y2="-18"/>
				<line class="st3" x1="0" y1="-3.6" x2="72.5" y2="-3.6"/>
			</g>
		</g>
	</g>
</pattern>
<pattern  y="517.1" width="72" height="72" patternUnits="userSpaceOnUse" id="SVGID_14_" viewBox="72.3 -72 72 72" style="overflow:visible;">
	<g>
		<rect x="72.3" y="-72" class="st0" width="72" height="72"/>
		<g>
			<rect x="72.3" y="-72" class="st0" width="72" height="72"/>
			<g>
				<line class="st4" x1="144" y1="-68.4" x2="216.5" y2="-68.4"/>
				<line class="st4" x1="144" y1="-54" x2="216.5" y2="-54"/>
				<line class="st4" x1="144" y1="-39.6" x2="216.5" y2="-39.6"/>
				<line class="st4" x1="144" y1="-25.2" x2="216.5" y2="-25.2"/>
				<line class="st4" x1="144" y1="-10.8" x2="216.5" y2="-10.8"/>
				<line class="st4" x1="144" y1="-61.2" x2="216.5" y2="-61.2"/>
				<line class="st4" x1="144" y1="-46.8" x2="216.5" y2="-46.8"/>
				<line class="st4" x1="144" y1="-32.4" x2="216.5" y2="-32.4"/>
				<line class="st4" x1="144" y1="-18" x2="216.5" y2="-18"/>
				<line class="st4" x1="144" y1="-3.6" x2="216.5" y2="-3.6"/>
			</g>
			<g>
				<line class="st4" x1="72" y1="-68.4" x2="144.5" y2="-68.4"/>
				<line class="st4" x1="72" y1="-54" x2="144.5" y2="-54"/>
				<line class="st4" x1="72" y1="-39.6" x2="144.5" y2="-39.6"/>
				<line class="st4" x1="72" y1="-25.2" x2="144.5" y2="-25.2"/>
				<line class="st4" x1="72" y1="-10.8" x2="144.5" y2="-10.8"/>
				<line class="st4" x1="72" y1="-61.2" x2="144.5" y2="-61.2"/>
				<line class="st4" x1="72" y1="-46.8" x2="144.5" y2="-46.8"/>
				<line class="st4" x1="72" y1="-32.4" x2="144.5" y2="-32.4"/>
				<line class="st4" x1="72" y1="-18" x2="144.5" y2="-18"/>
				<line class="st4" x1="72" y1="-3.6" x2="144.5" y2="-3.6"/>
			</g>
			<g>
				<line class="st4" x1="0" y1="-68.4" x2="72.5" y2="-68.4"/>
				<line class="st4" x1="0" y1="-54" x2="72.5" y2="-54"/>
				<line class="st4" x1="0" y1="-39.6" x2="72.5" y2="-39.6"/>
				<line class="st4" x1="0" y1="-25.2" x2="72.5" y2="-25.2"/>
				<line class="st4" x1="0" y1="-10.8" x2="72.5" y2="-10.8"/>
				<line class="st4" x1="0" y1="-61.2" x2="72.5" y2="-61.2"/>
				<line class="st4" x1="0" y1="-46.8" x2="72.5" y2="-46.8"/>
				<line class="st4" x1="0" y1="-32.4" x2="72.5" y2="-32.4"/>
				<line class="st4" x1="0" y1="-18" x2="72.5" y2="-18"/>
				<line class="st4" x1="0" y1="-3.6" x2="72.5" y2="-3.6"/>
			</g>
		</g>
	</g>
</pattern>
<pattern  y="517.1" width="72" height="72" patternUnits="userSpaceOnUse" id="SVGID_15_" viewBox="72.3 -72 72 72" style="overflow:visible;">
	<g>
		<rect x="72.3" y="-72" class="st0" width="72" height="72"/>
		<g>
			<rect x="72.3" y="-72" class="st0" width="72" height="72"/>
			<g>
				<line class="st5" x1="144" y1="-68.4" x2="216.5" y2="-68.4"/>
				<line class="st5" x1="144" y1="-54" x2="216.5" y2="-54"/>
				<line class="st5" x1="144" y1="-39.6" x2="216.5" y2="-39.6"/>
				<line class="st5" x1="144" y1="-25.2" x2="216.5" y2="-25.2"/>
				<line class="st5" x1="144" y1="-10.8" x2="216.5" y2="-10.8"/>
				<line class="st5" x1="144" y1="-61.2" x2="216.5" y2="-61.2"/>
				<line class="st5" x1="144" y1="-46.8" x2="216.5" y2="-46.8"/>
				<line class="st5" x1="144" y1="-32.4" x2="216.5" y2="-32.4"/>
				<line class="st5" x1="144" y1="-18" x2="216.5" y2="-18"/>
				<line class="st5" x1="144" y1="-3.6" x2="216.5" y2="-3.6"/>
			</g>
			<g>
				<line class="st5" x1="72" y1="-68.4" x2="144.5" y2="-68.4"/>
				<line class="st5" x1="72" y1="-54" x2="144.5" y2="-54"/>
				<line class="st5" x1="72" y1="-39.6" x2="144.5" y2="-39.6"/>
				<line class="st5" x1="72" y1="-25.2" x2="144.5" y2="-25.2"/>
				<line class="st5" x1="72" y1="-10.8" x2="144.5" y2="-10.8"/>
				<line class="st5" x1="72" y1="-61.2" x2="144.5" y2="-61.2"/>
				<line class="st5" x1="72" y1="-46.8" x2="144.5" y2="-46.8"/>
				<line class="st5" x1="72" y1="-32.4" x2="144.5" y2="-32.4"/>
				<line class="st5" x1="72" y1="-18" x2="144.5" y2="-18"/>
				<line class="st5" x1="72" y1="-3.6" x2="144.5" y2="-3.6"/>
			</g>
			<g>
				<line class="st5" x1="0" y1="-68.4" x2="72.5" y2="-68.4"/>
				<line class="st5" x1="0" y1="-54" x2="72.5" y2="-54"/>
				<line class="st5" x1="0" y1="-39.6" x2="72.5" y2="-39.6"/>
				<line class="st5" x1="0" y1="-25.2" x2="72.5" y2="-25.2"/>
				<line class="st5" x1="0" y1="-10.8" x2="72.5" y2="-10.8"/>
				<line class="st5" x1="0" y1="-61.2" x2="72.5" y2="-61.2"/>
				<line class="st5" x1="0" y1="-46.8" x2="72.5" y2="-46.8"/>
				<line class="st5" x1="0" y1="-32.4" x2="72.5" y2="-32.4"/>
				<line class="st5" x1="0" y1="-18" x2="72.5" y2="-18"/>
				<line class="st5" x1="0" y1="-3.6" x2="72.5" y2="-3.6"/>
			</g>
		</g>
	</g>
</pattern>
<pattern  y="517.1" width="72" height="72" patternUnits="userSpaceOnUse" id="SVGID_16_" viewBox="72.3 -72 72 72" style="overflow:visible;">
	<g>
		<rect x="72.3" y="-72" class="st0" width="72" height="72"/>
		<g>
			<rect x="72.3" y="-72" class="st0" width="72" height="72"/>
			<g>
				<line class="st5" x1="144" y1="-68.4" x2="216.5" y2="-68.4"/>
				<line class="st5" x1="144" y1="-54" x2="216.5" y2="-54"/>
				<line class="st5" x1="144" y1="-39.6" x2="216.5" y2="-39.6"/>
				<line class="st5" x1="144" y1="-25.2" x2="216.5" y2="-25.2"/>
				<line class="st5" x1="144" y1="-10.8" x2="216.5" y2="-10.8"/>
				<line class="st5" x1="144" y1="-61.2" x2="216.5" y2="-61.2"/>
				<line class="st5" x1="144" y1="-46.8" x2="216.5" y2="-46.8"/>
				<line class="st5" x1="144" y1="-32.4" x2="216.5" y2="-32.4"/>
				<line class="st5" x1="144" y1="-18" x2="216.5" y2="-18"/>
				<line class="st5" x1="144" y1="-3.6" x2="216.5" y2="-3.6"/>
			</g>
			<g>
				<line class="st5" x1="72" y1="-68.4" x2="144.5" y2="-68.4"/>
				<line class="st5" x1="72" y1="-54" x2="144.5" y2="-54"/>
				<line class="st5" x1="72" y1="-39.6" x2="144.5" y2="-39.6"/>
				<line class="st5" x1="72" y1="-25.2" x2="144.5" y2="-25.2"/>
				<line class="st5" x1="72" y1="-10.8" x2="144.5" y2="-10.8"/>
				<line class="st5" x1="72" y1="-61.2" x2="144.5" y2="-61.2"/>
				<line class="st5" x1="72" y1="-46.8" x2="144.5" y2="-46.8"/>
				<line class="st5" x1="72" y1="-32.4" x2="144.5" y2="-32.4"/>
				<line class="st5" x1="72" y1="-18" x2="144.5" y2="-18"/>
				<line class="st5" x1="72" y1="-3.6" x2="144.5" y2="-3.6"/>
			</g>
			<g>
				<line class="st5" x1="0" y1="-68.4" x2="72.5" y2="-68.4"/>
				<line class="st5" x1="0" y1="-54" x2="72.5" y2="-54"/>
				<line class="st5" x1="0" y1="-39.6" x2="72.5" y2="-39.6"/>
				<line class="st5" x1="0" y1="-25.2" x2="72.5" y2="-25.2"/>
				<line class="st5" x1="0" y1="-10.8" x2="72.5" y2="-10.8"/>
				<line class="st5" x1="0" y1="-61.2" x2="72.5" y2="-61.2"/>
				<line class="st5" x1="0" y1="-46.8" x2="72.5" y2="-46.8"/>
				<line class="st5" x1="0" y1="-32.4" x2="72.5" y2="-32.4"/>
				<line class="st5" x1="0" y1="-18" x2="72.5" y2="-18"/>
				<line class="st5" x1="0" y1="-3.6" x2="72.5" y2="-3.6"/>
			</g>
		</g>
	</g>
</pattern>
<pattern  y="517.1" width="72" height="72" patternUnits="userSpaceOnUse" id="SVGID_17_" viewBox="72.3 -72 72 72" style="overflow:visible;">
	<g>
		<rect x="72.3" y="-72" class="st0" width="72" height="72"/>
		<g>
			<rect x="72.3" y="-72" class="st0" width="72" height="72"/>
			<g>
				<line class="st6" x1="144" y1="-68.4" x2="216.5" y2="-68.4"/>
				<line class="st6" x1="144" y1="-54" x2="216.5" y2="-54"/>
				<line class="st6" x1="144" y1="-39.6" x2="216.5" y2="-39.6"/>
				<line class="st6" x1="144" y1="-25.2" x2="216.5" y2="-25.2"/>
				<line class="st6" x1="144" y1="-10.8" x2="216.5" y2="-10.8"/>
				<line class="st6" x1="144" y1="-61.2" x2="216.5" y2="-61.2"/>
				<line class="st6" x1="144" y1="-46.8" x2="216.5" y2="-46.8"/>
				<line class="st6" x1="144" y1="-32.4" x2="216.5" y2="-32.4"/>
				<line class="st6" x1="144" y1="-18" x2="216.5" y2="-18"/>
				<line class="st6" x1="144" y1="-3.6" x2="216.5" y2="-3.6"/>
			</g>
			<g>
				<line class="st6" x1="72" y1="-68.4" x2="144.5" y2="-68.4"/>
				<line class="st6" x1="72" y1="-54" x2="144.5" y2="-54"/>
				<line class="st6" x1="72" y1="-39.6" x2="144.5" y2="-39.6"/>
				<line class="st6" x1="72" y1="-25.2" x2="144.5" y2="-25.2"/>
				<line class="st6" x1="72" y1="-10.8" x2="144.5" y2="-10.8"/>
				<line class="st6" x1="72" y1="-61.2" x2="144.5" y2="-61.2"/>
				<line class="st6" x1="72" y1="-46.8" x2="144.5" y2="-46.8"/>
				<line class="st6" x1="72" y1="-32.4" x2="144.5" y2="-32.4"/>
				<line class="st6" x1="72" y1="-18" x2="144.5" y2="-18"/>
				<line class="st6" x1="72" y1="-3.6" x2="144.5" y2="-3.6"/>
			</g>
			<g>
				<line class="st6" x1="0" y1="-68.4" x2="72.5" y2="-68.4"/>
				<line class="st6" x1="0" y1="-54" x2="72.5" y2="-54"/>
				<line class="st6" x1="0" y1="-39.6" x2="72.5" y2="-39.6"/>
				<line class="st6" x1="0" y1="-25.2" x2="72.5" y2="-25.2"/>
				<line class="st6" x1="0" y1="-10.8" x2="72.5" y2="-10.8"/>
				<line class="st6" x1="0" y1="-61.2" x2="72.5" y2="-61.2"/>
				<line class="st6" x1="0" y1="-46.8" x2="72.5" y2="-46.8"/>
				<line class="st6" x1="0" y1="-32.4" x2="72.5" y2="-32.4"/>
				<line class="st6" x1="0" y1="-18" x2="72.5" y2="-18"/>
				<line class="st6" x1="0" y1="-3.6" x2="72.5" y2="-3.6"/>
			</g>
		</g>
	</g>
</pattern>
<pattern  y="517.1" width="72" height="72" patternUnits="userSpaceOnUse" id="SVGID_18_" viewBox="72.3 -72 72 72" style="overflow:visible;">
	<g>
		<rect x="72.3" y="-72" class="st0" width="72" height="72"/>
		<g>
			<rect x="72.3" y="-72" class="st0" width="72" height="72"/>
			<g>
				<line class="st7" x1="144" y1="-68.4" x2="216.5" y2="-68.4"/>
				<line class="st7" x1="144" y1="-54" x2="216.5" y2="-54"/>
				<line class="st7" x1="144" y1="-39.6" x2="216.5" y2="-39.6"/>
				<line class="st7" x1="144" y1="-25.2" x2="216.5" y2="-25.2"/>
				<line class="st7" x1="144" y1="-10.8" x2="216.5" y2="-10.8"/>
				<line class="st7" x1="144" y1="-61.2" x2="216.5" y2="-61.2"/>
				<line class="st7" x1="144" y1="-46.8" x2="216.5" y2="-46.8"/>
				<line class="st7" x1="144" y1="-32.4" x2="216.5" y2="-32.4"/>
				<line class="st7" x1="144" y1="-18" x2="216.5" y2="-18"/>
				<line class="st7" x1="144" y1="-3.6" x2="216.5" y2="-3.6"/>
			</g>
			<g>
				<line class="st7" x1="72" y1="-68.4" x2="144.5" y2="-68.4"/>
				<line class="st7" x1="72" y1="-54" x2="144.5" y2="-54"/>
				<line class="st7" x1="72" y1="-39.6" x2="144.5" y2="-39.6"/>
				<line class="st7" x1="72" y1="-25.2" x2="144.5" y2="-25.2"/>
				<line class="st7" x1="72" y1="-10.8" x2="144.5" y2="-10.8"/>
				<line class="st7" x1="72" y1="-61.2" x2="144.5" y2="-61.2"/>
				<line class="st7" x1="72" y1="-46.8" x2="144.5" y2="-46.8"/>
				<line class="st7" x1="72" y1="-32.4" x2="144.5" y2="-32.4"/>
				<line class="st7" x1="72" y1="-18" x2="144.5" y2="-18"/>
				<line class="st7" x1="72" y1="-3.6" x2="144.5" y2="-3.6"/>
			</g>
			<g>
				<line class="st7" x1="0" y1="-68.4" x2="72.5" y2="-68.4"/>
				<line class="st7" x1="0" y1="-54" x2="72.5" y2="-54"/>
				<line class="st7" x1="0" y1="-39.6" x2="72.5" y2="-39.6"/>
				<line class="st7" x1="0" y1="-25.2" x2="72.5" y2="-25.2"/>
				<line class="st7" x1="0" y1="-10.8" x2="72.5" y2="-10.8"/>
				<line class="st7" x1="0" y1="-61.2" x2="72.5" y2="-61.2"/>
				<line class="st7" x1="0" y1="-46.8" x2="72.5" y2="-46.8"/>
				<line class="st7" x1="0" y1="-32.4" x2="72.5" y2="-32.4"/>
				<line class="st7" x1="0" y1="-18" x2="72.5" y2="-18"/>
				<line class="st7" x1="0" y1="-3.6" x2="72.5" y2="-3.6"/>
			</g>
		</g>
	</g>
</pattern>
<pattern  y="517.1" width="72" height="72" patternUnits="userSpaceOnUse" id="SVGID_19_" viewBox="72.3 -72 72 72" style="overflow:visible;">
	<g>
		<rect x="72.3" y="-72" class="st0" width="72" height="72"/>
		<g>
			<rect x="72.3" y="-72" class="st0" width="72" height="72"/>
			<g>
				<line class="st7" x1="144" y1="-68.4" x2="216.5" y2="-68.4"/>
				<line class="st7" x1="144" y1="-54" x2="216.5" y2="-54"/>
				<line class="st7" x1="144" y1="-39.6" x2="216.5" y2="-39.6"/>
				<line class="st7" x1="144" y1="-25.2" x2="216.5" y2="-25.2"/>
				<line class="st7" x1="144" y1="-10.8" x2="216.5" y2="-10.8"/>
				<line class="st7" x1="144" y1="-61.2" x2="216.5" y2="-61.2"/>
				<line class="st7" x1="144" y1="-46.8" x2="216.5" y2="-46.8"/>
				<line class="st7" x1="144" y1="-32.4" x2="216.5" y2="-32.4"/>
				<line class="st7" x1="144" y1="-18" x2="216.5" y2="-18"/>
				<line class="st7" x1="144" y1="-3.6" x2="216.5" y2="-3.6"/>
			</g>
			<g>
				<line class="st7" x1="72" y1="-68.4" x2="144.5" y2="-68.4"/>
				<line class="st7" x1="72" y1="-54" x2="144.5" y2="-54"/>
				<line class="st7" x1="72" y1="-39.6" x2="144.5" y2="-39.6"/>
				<line class="st7" x1="72" y1="-25.2" x2="144.5" y2="-25.2"/>
				<line class="st7" x1="72" y1="-10.8" x2="144.5" y2="-10.8"/>
				<line class="st7" x1="72" y1="-61.2" x2="144.5" y2="-61.2"/>
				<line class="st7" x1="72" y1="-46.8" x2="144.5" y2="-46.8"/>
				<line class="st7" x1="72" y1="-32.4" x2="144.5" y2="-32.4"/>
				<line class="st7" x1="72" y1="-18" x2="144.5" y2="-18"/>
				<line class="st7" x1="72" y1="-3.6" x2="144.5" y2="-3.6"/>
			</g>
			<g>
				<line class="st7" x1="0" y1="-68.4" x2="72.5" y2="-68.4"/>
				<line class="st7" x1="0" y1="-54" x2="72.5" y2="-54"/>
				<line class="st7" x1="0" y1="-39.6" x2="72.5" y2="-39.6"/>
				<line class="st7" x1="0" y1="-25.2" x2="72.5" y2="-25.2"/>
				<line class="st7" x1="0" y1="-10.8" x2="72.5" y2="-10.8"/>
				<line class="st7" x1="0" y1="-61.2" x2="72.5" y2="-61.2"/>
				<line class="st7" x1="0" y1="-46.8" x2="72.5" y2="-46.8"/>
				<line class="st7" x1="0" y1="-32.4" x2="72.5" y2="-32.4"/>
				<line class="st7" x1="0" y1="-18" x2="72.5" y2="-18"/>
				<line class="st7" x1="0" y1="-3.6" x2="72.5" y2="-3.6"/>
			</g>
		</g>
	</g>
</pattern>
<pattern  y="517.1" width="72" height="72" patternUnits="userSpaceOnUse" id="SVGID_20_" viewBox="72.3 -72 72 72" style="overflow:visible;">
	<g>
		<rect x="72.3" y="-72" class="st0" width="72" height="72"/>
		<g>
			<rect x="72.3" y="-72" class="st0" width="72" height="72"/>
			<g>
				<line class="st8" x1="144" y1="-68.4" x2="216.5" y2="-68.4"/>
				<line class="st8" x1="144" y1="-54" x2="216.5" y2="-54"/>
				<line class="st8" x1="144" y1="-39.6" x2="216.5" y2="-39.6"/>
				<line class="st8" x1="144" y1="-25.2" x2="216.5" y2="-25.2"/>
				<line class="st8" x1="144" y1="-10.8" x2="216.5" y2="-10.8"/>
				<line class="st8" x1="144" y1="-61.2" x2="216.5" y2="-61.2"/>
				<line class="st8" x1="144" y1="-46.8" x2="216.5" y2="-46.8"/>
				<line class="st8" x1="144" y1="-32.4" x2="216.5" y2="-32.4"/>
				<line class="st8" x1="144" y1="-18" x2="216.5" y2="-18"/>
				<line class="st8" x1="144" y1="-3.6" x2="216.5" y2="-3.6"/>
			</g>
			<g>
				<line class="st8" x1="72" y1="-68.4" x2="144.5" y2="-68.4"/>
				<line class="st8" x1="72" y1="-54" x2="144.5" y2="-54"/>
				<line class="st8" x1="72" y1="-39.6" x2="144.5" y2="-39.6"/>
				<line class="st8" x1="72" y1="-25.2" x2="144.5" y2="-25.2"/>
				<line class="st8" x1="72" y1="-10.8" x2="144.5" y2="-10.8"/>
				<line class="st8" x1="72" y1="-61.2" x2="144.5" y2="-61.2"/>
				<line class="st8" x1="72" y1="-46.8" x2="144.5" y2="-46.8"/>
				<line class="st8" x1="72" y1="-32.4" x2="144.5" y2="-32.4"/>
				<line class="st8" x1="72" y1="-18" x2="144.5" y2="-18"/>
				<line class="st8" x1="72" y1="-3.6" x2="144.5" y2="-3.6"/>
			</g>
			<g>
				<line class="st8" x1="0" y1="-68.4" x2="72.5" y2="-68.4"/>
				<line class="st8" x1="0" y1="-54" x2="72.5" y2="-54"/>
				<line class="st8" x1="0" y1="-39.6" x2="72.5" y2="-39.6"/>
				<line class="st8" x1="0" y1="-25.2" x2="72.5" y2="-25.2"/>
				<line class="st8" x1="0" y1="-10.8" x2="72.5" y2="-10.8"/>
				<line class="st8" x1="0" y1="-61.2" x2="72.5" y2="-61.2"/>
				<line class="st8" x1="0" y1="-46.8" x2="72.5" y2="-46.8"/>
				<line class="st8" x1="0" y1="-32.4" x2="72.5" y2="-32.4"/>
				<line class="st8" x1="0" y1="-18" x2="72.5" y2="-18"/>
				<line class="st8" x1="0" y1="-3.6" x2="72.5" y2="-3.6"/>
			</g>
		</g>
	</g>
</pattern>
<pattern  y="517.1" width="72" height="72" patternUnits="userSpaceOnUse" id="SVGID_21_" viewBox="72.3 -72 72 72" style="overflow:visible;">
	<g>
		<rect x="72.3" y="-72" class="st0" width="72" height="72"/>
		<g>
			<rect x="72.3" y="-72" class="st0" width="72" height="72"/>
			<g>
				<line class="st8" x1="144" y1="-68.4" x2="216.5" y2="-68.4"/>
				<line class="st8" x1="144" y1="-54" x2="216.5" y2="-54"/>
				<line class="st8" x1="144" y1="-39.6" x2="216.5" y2="-39.6"/>
				<line class="st8" x1="144" y1="-25.2" x2="216.5" y2="-25.2"/>
				<line class="st8" x1="144" y1="-10.8" x2="216.5" y2="-10.8"/>
				<line class="st8" x1="144" y1="-61.2" x2="216.5" y2="-61.2"/>
				<line class="st8" x1="144" y1="-46.8" x2="216.5" y2="-46.8"/>
				<line class="st8" x1="144" y1="-32.4" x2="216.5" y2="-32.4"/>
				<line class="st8" x1="144" y1="-18" x2="216.5" y2="-18"/>
				<line class="st8" x1="144" y1="-3.6" x2="216.5" y2="-3.6"/>
			</g>
			<g>
				<line class="st8" x1="72" y1="-68.4" x2="144.5" y2="-68.4"/>
				<line class="st8" x1="72" y1="-54" x2="144.5" y2="-54"/>
				<line class="st8" x1="72" y1="-39.6" x2="144.5" y2="-39.6"/>
				<line class="st8" x1="72" y1="-25.2" x2="144.5" y2="-25.2"/>
				<line class="st8" x1="72" y1="-10.8" x2="144.5" y2="-10.8"/>
				<line class="st8" x1="72" y1="-61.2" x2="144.5" y2="-61.2"/>
				<line class="st8" x1="72" y1="-46.8" x2="144.5" y2="-46.8"/>
				<line class="st8" x1="72" y1="-32.4" x2="144.5" y2="-32.4"/>
				<line class="st8" x1="72" y1="-18" x2="144.5" y2="-18"/>
				<line class="st8" x1="72" y1="-3.6" x2="144.5" y2="-3.6"/>
			</g>
			<g>
				<line class="st8" x1="0" y1="-68.4" x2="72.5" y2="-68.4"/>
				<line class="st8" x1="0" y1="-54" x2="72.5" y2="-54"/>
				<line class="st8" x1="0" y1="-39.6" x2="72.5" y2="-39.6"/>
				<line class="st8" x1="0" y1="-25.2" x2="72.5" y2="-25.2"/>
				<line class="st8" x1="0" y1="-10.8" x2="72.5" y2="-10.8"/>
				<line class="st8" x1="0" y1="-61.2" x2="72.5" y2="-61.2"/>
				<line class="st8" x1="0" y1="-46.8" x2="72.5" y2="-46.8"/>
				<line class="st8" x1="0" y1="-32.4" x2="72.5" y2="-32.4"/>
				<line class="st8" x1="0" y1="-18" x2="72.5" y2="-18"/>
				<line class="st8" x1="0" y1="-3.6" x2="72.5" y2="-3.6"/>
			</g>
		</g>
	</g>
</pattern>
<pattern  y="517.1" width="109.1" height="103.2" patternUnits="userSpaceOnUse" id="Waves_Smooth_Color" viewBox="109.9 -116.1 109.1 103.2" style="overflow:visible;">
	<g>
		<rect x="109.9" y="-116.1" class="st0" width="109.1" height="103.2"/>
		<g>
			<path class="st9" d="M328.1-19.6c-6.2,0-10.8-1.3-13.6-2.1c-2.8-0.8-7.5-2.1-13.6-2.1c-6.2,0-10.8,1.3-13.6,2.1
				c-2.8,0.8-7.5,2.1-13.6,2.1c-6.2,0-10.8-1.3-13.6-2.1c-2.8-0.8-7.5-2.1-13.6-2.1c-6.2,0-10.8,1.3-13.6,2.1
				c-2.8,0.8-7.5,2.1-13.6,2.1"/>
			<path class="st9" d="M328.1-15.3c-6.2,0-10.8-1.3-13.6-2.1c-2.8-0.8-7.5-2.1-13.6-2.1c-6.2,0-10.8,1.3-13.6,2.1
				s-7.5,2.1-13.6,2.1c-6.2,0-10.8-1.3-13.6-2.1c-2.8-0.8-7.5-2.1-13.6-2.1c-6.2,0-10.8,1.3-13.6,2.1c-2.8,0.8-7.5,2.1-13.6,2.1"/>
			<path class="st9" d="M328.1-11c-6.2,0-10.8-1.3-13.6-2.1c-2.8-0.8-7.5-2.1-13.6-2.1c-6.2,0-10.8,1.3-13.6,2.1
				c-2.8,0.8-7.5,2.1-13.6,2.1c-6.2,0-10.8-1.3-13.6-2.1c-2.8-0.8-7.5-2.1-13.6-2.1c-6.2,0-10.8,1.3-13.6,2.1
				c-2.8,0.8-7.5,2.1-13.6,2.1"/>
		</g>
		<g>
			<rect x="109.9" y="-25.8" class="st10" width="109.1" height="25.8"/>
			<path class="st9" d="M219-19.6c-6.2,0-10.8-1.3-13.6-2.1c-2.8-0.8-7.5-2.1-13.6-2.1c-6.2,0-10.8,1.3-13.6,2.1
				c-2.8,0.8-7.5,2.1-13.6,2.1c-6.2,0-10.8-1.3-13.6-2.1c-2.8-0.8-7.5-2.1-13.6-2.1c-6.2,0-10.8,1.3-13.6,2.1
				c-2.8,0.8-7.5,2.1-13.6,2.1"/>
			<path class="st9" d="M219-15.3c-6.2,0-10.8-1.3-13.6-2.1c-2.8-0.8-7.5-2.1-13.6-2.1c-6.2,0-10.8,1.3-13.6,2.1s-7.5,2.1-13.6,2.1
				c-6.2,0-10.8-1.3-13.6-2.1c-2.8-0.8-7.5-2.1-13.6-2.1c-6.2,0-10.8,1.3-13.6,2.1c-2.8,0.8-7.5,2.1-13.6,2.1"/>
			<path class="st9" d="M219-11c-6.2,0-10.8-1.3-13.6-2.1c-2.8-0.8-7.5-2.1-13.6-2.1c-6.2,0-10.8,1.3-13.6,2.1
				c-2.8,0.8-7.5,2.1-13.6,2.1c-6.2,0-10.8-1.3-13.6-2.1c-2.8-0.8-7.5-2.1-13.6-2.1c-6.2,0-10.8,1.3-13.6,2.1
				c-2.8,0.8-7.5,2.1-13.6,2.1"/>
		</g>
		<g>
			<path class="st9" d="M109.9-19.6c-6.2,0-10.8-1.3-13.6-2.1c-2.8-0.8-7.5-2.1-13.6-2.1c-6.2,0-10.8,1.3-13.6,2.1
				c-2.8,0.8-7.5,2.1-13.6,2.1c-6.2,0-10.8-1.3-13.6-2.1c-2.8-0.8-7.5-2.1-13.6-2.1c-6.2,0-10.8,1.3-13.6,2.1
				c-2.8,0.8-7.5,2.1-13.6,2.1"/>
			<path class="st9" d="M109.9-15.3c-6.2,0-10.8-1.3-13.6-2.1c-2.8-0.8-7.5-2.1-13.6-2.1c-6.2,0-10.8,1.3-13.6,2.1
				c-2.8,0.8-7.5,2.1-13.6,2.1c-6.2,0-10.8-1.3-13.6-2.1c-2.8-0.8-7.5-2.1-13.6-2.1c-6.2,0-10.8,1.3-13.6,2.1
				c-2.8,0.8-7.5,2.1-13.6,2.1"/>
			<path class="st9" d="M109.9-11c-6.2,0-10.8-1.3-13.6-2.1c-2.8-0.8-7.5-2.1-13.6-2.1c-6.2,0-10.8,1.3-13.6,2.1
				c-2.8,0.8-7.5,2.1-13.6,2.1c-6.2,0-10.8-1.3-13.6-2.1c-2.8-0.8-7.5-2.1-13.6-2.1c-6.2,0-10.8,1.3-13.6,2.1
				C11.6-12.3,6.9-11,0.8-11"/>
		</g>
		<g>
			<path class="st9" d="M328.1-32.5c-6.2,0-10.8-1.3-13.6-2.1c-2.8-0.8-7.5-2.1-13.6-2.1c-6.2,0-10.8,1.3-13.6,2.1
				c-2.8,0.8-7.5,2.1-13.6,2.1c-6.2,0-10.8-1.3-13.6-2.1c-2.8-0.8-7.5-2.1-13.6-2.1c-6.2,0-10.8,1.3-13.6,2.1
				c-2.8,0.8-7.5,2.1-13.6,2.1"/>
			<path class="st9" d="M328.1-28.2c-6.2,0-10.8-1.3-13.6-2.1c-2.8-0.8-7.5-2.1-13.6-2.1c-6.2,0-10.8,1.3-13.6,2.1
				c-2.8,0.8-7.5,2.1-13.6,2.1c-6.2,0-10.8-1.3-13.6-2.1c-2.8-0.8-7.5-2.1-13.6-2.1c-6.2,0-10.8,1.3-13.6,2.1
				c-2.8,0.8-7.5,2.1-13.6,2.1"/>
			<path class="st9" d="M328.1-23.9c-6.2,0-10.8-1.3-13.6-2.1c-2.8-0.8-7.5-2.1-13.6-2.1c-6.2,0-10.8,1.3-13.6,2.1
				s-7.5,2.1-13.6,2.1c-6.2,0-10.8-1.3-13.6-2.1c-2.8-0.8-7.5-2.1-13.6-2.1c-6.2,0-10.8,1.3-13.6,2.1c-2.8,0.8-7.5,2.1-13.6,2.1"/>
			<path class="st9" d="M328.1-45.4c-6.2,0-10.8-1.3-13.6-2.1c-2.8-0.8-7.5-2.1-13.6-2.1c-6.2,0-10.8,1.3-13.6,2.1
				s-7.5,2.1-13.6,2.1c-6.2,0-10.8-1.3-13.6-2.1c-2.8-0.8-7.5-2.1-13.6-2.1c-6.2,0-10.8,1.3-13.6,2.1c-2.8,0.8-7.5,2.1-13.6,2.1"/>
			<path class="st9" d="M328.1-41.1c-6.2,0-10.8-1.3-13.6-2.1c-2.8-0.8-7.5-2.1-13.6-2.1c-6.2,0-10.8,1.3-13.6,2.1
				c-2.8,0.8-7.5,2.1-13.6,2.1c-6.2,0-10.8-1.3-13.6-2.1c-2.8-0.8-7.5-2.1-13.6-2.1c-6.2,0-10.8,1.3-13.6,2.1
				c-2.8,0.8-7.5,2.1-13.6,2.1"/>
			<path class="st9" d="M328.1-36.8c-6.2,0-10.8-1.3-13.6-2.1c-2.8-0.8-7.5-2.1-13.6-2.1c-6.2,0-10.8,1.3-13.6,2.1
				c-2.8,0.8-7.5,2.1-13.6,2.1c-6.2,0-10.8-1.3-13.6-2.1c-2.8-0.8-7.5-2.1-13.6-2.1c-6.2,0-10.8,1.3-13.6,2.1
				c-2.8,0.8-7.5,2.1-13.6,2.1"/>
		</g>
		<g>
			<rect x="109.9" y="-51.6" class="st10" width="109.1" height="25.8"/>
			<path class="st9" d="M219-32.5c-6.2,0-10.8-1.3-13.6-2.1c-2.8-0.8-7.5-2.1-13.6-2.1c-6.2,0-10.8,1.3-13.6,2.1
				c-2.8,0.8-7.5,2.1-13.6,2.1c-6.2,0-10.8-1.3-13.6-2.1c-2.8-0.8-7.5-2.1-13.6-2.1c-6.2,0-10.8,1.3-13.6,2.1
				c-2.8,0.8-7.5,2.1-13.6,2.1"/>
			<path class="st9" d="M219-28.2c-6.2,0-10.8-1.3-13.6-2.1c-2.8-0.8-7.5-2.1-13.6-2.1c-6.2,0-10.8,1.3-13.6,2.1
				c-2.8,0.8-7.5,2.1-13.6,2.1c-6.2,0-10.8-1.3-13.6-2.1c-2.8-0.8-7.5-2.1-13.6-2.1c-6.2,0-10.8,1.3-13.6,2.1
				c-2.8,0.8-7.5,2.1-13.6,2.1"/>
			<path class="st9" d="M219-23.9c-6.2,0-10.8-1.3-13.6-2.1c-2.8-0.8-7.5-2.1-13.6-2.1c-6.2,0-10.8,1.3-13.6,2.1s-7.5,2.1-13.6,2.1
				c-6.2,0-10.8-1.3-13.6-2.1c-2.8-0.8-7.5-2.1-13.6-2.1c-6.2,0-10.8,1.3-13.6,2.1c-2.8,0.8-7.5,2.1-13.6,2.1"/>
			<path class="st9" d="M219-45.4c-6.2,0-10.8-1.3-13.6-2.1c-2.8-0.8-7.5-2.1-13.6-2.1c-6.2,0-10.8,1.3-13.6,2.1s-7.5,2.1-13.6,2.1
				c-6.2,0-10.8-1.3-13.6-2.1c-2.8-0.8-7.5-2.1-13.6-2.1c-6.2,0-10.8,1.3-13.6,2.1c-2.8,0.8-7.5,2.1-13.6,2.1"/>
			<path class="st9" d="M219-41.1c-6.2,0-10.8-1.3-13.6-2.1c-2.8-0.8-7.5-2.1-13.6-2.1c-6.2,0-10.8,1.3-13.6,2.1
				c-2.8,0.8-7.5,2.1-13.6,2.1c-6.2,0-10.8-1.3-13.6-2.1c-2.8-0.8-7.5-2.1-13.6-2.1c-6.2,0-10.8,1.3-13.6,2.1
				c-2.8,0.8-7.5,2.1-13.6,2.1"/>
			<path class="st9" d="M219-36.8c-6.2,0-10.8-1.3-13.6-2.1c-2.8-0.8-7.5-2.1-13.6-2.1c-6.2,0-10.8,1.3-13.6,2.1
				c-2.8,0.8-7.5,2.1-13.6,2.1c-6.2,0-10.8-1.3-13.6-2.1c-2.8-0.8-7.5-2.1-13.6-2.1c-6.2,0-10.8,1.3-13.6,2.1
				c-2.8,0.8-7.5,2.1-13.6,2.1"/>
		</g>
		<g>
			<path class="st9" d="M109.9-32.5c-6.2,0-10.8-1.3-13.6-2.1c-2.8-0.8-7.5-2.1-13.6-2.1c-6.2,0-10.8,1.3-13.6,2.1
				c-2.8,0.8-7.5,2.1-13.6,2.1c-6.2,0-10.8-1.3-13.6-2.1c-2.8-0.8-7.5-2.1-13.6-2.1c-6.2,0-10.8,1.3-13.6,2.1
				c-2.8,0.8-7.5,2.1-13.6,2.1"/>
			<path class="st9" d="M109.9-28.2c-6.2,0-10.8-1.3-13.6-2.1c-2.8-0.8-7.5-2.1-13.6-2.1c-6.2,0-10.8,1.3-13.6,2.1
				c-2.8,0.8-7.5,2.1-13.6,2.1c-6.2,0-10.8-1.3-13.6-2.1c-2.8-0.8-7.5-2.1-13.6-2.1c-6.2,0-10.8,1.3-13.6,2.1
				c-2.8,0.8-7.5,2.1-13.6,2.1"/>
			<path class="st9" d="M109.9-23.9c-6.2,0-10.8-1.3-13.6-2.1c-2.8-0.8-7.5-2.1-13.6-2.1c-6.2,0-10.8,1.3-13.6,2.1
				c-2.8,0.8-7.5,2.1-13.6,2.1c-6.2,0-10.8-1.3-13.6-2.1c-2.8-0.8-7.5-2.1-13.6-2.1c-6.2,0-10.8,1.3-13.6,2.1
				c-2.8,0.8-7.5,2.1-13.6,2.1"/>
			<path class="st9" d="M109.9-45.4c-6.2,0-10.8-1.3-13.6-2.1c-2.8-0.8-7.5-2.1-13.6-2.1c-6.2,0-10.8,1.3-13.6,2.1
				c-2.8,0.8-7.5,2.1-13.6,2.1c-6.2,0-10.8-1.3-13.6-2.1c-2.8-0.8-7.5-2.1-13.6-2.1c-6.2,0-10.8,1.3-13.6,2.1
				c-2.8,0.8-7.5,2.1-13.6,2.1"/>
			<path class="st9" d="M109.9-41.1c-6.2,0-10.8-1.3-13.6-2.1c-2.8-0.8-7.5-2.1-13.6-2.1c-6.2,0-10.8,1.3-13.6,2.1
				c-2.8,0.8-7.5,2.1-13.6,2.1c-6.2,0-10.8-1.3-13.6-2.1c-2.8-0.8-7.5-2.1-13.6-2.1c-6.2,0-10.8,1.3-13.6,2.1
				c-2.8,0.8-7.5,2.1-13.6,2.1"/>
			<path class="st9" d="M109.9-36.8c-6.2,0-10.8-1.3-13.6-2.1c-2.8-0.8-7.5-2.1-13.6-2.1c-6.2,0-10.8,1.3-13.6,2.1
				c-2.8,0.8-7.5,2.1-13.6,2.1c-6.2,0-10.8-1.3-13.6-2.1c-2.8-0.8-7.5-2.1-13.6-2.1c-6.2,0-10.8,1.3-13.6,2.1
				c-2.8,0.8-7.5,2.1-13.6,2.1"/>
		</g>
		<g>
			<path class="st9" d="M328.1-58.3c-6.2,0-10.8-1.3-13.6-2.1c-2.8-0.8-7.5-2.1-13.6-2.1c-6.2,0-10.8,1.3-13.6,2.1
				c-2.8,0.8-7.5,2.1-13.6,2.1c-6.2,0-10.8-1.3-13.6-2.1c-2.8-0.8-7.5-2.1-13.6-2.1c-6.2,0-10.8,1.3-13.6,2.1
				c-2.8,0.8-7.5,2.1-13.6,2.1"/>
			<path class="st9" d="M328.1-54c-6.2,0-10.8-1.3-13.6-2.1c-2.8-0.8-7.5-2.1-13.6-2.1c-6.2,0-10.8,1.3-13.6,2.1
				c-2.8,0.8-7.5,2.1-13.6,2.1c-6.2,0-10.8-1.3-13.6-2.1c-2.8-0.8-7.5-2.1-13.6-2.1c-6.2,0-10.8,1.3-13.6,2.1
				c-2.8,0.8-7.5,2.1-13.6,2.1"/>
			<path class="st9" d="M328.1-49.7c-6.2,0-10.8-1.3-13.6-2.1c-2.8-0.8-7.5-2.1-13.6-2.1c-6.2,0-10.8,1.3-13.6,2.1
				s-7.5,2.1-13.6,2.1c-6.2,0-10.8-1.3-13.6-2.1c-2.8-0.8-7.5-2.1-13.6-2.1c-6.2,0-10.8,1.3-13.6,2.1c-2.8,0.8-7.5,2.1-13.6,2.1"/>
			<path class="st9" d="M328.1-71.2c-6.2,0-10.8-1.3-13.6-2.1c-2.8-0.8-7.5-2.1-13.6-2.1c-6.2,0-10.8,1.3-13.6,2.1
				c-2.8,0.8-7.5,2.1-13.6,2.1c-6.2,0-10.8-1.3-13.6-2.1c-2.8-0.8-7.5-2.1-13.6-2.1c-6.2,0-10.8,1.3-13.6,2.1
				c-2.8,0.8-7.5,2.1-13.6,2.1"/>
			<path class="st9" d="M328.1-66.9c-6.2,0-10.8-1.3-13.6-2.1c-2.8-0.8-7.5-2.1-13.6-2.1c-6.2,0-10.8,1.3-13.6,2.1
				c-2.8,0.8-7.5,2.1-13.6,2.1c-6.2,0-10.8-1.3-13.6-2.1c-2.8-0.8-7.5-2.1-13.6-2.1c-6.2,0-10.8,1.3-13.6,2.1
				c-2.8,0.8-7.5,2.1-13.6,2.1"/>
			<path class="st9" d="M328.1-62.6c-6.2,0-10.8-1.3-13.6-2.1c-2.8-0.8-7.5-2.1-13.6-2.1c-6.2,0-10.8,1.3-13.6,2.1
				c-2.8,0.8-7.5,2.1-13.6,2.1c-6.2,0-10.8-1.3-13.6-2.1c-2.8-0.8-7.5-2.1-13.6-2.1c-6.2,0-10.8,1.3-13.6,2.1
				c-2.8,0.8-7.5,2.1-13.6,2.1"/>
		</g>
		<g>
			<rect x="109.9" y="-77.4" class="st10" width="109.1" height="25.8"/>
			<path class="st9" d="M219-58.3c-6.2,0-10.8-1.3-13.6-2.1c-2.8-0.8-7.5-2.1-13.6-2.1c-6.2,0-10.8,1.3-13.6,2.1
				c-2.8,0.8-7.5,2.1-13.6,2.1c-6.2,0-10.8-1.3-13.6-2.1c-2.8-0.8-7.5-2.1-13.6-2.1c-6.2,0-10.8,1.3-13.6,2.1
				c-2.8,0.8-7.5,2.1-13.6,2.1"/>
			<path class="st9" d="M219-54c-6.2,0-10.8-1.3-13.6-2.1c-2.8-0.8-7.5-2.1-13.6-2.1c-6.2,0-10.8,1.3-13.6,2.1
				c-2.8,0.8-7.5,2.1-13.6,2.1c-6.2,0-10.8-1.3-13.6-2.1c-2.8-0.8-7.5-2.1-13.6-2.1c-6.2,0-10.8,1.3-13.6,2.1
				c-2.8,0.8-7.5,2.1-13.6,2.1"/>
			<path class="st9" d="M219-49.7c-6.2,0-10.8-1.3-13.6-2.1c-2.8-0.8-7.5-2.1-13.6-2.1c-6.2,0-10.8,1.3-13.6,2.1s-7.5,2.1-13.6,2.1
				c-6.2,0-10.8-1.3-13.6-2.1c-2.8-0.8-7.5-2.1-13.6-2.1c-6.2,0-10.8,1.3-13.6,2.1c-2.8,0.8-7.5,2.1-13.6,2.1"/>
			<path class="st9" d="M219-71.2c-6.2,0-10.8-1.3-13.6-2.1c-2.8-0.8-7.5-2.1-13.6-2.1c-6.2,0-10.8,1.3-13.6,2.1
				c-2.8,0.8-7.5,2.1-13.6,2.1c-6.2,0-10.8-1.3-13.6-2.1c-2.8-0.8-7.5-2.1-13.6-2.1c-6.2,0-10.8,1.3-13.6,2.1
				c-2.8,0.8-7.5,2.1-13.6,2.1"/>
			<path class="st9" d="M219-66.9c-6.2,0-10.8-1.3-13.6-2.1c-2.8-0.8-7.5-2.1-13.6-2.1c-6.2,0-10.8,1.3-13.6,2.1
				c-2.8,0.8-7.5,2.1-13.6,2.1c-6.2,0-10.8-1.3-13.6-2.1c-2.8-0.8-7.5-2.1-13.6-2.1c-6.2,0-10.8,1.3-13.6,2.1
				c-2.8,0.8-7.5,2.1-13.6,2.1"/>
			<path class="st9" d="M219-62.6c-6.2,0-10.8-1.3-13.6-2.1c-2.8-0.8-7.5-2.1-13.6-2.1c-6.2,0-10.8,1.3-13.6,2.1
				c-2.8,0.8-7.5,2.1-13.6,2.1c-6.2,0-10.8-1.3-13.6-2.1c-2.8-0.8-7.5-2.1-13.6-2.1c-6.2,0-10.8,1.3-13.6,2.1
				c-2.8,0.8-7.5,2.1-13.6,2.1"/>
		</g>
		<g>
			<path class="st9" d="M109.9-58.3c-6.2,0-10.8-1.3-13.6-2.1c-2.8-0.8-7.5-2.1-13.6-2.1c-6.2,0-10.8,1.3-13.6,2.1
				c-2.8,0.8-7.5,2.1-13.6,2.1c-6.2,0-10.8-1.3-13.6-2.1c-2.8-0.8-7.5-2.1-13.6-2.1c-6.2,0-10.8,1.3-13.6,2.1
				c-2.8,0.8-7.5,2.1-13.6,2.1"/>
			<path class="st9" d="M109.9-54c-6.2,0-10.8-1.3-13.6-2.1c-2.8-0.8-7.5-2.1-13.6-2.1c-6.2,0-10.8,1.3-13.6,2.1
				c-2.8,0.8-7.5,2.1-13.6,2.1c-6.2,0-10.8-1.3-13.6-2.1c-2.8-0.8-7.5-2.1-13.6-2.1c-6.2,0-10.8,1.3-13.6,2.1
				C11.6-55.3,6.9-54,0.8-54"/>
			<path class="st9" d="M109.9-49.7c-6.2,0-10.8-1.3-13.6-2.1c-2.8-0.8-7.5-2.1-13.6-2.1c-6.2,0-10.8,1.3-13.6,2.1
				c-2.8,0.8-7.5,2.1-13.6,2.1c-6.2,0-10.8-1.3-13.6-2.1C38.9-52.7,34.2-54,28-54c-6.2,0-10.8,1.3-13.6,2.1
				c-2.8,0.8-7.5,2.1-13.6,2.1"/>
			<path class="st9" d="M109.9-71.2c-6.2,0-10.8-1.3-13.6-2.1c-2.8-0.8-7.5-2.1-13.6-2.1c-6.2,0-10.8,1.3-13.6,2.1
				c-2.8,0.8-7.5,2.1-13.6,2.1c-6.2,0-10.8-1.3-13.6-2.1c-2.8-0.8-7.5-2.1-13.6-2.1c-6.2,0-10.8,1.3-13.6,2.1
				c-2.8,0.8-7.5,2.1-13.6,2.1"/>
			<path class="st9" d="M109.9-66.9c-6.2,0-10.8-1.3-13.6-2.1c-2.8-0.8-7.5-2.1-13.6-2.1c-6.2,0-10.8,1.3-13.6,2.1
				c-2.8,0.8-7.5,2.1-13.6,2.1c-6.2,0-10.8-1.3-13.6-2.1c-2.8-0.8-7.5-2.1-13.6-2.1c-6.2,0-10.8,1.3-13.6,2.1
				c-2.8,0.8-7.5,2.1-13.6,2.1"/>
			<path class="st9" d="M109.9-62.6c-6.2,0-10.8-1.3-13.6-2.1c-2.8-0.8-7.5-2.1-13.6-2.1c-6.2,0-10.8,1.3-13.6,2.1
				c-2.8,0.8-7.5,2.1-13.6,2.1c-6.2,0-10.8-1.3-13.6-2.1c-2.8-0.8-7.5-2.1-13.6-2.1c-6.2,0-10.8,1.3-13.6,2.1
				c-2.8,0.8-7.5,2.1-13.6,2.1"/>
		</g>
		<g>
			<path class="st9" d="M328.1-84.1c-6.2,0-10.8-1.3-13.6-2.1c-2.8-0.8-7.5-2.1-13.6-2.1c-6.2,0-10.8,1.3-13.6,2.1
				c-2.8,0.8-7.5,2.1-13.6,2.1c-6.2,0-10.8-1.3-13.6-2.1c-2.8-0.8-7.5-2.1-13.6-2.1c-6.2,0-10.8,1.3-13.6,2.1
				c-2.8,0.8-7.5,2.1-13.6,2.1"/>
			<path class="st9" d="M328.1-79.8c-6.2,0-10.8-1.3-13.6-2.1c-2.8-0.8-7.5-2.1-13.6-2.1c-6.2,0-10.8,1.3-13.6,2.1
				c-2.8,0.8-7.5,2.1-13.6,2.1c-6.2,0-10.8-1.3-13.6-2.1c-2.8-0.8-7.5-2.1-13.6-2.1c-6.2,0-10.8,1.3-13.6,2.1
				c-2.8,0.8-7.5,2.1-13.6,2.1"/>
			<path class="st9" d="M328.1-75.5c-6.2,0-10.8-1.3-13.6-2.1c-2.8-0.8-7.5-2.1-13.6-2.1c-6.2,0-10.8,1.3-13.6,2.1
				c-2.8,0.8-7.5,2.1-13.6,2.1c-6.2,0-10.8-1.3-13.6-2.1c-2.8-0.8-7.5-2.1-13.6-2.1c-6.2,0-10.8,1.3-13.6,2.1
				c-2.8,0.8-7.5,2.1-13.6,2.1"/>
			<path class="st9" d="M328.1-97c-6.2,0-10.8-1.3-13.6-2.1c-2.8-0.8-7.5-2.1-13.6-2.1c-6.2,0-10.8,1.3-13.6,2.1
				c-2.8,0.8-7.5,2.1-13.6,2.1c-6.2,0-10.8-1.3-13.6-2.1c-2.8-0.8-7.5-2.1-13.6-2.1c-6.2,0-10.8,1.3-13.6,2.1
				c-2.8,0.8-7.5,2.1-13.6,2.1"/>
			<path class="st9" d="M328.1-92.7c-6.2,0-10.8-1.3-13.6-2.1c-2.8-0.8-7.5-2.1-13.6-2.1c-6.2,0-10.8,1.3-13.6,2.1
				c-2.8,0.8-7.5,2.1-13.6,2.1c-6.2,0-10.8-1.3-13.6-2.1c-2.8-0.8-7.5-2.1-13.6-2.1c-6.2,0-10.8,1.3-13.6,2.1
				c-2.8,0.8-7.5,2.1-13.6,2.1"/>
			<path class="st9" d="M328.1-88.4c-6.2,0-10.8-1.3-13.6-2.1c-2.8-0.8-7.5-2.1-13.6-2.1c-6.2,0-10.8,1.3-13.6,2.1
				c-2.8,0.8-7.5,2.1-13.6,2.1c-6.2,0-10.8-1.3-13.6-2.1c-2.8-0.8-7.5-2.1-13.6-2.1c-6.2,0-10.8,1.3-13.6,2.1
				c-2.8,0.8-7.5,2.1-13.6,2.1"/>
		</g>
		<g>
			<rect x="109.9" y="-103.2" class="st10" width="109.1" height="25.8"/>
			<path class="st9" d="M219-84.1c-6.2,0-10.8-1.3-13.6-2.1c-2.8-0.8-7.5-2.1-13.6-2.1c-6.2,0-10.8,1.3-13.6,2.1
				c-2.8,0.8-7.5,2.1-13.6,2.1c-6.2,0-10.8-1.3-13.6-2.1c-2.8-0.8-7.5-2.1-13.6-2.1c-6.2,0-10.8,1.3-13.6,2.1
				c-2.8,0.8-7.5,2.1-13.6,2.1"/>
			<path class="st9" d="M219-79.8c-6.2,0-10.8-1.3-13.6-2.1c-2.8-0.8-7.5-2.1-13.6-2.1c-6.2,0-10.8,1.3-13.6,2.1
				c-2.8,0.8-7.5,2.1-13.6,2.1c-6.2,0-10.8-1.3-13.6-2.1c-2.8-0.8-7.5-2.1-13.6-2.1c-6.2,0-10.8,1.3-13.6,2.1
				c-2.8,0.8-7.5,2.1-13.6,2.1"/>
			<path class="st9" d="M219-75.5c-6.2,0-10.8-1.3-13.6-2.1c-2.8-0.8-7.5-2.1-13.6-2.1c-6.2,0-10.8,1.3-13.6,2.1
				c-2.8,0.8-7.5,2.1-13.6,2.1c-6.2,0-10.8-1.3-13.6-2.1c-2.8-0.8-7.5-2.1-13.6-2.1c-6.2,0-10.8,1.3-13.6,2.1
				c-2.8,0.8-7.5,2.1-13.6,2.1"/>
			<path class="st9" d="M219-97c-6.2,0-10.8-1.3-13.6-2.1c-2.8-0.8-7.5-2.1-13.6-2.1c-6.2,0-10.8,1.3-13.6,2.1
				c-2.8,0.8-7.5,2.1-13.6,2.1c-6.2,0-10.8-1.3-13.6-2.1c-2.8-0.8-7.5-2.1-13.6-2.1c-6.2,0-10.8,1.3-13.6,2.1
				c-2.8,0.8-7.5,2.1-13.6,2.1"/>
			<path class="st9" d="M219-92.7c-6.2,0-10.8-1.3-13.6-2.1c-2.8-0.8-7.5-2.1-13.6-2.1c-6.2,0-10.8,1.3-13.6,2.1
				c-2.8,0.8-7.5,2.1-13.6,2.1c-6.2,0-10.8-1.3-13.6-2.1c-2.8-0.8-7.5-2.1-13.6-2.1c-6.2,0-10.8,1.3-13.6,2.1
				c-2.8,0.8-7.5,2.1-13.6,2.1"/>
			<path class="st9" d="M219-88.4c-6.2,0-10.8-1.3-13.6-2.1c-2.8-0.8-7.5-2.1-13.6-2.1c-6.2,0-10.8,1.3-13.6,2.1
				c-2.8,0.8-7.5,2.1-13.6,2.1c-6.2,0-10.8-1.3-13.6-2.1c-2.8-0.8-7.5-2.1-13.6-2.1c-6.2,0-10.8,1.3-13.6,2.1
				c-2.8,0.8-7.5,2.1-13.6,2.1"/>
		</g>
		<g>
			<path class="st9" d="M109.9-84.1c-6.2,0-10.8-1.3-13.6-2.1c-2.8-0.8-7.5-2.1-13.6-2.1c-6.2,0-10.8,1.3-13.6,2.1
				c-2.8,0.8-7.5,2.1-13.6,2.1c-6.2,0-10.8-1.3-13.6-2.1c-2.8-0.8-7.5-2.1-13.6-2.1c-6.2,0-10.8,1.3-13.6,2.1
				c-2.8,0.8-7.5,2.1-13.6,2.1"/>
			<path class="st9" d="M109.9-79.8c-6.2,0-10.8-1.3-13.6-2.1c-2.8-0.8-7.5-2.1-13.6-2.1c-6.2,0-10.8,1.3-13.6,2.1
				c-2.8,0.8-7.5,2.1-13.6,2.1c-6.2,0-10.8-1.3-13.6-2.1c-2.8-0.8-7.5-2.1-13.6-2.1c-6.2,0-10.8,1.3-13.6,2.1
				c-2.8,0.8-7.5,2.1-13.6,2.1"/>
			<path class="st9" d="M109.9-75.5c-6.2,0-10.8-1.3-13.6-2.1c-2.8-0.8-7.5-2.1-13.6-2.1c-6.2,0-10.8,1.3-13.6,2.1
				c-2.8,0.8-7.5,2.1-13.6,2.1c-6.2,0-10.8-1.3-13.6-2.1c-2.8-0.8-7.5-2.1-13.6-2.1c-6.2,0-10.8,1.3-13.6,2.1
				c-2.8,0.8-7.5,2.1-13.6,2.1"/>
			<path class="st9" d="M109.9-97c-6.2,0-10.8-1.3-13.6-2.1c-2.8-0.8-7.5-2.1-13.6-2.1c-6.2,0-10.8,1.3-13.6,2.1
				c-2.8,0.8-7.5,2.1-13.6,2.1c-6.2,0-10.8-1.3-13.6-2.1c-2.8-0.8-7.5-2.1-13.6-2.1c-6.2,0-10.8,1.3-13.6,2.1
				C11.6-98.3,6.9-97,0.8-97"/>
			<path class="st9" d="M109.9-92.7c-6.2,0-10.8-1.3-13.6-2.1c-2.8-0.8-7.5-2.1-13.6-2.1c-6.2,0-10.8,1.3-13.6,2.1
				c-2.8,0.8-7.5,2.1-13.6,2.1c-6.2,0-10.8-1.3-13.6-2.1C38.9-95.7,34.2-97,28-97c-6.2,0-10.8,1.3-13.6,2.1
				c-2.8,0.8-7.5,2.1-13.6,2.1"/>
			<path class="st9" d="M109.9-88.4c-6.2,0-10.8-1.3-13.6-2.1c-2.8-0.8-7.5-2.1-13.6-2.1c-6.2,0-10.8,1.3-13.6,2.1
				c-2.8,0.8-7.5,2.1-13.6,2.1c-6.2,0-10.8-1.3-13.6-2.1c-2.8-0.8-7.5-2.1-13.6-2.1c-6.2,0-10.8,1.3-13.6,2.1
				c-2.8,0.8-7.5,2.1-13.6,2.1"/>
		</g>
		<g>
			<path class="st9" d="M328.1-109.9c-6.2,0-10.8-1.3-13.6-2.1c-2.8-0.8-7.5-2.1-13.6-2.1c-6.2,0-10.8,1.3-13.6,2.1
				c-2.8,0.8-7.5,2.1-13.6,2.1c-6.2,0-10.8-1.3-13.6-2.1c-2.8-0.8-7.5-2.1-13.6-2.1c-6.2,0-10.8,1.3-13.6,2.1
				c-2.8,0.8-7.5,2.1-13.6,2.1"/>
			<path class="st9" d="M328.1-105.6c-6.2,0-10.8-1.3-13.6-2.1c-2.8-0.8-7.5-2.1-13.6-2.1c-6.2,0-10.8,1.3-13.6,2.1
				c-2.8,0.8-7.5,2.1-13.6,2.1c-6.2,0-10.8-1.3-13.6-2.1c-2.8-0.8-7.5-2.1-13.6-2.1c-6.2,0-10.8,1.3-13.6,2.1
				c-2.8,0.8-7.5,2.1-13.6,2.1"/>
			<path class="st9" d="M328.1-101.3c-6.2,0-10.8-1.3-13.6-2.1c-2.8-0.8-7.5-2.1-13.6-2.1c-6.2,0-10.8,1.3-13.6,2.1
				c-2.8,0.8-7.5,2.1-13.6,2.1c-6.2,0-10.8-1.3-13.6-2.1c-2.8-0.8-7.5-2.1-13.6-2.1c-6.2,0-10.8,1.3-13.6,2.1
				c-2.8,0.8-7.5,2.1-13.6,2.1"/>
			<path class="st9" d="M328.1-114.2c-6.2,0-10.8-1.3-13.6-2.1c-2.8-0.8-7.5-2.1-13.6-2.1c-6.2,0-10.8,1.3-13.6,2.1
				c-2.8,0.8-7.5,2.1-13.6,2.1c-6.2,0-10.8-1.3-13.6-2.1c-2.8-0.8-7.5-2.1-13.6-2.1c-6.2,0-10.8,1.3-13.6,2.1
				c-2.8,0.8-7.5,2.1-13.6,2.1"/>
		</g>
		<g>
			<rect x="109.9" y="-129" class="st10" width="109.1" height="25.8"/>
			<path class="st9" d="M219-109.9c-6.2,0-10.8-1.3-13.6-2.1c-2.8-0.8-7.5-2.1-13.6-2.1c-6.2,0-10.8,1.3-13.6,2.1
				c-2.8,0.8-7.5,2.1-13.6,2.1c-6.2,0-10.8-1.3-13.6-2.1c-2.8-0.8-7.5-2.1-13.6-2.1c-6.2,0-10.8,1.3-13.6,2.1
				c-2.8,0.8-7.5,2.1-13.6,2.1"/>
			<path class="st9" d="M219-105.6c-6.2,0-10.8-1.3-13.6-2.1c-2.8-0.8-7.5-2.1-13.6-2.1c-6.2,0-10.8,1.3-13.6,2.1
				c-2.8,0.8-7.5,2.1-13.6,2.1c-6.2,0-10.8-1.3-13.6-2.1c-2.8-0.8-7.5-2.1-13.6-2.1c-6.2,0-10.8,1.3-13.6,2.1
				c-2.8,0.8-7.5,2.1-13.6,2.1"/>
			<path class="st9" d="M219-101.3c-6.2,0-10.8-1.3-13.6-2.1c-2.8-0.8-7.5-2.1-13.6-2.1c-6.2,0-10.8,1.3-13.6,2.1
				c-2.8,0.8-7.5,2.1-13.6,2.1c-6.2,0-10.8-1.3-13.6-2.1c-2.8-0.8-7.5-2.1-13.6-2.1c-6.2,0-10.8,1.3-13.6,2.1
				c-2.8,0.8-7.5,2.1-13.6,2.1"/>
			<path class="st9" d="M219-114.2c-6.2,0-10.8-1.3-13.6-2.1c-2.8-0.8-7.5-2.1-13.6-2.1c-6.2,0-10.8,1.3-13.6,2.1
				c-2.8,0.8-7.5,2.1-13.6,2.1c-6.2,0-10.8-1.3-13.6-2.1c-2.8-0.8-7.5-2.1-13.6-2.1c-6.2,0-10.8,1.3-13.6,2.1
				c-2.8,0.8-7.5,2.1-13.6,2.1"/>
		</g>
		<g>
			<path class="st9" d="M109.9-109.9c-6.2,0-10.8-1.3-13.6-2.1c-2.8-0.8-7.5-2.1-13.6-2.1c-6.2,0-10.8,1.3-13.6,2.1
				c-2.8,0.8-7.5,2.1-13.6,2.1c-6.2,0-10.8-1.3-13.6-2.1c-2.8-0.8-7.5-2.1-13.6-2.1c-6.2,0-10.8,1.3-13.6,2.1
				c-2.8,0.8-7.5,2.1-13.6,2.1"/>
			<path class="st9" d="M109.9-105.6c-6.2,0-10.8-1.3-13.6-2.1c-2.8-0.8-7.5-2.1-13.6-2.1c-6.2,0-10.8,1.3-13.6,2.1
				c-2.8,0.8-7.5,2.1-13.6,2.1c-6.2,0-10.8-1.3-13.6-2.1c-2.8-0.8-7.5-2.1-13.6-2.1c-6.2,0-10.8,1.3-13.6,2.1
				c-2.8,0.8-7.5,2.1-13.6,2.1"/>
			<path class="st9" d="M109.9-101.3c-6.2,0-10.8-1.3-13.6-2.1c-2.8-0.8-7.5-2.1-13.6-2.1c-6.2,0-10.8,1.3-13.6,2.1
				c-2.8,0.8-7.5,2.1-13.6,2.1c-6.2,0-10.8-1.3-13.6-2.1c-2.8-0.8-7.5-2.1-13.6-2.1c-6.2,0-10.8,1.3-13.6,2.1
				c-2.8,0.8-7.5,2.1-13.6,2.1"/>
			<path class="st9" d="M109.9-114.2c-6.2,0-10.8-1.3-13.6-2.1c-2.8-0.8-7.5-2.1-13.6-2.1c-6.2,0-10.8,1.3-13.6,2.1
				c-2.8,0.8-7.5,2.1-13.6,2.1c-6.2,0-10.8-1.3-13.6-2.1c-2.8-0.8-7.5-2.1-13.6-2.1c-6.2,0-10.8,1.3-13.6,2.1
				c-2.8,0.8-7.5,2.1-13.6,2.1"/>
		</g>
	</g>
</pattern>
<g id="Layer_4">
	<g>
		<path class="st11" d="M36.3,38.7c0.9-2.5,1.4-4.4,1.7-5.6c0.3-1.3,0.4-2.7,0.4-4.3c0-2.8-1.3-5.1-3.9-7s-6-2.8-10.3-2.8
			c-4.4,0-7.8,1-10.2,3s-3.6,4.4-3.6,7.4c0,1.7,0.2,3.3,0.7,4.8s1.1,2.9,1.8,4.1L3.6,43c-1.1-1.8-1.9-4-2.5-6.6
			c-0.6-2.5-0.9-5-0.9-7.4c0-7.6,2.2-13.3,6.7-17.2C11.3,7.9,17.1,6,24.1,6c7.2,0,13.1,2,17.6,6.1c4.6,4.1,6.8,9.6,6.8,16.5
			c0,2.3-0.3,4.8-1,7.3s-1.6,4.7-2.9,6.5L36.3,38.7z"/>
	</g>
	<g>
		<path class="st11" d="M24.1,47.7c7.2,0,13.1,2,17.7,6.1s6.9,9.6,6.9,16.6c0,7.6-2.3,13.3-7,17.1c-4.7,3.8-10.4,5.7-17,5.7
			c-7.2,0-13.2-2-17.7-6c-4.7-4-7-9.6-7-16.8c0-7.5,2.3-13.1,7-17C11.7,49.6,17.4,47.7,24.1,47.7z M24.2,60.5
			c-3.9,0-7.2,0.8-9.8,2.3c-2.6,1.5-3.9,4-3.9,7.6c0,3.2,1.2,5.7,3.5,7.4c2.4,1.7,5.9,2.6,10.6,2.6c3.9,0,7.1-0.8,9.7-2.3
			s3.9-4,3.9-7.5c0-3.1-1.3-5.6-3.8-7.4C31.8,61.4,28.4,60.5,24.2,60.5z"/>
	</g>
	<g>
		<path class="st11" d="M1,100.8h46.7v19.7c0,5.2-1.2,9.7-3.7,13.5s-6.6,5.7-12.2,5.7c-2.8,0-5.3-0.6-7.4-1.8s-3.7-2.7-5-4.6
			L1,143.7v-14.5l14.7-7.6v-8.3H1V100.8z M37.9,120v-6.7H25.5v6.9c0,1.9,0.6,3.5,1.8,4.7c1.2,1.2,2.7,1.9,4.5,1.9
			c2.1,0,3.6-0.6,4.6-1.8C37.4,123.8,37.9,122.1,37.9,120z"/>
	</g>
	<g>
		<path class="st11" d="M1,160.9h18.4L46.5,145l1.2,13l-16.8,9.1l16.8,9.7v12.9l-28.5-16.2H1V160.9z"/>
	</g>
	<g>
		<path class="st11" d="M1,219.9h36.9v-13.7h9.8v40l-9.8,1.2v-14.9H1V219.9z"/>
	</g>
	<g>
		<path class="st11" d="M1,252.8h46.7v12.5H1V252.8z"/>
	</g>
	<g>
		<path class="st11" d="M1,306.4h22.6l-8.5-6.3l-0.7-5l9.2-7.6H1V275h46.7v8.6l-17.8,14.1l17.8,12.9v8.3H1V306.4z"/>
	</g>
	<g>
		<path class="st11" d="M1,359.9h22.6l-8.5-6.3l-0.7-5l9.2-7.6H1v-12.5h46.7v8.6l-17.8,14.1l17.8,12.9v8.3H1V359.9z"/>
	</g>
	<g>
		<path class="st11" d="M24.1,380c7.2,0,13.1,2,17.7,6.1s6.9,9.6,6.9,16.6c0,7.6-2.3,13.3-7,17.1c-4.7,3.8-10.4,5.7-17,5.7
			c-7.2,0-13.2-2-17.7-6c-4.6-4-6.9-9.6-6.9-16.8c0-7.5,2.3-13.1,7-17C11.7,381.9,17.4,380,24.1,380z M24.2,392.9
			c-3.9,0-7.2,0.8-9.8,2.3s-3.9,4-3.9,7.6c0,3.2,1.2,5.7,3.5,7.4c2.4,1.7,5.9,2.6,10.6,2.6c3.9,0,7.1-0.8,9.7-2.3s3.9-4,3.9-7.5
			c0-3.1-1.3-5.6-3.8-7.4C31.8,393.8,28.4,392.9,24.2,392.9z"/>
	</g>
	<g>
		<path class="st11" d="M1,433.2h46.7v11.6l-25.4,18h25.4v12.5H1v-11.7l24.6-17.9H1V433.2z"/>
	</g>
	<g>
		<path class="st11" d="M19.4,496.9c1.6-3.1,3.6-6.2,6.1-9.3c2.5-3.1,5.7-4.7,9.7-4.7c3.8,0,7,1.6,9.6,4.7c2.5,3.1,3.8,7.3,3.8,12.6
			c0,2.3-0.3,4.8-1,7.3s-1.6,4.7-2.9,6.5l-8.5-3.7c0.9-2.5,1.4-4.4,1.7-5.6c0.3-1.3,0.4-2.7,0.4-4.3c0-1.4-0.3-2.5-1-3.4
			c-0.7-0.8-1.4-1.2-2.3-1.2c-1,0-1.9,0.7-2.6,2.1c-0.8,1.4-1.6,3.1-2.6,5c-1.7,3.3-3.8,6.5-6.4,9.6c-2.6,3.1-5.8,4.6-9.6,4.6
			c-3.9,0-7.2-1.7-9.8-5s-3.9-7.9-3.9-13.6c0-2.4,0.4-5.1,1.1-8.1s1.6-5.4,2.7-7.3l9.4,4.1c-0.7,1.2-1.4,2.9-2,5.1s-0.9,4.1-0.9,5.8
			c0,2,0.4,3.5,1.2,4.5s1.6,1.5,2.5,1.5c0.8,0,1.7-0.8,2.7-2.3C17.6,500.4,18.5,498.7,19.4,496.9z"/>
	</g>
</g>
<g id="Layer_3">
	<g>
		<pattern  id="SVGID_1_" xlink:href="#Burlap" patternTransform="matrix(1 0 0 -1 58.4 -16009.8008)">
		</pattern>
		<path class="st12" d="M36.3,38.7c0.9-2.5,1.4-4.4,1.7-5.6c0.3-1.3,0.4-2.7,0.4-4.3c0-2.8-1.3-5.1-3.9-7s-6-2.8-10.3-2.8
			c-4.4,0-7.8,1-10.2,3s-3.6,4.4-3.6,7.4c0,1.7,0.2,3.3,0.7,4.8s1.1,2.9,1.8,4.1L3.6,43c-1.1-1.8-1.9-4-2.5-6.6
			c-0.6-2.5-0.9-5-0.9-7.4c0-7.6,2.2-13.3,6.7-17.2C11.3,7.9,17.1,6,24.1,6c7.2,0,13.1,2,17.6,6.1c4.6,4.1,6.8,9.6,6.8,16.5
			c0,2.3-0.3,4.8-1,7.3s-1.6,4.7-2.9,6.5L36.3,38.7z"/>
	</g>
	<g>
		<pattern  id="SVGID_2_" xlink:href="#Burlap" patternTransform="matrix(1 0 0 -1 58.4 -16009.8008)">
		</pattern>
		<path class="st13" d="M24.1,47.7c7.2,0,13.1,2,17.7,6.1s6.9,9.6,6.9,16.6c0,7.6-2.3,13.3-7,17.1c-4.7,3.8-10.4,5.7-17,5.7
			c-7.2,0-13.2-2-17.7-6c-4.7-4-7-9.6-7-16.8c0-7.5,2.3-13.1,7-17C11.7,49.6,17.4,47.7,24.1,47.7z M24.2,60.5
			c-3.9,0-7.2,0.8-9.8,2.3c-2.6,1.5-3.9,4-3.9,7.6c0,3.2,1.2,5.7,3.5,7.4c2.4,1.7,5.9,2.6,10.6,2.6c3.9,0,7.1-0.8,9.7-2.3
			s3.9-4,3.9-7.5c0-3.1-1.3-5.6-3.8-7.4C31.8,61.4,28.4,60.5,24.2,60.5z"/>
	</g>
	<g>
		<pattern  id="SVGID_3_" xlink:href="#Burlap" patternTransform="matrix(1 0 0 -1 58.4 -16009.8008)">
		</pattern>
		<path class="st14" d="M1,100.8h46.7v19.7c0,5.2-1.2,9.7-3.7,13.5s-6.6,5.7-12.2,5.7c-2.8,0-5.3-0.6-7.4-1.8s-3.7-2.7-5-4.6
			L1,143.7v-14.5l14.7-7.6v-8.3H1V100.8z M37.9,120v-6.7H25.5v6.9c0,1.9,0.6,3.5,1.8,4.7c1.2,1.2,2.7,1.9,4.5,1.9
			c2.1,0,3.6-0.6,4.6-1.8C37.4,123.8,37.9,122.1,37.9,120z"/>
	</g>
	<g>
		<pattern  id="SVGID_4_" xlink:href="#Burlap" patternTransform="matrix(1 0 0 -1 58.4 -16009.8008)">
		</pattern>
		<path class="st15" d="M1,160.9h18.4L46.5,145l1.2,13l-16.8,9.1l16.8,9.7v12.9l-28.5-16.2H1V160.9z"/>
	</g>
	<g>
		<pattern  id="SVGID_5_" xlink:href="#Burlap" patternTransform="matrix(1 0 0 -1 58.4 -16009.8008)">
		</pattern>
		<path class="st16" d="M1,219.9h36.9v-13.7h9.8v40l-9.8,1.2v-14.9H1V219.9z"/>
	</g>
	<g>
		<pattern  id="SVGID_6_" xlink:href="#Burlap" patternTransform="matrix(1 0 0 -1 58.4 -16009.8008)">
		</pattern>
		<path class="st17" d="M1,252.8h46.7v12.5H1V252.8z"/>
	</g>
	<g>
		<pattern  id="SVGID_7_" xlink:href="#Burlap" patternTransform="matrix(1 0 0 -1 58.4 -16009.8008)">
		</pattern>
		<path class="st18" d="M1,306.4h22.6l-8.5-6.3l-0.7-5l9.2-7.6H1V275h46.7v8.6l-17.8,14.1l17.8,12.9v8.3H1V306.4z"/>
	</g>
	<g>
		<pattern  id="SVGID_8_" xlink:href="#Burlap" patternTransform="matrix(1 0 0 -1 58.4 -16009.8008)">
		</pattern>
		<path class="st19" d="M1,359.9h22.6l-8.5-6.3l-0.7-5l9.2-7.6H1v-12.5h46.7v8.6l-17.8,14.1l17.8,12.9v8.3H1V359.9z"/>
	</g>
	<g>
		<pattern  id="SVGID_9_" xlink:href="#Burlap" patternTransform="matrix(1 0 0 -1 58.4 -16009.8008)">
		</pattern>
		<path class="st20" d="M24.1,380c7.2,0,13.1,2,17.7,6.1s6.9,9.6,6.9,16.6c0,7.6-2.3,13.3-7,17.1c-4.7,3.8-10.4,5.7-17,5.7
			c-7.2,0-13.2-2-17.7-6c-4.6-4-6.9-9.6-6.9-16.8c0-7.5,2.3-13.1,7-17C11.7,381.9,17.4,380,24.1,380z M24.2,392.9
			c-3.9,0-7.2,0.8-9.8,2.3s-3.9,4-3.9,7.6c0,3.2,1.2,5.7,3.5,7.4c2.4,1.7,5.9,2.6,10.6,2.6c3.9,0,7.1-0.8,9.7-2.3s3.9-4,3.9-7.5
			c0-3.1-1.3-5.6-3.8-7.4C31.8,393.8,28.4,392.9,24.2,392.9z"/>
	</g>
	<g>
		<pattern  id="SVGID_10_" xlink:href="#Burlap" patternTransform="matrix(1 0 0 -1 58.4 -16009.8008)">
		</pattern>
		<path class="st21" d="M1,433.2h46.7v11.6l-25.4,18h25.4v12.5H1v-11.7l24.6-17.9H1V433.2z"/>
	</g>
	<g>
		<pattern  id="SVGID_11_" xlink:href="#Burlap" patternTransform="matrix(1 0 0 -1 58.4 -16009.8008)">
		</pattern>
		<path class="st22" d="M19.4,496.9c1.6-3.1,3.6-6.2,6.1-9.3c2.5-3.1,5.7-4.7,9.7-4.7c3.8,0,7,1.6,9.6,4.7c2.5,3.1,3.8,7.3,3.8,12.6
			c0,2.3-0.3,4.8-1,7.3s-1.6,4.7-2.9,6.5l-8.5-3.7c0.9-2.5,1.4-4.4,1.7-5.6c0.3-1.3,0.4-2.7,0.4-4.3c0-1.4-0.3-2.5-1-3.4
			c-0.7-0.8-1.4-1.2-2.3-1.2c-1,0-1.9,0.7-2.6,2.1c-0.8,1.4-1.6,3.1-2.6,5c-1.7,3.3-3.8,6.5-6.4,9.6c-2.6,3.1-5.8,4.6-9.6,4.6
			c-3.9,0-7.2-1.7-9.8-5s-3.9-7.9-3.9-13.6c0-2.4,0.4-5.1,1.1-8.1s1.6-5.4,2.7-7.3l9.4,4.1c-0.7,1.2-1.4,2.9-2,5.1s-0.9,4.1-0.9,5.8
			c0,2,0.4,3.5,1.2,4.5s1.6,1.5,2.5,1.5c0.8,0,1.7-0.8,2.7-2.3C17.6,500.4,18.5,498.7,19.4,496.9z"/>
	</g>
</g>
<g id="Layer_2_1_">
	<g>
		<path class="st23" d="M36.3,32.7c0.9-2.5,1.4-4.4,1.7-5.6c0.3-1.3,0.4-2.7,0.4-4.3c0-2.8-1.3-5.1-3.9-7s-6-2.8-10.3-2.8
			c-4.4,0-7.8,1-10.2,3s-3.6,4.4-3.6,7.4c0,1.7,0.2,3.3,0.7,4.8s1.1,2.9,1.8,4.1L3.6,37c-1.1-1.8-1.9-4-2.5-6.6s-0.9-5-0.9-7.4
			c0-7.6,2.2-13.3,6.7-17.2C11.3,1.9,17.1,0,24.1,0c7.2,0,13.1,2,17.6,6.1c4.6,4.1,6.8,9.6,6.8,16.5c0,2.3-0.3,4.8-1,7.3
			s-1.6,4.7-2.9,6.5L36.3,32.7z"/>
	</g>
	<g>
		<path class="st23" d="M24.1,41.7c7.2,0,13.1,2,17.7,6.1s6.9,9.6,6.9,16.6c0,7.6-2.3,13.3-7,17.1c-4.7,3.8-10.4,5.7-17,5.7
			c-7.2,0-13.2-2-17.7-6c-4.7-4-7-9.6-7-16.8c0-7.5,2.3-13.1,7-17C11.7,43.6,17.4,41.7,24.1,41.7z M24.2,54.5
			c-3.9,0-7.2,0.8-9.8,2.3s-3.9,4-3.9,7.6c0,3.2,1.2,5.7,3.5,7.4c2.4,1.7,5.9,2.6,10.6,2.6c3.9,0,7.1-0.8,9.7-2.3s3.9-4,3.9-7.5
			c0-3.1-1.3-5.6-3.8-7.4C31.8,55.4,28.4,54.5,24.2,54.5z"/>
	</g>
	<g>
		<path class="st23" d="M1,94.8h46.7v19.7c0,5.2-1.2,9.7-3.7,13.5s-6.6,5.7-12.2,5.7c-2.8,0-5.3-0.6-7.4-1.8s-3.7-2.7-5-4.6L1,137.7
			v-14.5l14.7-7.6v-8.3H1V94.8z M37.9,114v-6.7H25.5v6.9c0,1.9,0.6,3.5,1.8,4.7c1.2,1.2,2.7,1.9,4.5,1.9c2.1,0,3.6-0.6,4.6-1.8
			C37.4,117.8,37.9,116.1,37.9,114z"/>
	</g>
	<g>
		<path class="st23" d="M1,154.9h18.4L46.5,139l1.2,13l-16.8,9.1l16.8,9.7v12.9l-28.5-16.2H1V154.9z"/>
	</g>
	<g>
		<path class="st23" d="M1,213.9h36.9v-13.7h9.8v40l-9.8,1.2v-14.9H1V213.9z"/>
	</g>
	<g>
		<path class="st23" d="M1,246.8h46.7v12.5H1V246.8z"/>
	</g>
	<g>
		<path class="st23" d="M1,300.4h22.6l-8.5-6.3l-0.7-5l9.2-7.6H1V269h46.7v8.6l-17.8,14.1l17.8,12.9v8.3H1V300.4z"/>
	</g>
	<g>
		<path class="st23" d="M1,353.9h22.6l-8.5-6.3l-0.7-5l9.2-7.6H1v-12.5h46.7v8.6l-17.8,14.1l17.8,12.9v8.3H1V353.9z"/>
	</g>
	<g>
		<path class="st23" d="M24.1,374c7.2,0,13.1,2,17.7,6.1s6.9,9.6,6.9,16.6c0,7.6-2.3,13.3-7,17.1c-4.7,3.8-10.4,5.7-17,5.7
			c-7.2,0-13.2-2-17.7-6c-4.6-4-6.9-9.6-6.9-16.8c0-7.5,2.3-13.1,7-17C11.7,375.9,17.4,374,24.1,374z M24.2,386.9
			c-3.9,0-7.2,0.8-9.8,2.3s-3.9,4-3.9,7.6c0,3.2,1.2,5.7,3.5,7.4c2.4,1.7,5.9,2.6,10.6,2.6c3.9,0,7.1-0.8,9.7-2.3s3.9-4,3.9-7.5
			c0-3.1-1.3-5.6-3.8-7.4C31.8,387.8,28.4,386.9,24.2,386.9z"/>
	</g>
	<g>
		<path class="st23" d="M1,427.2h46.7v11.6l-25.4,18h25.4v12.5H1v-11.7l24.6-17.9H1V427.2z"/>
	</g>
	<g>
		<path class="st23" d="M19.4,490.9c1.6-3.1,3.6-6.2,6.1-9.3c2.5-3.1,5.7-4.7,9.7-4.7c3.8,0,7,1.6,9.6,4.7c2.5,3.1,3.8,7.3,3.8,12.6
			c0,2.3-0.3,4.8-1,7.3s-1.6,4.7-2.9,6.5l-8.5-3.7c0.9-2.5,1.4-4.4,1.7-5.6c0.3-1.3,0.4-2.7,0.4-4.3c0-1.4-0.3-2.5-1-3.4
			c-0.7-0.8-1.4-1.2-2.3-1.2c-1,0-1.9,0.7-2.6,2.1c-0.8,1.4-1.6,3.1-2.6,5c-1.7,3.3-3.8,6.5-6.4,9.6s-5.8,4.6-9.6,4.6
			c-3.9,0-7.2-1.7-9.8-5s-3.9-7.9-3.9-13.6c0-2.4,0.4-5.1,1.1-8.1s1.6-5.4,2.7-7.3l9.4,4.1c-0.7,1.2-1.4,2.9-2,5.1s-0.9,4.1-0.9,5.8
			c0,2,0.4,3.5,1.2,4.5s1.6,1.5,2.5,1.5c0.8,0,1.7-0.8,2.7-2.3C17.6,494.4,18.5,492.7,19.4,490.9z"/>
	</g>
</g>
<g id="Layer_1_1_">
	<g>
		<pattern  id="SVGID_22_" xlink:href="#SVGID_12_" patternTransform="matrix(1.1565 0 0 -1.1565 2201.7256 -18367.5703)">
		</pattern>
		<path class="st24" d="M36.3,32.7c0.9-2.5,1.4-4.4,1.7-5.6c0.3-1.3,0.4-2.7,0.4-4.3c0-2.8-1.3-5.1-3.9-7s-6-2.8-10.3-2.8
			c-4.4,0-7.8,1-10.2,3s-3.6,4.4-3.6,7.4c0,1.7,0.2,3.3,0.7,4.8s1.1,2.9,1.8,4.1L3.6,37c-1.1-1.8-1.9-4-2.5-6.6s-0.9-5-0.9-7.4
			c0-7.6,2.2-13.3,6.7-17.2C11.3,1.9,17.1,0,24.1,0c7.2,0,13.1,2,17.6,6.1c4.6,4.1,6.8,9.6,6.8,16.5c0,2.3-0.3,4.8-1,7.3
			s-1.6,4.7-2.9,6.5L36.3,32.7z"/>
	</g>
	<g>
		<pattern  id="SVGID_23_" xlink:href="#SVGID_13_" patternTransform="matrix(1.1565 0 0 -1.1565 2201.7256 -18367.5703)">
		</pattern>
		<path class="st25" d="M24.1,41.7c7.2,0,13.1,2,17.7,6.1s6.9,9.6,6.9,16.6c0,7.6-2.3,13.3-7,17.1c-4.7,3.8-10.4,5.7-17,5.7
			c-7.2,0-13.2-2-17.7-6c-4.7-4-7-9.6-7-16.8c0-7.5,2.3-13.1,7-17C11.7,43.6,17.4,41.7,24.1,41.7z M24.2,54.5
			c-3.9,0-7.2,0.8-9.8,2.3s-3.9,4-3.9,7.6c0,3.2,1.2,5.7,3.5,7.4c2.4,1.7,5.9,2.6,10.6,2.6c3.9,0,7.1-0.8,9.7-2.3s3.9-4,3.9-7.5
			c0-3.1-1.3-5.6-3.8-7.4C31.8,55.4,28.4,54.5,24.2,54.5z"/>
	</g>
	<g>
		<pattern  id="SVGID_24_" xlink:href="#SVGID_14_" patternTransform="matrix(1.1565 0 0 -1.1565 2201.7256 -18367.5703)">
		</pattern>
		<path class="st26" d="M1,94.8h46.7v19.7c0,5.2-1.2,9.7-3.7,13.5s-6.6,5.7-12.2,5.7c-2.8,0-5.3-0.6-7.4-1.8s-3.7-2.7-5-4.6L1,137.7
			v-14.5l14.7-7.6v-8.3H1V94.8z M37.9,114v-6.7H25.5v6.9c0,1.9,0.6,3.5,1.8,4.7c1.2,1.2,2.7,1.9,4.5,1.9c2.1,0,3.6-0.6,4.6-1.8
			C37.4,117.8,37.9,116.1,37.9,114z"/>
	</g>
	<g>
		<pattern  id="SVGID_25_" xlink:href="#SVGID_15_" patternTransform="matrix(1.1565 0 0 -1.1565 2201.7256 -18367.5703)">
		</pattern>
		<path class="st27" d="M1,154.9h18.4L46.5,139l1.2,13l-16.8,9.1l16.8,9.7v12.9l-28.5-16.2H1V154.9z"/>
	</g>
	<g>
		<pattern  id="SVGID_26_" xlink:href="#SVGID_16_" patternTransform="matrix(1.1565 0 0 -1.1565 2201.7256 -18367.5703)">
		</pattern>
		<path class="st28" d="M1,213.9h36.9v-13.7h9.8v40l-9.8,1.2v-14.9H1V213.9z"/>
	</g>
	<g>
		<pattern  id="SVGID_27_" xlink:href="#SVGID_17_" patternTransform="matrix(1.1565 0 0 -1.1565 2201.7256 -18367.5703)">
		</pattern>
		<path class="st29" d="M1,246.8h46.7v12.5H1V246.8z"/>
	</g>
	<g>
		<pattern  id="SVGID_28_" xlink:href="#SVGID_18_" patternTransform="matrix(1.1565 0 0 -1.1565 2201.7256 -18367.5703)">
		</pattern>
		<path class="st30" d="M1,300.4h22.6l-8.5-6.3l-0.7-5l9.2-7.6H1V269h46.7v8.6l-17.8,14.1l17.8,12.9v8.3H1V300.4z"/>
	</g>
	<g>
		<pattern  id="SVGID_29_" xlink:href="#SVGID_19_" patternTransform="matrix(1.1565 0 0 -1.1565 2201.7256 -18367.5703)">
		</pattern>
		<path class="st31" d="M1,353.9h22.6l-8.5-6.3l-0.7-5l9.2-7.6H1v-12.5h46.7v8.6l-17.8,14.1l17.8,12.9v8.3H1V353.9z"/>
	</g>
	<g>
		<pattern  id="SVGID_30_" xlink:href="#SVGID_20_" patternTransform="matrix(1.1565 0 0 -1.1565 2201.7256 -18367.5703)">
		</pattern>
		<path class="st32" d="M24.1,374c7.2,0,13.1,2,17.7,6.1s6.9,9.6,6.9,16.6c0,7.6-2.3,13.3-7,17.1c-4.7,3.8-10.4,5.7-17,5.7
			c-7.2,0-13.2-2-17.7-6c-4.6-4-6.9-9.6-6.9-16.8c0-7.5,2.3-13.1,7-17C11.7,375.9,17.4,374,24.1,374z M24.2,386.9
			c-3.9,0-7.2,0.8-9.8,2.3s-3.9,4-3.9,7.6c0,3.2,1.2,5.7,3.5,7.4c2.4,1.7,5.9,2.6,10.6,2.6c3.9,0,7.1-0.8,9.7-2.3s3.9-4,3.9-7.5
			c0-3.1-1.3-5.6-3.8-7.4C31.8,387.8,28.4,386.9,24.2,386.9z"/>
	</g>
	<g>
		<pattern  id="SVGID_31_" xlink:href="#SVGID_21_" patternTransform="matrix(1.1565 0 0 -1.1565 2201.7256 -18367.5703)">
		</pattern>
		<path class="st33" d="M1,427.2h46.7v11.6l-25.4,18h25.4v12.5H1v-11.7l24.6-17.9H1V427.2z"/>
	</g>
	<g>
		<path d="M19.4,490.9c1.6-3.1,3.6-6.2,6.1-9.3c2.5-3.1,5.7-4.7,9.7-4.7c3.8,0,7,1.6,9.6,4.7c2.5,3.1,3.8,7.3,3.8,12.6
			c0,2.3-0.3,4.8-1,7.3s-1.6,4.7-2.9,6.5l-8.5-3.7c0.9-2.5,1.4-4.4,1.7-5.6c0.3-1.3,0.4-2.7,0.4-4.3c0-1.4-0.3-2.5-1-3.4
			c-0.7-0.8-1.4-1.2-2.3-1.2c-1,0-1.9,0.7-2.6,2.1c-0.8,1.4-1.6,3.1-2.6,5c-1.7,3.3-3.8,6.5-6.4,9.6s-5.8,4.6-9.6,4.6
			c-3.9,0-7.2-1.7-9.8-5s-3.9-7.9-3.9-13.6c0-2.4,0.4-5.1,1.1-8.1s1.6-5.4,2.7-7.3l9.4,4.1c-0.7,1.2-1.4,2.9-2,5.1s-0.9,4.1-0.9,5.8
			c0,2,0.4,3.5,1.2,4.5s1.6,1.5,2.5,1.5c0.8,0,1.7-0.8,2.7-2.3C17.6,494.4,18.5,492.7,19.4,490.9z"/>
	</g>
</g>
</svg>
