<?xml version="1.0" encoding="utf-8"?>
<!-- Generator: Adobe Illustrator 22.1.0, SVG Export Plug-In . SVG Version: 6.00 Build 0)  -->
<svg version="1.1" xmlns="http://www.w3.org/2000/svg" xmlns:xlink="http://www.w3.org/1999/xlink" x="0px" y="0px"
	 viewBox="0 0 48.8 1086" style="enable-background:new 0 0 48.8 1086;" xml:space="preserve">
<style type="text/css">
	.st0{fill:none;}
	.st1{fill:none;stroke:#231F20;stroke-width:2.16;}
	.st2{fill:none;stroke:#231F20;stroke-width:2.88;}
	.st3{fill:none;stroke:#231F20;stroke-width:3.6;}
	.st4{fill:none;stroke:#231F20;stroke-width:4.32;}
	.st5{fill:none;stroke:#231F20;stroke-width:5.04;}
	.st6{fill:none;stroke:#231F20;stroke-width:5.76;}
	.st7{fill:none;stroke:#231F20;stroke-width:6.48;}
	.st8{fill:none;stroke:#231F20;stroke-width:0.5;}
	.st9{fill:#FFFFFF;}
	.st10{fill:url(#Burlap);}
	.st11{fill:url(#SVGID_1_);}
	.st12{fill:url(#SVGID_2_);}
	.st13{fill:url(#SVGID_3_);}
	.st14{fill:url(#SVGID_4_);}
	.st15{fill:url(#SVGID_5_);}
	.st16{fill:url(#SVGID_6_);}
	.st17{fill:url(#SVGID_7_);}
	.st18{fill:url(#SVGID_8_);}
	.st19{fill:url(#SVGID_9_);}
	.st20{fill:url(#SVGID_10_);}
	.st21{fill:url(#SVGID_11_);}
	.st22{fill:url(#SVGID_12_);}
	.st23{fill:url(#SVGID_13_);}
	.st24{fill:url(#SVGID_14_);}
	.st25{fill:url(#SVGID_15_);}
	.st26{fill:url(#SVGID_16_);}
	.st27{fill:url(#SVGID_17_);}
	.st28{fill:url(#SVGID_18_);}
	.st29{fill:url(#SVGID_19_);}
	.st30{fill:url(#SVGID_20_);}
	.st31{fill:url(#SVGID_21_);}
	.st32{fill:url(#SVGID_22_);}
	.st33{fill:url(#SVGID_23_);}
	.st34{fill:url(#SVGID_24_);}
	.st35{fill:url(#SVGID_25_);}
	.st36{fill:url(#SVGID_26_);}
	.st37{fill:url(#SVGID_27_);}
	.st38{fill:url(#SVGID_28_);}
	.st39{fill:url(#SVGID_29_);}
	.st40{fill:url(#SVGID_30_);}
	.st41{fill:url(#SVGID_31_);}
	.st42{fill:url(#SVGID_32_);}
	.st43{fill:url(#SVGID_33_);}
</style>
<pattern  x="0.2" y="0" width="72" height="72" patternUnits="userSpaceOnUse" id="_x31_0_lpi_30_x25_" viewBox="72.3 -72 72 72" style="overflow:visible;">
	<g>
		<rect x="72.3" y="-72" class="st0" width="72" height="72"/>
		<g>
			<line class="st1" x1="144" y1="-3.6" x2="216.5" y2="-3.6"/>
			<line class="st1" x1="144" y1="-18" x2="216.5" y2="-18"/>
			<line class="st1" x1="144" y1="-32.4" x2="216.5" y2="-32.4"/>
			<line class="st1" x1="144" y1="-46.8" x2="216.5" y2="-46.8"/>
			<line class="st1" x1="144" y1="-61.2" x2="216.5" y2="-61.2"/>
			<line class="st1" x1="144" y1="-10.8" x2="216.5" y2="-10.8"/>
			<line class="st1" x1="144" y1="-25.2" x2="216.5" y2="-25.2"/>
			<line class="st1" x1="144" y1="-39.6" x2="216.5" y2="-39.6"/>
			<line class="st1" x1="144" y1="-54" x2="216.5" y2="-54"/>
			<line class="st1" x1="144" y1="-68.4" x2="216.5" y2="-68.4"/>
		</g>
		<g>
			<line class="st1" x1="72" y1="-3.6" x2="144.5" y2="-3.6"/>
			<line class="st1" x1="72" y1="-18" x2="144.5" y2="-18"/>
			<line class="st1" x1="72" y1="-32.4" x2="144.5" y2="-32.4"/>
			<line class="st1" x1="72" y1="-46.8" x2="144.5" y2="-46.8"/>
			<line class="st1" x1="72" y1="-61.2" x2="144.5" y2="-61.2"/>
			<line class="st1" x1="72" y1="-10.8" x2="144.5" y2="-10.8"/>
			<line class="st1" x1="72" y1="-25.2" x2="144.5" y2="-25.2"/>
			<line class="st1" x1="72" y1="-39.6" x2="144.5" y2="-39.6"/>
			<line class="st1" x1="72" y1="-54" x2="144.5" y2="-54"/>
			<line class="st1" x1="72" y1="-68.4" x2="144.5" y2="-68.4"/>
		</g>
		<g>
			<line class="st1" x1="0" y1="-3.6" x2="72.5" y2="-3.6"/>
			<line class="st1" x1="0" y1="-18" x2="72.5" y2="-18"/>
			<line class="st1" x1="0" y1="-32.4" x2="72.5" y2="-32.4"/>
			<line class="st1" x1="0" y1="-46.8" x2="72.5" y2="-46.8"/>
			<line class="st1" x1="0" y1="-61.2" x2="72.5" y2="-61.2"/>
			<line class="st1" x1="0" y1="-10.8" x2="72.5" y2="-10.8"/>
			<line class="st1" x1="0" y1="-25.2" x2="72.5" y2="-25.2"/>
			<line class="st1" x1="0" y1="-39.6" x2="72.5" y2="-39.6"/>
			<line class="st1" x1="0" y1="-54" x2="72.5" y2="-54"/>
			<line class="st1" x1="0" y1="-68.4" x2="72.5" y2="-68.4"/>
		</g>
	</g>
</pattern>
<pattern  x="0.2" y="0" width="72" height="72" patternUnits="userSpaceOnUse" id="_x31_0_lpi_40_x25_" viewBox="72.3 -72 72 72" style="overflow:visible;">
	<g>
		<rect x="72.3" y="-72" class="st0" width="72" height="72"/>
		<g>
			<line class="st2" x1="144" y1="-3.6" x2="216.5" y2="-3.6"/>
			<line class="st2" x1="144" y1="-18" x2="216.5" y2="-18"/>
			<line class="st2" x1="144" y1="-32.4" x2="216.5" y2="-32.4"/>
			<line class="st2" x1="144" y1="-46.8" x2="216.5" y2="-46.8"/>
			<line class="st2" x1="144" y1="-61.2" x2="216.5" y2="-61.2"/>
			<line class="st2" x1="144" y1="-10.8" x2="216.5" y2="-10.8"/>
			<line class="st2" x1="144" y1="-25.2" x2="216.5" y2="-25.2"/>
			<line class="st2" x1="144" y1="-39.6" x2="216.5" y2="-39.6"/>
			<line class="st2" x1="144" y1="-54" x2="216.5" y2="-54"/>
			<line class="st2" x1="144" y1="-68.4" x2="216.5" y2="-68.4"/>
		</g>
		<g>
			<line class="st2" x1="72" y1="-3.6" x2="144.5" y2="-3.6"/>
			<line class="st2" x1="72" y1="-18" x2="144.5" y2="-18"/>
			<line class="st2" x1="72" y1="-32.4" x2="144.5" y2="-32.4"/>
			<line class="st2" x1="72" y1="-46.8" x2="144.5" y2="-46.8"/>
			<line class="st2" x1="72" y1="-61.2" x2="144.5" y2="-61.2"/>
			<line class="st2" x1="72" y1="-10.8" x2="144.5" y2="-10.8"/>
			<line class="st2" x1="72" y1="-25.2" x2="144.5" y2="-25.2"/>
			<line class="st2" x1="72" y1="-39.6" x2="144.5" y2="-39.6"/>
			<line class="st2" x1="72" y1="-54" x2="144.5" y2="-54"/>
			<line class="st2" x1="72" y1="-68.4" x2="144.5" y2="-68.4"/>
		</g>
		<g>
			<line class="st2" x1="0" y1="-3.6" x2="72.5" y2="-3.6"/>
			<line class="st2" x1="0" y1="-18" x2="72.5" y2="-18"/>
			<line class="st2" x1="0" y1="-32.4" x2="72.5" y2="-32.4"/>
			<line class="st2" x1="0" y1="-46.8" x2="72.5" y2="-46.8"/>
			<line class="st2" x1="0" y1="-61.2" x2="72.5" y2="-61.2"/>
			<line class="st2" x1="0" y1="-10.8" x2="72.5" y2="-10.8"/>
			<line class="st2" x1="0" y1="-25.2" x2="72.5" y2="-25.2"/>
			<line class="st2" x1="0" y1="-39.6" x2="72.5" y2="-39.6"/>
			<line class="st2" x1="0" y1="-54" x2="72.5" y2="-54"/>
			<line class="st2" x1="0" y1="-68.4" x2="72.5" y2="-68.4"/>
		</g>
	</g>
</pattern>
<pattern  x="0.2" y="0" width="72" height="72" patternUnits="userSpaceOnUse" id="_x31_0_lpi_50_x25_" viewBox="72.3 -72 72 72" style="overflow:visible;">
	<g>
		<rect x="72.3" y="-72" class="st0" width="72" height="72"/>
		<g>
			<line class="st3" x1="144" y1="-3.6" x2="216.5" y2="-3.6"/>
			<line class="st3" x1="144" y1="-18" x2="216.5" y2="-18"/>
			<line class="st3" x1="144" y1="-32.4" x2="216.5" y2="-32.4"/>
			<line class="st3" x1="144" y1="-46.8" x2="216.5" y2="-46.8"/>
			<line class="st3" x1="144" y1="-61.2" x2="216.5" y2="-61.2"/>
			<line class="st3" x1="144" y1="-10.8" x2="216.5" y2="-10.8"/>
			<line class="st3" x1="144" y1="-25.2" x2="216.5" y2="-25.2"/>
			<line class="st3" x1="144" y1="-39.6" x2="216.5" y2="-39.6"/>
			<line class="st3" x1="144" y1="-54" x2="216.5" y2="-54"/>
			<line class="st3" x1="144" y1="-68.4" x2="216.5" y2="-68.4"/>
		</g>
		<g>
			<line class="st3" x1="72" y1="-3.6" x2="144.5" y2="-3.6"/>
			<line class="st3" x1="72" y1="-18" x2="144.5" y2="-18"/>
			<line class="st3" x1="72" y1="-32.4" x2="144.5" y2="-32.4"/>
			<line class="st3" x1="72" y1="-46.8" x2="144.5" y2="-46.8"/>
			<line class="st3" x1="72" y1="-61.2" x2="144.5" y2="-61.2"/>
			<line class="st3" x1="72" y1="-10.8" x2="144.5" y2="-10.8"/>
			<line class="st3" x1="72" y1="-25.2" x2="144.5" y2="-25.2"/>
			<line class="st3" x1="72" y1="-39.6" x2="144.5" y2="-39.6"/>
			<line class="st3" x1="72" y1="-54" x2="144.5" y2="-54"/>
			<line class="st3" x1="72" y1="-68.4" x2="144.5" y2="-68.4"/>
		</g>
		<g>
			<line class="st3" x1="0" y1="-3.6" x2="72.5" y2="-3.6"/>
			<line class="st3" x1="0" y1="-18" x2="72.5" y2="-18"/>
			<line class="st3" x1="0" y1="-32.4" x2="72.5" y2="-32.4"/>
			<line class="st3" x1="0" y1="-46.8" x2="72.5" y2="-46.8"/>
			<line class="st3" x1="0" y1="-61.2" x2="72.5" y2="-61.2"/>
			<line class="st3" x1="0" y1="-10.8" x2="72.5" y2="-10.8"/>
			<line class="st3" x1="0" y1="-25.2" x2="72.5" y2="-25.2"/>
			<line class="st3" x1="0" y1="-39.6" x2="72.5" y2="-39.6"/>
			<line class="st3" x1="0" y1="-54" x2="72.5" y2="-54"/>
			<line class="st3" x1="0" y1="-68.4" x2="72.5" y2="-68.4"/>
		</g>
	</g>
</pattern>
<pattern  x="0.2" y="0" width="72" height="72" patternUnits="userSpaceOnUse" id="_x31_0_lpi_60_x25_" viewBox="72.3 -72 72 72" style="overflow:visible;">
	<g>
		<rect x="72.3" y="-72" class="st0" width="72" height="72"/>
		<g>
			<line class="st4" x1="144" y1="-3.6" x2="216.5" y2="-3.6"/>
			<line class="st4" x1="144" y1="-18" x2="216.5" y2="-18"/>
			<line class="st4" x1="144" y1="-32.4" x2="216.5" y2="-32.4"/>
			<line class="st4" x1="144" y1="-46.8" x2="216.5" y2="-46.8"/>
			<line class="st4" x1="144" y1="-61.2" x2="216.5" y2="-61.2"/>
			<line class="st4" x1="144" y1="-10.8" x2="216.5" y2="-10.8"/>
			<line class="st4" x1="144" y1="-25.2" x2="216.5" y2="-25.2"/>
			<line class="st4" x1="144" y1="-39.6" x2="216.5" y2="-39.6"/>
			<line class="st4" x1="144" y1="-54" x2="216.5" y2="-54"/>
			<line class="st4" x1="144" y1="-68.4" x2="216.5" y2="-68.4"/>
		</g>
		<g>
			<line class="st4" x1="72" y1="-3.6" x2="144.5" y2="-3.6"/>
			<line class="st4" x1="72" y1="-18" x2="144.5" y2="-18"/>
			<line class="st4" x1="72" y1="-32.4" x2="144.5" y2="-32.4"/>
			<line class="st4" x1="72" y1="-46.8" x2="144.5" y2="-46.8"/>
			<line class="st4" x1="72" y1="-61.2" x2="144.5" y2="-61.2"/>
			<line class="st4" x1="72" y1="-10.8" x2="144.5" y2="-10.8"/>
			<line class="st4" x1="72" y1="-25.2" x2="144.5" y2="-25.2"/>
			<line class="st4" x1="72" y1="-39.6" x2="144.5" y2="-39.6"/>
			<line class="st4" x1="72" y1="-54" x2="144.5" y2="-54"/>
			<line class="st4" x1="72" y1="-68.4" x2="144.5" y2="-68.4"/>
		</g>
		<g>
			<line class="st4" x1="0" y1="-3.6" x2="72.5" y2="-3.6"/>
			<line class="st4" x1="0" y1="-18" x2="72.5" y2="-18"/>
			<line class="st4" x1="0" y1="-32.4" x2="72.5" y2="-32.4"/>
			<line class="st4" x1="0" y1="-46.8" x2="72.5" y2="-46.8"/>
			<line class="st4" x1="0" y1="-61.2" x2="72.5" y2="-61.2"/>
			<line class="st4" x1="0" y1="-10.8" x2="72.5" y2="-10.8"/>
			<line class="st4" x1="0" y1="-25.2" x2="72.5" y2="-25.2"/>
			<line class="st4" x1="0" y1="-39.6" x2="72.5" y2="-39.6"/>
			<line class="st4" x1="0" y1="-54" x2="72.5" y2="-54"/>
			<line class="st4" x1="0" y1="-68.4" x2="72.5" y2="-68.4"/>
		</g>
	</g>
</pattern>
<pattern  x="0.2" y="0" width="72" height="72" patternUnits="userSpaceOnUse" id="_x31_0_lpi_70_x25_" viewBox="72.3 -72 72 72" style="overflow:visible;">
	<g>
		<rect x="72.3" y="-72" class="st0" width="72" height="72"/>
		<g>
			<line class="st5" x1="144" y1="-3.6" x2="216.5" y2="-3.6"/>
			<line class="st5" x1="144" y1="-18" x2="216.5" y2="-18"/>
			<line class="st5" x1="144" y1="-32.4" x2="216.5" y2="-32.4"/>
			<line class="st5" x1="144" y1="-46.8" x2="216.5" y2="-46.8"/>
			<line class="st5" x1="144" y1="-61.2" x2="216.5" y2="-61.2"/>
			<line class="st5" x1="144" y1="-10.8" x2="216.5" y2="-10.8"/>
			<line class="st5" x1="144" y1="-25.2" x2="216.5" y2="-25.2"/>
			<line class="st5" x1="144" y1="-39.6" x2="216.5" y2="-39.6"/>
			<line class="st5" x1="144" y1="-54" x2="216.5" y2="-54"/>
			<line class="st5" x1="144" y1="-68.4" x2="216.5" y2="-68.4"/>
		</g>
		<g>
			<line class="st5" x1="72" y1="-3.6" x2="144.5" y2="-3.6"/>
			<line class="st5" x1="72" y1="-18" x2="144.5" y2="-18"/>
			<line class="st5" x1="72" y1="-32.4" x2="144.5" y2="-32.4"/>
			<line class="st5" x1="72" y1="-46.8" x2="144.5" y2="-46.8"/>
			<line class="st5" x1="72" y1="-61.2" x2="144.5" y2="-61.2"/>
			<line class="st5" x1="72" y1="-10.8" x2="144.5" y2="-10.8"/>
			<line class="st5" x1="72" y1="-25.2" x2="144.5" y2="-25.2"/>
			<line class="st5" x1="72" y1="-39.6" x2="144.5" y2="-39.6"/>
			<line class="st5" x1="72" y1="-54" x2="144.5" y2="-54"/>
			<line class="st5" x1="72" y1="-68.4" x2="144.5" y2="-68.4"/>
		</g>
		<g>
			<line class="st5" x1="0" y1="-3.6" x2="72.5" y2="-3.6"/>
			<line class="st5" x1="0" y1="-18" x2="72.5" y2="-18"/>
			<line class="st5" x1="0" y1="-32.4" x2="72.5" y2="-32.4"/>
			<line class="st5" x1="0" y1="-46.8" x2="72.5" y2="-46.8"/>
			<line class="st5" x1="0" y1="-61.2" x2="72.5" y2="-61.2"/>
			<line class="st5" x1="0" y1="-10.8" x2="72.5" y2="-10.8"/>
			<line class="st5" x1="0" y1="-25.2" x2="72.5" y2="-25.2"/>
			<line class="st5" x1="0" y1="-39.6" x2="72.5" y2="-39.6"/>
			<line class="st5" x1="0" y1="-54" x2="72.5" y2="-54"/>
			<line class="st5" x1="0" y1="-68.4" x2="72.5" y2="-68.4"/>
		</g>
	</g>
</pattern>
<pattern  x="0.2" y="0" width="72" height="72" patternUnits="userSpaceOnUse" id="_x31_0_lpi_80_x25_" viewBox="72.3 -72 72 72" style="overflow:visible;">
	<g>
		<rect x="72.3" y="-72" class="st0" width="72" height="72"/>
		<g>
			<line class="st6" x1="144" y1="-3.6" x2="216.5" y2="-3.6"/>
			<line class="st6" x1="144" y1="-18" x2="216.5" y2="-18"/>
			<line class="st6" x1="144" y1="-32.4" x2="216.5" y2="-32.4"/>
			<line class="st6" x1="144" y1="-46.8" x2="216.5" y2="-46.8"/>
			<line class="st6" x1="144" y1="-61.2" x2="216.5" y2="-61.2"/>
			<line class="st6" x1="144" y1="-10.8" x2="216.5" y2="-10.8"/>
			<line class="st6" x1="144" y1="-25.2" x2="216.5" y2="-25.2"/>
			<line class="st6" x1="144" y1="-39.6" x2="216.5" y2="-39.6"/>
			<line class="st6" x1="144" y1="-54" x2="216.5" y2="-54"/>
			<line class="st6" x1="144" y1="-68.4" x2="216.5" y2="-68.4"/>
		</g>
		<g>
			<line class="st6" x1="72" y1="-3.6" x2="144.5" y2="-3.6"/>
			<line class="st6" x1="72" y1="-18" x2="144.5" y2="-18"/>
			<line class="st6" x1="72" y1="-32.4" x2="144.5" y2="-32.4"/>
			<line class="st6" x1="72" y1="-46.8" x2="144.5" y2="-46.8"/>
			<line class="st6" x1="72" y1="-61.2" x2="144.5" y2="-61.2"/>
			<line class="st6" x1="72" y1="-10.8" x2="144.5" y2="-10.8"/>
			<line class="st6" x1="72" y1="-25.2" x2="144.5" y2="-25.2"/>
			<line class="st6" x1="72" y1="-39.6" x2="144.5" y2="-39.6"/>
			<line class="st6" x1="72" y1="-54" x2="144.5" y2="-54"/>
			<line class="st6" x1="72" y1="-68.4" x2="144.5" y2="-68.4"/>
		</g>
		<g>
			<line class="st6" x1="0" y1="-3.6" x2="72.5" y2="-3.6"/>
			<line class="st6" x1="0" y1="-18" x2="72.5" y2="-18"/>
			<line class="st6" x1="0" y1="-32.4" x2="72.5" y2="-32.4"/>
			<line class="st6" x1="0" y1="-46.8" x2="72.5" y2="-46.8"/>
			<line class="st6" x1="0" y1="-61.2" x2="72.5" y2="-61.2"/>
			<line class="st6" x1="0" y1="-10.8" x2="72.5" y2="-10.8"/>
			<line class="st6" x1="0" y1="-25.2" x2="72.5" y2="-25.2"/>
			<line class="st6" x1="0" y1="-39.6" x2="72.5" y2="-39.6"/>
			<line class="st6" x1="0" y1="-54" x2="72.5" y2="-54"/>
			<line class="st6" x1="0" y1="-68.4" x2="72.5" y2="-68.4"/>
		</g>
	</g>
</pattern>
<pattern  x="0.2" y="0" width="72" height="72" patternUnits="userSpaceOnUse" id="_x31_0_lpi_90_x25_" viewBox="72.3 -72 72 72" style="overflow:visible;">
	<g>
		<rect x="72.3" y="-72" class="st0" width="72" height="72"/>
		<g>
			<line class="st7" x1="144" y1="-3.6" x2="216.5" y2="-3.6"/>
			<line class="st7" x1="144" y1="-18" x2="216.5" y2="-18"/>
			<line class="st7" x1="144" y1="-32.4" x2="216.5" y2="-32.4"/>
			<line class="st7" x1="144" y1="-46.8" x2="216.5" y2="-46.8"/>
			<line class="st7" x1="144" y1="-61.2" x2="216.5" y2="-61.2"/>
			<line class="st7" x1="144" y1="-10.8" x2="216.5" y2="-10.8"/>
			<line class="st7" x1="144" y1="-25.2" x2="216.5" y2="-25.2"/>
			<line class="st7" x1="144" y1="-39.6" x2="216.5" y2="-39.6"/>
			<line class="st7" x1="144" y1="-54" x2="216.5" y2="-54"/>
			<line class="st7" x1="144" y1="-68.4" x2="216.5" y2="-68.4"/>
		</g>
		<g>
			<line class="st7" x1="72" y1="-3.6" x2="144.5" y2="-3.6"/>
			<line class="st7" x1="72" y1="-18" x2="144.5" y2="-18"/>
			<line class="st7" x1="72" y1="-32.4" x2="144.5" y2="-32.4"/>
			<line class="st7" x1="72" y1="-46.8" x2="144.5" y2="-46.8"/>
			<line class="st7" x1="72" y1="-61.2" x2="144.5" y2="-61.2"/>
			<line class="st7" x1="72" y1="-10.8" x2="144.5" y2="-10.8"/>
			<line class="st7" x1="72" y1="-25.2" x2="144.5" y2="-25.2"/>
			<line class="st7" x1="72" y1="-39.6" x2="144.5" y2="-39.6"/>
			<line class="st7" x1="72" y1="-54" x2="144.5" y2="-54"/>
			<line class="st7" x1="72" y1="-68.4" x2="144.5" y2="-68.4"/>
		</g>
		<g>
			<line class="st7" x1="0" y1="-3.6" x2="72.5" y2="-3.6"/>
			<line class="st7" x1="0" y1="-18" x2="72.5" y2="-18"/>
			<line class="st7" x1="0" y1="-32.4" x2="72.5" y2="-32.4"/>
			<line class="st7" x1="0" y1="-46.8" x2="72.5" y2="-46.8"/>
			<line class="st7" x1="0" y1="-61.2" x2="72.5" y2="-61.2"/>
			<line class="st7" x1="0" y1="-10.8" x2="72.5" y2="-10.8"/>
			<line class="st7" x1="0" y1="-25.2" x2="72.5" y2="-25.2"/>
			<line class="st7" x1="0" y1="-39.6" x2="72.5" y2="-39.6"/>
			<line class="st7" x1="0" y1="-54" x2="72.5" y2="-54"/>
			<line class="st7" x1="0" y1="-68.4" x2="72.5" y2="-68.4"/>
		</g>
	</g>
</pattern>
<pattern  x="0.2" y="0" width="72" height="72" patternUnits="userSpaceOnUse" id="Burlap" viewBox="12.8 -83 72 72" style="overflow:visible;">
	<g>
		<rect x="12.8" y="-83" class="st0" width="72" height="72"/>
		<g>
			<line class="st8" x1="83.2" y1="-10.8" x2="97.8" y2="-10.8"/>
		</g>
		<g>
			<line class="st8" x1="11.2" y1="-10.8" x2="25.8" y2="-10.8"/>
		</g>
		<g>
			<line class="st8" x1="81.3" y1="-76" x2="96" y2="-76"/>
			<line class="st8" x1="79.7" y1="-69.3" x2="94.3" y2="-69.3"/>
			<line class="st8" x1="83.2" y1="-82.8" x2="97.8" y2="-82.8"/>
			<line class="st8" x1="84.2" y1="-52" x2="98.8" y2="-52"/>
			<line class="st8" x1="88.7" y1="-80.2" x2="74" y2="-80.2"/>
			<line class="st8" x1="92.2" y1="-74.7" x2="77.5" y2="-74.7"/>
			<line class="st8" x1="74.3" y1="-66.5" x2="89" y2="-66.5"/>
			<line class="st8" x1="78" y1="-17.5" x2="92.7" y2="-17.5"/>
			<line class="st8" x1="74.3" y1="-12.8" x2="89" y2="-12.8"/>
			<line class="st8" x1="79.7" y1="-14.8" x2="94.3" y2="-14.8"/>
			<line class="st8" x1="75" y1="-19.8" x2="89.7" y2="-19.8"/>
			<line class="st8" x1="79.7" y1="-28.5" x2="94.3" y2="-28.5"/>
			<line class="st8" x1="76.3" y1="-24.2" x2="91" y2="-24.2"/>
			<line class="st8" x1="89.8" y1="-59.7" x2="75.2" y2="-59.7"/>
			<line class="st8" x1="90.3" y1="-56.2" x2="75.7" y2="-56.2"/>
			<line class="st8" x1="93.3" y1="-54.2" x2="78.7" y2="-54.2"/>
			<line class="st8" x1="79" y1="-64.3" x2="93.7" y2="-64.3"/>
			<line class="st8" x1="89.5" y1="-50.2" x2="74.8" y2="-50.2"/>
			<line class="st8" x1="93.5" y1="-48.2" x2="78.8" y2="-48.2"/>
			<line class="st8" x1="87.8" y1="-45.8" x2="73.2" y2="-45.8"/>
			<line class="st8" x1="76" y1="-31.5" x2="90.7" y2="-31.5"/>
			<line class="st8" x1="78" y1="-35.8" x2="92.7" y2="-35.8"/>
			<line class="st8" x1="78" y1="-41.2" x2="92.7" y2="-41.2"/>
			<line class="st8" x1="80.7" y1="-38.5" x2="95.3" y2="-38.5"/>
			<line class="st8" x1="82.7" y1="-43.5" x2="97.3" y2="-43.5"/>
		</g>
		<g>
			<line class="st8" x1="22.5" y1="-77.3" x2="22.5" y2="-62.7"/>
			<line class="st8" x1="25" y1="-74.3" x2="25" y2="-59.7"/>
			<line class="st8" x1="21.3" y1="-64.7" x2="21.3" y2="-50"/>
			<line class="st8" x1="28.7" y1="-64.3" x2="28.7" y2="-49.7"/>
			<line class="st8" x1="19" y1="-71.3" x2="19" y2="-56.7"/>
			<line class="st8" x1="31" y1="-74.3" x2="31" y2="-59.7"/>
			<line class="st8" x1="36.5" y1="-74.3" x2="36.5" y2="-59.7"/>
			<line class="st8" x1="37.8" y1="-70.7" x2="37.8" y2="-56"/>
			<line class="st8" x1="34" y1="-79.8" x2="34" y2="-65.2"/>
			<line class="st8" x1="27.5" y1="-77.8" x2="27.5" y2="-63.2"/>
			<line class="st8" x1="14" y1="-72" x2="28.7" y2="-72"/>
			<line class="st8" x1="9.3" y1="-76" x2="24" y2="-76"/>
			<line class="st8" x1="7.7" y1="-69.3" x2="22.3" y2="-69.3"/>
			<line class="st8" x1="26" y1="-75.7" x2="40.7" y2="-75.7"/>
			<line class="st8" x1="20.8" y1="-73.8" x2="35.5" y2="-73.8"/>
			<line class="st8" x1="24.5" y1="-65.7" x2="39.2" y2="-65.7"/>
			<line class="st8" x1="17.8" y1="-68.2" x2="32.5" y2="-68.2"/>
			<line class="st8" x1="51.3" y1="-73" x2="51.3" y2="-58.3"/>
			<line class="st8" x1="48.8" y1="-70" x2="48.8" y2="-55.3"/>
			<line class="st8" x1="54.8" y1="-67" x2="54.8" y2="-52.3"/>
			<line class="st8" x1="56.2" y1="-59.7" x2="56.2" y2="-45"/>
			<line class="st8" x1="57.5" y1="-67" x2="57.5" y2="-52.3"/>
			<line class="st8" x1="42.8" y1="-70" x2="42.8" y2="-55.3"/>
			<line class="st8" x1="32.7" y1="-66.7" x2="32.7" y2="-52"/>
			<line class="st8" x1="41.2" y1="-76.5" x2="41.2" y2="-61.8"/>
			<line class="st8" x1="39.5" y1="-79.8" x2="39.5" y2="-65.2"/>
			<line class="st8" x1="46.3" y1="-74.8" x2="46.3" y2="-60.2"/>
			<line class="st8" x1="54.8" y1="-68.3" x2="40.2" y2="-68.3"/>
			<line class="st8" x1="46.5" y1="-70.3" x2="31.8" y2="-70.3"/>
			<line class="st8" x1="55.3" y1="-64.8" x2="40.7" y2="-64.8"/>
			<line class="st8" x1="49.7" y1="-61" x2="35" y2="-61"/>
			<line class="st8" x1="58.3" y1="-62.8" x2="43.7" y2="-62.8"/>
			<line class="st8" x1="83.7" y1="-81.8" x2="83.7" y2="-67.2"/>
			<line class="st8" x1="79" y1="-81.8" x2="79" y2="-67.2"/>
			<line class="st8" x1="71.2" y1="-81.8" x2="71.2" y2="-67.2"/>
			<line class="st8" x1="88.7" y1="-80.2" x2="74" y2="-80.2"/>
			<line class="st8" x1="87.2" y1="-77.7" x2="72.5" y2="-77.7"/>
			<line class="st8" x1="83.2" y1="-73.2" x2="68.5" y2="-73.2"/>
			<line class="st8" x1="75.2" y1="-74.5" x2="60.5" y2="-74.5"/>
			<line class="st8" x1="92.2" y1="-74.7" x2="77.5" y2="-74.7"/>
			<line class="st8" x1="54.3" y1="-80.5" x2="54.3" y2="-65.8"/>
			<line class="st8" x1="58.8" y1="-77.5" x2="58.8" y2="-62.8"/>
			<line class="st8" x1="52.8" y1="-74.5" x2="52.8" y2="-59.8"/>
			<line class="st8" x1="65.5" y1="-78.2" x2="65.5" y2="-63.5"/>
			<line class="st8" x1="75" y1="-74.2" x2="75" y2="-59.5"/>
			<line class="st8" x1="67.8" y1="-83" x2="67.8" y2="-68.3"/>
			<line class="st8" x1="63" y1="-82" x2="63" y2="-67.3"/>
			<line class="st8" x1="52.7" y1="-80.7" x2="67.3" y2="-80.7"/>
			<line class="st8" x1="59.8" y1="-78.8" x2="74.5" y2="-78.8"/>
			<line class="st8" x1="51.5" y1="-77.2" x2="66.2" y2="-77.2"/>
			<line class="st8" x1="52.3" y1="-72.3" x2="67" y2="-72.3"/>
			<line class="st8" x1="58" y1="-67.5" x2="72.7" y2="-67.5"/>
			<line class="st8" x1="61.7" y1="-69.5" x2="76.3" y2="-69.5"/>
			<line class="st8" x1="49.3" y1="-70.3" x2="64" y2="-70.3"/>
			<line class="st8" x1="44.3" y1="-81.3" x2="44.3" y2="-66.7"/>
			<line class="st8" x1="42.7" y1="-82" x2="42.7" y2="-67.3"/>
			<line class="st8" x1="36.7" y1="-81.3" x2="36.7" y2="-66.7"/>
			<line class="st8" x1="14.8" y1="-44.7" x2="14.8" y2="-30"/>
			<line class="st8" x1="14.3" y1="-61.2" x2="14.3" y2="-46.5"/>
			<line class="st8" x1="15.5" y1="-73.2" x2="15.5" y2="-58.5"/>
			<line class="st8" x1="13.5" y1="-75.7" x2="13.5" y2="-61"/>
			<line class="st8" x1="11.2" y1="-82.8" x2="25.8" y2="-82.8"/>
			<line class="st8" x1="19.5" y1="-81.2" x2="34.2" y2="-81.2"/>
			<line class="st8" x1="14" y1="-78.7" x2="28.7" y2="-78.7"/>
			<line class="st8" x1="36" y1="-78" x2="50.7" y2="-78"/>
			<line class="st8" x1="31" y1="-79.3" x2="45.7" y2="-79.3"/>
			<line class="st8" x1="33" y1="-82" x2="47.7" y2="-82"/>
			<line class="st8" x1="38.3" y1="-73.7" x2="53" y2="-73.7"/>
			<line class="st8" x1="54.5" y1="-58.8" x2="39.8" y2="-58.8"/>
			<line class="st8" x1="58.5" y1="-56.8" x2="43.8" y2="-56.8"/>
			<line class="st8" x1="52.8" y1="-54.5" x2="38.2" y2="-54.5"/>
			<line class="st8" x1="31" y1="-48.7" x2="31" y2="-34"/>
			<line class="st8" x1="34.5" y1="-42.7" x2="34.5" y2="-28"/>
			<line class="st8" x1="28.8" y1="-46.3" x2="14.2" y2="-46.3"/>
			<line class="st8" x1="39.8" y1="-42.3" x2="25.2" y2="-42.3"/>
			<line class="st8" x1="35" y1="-40.5" x2="20.3" y2="-40.5"/>
			<line class="st8" x1="38" y1="-38.5" x2="23.3" y2="-38.5"/>
			<line class="st8" x1="50.8" y1="-57.5" x2="50.8" y2="-42.8"/>
			<line class="st8" x1="52.2" y1="-51.7" x2="52.2" y2="-37"/>
			<line class="st8" x1="36" y1="-56.2" x2="36" y2="-41.5"/>
			<line class="st8" x1="39.2" y1="-61.5" x2="39.2" y2="-46.8"/>
			<line class="st8" x1="44.5" y1="-53.2" x2="44.5" y2="-38.5"/>
			<line class="st8" x1="47.5" y1="-58.7" x2="47.5" y2="-44"/>
			<line class="st8" x1="45.8" y1="-59" x2="45.8" y2="-44.3"/>
			<line class="st8" x1="41" y1="-56.7" x2="41" y2="-42"/>
			<line class="st8" x1="37.7" y1="-43.2" x2="52.3" y2="-43.2"/>
			<line class="st8" x1="40.3" y1="-41.8" x2="55" y2="-41.8"/>
			<line class="st8" x1="43" y1="-44.5" x2="57.7" y2="-44.5"/>
			<line class="st8" x1="43" y1="-49.8" x2="57.7" y2="-49.8"/>
			<line class="st8" x1="45.7" y1="-47.2" x2="60.3" y2="-47.2"/>
			<line class="st8" x1="59" y1="-49.8" x2="73.7" y2="-49.8"/>
			<line class="st8" x1="47.7" y1="-52.2" x2="62.3" y2="-52.2"/>
			<line class="st8" x1="74.3" y1="-66.5" x2="89" y2="-66.5"/>
			<line class="st8" x1="58.3" y1="-59.5" x2="73" y2="-59.5"/>
			<line class="st8" x1="56.3" y1="-61.8" x2="71" y2="-61.8"/>
			<line class="st8" x1="29" y1="-46" x2="43.7" y2="-46"/>
			<line class="st8" x1="29.3" y1="-48" x2="44" y2="-48"/>
			<line class="st8" x1="43.2" y1="-37.2" x2="28.5" y2="-37.2"/>
			<line class="st8" x1="34.8" y1="-62.2" x2="34.8" y2="-47.5"/>
			<line class="st8" x1="32.7" y1="-65.7" x2="32.7" y2="-51"/>
			<line class="st8" x1="23.7" y1="-57" x2="38.3" y2="-57"/>
			<line class="st8" x1="16.7" y1="-58.3" x2="31.3" y2="-58.3"/>
			<line class="st8" x1="18.3" y1="-60.3" x2="33" y2="-60.3"/>
			<line class="st8" x1="17" y1="-63" x2="31.7" y2="-63"/>
			<line class="st8" x1="26.3" y1="-63" x2="41" y2="-63"/>
			<line class="st8" x1="19.8" y1="-39.3" x2="19.8" y2="-24.7"/>
			<line class="st8" x1="22.3" y1="-36.3" x2="22.3" y2="-21.7"/>
			<line class="st8" x1="18.7" y1="-26.7" x2="18.7" y2="-12"/>
			<line class="st8" x1="15.7" y1="-29" x2="15.7" y2="-14.3"/>
			<line class="st8" x1="26" y1="-26.3" x2="26" y2="-11.7"/>
			<line class="st8" x1="28.3" y1="-36.3" x2="28.3" y2="-21.7"/>
			<line class="st8" x1="37.8" y1="-44.7" x2="37.8" y2="-30"/>
			<line class="st8" x1="71.3" y1="-23" x2="71.3" y2="-8.3"/>
			<line class="st8" x1="74.2" y1="-35.7" x2="74.2" y2="-21"/>
			<line class="st8" x1="70.8" y1="-19" x2="56.2" y2="-19"/>
			<line class="st8" x1="75.3" y1="-14.8" x2="60.7" y2="-14.8"/>
			<line class="st8" x1="72.7" y1="-12.8" x2="58" y2="-12.8"/>
			<line class="st8" x1="76.7" y1="-16.5" x2="62" y2="-16.5"/>
			<line class="st8" x1="76.3" y1="-30.5" x2="76.3" y2="-15.8"/>
			<line class="st8" x1="72.8" y1="-24.5" x2="72.8" y2="-9.8"/>
			<line class="st8" x1="61.5" y1="-35.2" x2="61.5" y2="-20.5"/>
			<line class="st8" x1="59.8" y1="-32.5" x2="59.8" y2="-17.8"/>
			<line class="st8" x1="57.8" y1="-26.7" x2="57.8" y2="-12"/>
			<line class="st8" x1="80" y1="-28.7" x2="80" y2="-14"/>
			<line class="st8" x1="81.7" y1="-34.7" x2="81.7" y2="-20"/>
			<line class="st8" x1="84" y1="-37" x2="84" y2="-22.3"/>
			<line class="st8" x1="78" y1="-17.5" x2="92.7" y2="-17.5"/>
			<line class="st8" x1="74.3" y1="-12.8" x2="89" y2="-12.8"/>
			<line class="st8" x1="79.7" y1="-14.8" x2="94.3" y2="-14.8"/>
			<line class="st8" x1="75" y1="-19.8" x2="89.7" y2="-19.8"/>
			<line class="st8" x1="72" y1="-26.5" x2="86.7" y2="-26.5"/>
			<line class="st8" x1="79.7" y1="-28.5" x2="94.3" y2="-28.5"/>
			<line class="st8" x1="76.3" y1="-24.2" x2="91" y2="-24.2"/>
			<line class="st8" x1="78.2" y1="-19" x2="78.2" y2="-4.3"/>
			<line class="st8" x1="82.5" y1="-21.7" x2="82.5" y2="-7"/>
			<line class="st8" x1="16.3" y1="-34.7" x2="31" y2="-34.7"/>
			<line class="st8" x1="21" y1="-15.3" x2="35.7" y2="-15.3"/>
			<line class="st8" x1="17.8" y1="-32.2" x2="32.5" y2="-32.2"/>
			<line class="st8" x1="21.8" y1="-27.7" x2="36.5" y2="-27.7"/>
			<line class="st8" x1="32.8" y1="-30.7" x2="47.5" y2="-30.7"/>
			<line class="st8" x1="13.7" y1="-30.5" x2="28.3" y2="-30.5"/>
			<line class="st8" x1="30.5" y1="-31" x2="30.5" y2="-16.3"/>
			<line class="st8" x1="45.2" y1="-33.3" x2="30.5" y2="-33.3"/>
			<line class="st8" x1="47" y1="-23" x2="32.3" y2="-23"/>
			<line class="st8" x1="48.7" y1="-21.3" x2="34" y2="-21.3"/>
			<line class="st8" x1="47.2" y1="-26.3" x2="32.5" y2="-26.3"/>
			<line class="st8" x1="51.8" y1="-29" x2="37.2" y2="-29"/>
			<line class="st8" x1="32.2" y1="-24.2" x2="32.2" y2="-9.5"/>
			<line class="st8" x1="25.3" y1="-45" x2="25.3" y2="-30.3"/>
			<line class="st8" x1="23.7" y1="-50.3" x2="23.7" y2="-35.7"/>
			<line class="st8" x1="26.7" y1="-53.3" x2="26.7" y2="-38.7"/>
			<line class="st8" x1="21.3" y1="-51.7" x2="21.3" y2="-37"/>
			<line class="st8" x1="17.7" y1="-50.7" x2="17.7" y2="-36"/>
			<line class="st8" x1="19.7" y1="-55.3" x2="19.7" y2="-40.7"/>
			<line class="st8" x1="21" y1="-19" x2="35.7" y2="-19"/>
			<line class="st8" x1="13.8" y1="-20.7" x2="28.5" y2="-20.7"/>
			<line class="st8" x1="15.7" y1="-22.3" x2="30.3" y2="-22.3"/>
			<line class="st8" x1="42.3" y1="-33" x2="42.3" y2="-18.3"/>
			<line class="st8" x1="39.3" y1="-40" x2="39.3" y2="-25.3"/>
			<line class="st8" x1="38.7" y1="-23.3" x2="38.7" y2="-8.7"/>
			<line class="st8" x1="46" y1="-23" x2="46" y2="-8.3"/>
			<line class="st8" x1="36.3" y1="-30" x2="36.3" y2="-15.3"/>
			<line class="st8" x1="48.3" y1="-33" x2="48.3" y2="-18.3"/>
			<line class="st8" x1="43.8" y1="-24.2" x2="43.8" y2="-9.5"/>
			<line class="st8" x1="40.8" y1="-28.2" x2="40.8" y2="-13.5"/>
			<line class="st8" x1="41" y1="-12" x2="55.7" y2="-12"/>
			<line class="st8" x1="43" y1="-14.3" x2="57.7" y2="-14.3"/>
			<line class="st8" x1="50" y1="-25.3" x2="50" y2="-10.7"/>
			<line class="st8" x1="45.3" y1="-37.7" x2="45.3" y2="-23"/>
			<line class="st8" x1="67.8" y1="-25.3" x2="67.8" y2="-10.7"/>
			<line class="st8" x1="60.8" y1="-17.3" x2="60.8" y2="-2.7"/>
			<line class="st8" x1="47" y1="-42.3" x2="47" y2="-27.7"/>
			<line class="st8" x1="41" y1="-15.7" x2="55.7" y2="-15.7"/>
			<line class="st8" x1="34" y1="-17" x2="48.7" y2="-17"/>
			<line class="st8" x1="26" y1="-13.7" x2="40.7" y2="-13.7"/>
			<line class="st8" x1="20.7" y1="-12.3" x2="35.3" y2="-12.3"/>
			<line class="st8" x1="35.7" y1="-19" x2="50.3" y2="-19"/>
			<line class="st8" x1="14.3" y1="-25" x2="29" y2="-25"/>
			<line class="st8" x1="23.7" y1="-25" x2="38.3" y2="-25"/>
			<line class="st8" x1="29.3" y1="-52.2" x2="44" y2="-52.2"/>
			<line class="st8" x1="20.7" y1="-55" x2="35.3" y2="-55"/>
			<line class="st8" x1="19.5" y1="-49.7" x2="34.2" y2="-49.7"/>
			<line class="st8" x1="12.2" y1="-52" x2="26.8" y2="-52"/>
			<line class="st8" x1="60" y1="-65.7" x2="60" y2="-51"/>
			<line class="st8" x1="63.7" y1="-55.7" x2="63.7" y2="-41"/>
			<line class="st8" x1="65.7" y1="-63" x2="65.7" y2="-48.3"/>
			<line class="st8" x1="71.5" y1="-65.7" x2="71.5" y2="-51"/>
			<line class="st8" x1="72.8" y1="-62" x2="72.8" y2="-47.3"/>
			<line class="st8" x1="69" y1="-71.2" x2="69" y2="-56.5"/>
			<line class="st8" x1="61.5" y1="-69.2" x2="61.5" y2="-54.5"/>
			<line class="st8" x1="59.5" y1="-57" x2="74.2" y2="-57"/>
			<line class="st8" x1="53.2" y1="-34.7" x2="53.2" y2="-20"/>
			<line class="st8" x1="54.5" y1="-27.3" x2="54.5" y2="-12.7"/>
			<line class="st8" x1="51.2" y1="-37.7" x2="51.2" y2="-23"/>
			<line class="st8" x1="55.8" y1="-34.7" x2="55.8" y2="-20"/>
			<line class="st8" x1="77.8" y1="-61.3" x2="77.8" y2="-46.7"/>
			<line class="st8" x1="67.7" y1="-58" x2="67.7" y2="-43.3"/>
			<line class="st8" x1="76.2" y1="-67.8" x2="76.2" y2="-53.2"/>
			<line class="st8" x1="79.8" y1="-72.5" x2="79.8" y2="-57.8"/>
			<line class="st8" x1="81.3" y1="-70.3" x2="81.3" y2="-55.7"/>
			<line class="st8" x1="83.3" y1="-65.5" x2="83.3" y2="-50.8"/>
			<line class="st8" x1="89.8" y1="-59.7" x2="75.2" y2="-59.7"/>
			<line class="st8" x1="82.8" y1="-62.7" x2="68.2" y2="-62.7"/>
			<line class="st8" x1="77.2" y1="-65" x2="62.5" y2="-65"/>
			<line class="st8" x1="81.5" y1="-71.3" x2="66.8" y2="-71.3"/>
			<line class="st8" x1="90.3" y1="-56.2" x2="75.7" y2="-56.2"/>
			<line class="st8" x1="84.7" y1="-52.3" x2="70" y2="-52.3"/>
			<line class="st8" x1="93.3" y1="-54.2" x2="78.7" y2="-54.2"/>
			<line class="st8" x1="54.7" y1="-48.2" x2="54.7" y2="-33.5"/>
			<line class="st8" x1="57.2" y1="-45.2" x2="57.2" y2="-30.5"/>
			<line class="st8" x1="72.5" y1="-42.2" x2="72.5" y2="-27.5"/>
			<line class="st8" x1="59.7" y1="-48.7" x2="59.7" y2="-34"/>
			<line class="st8" x1="50.7" y1="-40" x2="65.3" y2="-40"/>
			<line class="st8" x1="56.3" y1="-35.2" x2="71" y2="-35.2"/>
			<line class="st8" x1="79" y1="-64.3" x2="93.7" y2="-64.3"/>
			<line class="st8" x1="89.5" y1="-50.2" x2="74.8" y2="-50.2"/>
			<line class="st8" x1="93.5" y1="-48.2" x2="78.8" y2="-48.2"/>
			<line class="st8" x1="87.8" y1="-45.8" x2="73.2" y2="-45.8"/>
			<line class="st8" x1="66" y1="-40" x2="66" y2="-25.3"/>
			<line class="st8" x1="69.5" y1="-34" x2="69.5" y2="-19.3"/>
			<line class="st8" x1="65.5" y1="-26.3" x2="65.5" y2="-11.7"/>
			<line class="st8" x1="63.2" y1="-28.7" x2="63.2" y2="-14"/>
			<line class="st8" x1="73" y1="-29.8" x2="58.3" y2="-29.8"/>
			<line class="st8" x1="65" y1="-32.5" x2="50.3" y2="-32.5"/>
			<line class="st8" x1="54.7" y1="-35.5" x2="40" y2="-35.5"/>
			<line class="st8" x1="64.8" y1="-51.2" x2="64.8" y2="-36.5"/>
			<line class="st8" x1="51.8" y1="-19.3" x2="51.8" y2="-4.7"/>
			<line class="st8" x1="77.8" y1="-36.2" x2="77.8" y2="-21.5"/>
			<line class="st8" x1="71" y1="-47.5" x2="71" y2="-32.8"/>
			<line class="st8" x1="74.2" y1="-52.8" x2="74.2" y2="-38.2"/>
			<line class="st8" x1="67.5" y1="-41.5" x2="67.5" y2="-26.8"/>
			<line class="st8" x1="79.5" y1="-44.5" x2="79.5" y2="-29.8"/>
			<line class="st8" x1="82.5" y1="-50" x2="82.5" y2="-35.3"/>
			<line class="st8" x1="80.8" y1="-50.3" x2="80.8" y2="-35.7"/>
			<line class="st8" x1="76" y1="-48" x2="76" y2="-33.3"/>
			<line class="st8" x1="72.7" y1="-34.5" x2="87.3" y2="-34.5"/>
			<line class="st8" x1="76" y1="-31.5" x2="90.7" y2="-31.5"/>
			<line class="st8" x1="78" y1="-35.8" x2="92.7" y2="-35.8"/>
			<line class="st8" x1="78" y1="-41.2" x2="92.7" y2="-41.2"/>
			<line class="st8" x1="80.7" y1="-38.5" x2="95.3" y2="-38.5"/>
			<line class="st8" x1="82.7" y1="-43.5" x2="97.3" y2="-43.5"/>
			<line class="st8" x1="51" y1="-21.2" x2="65.7" y2="-21.2"/>
			<line class="st8" x1="55.3" y1="-23.8" x2="70" y2="-23.8"/>
			<line class="st8" x1="54.7" y1="-28.5" x2="69.3" y2="-28.5"/>
			<line class="st8" x1="39" y1="-38.5" x2="53.7" y2="-38.5"/>
			<line class="st8" x1="64" y1="-37.3" x2="78.7" y2="-37.3"/>
			<line class="st8" x1="64.3" y1="-39.3" x2="79" y2="-39.3"/>
			<line class="st8" x1="69.8" y1="-53.5" x2="69.8" y2="-38.8"/>
			<line class="st8" x1="67.7" y1="-57" x2="67.7" y2="-42.3"/>
			<line class="st8" x1="61.3" y1="-51.3" x2="61.3" y2="-36.7"/>
			<line class="st8" x1="58.7" y1="-45.7" x2="73.3" y2="-45.7"/>
			<line class="st8" x1="61.3" y1="-54.3" x2="76" y2="-54.3"/>
			<line class="st8" x1="64.3" y1="-43.5" x2="79" y2="-43.5"/>
			<line class="st8" x1="81.3" y1="-76" x2="96" y2="-76"/>
			<line class="st8" x1="79.7" y1="-69.3" x2="94.3" y2="-69.3"/>
			<line class="st8" x1="16.7" y1="-80.2" x2="2" y2="-80.2"/>
			<line class="st8" x1="20.2" y1="-74.7" x2="5.5" y2="-74.7"/>
			<line class="st8" x1="2.3" y1="-66.5" x2="17" y2="-66.5"/>
			<line class="st8" x1="6" y1="-17.5" x2="20.7" y2="-17.5"/>
			<line class="st8" x1="2.3" y1="-12.8" x2="17" y2="-12.8"/>
			<line class="st8" x1="7.7" y1="-14.8" x2="22.3" y2="-14.8"/>
			<line class="st8" x1="3" y1="-19.8" x2="17.7" y2="-19.8"/>
			<line class="st8" x1="7.7" y1="-28.5" x2="22.3" y2="-28.5"/>
			<line class="st8" x1="4.3" y1="-24.2" x2="19" y2="-24.2"/>
			<line class="st8" x1="17.8" y1="-59.7" x2="3.2" y2="-59.7"/>
			<line class="st8" x1="18.3" y1="-56.2" x2="3.7" y2="-56.2"/>
			<line class="st8" x1="21.3" y1="-54.2" x2="6.7" y2="-54.2"/>
			<line class="st8" x1="7" y1="-64.3" x2="21.7" y2="-64.3"/>
			<line class="st8" x1="17.5" y1="-50.2" x2="2.8" y2="-50.2"/>
			<line class="st8" x1="21.5" y1="-48.2" x2="6.8" y2="-48.2"/>
			<line class="st8" x1="15.8" y1="-45.8" x2="1.2" y2="-45.8"/>
			<line class="st8" x1="4" y1="-31.5" x2="18.7" y2="-31.5"/>
			<line class="st8" x1="6" y1="-35.8" x2="20.7" y2="-35.8"/>
			<line class="st8" x1="6" y1="-41.2" x2="20.7" y2="-41.2"/>
			<line class="st8" x1="8.7" y1="-38.5" x2="23.3" y2="-38.5"/>
			<line class="st8" x1="10.7" y1="-43.5" x2="25.3" y2="-43.5"/>
			<line class="st8" x1="25.8" y1="-18.2" x2="25.8" y2="-3.5"/>
			<line class="st8" x1="23.2" y1="-20.5" x2="23.2" y2="-5.8"/>
			<line class="st8" x1="76.2" y1="-14.7" x2="76.2" y2="0"/>
			<line class="st8" x1="73.7" y1="-15.3" x2="73.7" y2="-0.7"/>
			<line class="st8" x1="50.3" y1="-14.7" x2="50.3" y2="0"/>
			<line class="st8" x1="81.5" y1="-14.7" x2="81.5" y2="0"/>
			<line class="st8" x1="56" y1="-16.5" x2="56" y2="-1.8"/>
			<line class="st8" x1="29.7" y1="-15.3" x2="29.7" y2="-0.7"/>
			<line class="st8" x1="14.7" y1="-15.5" x2="14.7" y2="-0.8"/>
			<line class="st8" x1="19.7" y1="-17.5" x2="19.7" y2="-2.8"/>
			<line class="st8" x1="47.7" y1="-14.7" x2="47.7" y2="0"/>
			<line class="st8" x1="71.3" y1="-23" x2="71.3" y2="-8.3"/>
			<line class="st8" x1="46" y1="-23" x2="46" y2="-8.3"/>
		</g>
		<g>
			<line class="st8" x1="16.7" y1="-80.2" x2="2" y2="-80.2"/>
			<line class="st8" x1="15.2" y1="-77.7" x2="0.5" y2="-77.7"/>
			<line class="st8" x1="20.2" y1="-74.7" x2="5.5" y2="-74.7"/>
			<line class="st8" x1="2.3" y1="-66.5" x2="17" y2="-66.5"/>
			<line class="st8" x1="6" y1="-17.5" x2="20.7" y2="-17.5"/>
			<line class="st8" x1="2.3" y1="-12.8" x2="17" y2="-12.8"/>
			<line class="st8" x1="7.7" y1="-14.8" x2="22.3" y2="-14.8"/>
			<line class="st8" x1="3" y1="-19.8" x2="17.7" y2="-19.8"/>
			<line class="st8" x1="0" y1="-26.5" x2="14.7" y2="-26.5"/>
			<line class="st8" x1="7.7" y1="-28.5" x2="22.3" y2="-28.5"/>
			<line class="st8" x1="4.3" y1="-24.2" x2="19" y2="-24.2"/>
			<line class="st8" x1="17.8" y1="-59.7" x2="3.2" y2="-59.7"/>
			<line class="st8" x1="18.3" y1="-56.2" x2="3.7" y2="-56.2"/>
			<line class="st8" x1="21.3" y1="-54.2" x2="6.7" y2="-54.2"/>
			<line class="st8" x1="7" y1="-64.3" x2="21.7" y2="-64.3"/>
			<line class="st8" x1="17.5" y1="-50.2" x2="2.8" y2="-50.2"/>
			<line class="st8" x1="21.5" y1="-48.2" x2="6.8" y2="-48.2"/>
			<line class="st8" x1="15.8" y1="-45.8" x2="1.2" y2="-45.8"/>
			<line class="st8" x1="0.7" y1="-34.5" x2="15.3" y2="-34.5"/>
			<line class="st8" x1="4" y1="-31.5" x2="18.7" y2="-31.5"/>
			<line class="st8" x1="6" y1="-35.8" x2="20.7" y2="-35.8"/>
			<line class="st8" x1="6" y1="-41.2" x2="20.7" y2="-41.2"/>
			<line class="st8" x1="8.7" y1="-38.5" x2="23.3" y2="-38.5"/>
			<line class="st8" x1="10.7" y1="-43.5" x2="25.3" y2="-43.5"/>
			<line class="st8" x1="9.3" y1="-76" x2="24" y2="-76"/>
			<line class="st8" x1="7.7" y1="-69.3" x2="22.3" y2="-69.3"/>
		</g>
		<g>
			<line class="st8" x1="71.3" y1="-95" x2="71.3" y2="-80.3"/>
			<line class="st8" x1="72.8" y1="-96.5" x2="72.8" y2="-81.8"/>
			<line class="st8" x1="78.2" y1="-91" x2="78.2" y2="-76.3"/>
			<line class="st8" x1="82.5" y1="-93.7" x2="82.5" y2="-79"/>
			<line class="st8" x1="32.2" y1="-96.2" x2="32.2" y2="-81.5"/>
			<line class="st8" x1="38.7" y1="-95.3" x2="38.7" y2="-80.7"/>
			<line class="st8" x1="46" y1="-95" x2="46" y2="-80.3"/>
			<line class="st8" x1="43.8" y1="-96.2" x2="43.8" y2="-81.5"/>
			<line class="st8" x1="50" y1="-97.3" x2="50" y2="-82.7"/>
			<line class="st8" x1="67.8" y1="-97.3" x2="67.8" y2="-82.7"/>
			<line class="st8" x1="60.8" y1="-89.3" x2="60.8" y2="-74.7"/>
			<line class="st8" x1="51.8" y1="-91.3" x2="51.8" y2="-76.7"/>
			<line class="st8" x1="25.8" y1="-90.2" x2="25.8" y2="-75.5"/>
			<line class="st8" x1="23.2" y1="-92.5" x2="23.2" y2="-77.8"/>
			<line class="st8" x1="76.2" y1="-86.7" x2="76.2" y2="-72"/>
			<line class="st8" x1="73.7" y1="-87.3" x2="73.7" y2="-72.7"/>
			<line class="st8" x1="50.3" y1="-86.7" x2="50.3" y2="-72"/>
			<line class="st8" x1="81.5" y1="-86.7" x2="81.5" y2="-72"/>
			<line class="st8" x1="56" y1="-88.5" x2="56" y2="-73.8"/>
			<line class="st8" x1="29.7" y1="-87.3" x2="29.7" y2="-72.7"/>
			<line class="st8" x1="14.7" y1="-87.5" x2="14.7" y2="-72.8"/>
			<line class="st8" x1="19.7" y1="-89.5" x2="19.7" y2="-74.8"/>
			<line class="st8" x1="47.7" y1="-86.7" x2="47.7" y2="-72"/>
			<line class="st8" x1="71.3" y1="-95" x2="71.3" y2="-80.3"/>
			<line class="st8" x1="46" y1="-95" x2="46" y2="-80.3"/>
		</g>
	</g>
</pattern>
<g id="Layer_4">
	<g>
		<path class="st9" d="M36.3,38.7c0.9-2.5,1.4-4.4,1.7-5.6c0.3-1.3,0.4-2.7,0.4-4.3c0-2.8-1.3-5.1-3.9-7c-2.6-1.9-6-2.8-10.3-2.8
			c-4.4,0-7.8,1-10.2,3c-2.4,2-3.6,4.4-3.6,7.4c0,1.7,0.2,3.3,0.7,4.8s1.1,2.9,1.8,4.1l-9.3,4.7c-1.1-1.8-1.9-4-2.5-6.6
			c-0.6-2.5-0.9-5-0.9-7.4c0-7.6,2.2-13.3,6.7-17.2C11.3,7.9,17.1,6,24.1,6c7.2,0,13.1,2,17.6,6.1c4.6,4.1,6.8,9.6,6.8,16.5
			c0,2.3-0.3,4.8-1,7.3c-0.7,2.5-1.6,4.7-2.9,6.5L36.3,38.7z"/>
	</g>
	<g>
		<path class="st9" d="M24.1,47.7c7.2,0,13.1,2,17.7,6.1c4.6,4.1,6.9,9.6,6.9,16.6c0,7.6-2.3,13.3-7,17.1c-4.7,3.8-10.4,5.7-17,5.7
			c-7.2,0-13.2-2-17.7-6C2.3,83.2,0,77.6,0,70.4c0-7.5,2.3-13.1,7-17C11.7,49.6,17.4,47.7,24.1,47.7z M24.2,60.5
			c-3.9,0-7.2,0.8-9.8,2.3c-2.6,1.5-3.9,4-3.9,7.6c0,3.2,1.2,5.7,3.5,7.4c2.4,1.7,5.9,2.6,10.6,2.6c3.9,0,7.1-0.8,9.7-2.3
			c2.6-1.5,3.9-4,3.9-7.5c0-3.1-1.3-5.6-3.8-7.4C31.8,61.4,28.4,60.5,24.2,60.5z"/>
	</g>
	<g>
		<path class="st9" d="M1,100.8h46.7v19.7c0,5.2-1.2,9.7-3.7,13.5c-2.5,3.8-6.6,5.7-12.2,5.7c-2.8,0-5.3-0.6-7.4-1.8
			c-2.1-1.2-3.7-2.7-5-4.6L1,143.7v-14.5l14.7-7.6v-8.3H1V100.8z M37.9,120v-6.7H25.5v6.9c0,1.9,0.6,3.5,1.8,4.7
			c1.2,1.2,2.7,1.9,4.5,1.9c2.1,0,3.6-0.6,4.6-1.8C37.4,123.8,37.9,122.1,37.9,120z"/>
	</g>
	<g>
		<path class="st9" d="M1,160.9h18.4l27.1-15.9l1.2,13l-16.8,9.1l16.8,9.7v12.9l-28.5-16.2H1V160.9z"/>
	</g>
	<g>
		<path class="st9" d="M1,219.9h36.9v-13.7h9.8v40l-9.8,1.2v-14.9H1V219.9z"/>
	</g>
	<g>
		<path class="st9" d="M1,252.8h46.7v12.5H1V252.8z"/>
	</g>
	<g>
		<path class="st9" d="M1,306.4h22.6l-8.5-6.3l-0.7-5l9.2-7.6H1V275h46.7v8.6l-17.8,14.1l17.8,12.9v8.3H1V306.4z"/>
	</g>
	<g>
		<path class="st9" d="M1,359.9h22.6l-8.5-6.3l-0.7-5l9.2-7.6H1v-12.5h46.7v8.6l-17.8,14.1l17.8,12.9v8.3H1V359.9z"/>
	</g>
	<g>
		<path class="st9" d="M24.1,380c7.2,0,13.1,2,17.7,6.1c4.6,4.1,6.9,9.6,6.9,16.6c0,7.6-2.3,13.3-7,17.1c-4.7,3.8-10.4,5.7-17,5.7
			c-7.2,0-13.2-2-17.7-6c-4.6-4-6.9-9.6-6.9-16.8c0-7.5,2.3-13.1,7-17C11.7,381.9,17.4,380,24.1,380z M24.2,392.9
			c-3.9,0-7.2,0.8-9.8,2.3c-2.6,1.5-3.9,4-3.9,7.6c0,3.2,1.2,5.7,3.5,7.4c2.4,1.7,5.9,2.6,10.6,2.6c3.9,0,7.1-0.8,9.7-2.3
			c2.6-1.5,3.9-4,3.9-7.5c0-3.1-1.3-5.6-3.8-7.4C31.8,393.8,28.4,392.9,24.2,392.9z"/>
	</g>
	<g>
		<path class="st9" d="M1,433.2h46.7v11.6l-25.4,18h25.4v12.5H1v-11.7l24.6-17.9H1V433.2z"/>
	</g>
	<g>
		<path class="st9" d="M19.4,496.9c1.6-3.1,3.6-6.2,6.1-9.3c2.5-3.1,5.7-4.7,9.7-4.7c3.8,0,7,1.6,9.6,4.7c2.5,3.1,3.8,7.3,3.8,12.6
			c0,2.3-0.3,4.8-1,7.3c-0.7,2.5-1.6,4.7-2.9,6.5l-8.5-3.7c0.9-2.5,1.4-4.4,1.7-5.6c0.3-1.3,0.4-2.7,0.4-4.3c0-1.4-0.3-2.5-1-3.4
			c-0.7-0.8-1.4-1.2-2.3-1.2c-1,0-1.9,0.7-2.6,2.1c-0.8,1.4-1.6,3.1-2.6,5c-1.7,3.3-3.8,6.5-6.4,9.6c-2.6,3.1-5.8,4.6-9.6,4.6
			c-3.9,0-7.2-1.7-9.8-5c-2.6-3.3-3.9-7.9-3.9-13.6c0-2.4,0.4-5.1,1.1-8.1c0.7-3,1.6-5.4,2.7-7.3l9.4,4.1c-0.7,1.2-1.4,2.9-2,5.1
			c-0.6,2.2-0.9,4.1-0.9,5.8c0,2,0.4,3.5,1.2,4.5c0.8,1,1.6,1.5,2.5,1.5c0.8,0,1.7-0.8,2.7-2.3C17.6,500.4,18.5,498.7,19.4,496.9z"
			/>
	</g>
	<g>
		<path class="st9" d="M47.7,570.9L1.8,588.9L1,583.4l13.3-5.2v-19.7L1,553.7v-5.3l46.7,17.3V570.9z M40.5,568.2l-21.9-8.2v16.6
			L40.5,568.2z"/>
	</g>
	<g>
		<path class="st9" d="M1,623.8L20.4,613c-0.1-0.8-0.2-1.6-0.2-2.4c0-0.8-0.1-1.6-0.1-2.5v-6.6H1v-5.4h46.7v12.7c0,4.9-1,9-3.1,12.3
			c-2.1,3.3-5.6,4.9-10.5,4.9c-3.2,0-5.7-0.8-7.7-2.4c-2-1.5-3.5-3.5-4.5-5.9L1,629.8V623.8z M43.1,608.9v-7.4H24.6v6.9
			c0,3.3,0.7,6.1,2,8.5c1.3,2.4,3.8,3.6,7.3,3.6c3.7,0,6.1-1.1,7.4-3.2C42.5,615.1,43.1,612.3,43.1,608.9z"/>
	</g>
	<g>
		<path class="st9" d="M43.4,666.2v-15.1H1v-5.5h42.4V631h4.3v34.6L43.4,666.2z"/>
	</g>
	<g>
		<path class="st9" d="M47.7,715.8L1.8,733.8L1,728.4l13.3-5.2v-19.7L1,698.6v-5.3l46.7,17.3V715.8z M40.5,713.2L18.6,705v16.6
			L40.5,713.2z"/>
	</g>
	<g>
		<path class="st9" d="M1,742.5h46.7v4.3l-31.6,22.8l-4.6,2.8h36.2v5.5H1v-4.3l33.6-23.9l3-1.8H1V742.5z"/>
	</g>
	<g>
		<path class="st9" d="M1,790.8h46.7v15.7c0,7.2-2.2,12.4-6.7,15.6c-4.5,3.2-9.9,4.8-16.4,4.8c-6.7,0-12.3-1.8-16.8-5.3
			C3.2,818.1,1,812.9,1,806V790.8z M43,806.7v-10.5H5.5v9.9c0,4.6,1.7,8.4,5,11.2c3.3,2.8,8,4.3,14,4.3c5.4,0,9.8-1.2,13.3-3.6
			C41.3,815.5,43,811.8,43,806.7z"/>
	</g>
	<g>
		<path class="st9" d="M1,864.6h46.7v15.7c0,7.2-2.2,12.4-6.7,15.6c-4.5,3.2-9.9,4.8-16.4,4.8c-6.7,0-12.3-1.8-16.8-5.3
			c-4.5-3.6-6.8-8.7-6.8-15.6V864.6z M43,880.5V870H5.5v9.9c0,4.6,1.7,8.4,5,11.2c3.3,2.8,8,4.3,14,4.3c5.4,0,9.8-1.2,13.3-3.6
			C41.3,889.3,43,885.6,43,880.5z"/>
	</g>
	<g>
		<path class="st9" d="M1,912.4h46.7v25.6c-0.7,0.1-1.4,0.2-2.1,0.3c-0.7,0.1-1.4,0.2-2.1,0.3v-20.8H26.9v13.5
			c-0.7,0.1-1.4,0.2-2.1,0.3c-0.7,0.1-1.4,0.2-2.1,0.3v-14.1H5.2v22.1L1,940.5V912.4z"/>
	</g>
	<g>
		<path class="st9" d="M7.5,948c-0.6,1.2-1.2,2.9-1.9,5c-0.6,2.1-1,4.3-1,6.5c0,3.6,0.7,6.4,2.1,8.3c1.4,1.9,3.2,2.9,5.5,2.9
			c4.9,0,8.5-4.1,10.8-12.4c2.2-8.2,6.9-12.4,14-12.4c3.3,0,6.1,1.3,8.4,4c2.3,2.7,3.4,6.3,3.4,10.9c0,2.3-0.3,4.5-0.9,6.6
			c-0.6,2.1-1.3,3.9-2,5.3c-0.7-0.3-1.4-0.6-2.1-0.9c-0.7-0.3-1.4-0.6-2.1-1c0.6-1.2,1.1-2.5,1.6-4.1c0.5-1.5,0.8-3.4,0.8-5.7
			c0-2.9-0.6-5.3-1.8-7.1c-1.2-1.9-2.9-2.8-5.2-2.8c-5.1,0-8.8,4.1-11.1,12.4c-2.3,8.3-6.9,12.4-13.7,12.4c-3.6,0-6.5-1.4-8.8-4.3
			c-2.3-2.9-3.5-6.9-3.5-12.2c0-2,0.3-4.4,1-7.3c0.7-2.9,1.4-4.7,2.1-5.6c0.7,0.2,1.4,0.4,2.1,0.6C6,947.6,6.8,947.8,7.5,948z"/>
	</g>
	<g>
		<path class="st9" d="M1,986.3h46.7v5.4H1V986.3z"/>
	</g>
	<g>
		<path class="st9" d="M25,1023.5v15.1H4.3c-0.2,0-0.4,0-0.6,0c-0.2,0-0.4,0-0.5,0l-0.1,0.1c-0.9-1.4-1.6-3.4-2.2-6
			c-0.6-2.6-0.9-4.9-0.9-7.1c0-7.1,2.3-12.6,6.9-16.4c4.6-3.8,10.3-5.7,17.2-5.7c7.3,0,13.3,2.1,17.8,6.2c4.5,4.1,6.8,9.6,6.8,16.5
			c0,1.4-0.2,3.4-0.7,5.8c-0.4,2.5-1.1,4.4-2,5.9l-4-1.7c0.6-1.6,1.1-3,1.4-4.4c0.4-1.4,0.5-3.2,0.5-5.5c0-4.7-1.7-8.8-5.2-12.1
			c-3.4-3.3-8.3-5-14.7-5c-6,0-10.7,1.5-14.2,4.4c-3.5,2.9-5.2,6.9-5.2,11.9c0,1.6,0.1,3.1,0.4,4.4c0.3,1.3,0.6,2.5,0.9,3.6h14.8
			V1023c0.7,0,1.4,0.1,2.1,0.2C23.6,1023.3,24.3,1023.4,25,1023.5z"/>
	</g>
	<g>
		<path class="st9" d="M1,1050.6h46.7v4.3l-31.6,22.8l-4.6,2.8h36.2v5.5H1v-4.3l33.6-23.9l3-1.8H1V1050.6z"/>
	</g>
</g>
<g id="Layer_3">
	<g>
		<path class="st10" d="M36.3,38.7c0.9-2.5,1.4-4.4,1.7-5.6c0.3-1.3,0.4-2.7,0.4-4.3c0-2.8-1.3-5.1-3.9-7c-2.6-1.9-6-2.8-10.3-2.8
			c-4.4,0-7.8,1-10.2,3c-2.4,2-3.6,4.4-3.6,7.4c0,1.7,0.2,3.3,0.7,4.8s1.1,2.9,1.8,4.1l-9.3,4.7c-1.1-1.8-1.9-4-2.5-6.6
			c-0.6-2.5-0.9-5-0.9-7.4c0-7.6,2.2-13.3,6.7-17.2C11.3,7.9,17.1,6,24.1,6c7.2,0,13.1,2,17.6,6.1c4.6,4.1,6.8,9.6,6.8,16.5
			c0,2.3-0.3,4.8-1,7.3c-0.7,2.5-1.6,4.7-2.9,6.5L36.3,38.7z"/>
	</g>
	<g>
		<path class="st10" d="M24.1,47.7c7.2,0,13.1,2,17.7,6.1c4.6,4.1,6.9,9.6,6.9,16.6c0,7.6-2.3,13.3-7,17.1c-4.7,3.8-10.4,5.7-17,5.7
			c-7.2,0-13.2-2-17.7-6C2.3,83.2,0,77.6,0,70.4c0-7.5,2.3-13.1,7-17C11.7,49.6,17.4,47.7,24.1,47.7z M24.2,60.5
			c-3.9,0-7.2,0.8-9.8,2.3c-2.6,1.5-3.9,4-3.9,7.6c0,3.2,1.2,5.7,3.5,7.4c2.4,1.7,5.9,2.6,10.6,2.6c3.9,0,7.1-0.8,9.7-2.3
			c2.6-1.5,3.9-4,3.9-7.5c0-3.1-1.3-5.6-3.8-7.4C31.8,61.4,28.4,60.5,24.2,60.5z"/>
	</g>
	<g>
		<path class="st10" d="M1,100.8h46.7v19.7c0,5.2-1.2,9.7-3.7,13.5c-2.5,3.8-6.6,5.7-12.2,5.7c-2.8,0-5.3-0.6-7.4-1.8
			c-2.1-1.2-3.7-2.7-5-4.6L1,143.7v-14.5l14.7-7.6v-8.3H1V100.8z M37.9,120v-6.7H25.5v6.9c0,1.9,0.6,3.5,1.8,4.7
			c1.2,1.2,2.7,1.9,4.5,1.9c2.1,0,3.6-0.6,4.6-1.8C37.4,123.8,37.9,122.1,37.9,120z"/>
	</g>
	<g>
		<path class="st10" d="M1,160.9h18.4l27.1-15.9l1.2,13l-16.8,9.1l16.8,9.7v12.9l-28.5-16.2H1V160.9z"/>
	</g>
	<g>
		<path class="st10" d="M1,219.9h36.9v-13.7h9.8v40l-9.8,1.2v-14.9H1V219.9z"/>
	</g>
	<g>
		<path class="st10" d="M1,252.8h46.7v12.5H1V252.8z"/>
	</g>
	<g>
		<path class="st10" d="M1,306.4h22.6l-8.5-6.3l-0.7-5l9.2-7.6H1V275h46.7v8.6l-17.8,14.1l17.8,12.9v8.3H1V306.4z"/>
	</g>
	<g>
		<path class="st10" d="M1,359.9h22.6l-8.5-6.3l-0.7-5l9.2-7.6H1v-12.5h46.7v8.6l-17.8,14.1l17.8,12.9v8.3H1V359.9z"/>
	</g>
	<g>
		<path class="st10" d="M24.1,380c7.2,0,13.1,2,17.7,6.1c4.6,4.1,6.9,9.6,6.9,16.6c0,7.6-2.3,13.3-7,17.1c-4.7,3.8-10.4,5.7-17,5.7
			c-7.2,0-13.2-2-17.7-6c-4.6-4-6.9-9.6-6.9-16.8c0-7.5,2.3-13.1,7-17C11.7,381.9,17.4,380,24.1,380z M24.2,392.9
			c-3.9,0-7.2,0.8-9.8,2.3c-2.6,1.5-3.9,4-3.9,7.6c0,3.2,1.2,5.7,3.5,7.4c2.4,1.7,5.9,2.6,10.6,2.6c3.9,0,7.1-0.8,9.7-2.3
			c2.6-1.5,3.9-4,3.9-7.5c0-3.1-1.3-5.6-3.8-7.4C31.8,393.8,28.4,392.9,24.2,392.9z"/>
	</g>
	<g>
		<path class="st10" d="M1,433.2h46.7v11.6l-25.4,18h25.4v12.5H1v-11.7l24.6-17.9H1V433.2z"/>
	</g>
	<g>
		<path class="st10" d="M19.4,496.9c1.6-3.1,3.6-6.2,6.1-9.3c2.5-3.1,5.7-4.7,9.7-4.7c3.8,0,7,1.6,9.6,4.7c2.5,3.1,3.8,7.3,3.8,12.6
			c0,2.3-0.3,4.8-1,7.3c-0.7,2.5-1.6,4.7-2.9,6.5l-8.5-3.7c0.9-2.5,1.4-4.4,1.7-5.6c0.3-1.3,0.4-2.7,0.4-4.3c0-1.4-0.3-2.5-1-3.4
			c-0.7-0.8-1.4-1.2-2.3-1.2c-1,0-1.9,0.7-2.6,2.1c-0.8,1.4-1.6,3.1-2.6,5c-1.7,3.3-3.8,6.5-6.4,9.6c-2.6,3.1-5.8,4.6-9.6,4.6
			c-3.9,0-7.2-1.7-9.8-5c-2.6-3.3-3.9-7.9-3.9-13.6c0-2.4,0.4-5.1,1.1-8.1c0.7-3,1.6-5.4,2.7-7.3l9.4,4.1c-0.7,1.2-1.4,2.9-2,5.1
			c-0.6,2.2-0.9,4.1-0.9,5.8c0,2,0.4,3.5,1.2,4.5c0.8,1,1.6,1.5,2.5,1.5c0.8,0,1.7-0.8,2.7-2.3C17.6,500.4,18.5,498.7,19.4,496.9z"
			/>
	</g>
	<g>
		<path class="st10" d="M47.7,570.9L1.8,588.9L1,583.4l13.3-5.2v-19.7L1,553.7v-5.3l46.7,17.3V570.9z M40.5,568.2l-21.9-8.2v16.6
			L40.5,568.2z"/>
	</g>
	<g>
		<path class="st10" d="M1,623.8L20.4,613c-0.1-0.8-0.2-1.6-0.2-2.4c0-0.8-0.1-1.6-0.1-2.5v-6.6H1v-5.4h46.7v12.7
			c0,4.9-1,9-3.1,12.3c-2.1,3.3-5.6,4.9-10.5,4.9c-3.2,0-5.7-0.8-7.7-2.4c-2-1.5-3.5-3.5-4.5-5.9L1,629.8V623.8z M43.1,608.9v-7.4
			H24.6v6.9c0,3.3,0.7,6.1,2,8.5c1.3,2.4,3.8,3.6,7.3,3.6c3.7,0,6.1-1.1,7.4-3.2C42.5,615.1,43.1,612.3,43.1,608.9z"/>
	</g>
	<g>
		<path class="st10" d="M43.4,666.2v-15.1H1v-5.5h42.4V631h4.3v34.6L43.4,666.2z"/>
	</g>
	<g>
		<path class="st10" d="M47.7,715.8L1.8,733.8L1,728.4l13.3-5.2v-19.7L1,698.6v-5.3l46.7,17.3V715.8z M40.5,713.2L18.6,705v16.6
			L40.5,713.2z"/>
	</g>
	<g>
		<path class="st10" d="M1,742.5h46.7v4.3l-31.6,22.8l-4.6,2.8h36.2v5.5H1v-4.3l33.6-23.9l3-1.8H1V742.5z"/>
	</g>
	<g>
		<path class="st10" d="M1,790.8h46.7v15.7c0,7.2-2.2,12.4-6.7,15.6c-4.5,3.2-9.9,4.8-16.4,4.8c-6.7,0-12.3-1.8-16.8-5.3
			C3.2,818.1,1,812.9,1,806V790.8z M43,806.7v-10.5H5.5v9.9c0,4.6,1.7,8.4,5,11.2c3.3,2.8,8,4.3,14,4.3c5.4,0,9.8-1.2,13.3-3.6
			C41.3,815.5,43,811.8,43,806.7z"/>
	</g>
	<g>
		<path class="st10" d="M1,864.6h46.7v15.7c0,7.2-2.2,12.4-6.7,15.6c-4.5,3.2-9.9,4.8-16.4,4.8c-6.7,0-12.3-1.8-16.8-5.3
			c-4.5-3.6-6.8-8.7-6.8-15.6V864.6z M43,880.5V870H5.5v9.9c0,4.6,1.7,8.4,5,11.2c3.3,2.8,8,4.3,14,4.3c5.4,0,9.8-1.2,13.3-3.6
			C41.3,889.3,43,885.6,43,880.5z"/>
	</g>
	<g>
		<path class="st10" d="M1,912.4h46.7v25.6c-0.7,0.1-1.4,0.2-2.1,0.3c-0.7,0.1-1.4,0.2-2.1,0.3v-20.8H26.9v13.5
			c-0.7,0.1-1.4,0.2-2.1,0.3c-0.7,0.1-1.4,0.2-2.1,0.3v-14.1H5.2v22.1L1,940.5V912.4z"/>
	</g>
	<g>
		<path class="st10" d="M7.5,948c-0.6,1.2-1.2,2.9-1.9,5c-0.6,2.1-1,4.3-1,6.5c0,3.6,0.7,6.4,2.1,8.3c1.4,1.9,3.2,2.9,5.5,2.9
			c4.9,0,8.5-4.1,10.8-12.4c2.2-8.2,6.9-12.4,14-12.4c3.3,0,6.1,1.3,8.4,4c2.3,2.7,3.4,6.3,3.4,10.9c0,2.3-0.3,4.5-0.9,6.6
			c-0.6,2.1-1.3,3.9-2,5.3c-0.7-0.3-1.4-0.6-2.1-0.9c-0.7-0.3-1.4-0.6-2.1-1c0.6-1.2,1.1-2.5,1.6-4.1c0.5-1.5,0.8-3.4,0.8-5.7
			c0-2.9-0.6-5.3-1.8-7.1c-1.2-1.9-2.9-2.8-5.2-2.8c-5.1,0-8.8,4.1-11.1,12.4c-2.3,8.3-6.9,12.4-13.7,12.4c-3.6,0-6.5-1.4-8.8-4.3
			c-2.3-2.9-3.5-6.9-3.5-12.2c0-2,0.3-4.4,1-7.3c0.7-2.9,1.4-4.7,2.1-5.6c0.7,0.2,1.4,0.4,2.1,0.6C6,947.6,6.8,947.8,7.5,948z"/>
	</g>
	<g>
		<path class="st10" d="M1,986.3h46.7v5.4H1V986.3z"/>
	</g>
	<g>
		<path class="st10" d="M25,1023.5v15.1H4.3c-0.2,0-0.4,0-0.6,0c-0.2,0-0.4,0-0.5,0l-0.1,0.1c-0.9-1.4-1.6-3.4-2.2-6
			c-0.6-2.6-0.9-4.9-0.9-7.1c0-7.1,2.3-12.6,6.9-16.4c4.6-3.8,10.3-5.7,17.2-5.7c7.3,0,13.3,2.1,17.8,6.2c4.5,4.1,6.8,9.6,6.8,16.5
			c0,1.4-0.2,3.4-0.7,5.8c-0.4,2.5-1.1,4.4-2,5.9l-4-1.7c0.6-1.6,1.1-3,1.4-4.4c0.4-1.4,0.5-3.2,0.5-5.5c0-4.7-1.7-8.8-5.2-12.1
			c-3.4-3.3-8.3-5-14.7-5c-6,0-10.7,1.5-14.2,4.4c-3.5,2.9-5.2,6.9-5.2,11.9c0,1.6,0.1,3.1,0.4,4.4c0.3,1.3,0.6,2.5,0.9,3.6h14.8
			V1023c0.7,0,1.4,0.1,2.1,0.2C23.6,1023.3,24.3,1023.4,25,1023.5z"/>
	</g>
	<g>
		<path class="st10" d="M1,1050.6h46.7v4.3l-31.6,22.8l-4.6,2.8h36.2v5.5H1v-4.3l33.6-23.9l3-1.8H1V1050.6z"/>
	</g>
</g>
<g id="Layer_2">
	<g>
		<linearGradient id="SVGID_1_" gradientUnits="userSpaceOnUse" x1="45.0208" y1="9.7272" x2="2.1398" y2="34.4846">
			<stop  offset="0" style="stop-color:#00FFFF"/>
			<stop  offset="7.134736e-03" style="stop-color:#03FDFE"/>
			<stop  offset="0.1728" style="stop-color:#45DBE9"/>
			<stop  offset="0.3358" style="stop-color:#7DBED6"/>
			<stop  offset="0.4919" style="stop-color:#ACA6C7"/>
			<stop  offset="0.64" style="stop-color:#D093BB"/>
			<stop  offset="0.7779" style="stop-color:#EA86B3"/>
			<stop  offset="0.9019" style="stop-color:#FA7EAE"/>
			<stop  offset="1" style="stop-color:#FF7BAC"/>
		</linearGradient>
		<path class="st11" d="M36.3,32.7c0.9-2.5,1.4-4.4,1.7-5.6c0.3-1.3,0.4-2.7,0.4-4.3c0-2.8-1.3-5.1-3.9-7c-2.6-1.9-6-2.8-10.3-2.8
			c-4.4,0-7.8,1-10.2,3c-2.4,2-3.6,4.4-3.6,7.4c0,1.7,0.2,3.3,0.7,4.8s1.1,2.9,1.8,4.1l-9.3,4.7c-1.1-1.8-1.9-4-2.5-6.6
			s-0.9-5-0.9-7.4c0-7.6,2.2-13.3,6.7-17.2C11.3,1.9,17.1,0,24.1,0c7.2,0,13.1,2,17.6,6.1c4.6,4.1,6.8,9.6,6.8,16.5
			c0,2.3-0.3,4.8-1,7.3c-0.7,2.5-1.6,4.7-2.9,6.5L36.3,32.7z"/>
	</g>
	<g>
		<linearGradient id="SVGID_2_" gradientUnits="userSpaceOnUse" x1="45.5526" y1="52.229" x2="3.1101" y2="76.7331">
			<stop  offset="0" style="stop-color:#00FFFF"/>
			<stop  offset="7.134736e-03" style="stop-color:#03FDFE"/>
			<stop  offset="0.1728" style="stop-color:#45DBE9"/>
			<stop  offset="0.3358" style="stop-color:#7DBED6"/>
			<stop  offset="0.4919" style="stop-color:#ACA6C7"/>
			<stop  offset="0.64" style="stop-color:#D093BB"/>
			<stop  offset="0.7779" style="stop-color:#EA86B3"/>
			<stop  offset="0.9019" style="stop-color:#FA7EAE"/>
			<stop  offset="1" style="stop-color:#FF7BAC"/>
		</linearGradient>
		<path class="st12" d="M24.1,41.7c7.2,0,13.1,2,17.7,6.1c4.6,4.1,6.9,9.6,6.9,16.6c0,7.6-2.3,13.3-7,17.1c-4.7,3.8-10.4,5.7-17,5.7
			c-7.2,0-13.2-2-17.7-6C2.3,77.2,0,71.6,0,64.4c0-7.5,2.3-13.1,7-17C11.7,43.6,17.4,41.7,24.1,41.7z M24.2,54.5
			c-3.9,0-7.2,0.8-9.8,2.3c-2.6,1.5-3.9,4-3.9,7.6c0,3.2,1.2,5.7,3.5,7.4c2.4,1.7,5.9,2.6,10.6,2.6c3.9,0,7.1-0.8,9.7-2.3
			c2.6-1.5,3.9-4,3.9-7.5c0-3.1-1.3-5.6-3.8-7.4C31.8,55.4,28.4,54.5,24.2,54.5z"/>
	</g>
	<g>
		<linearGradient id="SVGID_3_" gradientUnits="userSpaceOnUse" x1="48.904" y1="96.8675" x2="-4.7287" y2="127.8323">
			<stop  offset="0" style="stop-color:#00FFFF"/>
			<stop  offset="7.134736e-03" style="stop-color:#03FDFE"/>
			<stop  offset="0.1728" style="stop-color:#45DBE9"/>
			<stop  offset="0.3358" style="stop-color:#7DBED6"/>
			<stop  offset="0.4919" style="stop-color:#ACA6C7"/>
			<stop  offset="0.64" style="stop-color:#D093BB"/>
			<stop  offset="0.7779" style="stop-color:#EA86B3"/>
			<stop  offset="0.9019" style="stop-color:#FA7EAE"/>
			<stop  offset="1" style="stop-color:#FF7BAC"/>
		</linearGradient>
		<path class="st13" d="M1,94.8h46.7v19.7c0,5.2-1.2,9.7-3.7,13.5c-2.5,3.8-6.6,5.7-12.2,5.7c-2.8,0-5.3-0.6-7.4-1.8
			c-2.1-1.2-3.7-2.7-5-4.6L1,137.7v-14.5l14.7-7.6v-8.3H1V94.8z M37.9,114v-6.7H25.5v6.9c0,1.9,0.6,3.5,1.8,4.7
			c1.2,1.2,2.7,1.9,4.5,1.9c2.1,0,3.6-0.6,4.6-1.8C37.4,117.8,37.9,116.1,37.9,114z"/>
	</g>
	<g>
		<linearGradient id="SVGID_4_" gradientUnits="userSpaceOnUse" x1="54.0329" y1="152.1637" x2="7.609" y2="178.9666">
			<stop  offset="0" style="stop-color:#00FFFF"/>
			<stop  offset="7.134736e-03" style="stop-color:#03FDFE"/>
			<stop  offset="0.1728" style="stop-color:#45DBE9"/>
			<stop  offset="0.3358" style="stop-color:#7DBED6"/>
			<stop  offset="0.4919" style="stop-color:#ACA6C7"/>
			<stop  offset="0.64" style="stop-color:#D093BB"/>
			<stop  offset="0.7779" style="stop-color:#EA86B3"/>
			<stop  offset="0.9019" style="stop-color:#FA7EAE"/>
			<stop  offset="1" style="stop-color:#FF7BAC"/>
		</linearGradient>
		<path class="st14" d="M1,154.9h18.4l27.1-15.9l1.2,13l-16.8,9.1l16.8,9.7v12.9l-28.5-16.2H1V154.9z"/>
	</g>
	<g>
		<linearGradient id="SVGID_5_" gradientUnits="userSpaceOnUse" x1="53.5024" y1="210.2115" x2="7.0732" y2="237.0175">
			<stop  offset="0" style="stop-color:#00FFFF"/>
			<stop  offset="7.134736e-03" style="stop-color:#03FDFE"/>
			<stop  offset="0.1728" style="stop-color:#45DBE9"/>
			<stop  offset="0.3358" style="stop-color:#7DBED6"/>
			<stop  offset="0.4919" style="stop-color:#ACA6C7"/>
			<stop  offset="0.64" style="stop-color:#D093BB"/>
			<stop  offset="0.7779" style="stop-color:#EA86B3"/>
			<stop  offset="0.9019" style="stop-color:#FA7EAE"/>
			<stop  offset="1" style="stop-color:#FF7BAC"/>
		</linearGradient>
		<path class="st15" d="M1,213.9h36.9v-13.7h9.8v40l-9.8,1.2v-14.9H1V213.9z"/>
	</g>
	<g>
		<linearGradient id="SVGID_6_" gradientUnits="userSpaceOnUse" x1="44.5726" y1="241.4197" x2="4.0965" y2="264.7886">
			<stop  offset="0" style="stop-color:#00FFFF"/>
			<stop  offset="7.134736e-03" style="stop-color:#03FDFE"/>
			<stop  offset="0.1728" style="stop-color:#45DBE9"/>
			<stop  offset="0.3358" style="stop-color:#7DBED6"/>
			<stop  offset="0.4919" style="stop-color:#ACA6C7"/>
			<stop  offset="0.64" style="stop-color:#D093BB"/>
			<stop  offset="0.7779" style="stop-color:#EA86B3"/>
			<stop  offset="0.9019" style="stop-color:#FA7EAE"/>
			<stop  offset="1" style="stop-color:#FF7BAC"/>
		</linearGradient>
		<path class="st16" d="M1,246.8h46.7v12.5H1V246.8z"/>
	</g>
	<g>
		<linearGradient id="SVGID_7_" gradientUnits="userSpaceOnUse" x1="51.3742" y1="275.3345" x2="-2.705" y2="306.5572">
			<stop  offset="0" style="stop-color:#00FFFF"/>
			<stop  offset="7.134736e-03" style="stop-color:#03FDFE"/>
			<stop  offset="0.1728" style="stop-color:#45DBE9"/>
			<stop  offset="0.3358" style="stop-color:#7DBED6"/>
			<stop  offset="0.4919" style="stop-color:#ACA6C7"/>
			<stop  offset="0.64" style="stop-color:#D093BB"/>
			<stop  offset="0.7779" style="stop-color:#EA86B3"/>
			<stop  offset="0.9019" style="stop-color:#FA7EAE"/>
			<stop  offset="1" style="stop-color:#FF7BAC"/>
		</linearGradient>
		<path class="st17" d="M1,300.4h22.6l-8.5-6.3l-0.7-5l9.2-7.6H1V269h46.7v8.6l-17.8,14.1l17.8,12.9v8.3H1V300.4z"/>
	</g>
	<g>
		<linearGradient id="SVGID_8_" gradientUnits="userSpaceOnUse" x1="51.3742" y1="328.8841" x2="-2.705" y2="360.1068">
			<stop  offset="0" style="stop-color:#00FFFF"/>
			<stop  offset="7.134736e-03" style="stop-color:#03FDFE"/>
			<stop  offset="0.1728" style="stop-color:#45DBE9"/>
			<stop  offset="0.3358" style="stop-color:#7DBED6"/>
			<stop  offset="0.4919" style="stop-color:#ACA6C7"/>
			<stop  offset="0.64" style="stop-color:#D093BB"/>
			<stop  offset="0.7779" style="stop-color:#EA86B3"/>
			<stop  offset="0.9019" style="stop-color:#FA7EAE"/>
			<stop  offset="1" style="stop-color:#FF7BAC"/>
		</linearGradient>
		<path class="st18" d="M1,353.9h22.6l-8.5-6.3l-0.7-5l9.2-7.6H1v-12.5h46.7v8.6l-17.8,14.1l17.8,12.9v8.3H1V353.9z"/>
	</g>
	<g>
		<linearGradient id="SVGID_9_" gradientUnits="userSpaceOnUse" x1="45.5526" y1="384.5918" x2="3.1101" y2="409.0959">
			<stop  offset="0" style="stop-color:#00FFFF"/>
			<stop  offset="7.134736e-03" style="stop-color:#03FDFE"/>
			<stop  offset="0.1728" style="stop-color:#45DBE9"/>
			<stop  offset="0.3358" style="stop-color:#7DBED6"/>
			<stop  offset="0.4919" style="stop-color:#ACA6C7"/>
			<stop  offset="0.64" style="stop-color:#D093BB"/>
			<stop  offset="0.7779" style="stop-color:#EA86B3"/>
			<stop  offset="0.9019" style="stop-color:#FA7EAE"/>
			<stop  offset="1" style="stop-color:#FF7BAC"/>
		</linearGradient>
		<path class="st19" d="M24.1,374c7.2,0,13.1,2,17.7,6.1c4.6,4.1,6.9,9.6,6.9,16.6c0,7.6-2.3,13.3-7,17.1c-4.7,3.8-10.4,5.7-17,5.7
			c-7.2,0-13.2-2-17.7-6c-4.6-4-6.9-9.6-6.9-16.8c0-7.5,2.3-13.1,7-17C11.7,375.9,17.4,374,24.1,374z M24.2,386.9
			c-3.9,0-7.2,0.8-9.8,2.3c-2.6,1.5-3.9,4-3.9,7.6c0,3.2,1.2,5.7,3.5,7.4c2.4,1.7,5.9,2.6,10.6,2.6c3.9,0,7.1-0.8,9.7-2.3
			c2.6-1.5,3.9-4,3.9-7.5c0-3.1-1.3-5.6-3.8-7.4C31.8,387.8,28.4,386.9,24.2,386.9z"/>
	</g>
	<g>
		<linearGradient id="SVGID_10_" gradientUnits="userSpaceOnUse" x1="50.9873" y1="432.8385" x2="-2.3181" y2="463.6144">
			<stop  offset="0" style="stop-color:#00FFFF"/>
			<stop  offset="7.134736e-03" style="stop-color:#03FDFE"/>
			<stop  offset="0.1728" style="stop-color:#45DBE9"/>
			<stop  offset="0.3358" style="stop-color:#7DBED6"/>
			<stop  offset="0.4919" style="stop-color:#ACA6C7"/>
			<stop  offset="0.64" style="stop-color:#D093BB"/>
			<stop  offset="0.7779" style="stop-color:#EA86B3"/>
			<stop  offset="0.9019" style="stop-color:#FA7EAE"/>
			<stop  offset="1" style="stop-color:#FF7BAC"/>
		</linearGradient>
		<path class="st20" d="M1,427.2h46.7v11.6l-25.4,18h25.4v12.5H1v-11.7l24.6-17.9H1V427.2z"/>
	</g>
	<g>
		<linearGradient id="SVGID_11_" gradientUnits="userSpaceOnUse" x1="44.5603" y1="480.9014" x2="3.0817" y2="504.8491">
			<stop  offset="0" style="stop-color:#00FFFF"/>
			<stop  offset="7.134736e-03" style="stop-color:#03FDFE"/>
			<stop  offset="0.1728" style="stop-color:#45DBE9"/>
			<stop  offset="0.3358" style="stop-color:#7DBED6"/>
			<stop  offset="0.4919" style="stop-color:#ACA6C7"/>
			<stop  offset="0.64" style="stop-color:#D093BB"/>
			<stop  offset="0.7779" style="stop-color:#EA86B3"/>
			<stop  offset="0.9019" style="stop-color:#FA7EAE"/>
			<stop  offset="1" style="stop-color:#FF7BAC"/>
		</linearGradient>
		<path class="st21" d="M19.4,490.9c1.6-3.1,3.6-6.2,6.1-9.3c2.5-3.1,5.7-4.7,9.7-4.7c3.8,0,7,1.6,9.6,4.7c2.5,3.1,3.8,7.3,3.8,12.6
			c0,2.3-0.3,4.8-1,7.3c-0.7,2.5-1.6,4.7-2.9,6.5l-8.5-3.7c0.9-2.5,1.4-4.4,1.7-5.6c0.3-1.3,0.4-2.7,0.4-4.3c0-1.4-0.3-2.5-1-3.4
			c-0.7-0.8-1.4-1.2-2.3-1.2c-1,0-1.9,0.7-2.6,2.1c-0.8,1.4-1.6,3.1-2.6,5c-1.7,3.3-3.8,6.5-6.4,9.6c-2.6,3.1-5.8,4.6-9.6,4.6
			c-3.9,0-7.2-1.7-9.8-5c-2.6-3.3-3.9-7.9-3.9-13.6c0-2.4,0.4-5.1,1.1-8.1c0.7-3,1.6-5.4,2.7-7.3l9.4,4.1c-0.7,1.2-1.4,2.9-2,5.1
			c-0.6,2.2-0.9,4.1-0.9,5.8c0,2,0.4,3.5,1.2,4.5c0.8,1,1.6,1.5,2.5,1.5c0.8,0,1.7-0.8,2.7-2.3C17.6,494.4,18.5,492.7,19.4,490.9z"
			/>
	</g>
	<g>
		<linearGradient id="SVGID_12_" gradientUnits="userSpaceOnUse" x1="39.2743" y1="545.0145" x2="-5.2265" y2="570.707">
			<stop  offset="0" style="stop-color:#00FFFF"/>
			<stop  offset="7.134736e-03" style="stop-color:#03FDFE"/>
			<stop  offset="0.1728" style="stop-color:#45DBE9"/>
			<stop  offset="0.3358" style="stop-color:#7DBED6"/>
			<stop  offset="0.4919" style="stop-color:#ACA6C7"/>
			<stop  offset="0.64" style="stop-color:#D093BB"/>
			<stop  offset="0.7779" style="stop-color:#EA86B3"/>
			<stop  offset="0.9019" style="stop-color:#FA7EAE"/>
			<stop  offset="1" style="stop-color:#FF7BAC"/>
		</linearGradient>
		<path class="st22" d="M47.7,564.9L1.8,582.9L1,577.4l13.3-5.2v-19.7L1,547.7v-5.3l46.7,17.3V564.9z M40.5,562.2l-21.9-8.2v16.6
			L40.5,562.2z"/>
	</g>
	<g>
		<linearGradient id="SVGID_13_" gradientUnits="userSpaceOnUse" x1="47.1798" y1="589.2286" x2="-2.4344" y2="617.8734">
			<stop  offset="0" style="stop-color:#00FFFF"/>
			<stop  offset="7.134736e-03" style="stop-color:#03FDFE"/>
			<stop  offset="0.1728" style="stop-color:#45DBE9"/>
			<stop  offset="0.3358" style="stop-color:#7DBED6"/>
			<stop  offset="0.4919" style="stop-color:#ACA6C7"/>
			<stop  offset="0.64" style="stop-color:#D093BB"/>
			<stop  offset="0.7779" style="stop-color:#EA86B3"/>
			<stop  offset="0.9019" style="stop-color:#FA7EAE"/>
			<stop  offset="1" style="stop-color:#FF7BAC"/>
		</linearGradient>
		<path class="st23" d="M1,617.8L20.4,607c-0.1-0.8-0.2-1.6-0.2-2.4c0-0.8-0.1-1.6-0.1-2.5v-6.6H1v-5.4h46.7v12.7
			c0,4.9-1,9-3.1,12.3c-2.1,3.3-5.6,4.9-10.5,4.9c-3.2,0-5.7-0.8-7.7-2.4c-2-1.5-3.5-3.5-4.5-5.9L1,623.8V617.8z M43.1,602.9v-7.4
			H24.6v6.9c0,3.3,0.7,6.1,2,8.5c1.3,2.4,3.8,3.6,7.3,3.6c3.7,0,6.1-1.1,7.4-3.2C42.5,609.1,43.1,606.3,43.1,602.9z"/>
	</g>
	<g>
		<linearGradient id="SVGID_14_" gradientUnits="userSpaceOnUse" x1="52.5201" y1="633.3074" x2="8.7401" y2="658.5839">
			<stop  offset="0" style="stop-color:#00FFFF"/>
			<stop  offset="7.134736e-03" style="stop-color:#03FDFE"/>
			<stop  offset="0.1728" style="stop-color:#45DBE9"/>
			<stop  offset="0.3358" style="stop-color:#7DBED6"/>
			<stop  offset="0.4919" style="stop-color:#ACA6C7"/>
			<stop  offset="0.64" style="stop-color:#D093BB"/>
			<stop  offset="0.7779" style="stop-color:#EA86B3"/>
			<stop  offset="0.9019" style="stop-color:#FA7EAE"/>
			<stop  offset="1" style="stop-color:#FF7BAC"/>
		</linearGradient>
		<path class="st24" d="M43.4,660.2v-15.1H1v-5.5h42.4V625h4.3v34.6L43.4,660.2z"/>
	</g>
	<g>
		<linearGradient id="SVGID_15_" gradientUnits="userSpaceOnUse" x1="39.2742" y1="689.9436" x2="-5.2266" y2="715.6361">
			<stop  offset="0" style="stop-color:#00FFFF"/>
			<stop  offset="7.134736e-03" style="stop-color:#03FDFE"/>
			<stop  offset="0.1728" style="stop-color:#45DBE9"/>
			<stop  offset="0.3358" style="stop-color:#7DBED6"/>
			<stop  offset="0.4919" style="stop-color:#ACA6C7"/>
			<stop  offset="0.64" style="stop-color:#D093BB"/>
			<stop  offset="0.7779" style="stop-color:#EA86B3"/>
			<stop  offset="0.9019" style="stop-color:#FA7EAE"/>
			<stop  offset="1" style="stop-color:#FF7BAC"/>
		</linearGradient>
		<path class="st25" d="M47.7,709.8L1.8,727.8L1,722.4l13.3-5.2v-19.7L1,692.6v-5.3l46.7,17.3V709.8z M40.5,707.2L18.6,699v16.6
			L40.5,707.2z"/>
	</g>
	<g>
		<linearGradient id="SVGID_16_" gradientUnits="userSpaceOnUse" x1="49.5286" y1="739.6851" x2="-0.8594" y2="768.7767">
			<stop  offset="0" style="stop-color:#00FFFF"/>
			<stop  offset="7.134736e-03" style="stop-color:#03FDFE"/>
			<stop  offset="0.1728" style="stop-color:#45DBE9"/>
			<stop  offset="0.3358" style="stop-color:#7DBED6"/>
			<stop  offset="0.4919" style="stop-color:#ACA6C7"/>
			<stop  offset="0.64" style="stop-color:#D093BB"/>
			<stop  offset="0.7779" style="stop-color:#EA86B3"/>
			<stop  offset="0.9019" style="stop-color:#FA7EAE"/>
			<stop  offset="1" style="stop-color:#FF7BAC"/>
		</linearGradient>
		<path class="st26" d="M1,736.5h46.7v4.3l-31.6,22.8l-4.6,2.8h36.2v5.5H1v-4.3l33.6-23.9l3-1.8H1V736.5z"/>
	</g>
	<g>
		<linearGradient id="SVGID_17_" gradientUnits="userSpaceOnUse" x1="47.8368" y1="785.0041" x2="3.4505" y2="810.6306">
			<stop  offset="0" style="stop-color:#00FFFF"/>
			<stop  offset="7.134736e-03" style="stop-color:#03FDFE"/>
			<stop  offset="0.1728" style="stop-color:#45DBE9"/>
			<stop  offset="0.3358" style="stop-color:#7DBED6"/>
			<stop  offset="0.4919" style="stop-color:#ACA6C7"/>
			<stop  offset="0.64" style="stop-color:#D093BB"/>
			<stop  offset="0.7779" style="stop-color:#EA86B3"/>
			<stop  offset="0.9019" style="stop-color:#FA7EAE"/>
			<stop  offset="1" style="stop-color:#FF7BAC"/>
		</linearGradient>
		<path class="st27" d="M1,784.8h46.7v15.7c0,7.2-2.2,12.4-6.7,15.6c-4.5,3.2-9.9,4.8-16.4,4.8c-6.7,0-12.3-1.8-16.8-5.3
			C3.2,812.1,1,806.9,1,800V784.8z M43,800.7v-10.5H5.5v9.9c0,4.6,1.7,8.4,5,11.2c3.3,2.8,8,4.3,14,4.3c5.4,0,9.8-1.2,13.3-3.6
			C41.3,809.5,43,805.8,43,800.7z"/>
	</g>
	<g>
		<linearGradient id="SVGID_18_" gradientUnits="userSpaceOnUse" x1="47.8368" y1="858.8085" x2="3.4505" y2="884.435">
			<stop  offset="0" style="stop-color:#00FFFF"/>
			<stop  offset="7.134736e-03" style="stop-color:#03FDFE"/>
			<stop  offset="0.1728" style="stop-color:#45DBE9"/>
			<stop  offset="0.3358" style="stop-color:#7DBED6"/>
			<stop  offset="0.4919" style="stop-color:#ACA6C7"/>
			<stop  offset="0.64" style="stop-color:#D093BB"/>
			<stop  offset="0.7779" style="stop-color:#EA86B3"/>
			<stop  offset="0.9019" style="stop-color:#FA7EAE"/>
			<stop  offset="1" style="stop-color:#FF7BAC"/>
		</linearGradient>
		<path class="st28" d="M1,858.6h46.7v15.7c0,7.2-2.2,12.4-6.7,15.6c-4.5,3.2-9.9,4.8-16.4,4.8c-6.7,0-12.3-1.8-16.8-5.3
			c-4.5-3.6-6.8-8.7-6.8-15.6V858.6z M43,874.5V864H5.5v9.9c0,4.6,1.7,8.4,5,11.2c3.3,2.8,8,4.3,14,4.3c5.4,0,9.8-1.2,13.3-3.6
			C41.3,883.3,43,879.6,43,874.5z"/>
	</g>
	<g>
		<linearGradient id="SVGID_19_" gradientUnits="userSpaceOnUse" x1="47.4003" y1="905.8273" x2="0.1378" y2="933.1143">
			<stop  offset="0" style="stop-color:#00FFFF"/>
			<stop  offset="7.134736e-03" style="stop-color:#03FDFE"/>
			<stop  offset="0.1728" style="stop-color:#45DBE9"/>
			<stop  offset="0.3358" style="stop-color:#7DBED6"/>
			<stop  offset="0.4919" style="stop-color:#ACA6C7"/>
			<stop  offset="0.64" style="stop-color:#D093BB"/>
			<stop  offset="0.7779" style="stop-color:#EA86B3"/>
			<stop  offset="0.9019" style="stop-color:#FA7EAE"/>
			<stop  offset="1" style="stop-color:#FF7BAC"/>
		</linearGradient>
		<path class="st29" d="M1,906.4h46.7v25.6c-0.7,0.1-1.4,0.2-2.1,0.3c-0.7,0.1-1.4,0.2-2.1,0.3v-20.8H26.9v13.5
			c-0.7,0.1-1.4,0.2-2.1,0.3c-0.7,0.1-1.4,0.2-2.1,0.3v-14.1H5.2v22.1L1,934.5V906.4z"/>
	</g>
	<g>
		<linearGradient id="SVGID_20_" gradientUnits="userSpaceOnUse" x1="44.6157" y1="942.2202" x2="3.4721" y2="965.9744">
			<stop  offset="0" style="stop-color:#00FFFF"/>
			<stop  offset="7.134736e-03" style="stop-color:#03FDFE"/>
			<stop  offset="0.1728" style="stop-color:#45DBE9"/>
			<stop  offset="0.3358" style="stop-color:#7DBED6"/>
			<stop  offset="0.4919" style="stop-color:#ACA6C7"/>
			<stop  offset="0.64" style="stop-color:#D093BB"/>
			<stop  offset="0.7779" style="stop-color:#EA86B3"/>
			<stop  offset="0.9019" style="stop-color:#FA7EAE"/>
			<stop  offset="1" style="stop-color:#FF7BAC"/>
		</linearGradient>
		<path class="st30" d="M7.5,942c-0.6,1.2-1.2,2.9-1.9,5c-0.6,2.1-1,4.3-1,6.5c0,3.6,0.7,6.4,2.1,8.3c1.4,1.9,3.2,2.9,5.5,2.9
			c4.9,0,8.5-4.1,10.8-12.4c2.2-8.2,6.9-12.4,14-12.4c3.3,0,6.1,1.3,8.4,4c2.3,2.7,3.4,6.3,3.4,10.9c0,2.3-0.3,4.5-0.9,6.6
			c-0.6,2.1-1.3,3.9-2,5.3c-0.7-0.3-1.4-0.6-2.1-0.9c-0.7-0.3-1.4-0.6-2.1-1c0.6-1.2,1.1-2.5,1.6-4.1c0.5-1.5,0.8-3.4,0.8-5.7
			c0-2.9-0.6-5.3-1.8-7.1c-1.2-1.9-2.9-2.8-5.2-2.8c-5.1,0-8.8,4.1-11.1,12.4c-2.3,8.3-6.9,12.4-13.7,12.4c-3.6,0-6.5-1.4-8.8-4.3
			c-2.3-2.9-3.5-6.9-3.5-12.2c0-2,0.3-4.4,1-7.3c0.7-2.9,1.4-4.7,2.1-5.6c0.7,0.2,1.4,0.4,2.1,0.6C6,941.6,6.8,941.8,7.5,942z"/>
	</g>
	<g>
		<linearGradient id="SVGID_21_" gradientUnits="userSpaceOnUse" x1="43.0395" y1="972.2405" x2="5.6296" y2="993.8392">
			<stop  offset="0" style="stop-color:#00FFFF"/>
			<stop  offset="7.134736e-03" style="stop-color:#03FDFE"/>
			<stop  offset="0.1728" style="stop-color:#45DBE9"/>
			<stop  offset="0.3358" style="stop-color:#7DBED6"/>
			<stop  offset="0.4919" style="stop-color:#ACA6C7"/>
			<stop  offset="0.64" style="stop-color:#D093BB"/>
			<stop  offset="0.7779" style="stop-color:#EA86B3"/>
			<stop  offset="0.9019" style="stop-color:#FA7EAE"/>
			<stop  offset="1" style="stop-color:#FF7BAC"/>
		</linearGradient>
		<path class="st31" d="M1,980.3h46.7v5.4H1V980.3z"/>
	</g>
	<g>
		<linearGradient id="SVGID_22_" gradientUnits="userSpaceOnUse" x1="44.7684" y1="1006.6642" x2="2.3436" y2="1031.1582">
			<stop  offset="0" style="stop-color:#00FFFF"/>
			<stop  offset="7.134736e-03" style="stop-color:#03FDFE"/>
			<stop  offset="0.1728" style="stop-color:#45DBE9"/>
			<stop  offset="0.3358" style="stop-color:#7DBED6"/>
			<stop  offset="0.4919" style="stop-color:#ACA6C7"/>
			<stop  offset="0.64" style="stop-color:#D093BB"/>
			<stop  offset="0.7779" style="stop-color:#EA86B3"/>
			<stop  offset="0.9019" style="stop-color:#FA7EAE"/>
			<stop  offset="1" style="stop-color:#FF7BAC"/>
		</linearGradient>
		<path class="st32" d="M25,1017.5v15.1H4.3c-0.2,0-0.4,0-0.6,0c-0.2,0-0.4,0-0.5,0l-0.1,0.1c-0.9-1.4-1.6-3.4-2.2-6
			c-0.6-2.6-0.9-4.9-0.9-7.1c0-7.1,2.3-12.6,6.9-16.4c4.6-3.8,10.3-5.7,17.2-5.7c7.3,0,13.3,2.1,17.8,6.2c4.5,4.1,6.8,9.6,6.8,16.5
			c0,1.4-0.2,3.4-0.7,5.8c-0.4,2.5-1.1,4.4-2,5.9l-4-1.7c0.6-1.6,1.1-3,1.4-4.4c0.4-1.4,0.5-3.2,0.5-5.5c0-4.7-1.7-8.8-5.2-12.1
			c-3.4-3.3-8.3-5-14.7-5c-6,0-10.7,1.5-14.2,4.4c-3.5,2.9-5.2,6.9-5.2,11.9c0,1.6,0.1,3.1,0.4,4.4c0.3,1.3,0.6,2.5,0.9,3.6h14.8
			V1017c0.7,0,1.4,0.1,2.1,0.2C23.6,1017.3,24.3,1017.4,25,1017.5z"/>
	</g>
	<g>
		<linearGradient id="SVGID_23_" gradientUnits="userSpaceOnUse" x1="49.5286" y1="1047.7533" x2="-0.8594" y2="1076.8448">
			<stop  offset="0" style="stop-color:#00FFFF"/>
			<stop  offset="7.134736e-03" style="stop-color:#03FDFE"/>
			<stop  offset="0.1728" style="stop-color:#45DBE9"/>
			<stop  offset="0.3358" style="stop-color:#7DBED6"/>
			<stop  offset="0.4919" style="stop-color:#ACA6C7"/>
			<stop  offset="0.64" style="stop-color:#D093BB"/>
			<stop  offset="0.7779" style="stop-color:#EA86B3"/>
			<stop  offset="0.9019" style="stop-color:#FA7EAE"/>
			<stop  offset="1" style="stop-color:#FF7BAC"/>
		</linearGradient>
		<path class="st33" d="M1,1044.6h46.7v4.3l-31.6,22.8l-4.6,2.8h36.2v5.5H1v-4.3l33.6-23.9l3-1.8H1V1044.6z"/>
	</g>
</g>
<g id="Layer_1">
	<g>
		<pattern  id="SVGID_24_" xlink:href="#_x31_0_lpi_30_x25_" patternTransform="matrix(1.1565 0 0 1.1565 987.9532 940.9936)">
		</pattern>
		<path class="st34" d="M36.3,32.7c0.9-2.5,1.4-4.4,1.7-5.6c0.3-1.3,0.4-2.7,0.4-4.3c0-2.8-1.3-5.1-3.9-7c-2.6-1.9-6-2.8-10.3-2.8
			c-4.4,0-7.8,1-10.2,3c-2.4,2-3.6,4.4-3.6,7.4c0,1.7,0.2,3.3,0.7,4.8s1.1,2.9,1.8,4.1l-9.3,4.7c-1.1-1.8-1.9-4-2.5-6.6
			s-0.9-5-0.9-7.4c0-7.6,2.2-13.3,6.7-17.2C11.3,1.9,17.1,0,24.1,0c7.2,0,13.1,2,17.6,6.1c4.6,4.1,6.8,9.6,6.8,16.5
			c0,2.3-0.3,4.8-1,7.3c-0.7,2.5-1.6,4.7-2.9,6.5L36.3,32.7z"/>
	</g>
	<g>
		<pattern  id="SVGID_25_" xlink:href="#_x31_0_lpi_40_x25_" patternTransform="matrix(1.1565 0 0 1.1565 987.9532 940.9936)">
		</pattern>
		<path class="st35" d="M24.1,41.7c7.2,0,13.1,2,17.7,6.1c4.6,4.1,6.9,9.6,6.9,16.6c0,7.6-2.3,13.3-7,17.1c-4.7,3.8-10.4,5.7-17,5.7
			c-7.2,0-13.2-2-17.7-6C2.3,77.2,0,71.6,0,64.4c0-7.5,2.3-13.1,7-17C11.7,43.6,17.4,41.7,24.1,41.7z M24.2,54.5
			c-3.9,0-7.2,0.8-9.8,2.3c-2.6,1.5-3.9,4-3.9,7.6c0,3.2,1.2,5.7,3.5,7.4c2.4,1.7,5.9,2.6,10.6,2.6c3.9,0,7.1-0.8,9.7-2.3
			c2.6-1.5,3.9-4,3.9-7.5c0-3.1-1.3-5.6-3.8-7.4C31.8,55.4,28.4,54.5,24.2,54.5z"/>
	</g>
	<g>
		<pattern  id="SVGID_26_" xlink:href="#_x31_0_lpi_50_x25_" patternTransform="matrix(1.1565 0 0 1.1565 987.9532 940.9936)">
		</pattern>
		<path class="st36" d="M1,94.8h46.7v19.7c0,5.2-1.2,9.7-3.7,13.5c-2.5,3.8-6.6,5.7-12.2,5.7c-2.8,0-5.3-0.6-7.4-1.8
			c-2.1-1.2-3.7-2.7-5-4.6L1,137.7v-14.5l14.7-7.6v-8.3H1V94.8z M37.9,114v-6.7H25.5v6.9c0,1.9,0.6,3.5,1.8,4.7
			c1.2,1.2,2.7,1.9,4.5,1.9c2.1,0,3.6-0.6,4.6-1.8C37.4,117.8,37.9,116.1,37.9,114z"/>
	</g>
	<g>
		<pattern  id="SVGID_27_" xlink:href="#_x31_0_lpi_60_x25_" patternTransform="matrix(1.1565 0 0 1.1565 987.9532 940.9936)">
		</pattern>
		<path class="st37" d="M1,154.9h18.4l27.1-15.9l1.2,13l-16.8,9.1l16.8,9.7v12.9l-28.5-16.2H1V154.9z"/>
	</g>
	<g>
		<pattern  id="SVGID_28_" xlink:href="#_x31_0_lpi_60_x25_" patternTransform="matrix(1.1565 0 0 1.1565 987.9532 940.9936)">
		</pattern>
		<path class="st38" d="M1,213.9h36.9v-13.7h9.8v40l-9.8,1.2v-14.9H1V213.9z"/>
	</g>
	<g>
		<pattern  id="SVGID_29_" xlink:href="#_x31_0_lpi_70_x25_" patternTransform="matrix(1.1565 0 0 1.1565 987.9532 940.9936)">
		</pattern>
		<path class="st39" d="M1,246.8h46.7v12.5H1V246.8z"/>
	</g>
	<g>
		<pattern  id="SVGID_30_" xlink:href="#_x31_0_lpi_80_x25_" patternTransform="matrix(1.1565 0 0 1.1565 987.9532 940.9936)">
		</pattern>
		<path class="st40" d="M1,300.4h22.6l-8.5-6.3l-0.7-5l9.2-7.6H1V269h46.7v8.6l-17.8,14.1l17.8,12.9v8.3H1V300.4z"/>
	</g>
	<g>
		<pattern  id="SVGID_31_" xlink:href="#_x31_0_lpi_80_x25_" patternTransform="matrix(1.1565 0 0 1.1565 987.9532 940.9936)">
		</pattern>
		<path class="st41" d="M1,353.9h22.6l-8.5-6.3l-0.7-5l9.2-7.6H1v-12.5h46.7v8.6l-17.8,14.1l17.8,12.9v8.3H1V353.9z"/>
	</g>
	<g>
		<pattern  id="SVGID_32_" xlink:href="#_x31_0_lpi_90_x25_" patternTransform="matrix(1.1565 0 0 1.1565 987.9532 940.9936)">
		</pattern>
		<path class="st42" d="M24.1,374c7.2,0,13.1,2,17.7,6.1c4.6,4.1,6.9,9.6,6.9,16.6c0,7.6-2.3,13.3-7,17.1c-4.7,3.8-10.4,5.7-17,5.7
			c-7.2,0-13.2-2-17.7-6c-4.6-4-6.9-9.6-6.9-16.8c0-7.5,2.3-13.1,7-17C11.7,375.9,17.4,374,24.1,374z M24.2,386.9
			c-3.9,0-7.2,0.8-9.8,2.3c-2.6,1.5-3.9,4-3.9,7.6c0,3.2,1.2,5.7,3.5,7.4c2.4,1.7,5.9,2.6,10.6,2.6c3.9,0,7.1-0.8,9.7-2.3
			c2.6-1.5,3.9-4,3.9-7.5c0-3.1-1.3-5.6-3.8-7.4C31.8,387.8,28.4,386.9,24.2,386.9z"/>
	</g>
	<g>
		<pattern  id="SVGID_33_" xlink:href="#_x31_0_lpi_90_x25_" patternTransform="matrix(1.1565 0 0 1.1565 987.9532 940.9936)">
		</pattern>
		<path class="st43" d="M1,427.2h46.7v11.6l-25.4,18h25.4v12.5H1v-11.7l24.6-17.9H1V427.2z"/>
	</g>
	<g>
		<path d="M19.4,490.9c1.6-3.1,3.6-6.2,6.1-9.3c2.5-3.1,5.7-4.7,9.7-4.7c3.8,0,7,1.6,9.6,4.7c2.5,3.1,3.8,7.3,3.8,12.6
			c0,2.3-0.3,4.8-1,7.3c-0.7,2.5-1.6,4.7-2.9,6.5l-8.5-3.7c0.9-2.5,1.4-4.4,1.7-5.6c0.3-1.3,0.4-2.7,0.4-4.3c0-1.4-0.3-2.5-1-3.4
			c-0.7-0.8-1.4-1.2-2.3-1.2c-1,0-1.9,0.7-2.6,2.1c-0.8,1.4-1.6,3.1-2.6,5c-1.7,3.3-3.8,6.5-6.4,9.6c-2.6,3.1-5.8,4.6-9.6,4.6
			c-3.9,0-7.2-1.7-9.8-5c-2.6-3.3-3.9-7.9-3.9-13.6c0-2.4,0.4-5.1,1.1-8.1c0.7-3,1.6-5.4,2.7-7.3l9.4,4.1c-0.7,1.2-1.4,2.9-2,5.1
			c-0.6,2.2-0.9,4.1-0.9,5.8c0,2,0.4,3.5,1.2,4.5c0.8,1,1.6,1.5,2.5,1.5c0.8,0,1.7-0.8,2.7-2.3C17.6,494.4,18.5,492.7,19.4,490.9z"
			/>
	</g>
	<g>
		<path d="M33.7,519.9c0,1.7-0.6,3.2-1.8,4.4c-1.2,1.2-2.7,1.8-4.5,1.8c-1.8,0-3.3-0.6-4.5-1.8c-1.2-1.2-1.8-2.7-1.8-4.4
			c0-1.8,0.6-3.3,1.8-4.5c1.2-1.2,2.7-1.8,4.5-1.8c1.8,0,3.3,0.6,4.5,1.8C33.1,516.6,33.7,518.1,33.7,519.9z M13.5,519.9
			c0,1.7-0.6,3.2-1.8,4.4c-1.2,1.2-2.7,1.8-4.5,1.8s-3.3-0.6-4.5-1.8c-1.2-1.2-1.8-2.7-1.8-4.4c0-1.8,0.6-3.3,1.8-4.5
			c1.2-1.2,2.7-1.8,4.5-1.8s3.3,0.6,4.5,1.8C12.9,516.6,13.5,518.1,13.5,519.9z"/>
	</g>
	<g>
		<path d="M47.7,564.9L1.8,582.9L1,577.4l13.3-5.2v-19.7L1,547.7v-5.3l46.7,17.3V564.9z M40.5,562.2l-21.9-8.2v16.6L40.5,562.2z"/>
	</g>
	<g>
		<path d="M1,617.8L20.4,607c-0.1-0.8-0.2-1.6-0.2-2.4c0-0.8-0.1-1.6-0.1-2.5v-6.6H1v-5.4h46.7v12.7c0,4.9-1,9-3.1,12.3
			c-2.1,3.3-5.6,4.9-10.5,4.9c-3.2,0-5.7-0.8-7.7-2.4c-2-1.5-3.5-3.5-4.5-5.9L1,623.8V617.8z M43.1,602.9v-7.4H24.6v6.9
			c0,3.3,0.7,6.1,2,8.5c1.3,2.4,3.8,3.6,7.3,3.6c3.7,0,6.1-1.1,7.4-3.2C42.5,609.1,43.1,606.3,43.1,602.9z"/>
	</g>
	<g>
		<path d="M43.4,660.2v-15.1H1v-5.5h42.4V625h4.3v34.6L43.4,660.2z"/>
	</g>
	<g>
		<path d="M47.7,709.8L1.8,727.8L1,722.4l13.3-5.2v-19.7L1,692.6v-5.3l46.7,17.3V709.8z M40.5,707.2L18.6,699v16.6L40.5,707.2z"/>
	</g>
	<g>
		<path d="M1,736.5h46.7v4.3l-31.6,22.8l-4.6,2.8h36.2v5.5H1v-4.3l33.6-23.9l3-1.8H1V736.5z"/>
	</g>
	<g>
		<path d="M1,784.8h46.7v15.7c0,7.2-2.2,12.4-6.7,15.6c-4.5,3.2-9.9,4.8-16.4,4.8c-6.7,0-12.3-1.8-16.8-5.3C3.2,812.1,1,806.9,1,800
			V784.8z M43,800.7v-10.5H5.5v9.9c0,4.6,1.7,8.4,5,11.2c3.3,2.8,8,4.3,14,4.3c5.4,0,9.8-1.2,13.3-3.6C41.3,809.5,43,805.8,43,800.7
			z"/>
	</g>
	<g>
		<path d="M1,858.6h46.7v15.7c0,7.2-2.2,12.4-6.7,15.6c-4.5,3.2-9.9,4.8-16.4,4.8c-6.7,0-12.3-1.8-16.8-5.3
			c-4.5-3.6-6.8-8.7-6.8-15.6V858.6z M43,874.5V864H5.5v9.9c0,4.6,1.7,8.4,5,11.2c3.3,2.8,8,4.3,14,4.3c5.4,0,9.8-1.2,13.3-3.6
			C41.3,883.3,43,879.6,43,874.5z"/>
	</g>
	<g>
		<path d="M1,906.4h46.7v25.6c-0.7,0.1-1.4,0.2-2.1,0.3c-0.7,0.1-1.4,0.2-2.1,0.3v-20.8H26.9v13.5c-0.7,0.1-1.4,0.2-2.1,0.3
			c-0.7,0.1-1.4,0.2-2.1,0.3v-14.1H5.2v22.1L1,934.5V906.4z"/>
	</g>
	<g>
		<path d="M7.5,942c-0.6,1.2-1.2,2.9-1.9,5c-0.6,2.1-1,4.3-1,6.5c0,3.6,0.7,6.4,2.1,8.3c1.4,1.9,3.2,2.9,5.5,2.9
			c4.9,0,8.5-4.1,10.8-12.4c2.2-8.2,6.9-12.4,14-12.4c3.3,0,6.1,1.3,8.4,4c2.3,2.7,3.4,6.3,3.4,10.9c0,2.3-0.3,4.5-0.9,6.6
			c-0.6,2.1-1.3,3.9-2,5.3c-0.7-0.3-1.4-0.6-2.1-0.9c-0.7-0.3-1.4-0.6-2.1-1c0.6-1.2,1.1-2.5,1.6-4.1c0.5-1.5,0.8-3.4,0.8-5.7
			c0-2.9-0.6-5.3-1.8-7.1c-1.2-1.9-2.9-2.8-5.2-2.8c-5.1,0-8.8,4.1-11.1,12.4c-2.3,8.3-6.9,12.4-13.7,12.4c-3.6,0-6.5-1.4-8.8-4.3
			c-2.3-2.9-3.5-6.9-3.5-12.2c0-2,0.3-4.4,1-7.3c0.7-2.9,1.4-4.7,2.1-5.6c0.7,0.2,1.4,0.4,2.1,0.6C6,941.6,6.8,941.8,7.5,942z"/>
	</g>
	<g>
		<path d="M1,980.3h46.7v5.4H1V980.3z"/>
	</g>
	<g>
		<path d="M25,1017.5v15.1H4.3c-0.2,0-0.4,0-0.6,0c-0.2,0-0.4,0-0.5,0l-0.1,0.1c-0.9-1.4-1.6-3.4-2.2-6c-0.6-2.6-0.9-4.9-0.9-7.1
			c0-7.1,2.3-12.6,6.9-16.4c4.6-3.8,10.3-5.7,17.2-5.7c7.3,0,13.3,2.1,17.8,6.2c4.5,4.1,6.8,9.6,6.8,16.5c0,1.4-0.2,3.4-0.7,5.8
			c-0.4,2.5-1.1,4.4-2,5.9l-4-1.7c0.6-1.6,1.1-3,1.4-4.4c0.4-1.4,0.5-3.2,0.5-5.5c0-4.7-1.7-8.8-5.2-12.1c-3.4-3.3-8.3-5-14.7-5
			c-6,0-10.7,1.5-14.2,4.4c-3.5,2.9-5.2,6.9-5.2,11.9c0,1.6,0.1,3.1,0.4,4.4c0.3,1.3,0.6,2.5,0.9,3.6h14.8V1017
			c0.7,0,1.4,0.1,2.1,0.2C23.6,1017.3,24.3,1017.4,25,1017.5z"/>
	</g>
	<g>
		<path d="M1,1044.6h46.7v4.3l-31.6,22.8l-4.6,2.8h36.2v5.5H1v-4.3l33.6-23.9l3-1.8H1V1044.6z"/>
	</g>
</g>
</svg>
